G04 #@! TF.GenerationSoftware,KiCad,Pcbnew,(5.1.4)-1*
G04 #@! TF.CreationDate,2021-06-15T15:34:46+02:00*
G04 #@! TF.ProjectId,IOT SMART SWITCH,494f5420-534d-4415-9254-205357495443,1.0*
G04 #@! TF.SameCoordinates,Original*
G04 #@! TF.FileFunction,Soldermask,Top*
G04 #@! TF.FilePolarity,Negative*
%FSLAX46Y46*%
G04 Gerber Fmt 4.6, Leading zero omitted, Abs format (unit mm)*
G04 Created by KiCad (PCBNEW (5.1.4)-1) date 2021-06-15 15:34:46*
%MOMM*%
%LPD*%
G04 APERTURE LIST*
%ADD10C,0.100000*%
G04 APERTURE END LIST*
D10*
G36*
X202575604Y-121125347D02*
G01*
X202612144Y-121136432D01*
X202645821Y-121154433D01*
X202675341Y-121178659D01*
X202699567Y-121208179D01*
X202717568Y-121241856D01*
X202728653Y-121278396D01*
X202733000Y-121322538D01*
X202733000Y-122771462D01*
X202728653Y-122815604D01*
X202717568Y-122852144D01*
X202699567Y-122885821D01*
X202675341Y-122915341D01*
X202645821Y-122939567D01*
X202612144Y-122957568D01*
X202575604Y-122968653D01*
X202531462Y-122973000D01*
X201582538Y-122973000D01*
X201538396Y-122968653D01*
X201501856Y-122957568D01*
X201468179Y-122939567D01*
X201438659Y-122915341D01*
X201414433Y-122885821D01*
X201396432Y-122852144D01*
X201385347Y-122815604D01*
X201381000Y-122771462D01*
X201381000Y-121322538D01*
X201385347Y-121278396D01*
X201396432Y-121241856D01*
X201414433Y-121208179D01*
X201438659Y-121178659D01*
X201468179Y-121154433D01*
X201501856Y-121136432D01*
X201538396Y-121125347D01*
X201582538Y-121121000D01*
X202531462Y-121121000D01*
X202575604Y-121125347D01*
X202575604Y-121125347D01*
G37*
G36*
X199775604Y-121125347D02*
G01*
X199812144Y-121136432D01*
X199845821Y-121154433D01*
X199875341Y-121178659D01*
X199899567Y-121208179D01*
X199917568Y-121241856D01*
X199928653Y-121278396D01*
X199933000Y-121322538D01*
X199933000Y-122771462D01*
X199928653Y-122815604D01*
X199917568Y-122852144D01*
X199899567Y-122885821D01*
X199875341Y-122915341D01*
X199845821Y-122939567D01*
X199812144Y-122957568D01*
X199775604Y-122968653D01*
X199731462Y-122973000D01*
X198782538Y-122973000D01*
X198738396Y-122968653D01*
X198701856Y-122957568D01*
X198668179Y-122939567D01*
X198638659Y-122915341D01*
X198614433Y-122885821D01*
X198596432Y-122852144D01*
X198585347Y-122815604D01*
X198581000Y-122771462D01*
X198581000Y-121322538D01*
X198585347Y-121278396D01*
X198596432Y-121241856D01*
X198614433Y-121208179D01*
X198638659Y-121178659D01*
X198668179Y-121154433D01*
X198701856Y-121136432D01*
X198738396Y-121125347D01*
X198782538Y-121121000D01*
X199731462Y-121121000D01*
X199775604Y-121125347D01*
X199775604Y-121125347D01*
G37*
G36*
X148913647Y-118379004D02*
G01*
X149103097Y-118457477D01*
X149103098Y-118457478D01*
X149273599Y-118571402D01*
X149418598Y-118716401D01*
X149486719Y-118818352D01*
X149532523Y-118886903D01*
X149610996Y-119076353D01*
X149651000Y-119277469D01*
X149651000Y-119482531D01*
X149610996Y-119683647D01*
X149532523Y-119873097D01*
X149532522Y-119873098D01*
X149418598Y-120043599D01*
X149273599Y-120188598D01*
X149159674Y-120264719D01*
X149103097Y-120302523D01*
X148913647Y-120380996D01*
X148712531Y-120421000D01*
X148507469Y-120421000D01*
X148306353Y-120380996D01*
X148116903Y-120302523D01*
X148060326Y-120264719D01*
X147946401Y-120188598D01*
X147801402Y-120043599D01*
X147687478Y-119873098D01*
X147687477Y-119873097D01*
X147609004Y-119683647D01*
X147569000Y-119482531D01*
X147569000Y-119277469D01*
X147609004Y-119076353D01*
X147687477Y-118886903D01*
X147733281Y-118818352D01*
X147801402Y-118716401D01*
X147946401Y-118571402D01*
X148116902Y-118457478D01*
X148116903Y-118457477D01*
X148306353Y-118379004D01*
X148507469Y-118339000D01*
X148712531Y-118339000D01*
X148913647Y-118379004D01*
X148913647Y-118379004D01*
G37*
G36*
X146363647Y-118379004D02*
G01*
X146553097Y-118457477D01*
X146553098Y-118457478D01*
X146723599Y-118571402D01*
X146868598Y-118716401D01*
X146936719Y-118818352D01*
X146982523Y-118886903D01*
X147060996Y-119076353D01*
X147101000Y-119277469D01*
X147101000Y-119482531D01*
X147060996Y-119683647D01*
X146982523Y-119873097D01*
X146982522Y-119873098D01*
X146868598Y-120043599D01*
X146723599Y-120188598D01*
X146609674Y-120264719D01*
X146553097Y-120302523D01*
X146363647Y-120380996D01*
X146162531Y-120421000D01*
X145957469Y-120421000D01*
X145756353Y-120380996D01*
X145566903Y-120302523D01*
X145510326Y-120264719D01*
X145396401Y-120188598D01*
X145251402Y-120043599D01*
X145137478Y-119873098D01*
X145137477Y-119873097D01*
X145059004Y-119683647D01*
X145019000Y-119482531D01*
X145019000Y-119277469D01*
X145059004Y-119076353D01*
X145137477Y-118886903D01*
X145183281Y-118818352D01*
X145251402Y-118716401D01*
X145396401Y-118571402D01*
X145566902Y-118457478D01*
X145566903Y-118457477D01*
X145756353Y-118379004D01*
X145957469Y-118339000D01*
X146162531Y-118339000D01*
X146363647Y-118379004D01*
X146363647Y-118379004D01*
G37*
G36*
X144551000Y-120421000D02*
G01*
X142469000Y-120421000D01*
X142469000Y-118339000D01*
X144551000Y-118339000D01*
X144551000Y-120421000D01*
X144551000Y-120421000D01*
G37*
G36*
X172218604Y-118838347D02*
G01*
X172255144Y-118849432D01*
X172288821Y-118867433D01*
X172318341Y-118891659D01*
X172342567Y-118921179D01*
X172360568Y-118954856D01*
X172371653Y-118991396D01*
X172376000Y-119035538D01*
X172376000Y-119984462D01*
X172371653Y-120028604D01*
X172360568Y-120065144D01*
X172342567Y-120098821D01*
X172318341Y-120128341D01*
X172288821Y-120152567D01*
X172255144Y-120170568D01*
X172218604Y-120181653D01*
X172174462Y-120186000D01*
X170725538Y-120186000D01*
X170681396Y-120181653D01*
X170644856Y-120170568D01*
X170611179Y-120152567D01*
X170581659Y-120128341D01*
X170557433Y-120098821D01*
X170539432Y-120065144D01*
X170528347Y-120028604D01*
X170524000Y-119984462D01*
X170524000Y-119035538D01*
X170528347Y-118991396D01*
X170539432Y-118954856D01*
X170557433Y-118921179D01*
X170581659Y-118891659D01*
X170611179Y-118867433D01*
X170644856Y-118849432D01*
X170681396Y-118838347D01*
X170725538Y-118834000D01*
X172174462Y-118834000D01*
X172218604Y-118838347D01*
X172218604Y-118838347D01*
G37*
G36*
X179838604Y-118708347D02*
G01*
X179875144Y-118719432D01*
X179908821Y-118737433D01*
X179938341Y-118761659D01*
X179962567Y-118791179D01*
X179980568Y-118824856D01*
X179991653Y-118861396D01*
X179996000Y-118905538D01*
X179996000Y-119854462D01*
X179991653Y-119898604D01*
X179980568Y-119935144D01*
X179962567Y-119968821D01*
X179938341Y-119998341D01*
X179908821Y-120022567D01*
X179875144Y-120040568D01*
X179838604Y-120051653D01*
X179794462Y-120056000D01*
X178345538Y-120056000D01*
X178301396Y-120051653D01*
X178264856Y-120040568D01*
X178231179Y-120022567D01*
X178201659Y-119998341D01*
X178177433Y-119968821D01*
X178159432Y-119935144D01*
X178148347Y-119898604D01*
X178144000Y-119854462D01*
X178144000Y-118905538D01*
X178148347Y-118861396D01*
X178159432Y-118824856D01*
X178177433Y-118791179D01*
X178201659Y-118761659D01*
X178231179Y-118737433D01*
X178264856Y-118719432D01*
X178301396Y-118708347D01*
X178345538Y-118704000D01*
X179794462Y-118704000D01*
X179838604Y-118708347D01*
X179838604Y-118708347D01*
G37*
G36*
X120973651Y-116482888D02*
G01*
X121284870Y-116577296D01*
X121571680Y-116730599D01*
X121571683Y-116730601D01*
X121571684Y-116730602D01*
X121823082Y-116936918D01*
X122025856Y-117184000D01*
X122029401Y-117188320D01*
X122182704Y-117475130D01*
X122277112Y-117786349D01*
X122308988Y-118110000D01*
X122277112Y-118433651D01*
X122182704Y-118744870D01*
X122029401Y-119031680D01*
X122029399Y-119031683D01*
X122029398Y-119031684D01*
X121823082Y-119283082D01*
X121571684Y-119489398D01*
X121571680Y-119489401D01*
X121284870Y-119642704D01*
X120973651Y-119737112D01*
X120731107Y-119761000D01*
X120568893Y-119761000D01*
X120326349Y-119737112D01*
X120015130Y-119642704D01*
X119728320Y-119489401D01*
X119728316Y-119489398D01*
X119476918Y-119283082D01*
X119270602Y-119031684D01*
X119270601Y-119031683D01*
X119270599Y-119031680D01*
X119117296Y-118744870D01*
X119022888Y-118433651D01*
X118991012Y-118110000D01*
X119022888Y-117786349D01*
X119117296Y-117475130D01*
X119270599Y-117188320D01*
X119274144Y-117184000D01*
X119476918Y-116936918D01*
X119728316Y-116730602D01*
X119728317Y-116730601D01*
X119728320Y-116730599D01*
X120015130Y-116577296D01*
X120326349Y-116482888D01*
X120568893Y-116459000D01*
X120731107Y-116459000D01*
X120973651Y-116482888D01*
X120973651Y-116482888D01*
G37*
G36*
X107061000Y-119761000D02*
G01*
X103759000Y-119761000D01*
X103759000Y-116459000D01*
X107061000Y-116459000D01*
X107061000Y-119761000D01*
X107061000Y-119761000D01*
G37*
G36*
X99441000Y-119761000D02*
G01*
X96139000Y-119761000D01*
X96139000Y-116459000D01*
X99441000Y-116459000D01*
X99441000Y-119761000D01*
X99441000Y-119761000D01*
G37*
G36*
X82873651Y-116482888D02*
G01*
X83184870Y-116577296D01*
X83471680Y-116730599D01*
X83471683Y-116730601D01*
X83471684Y-116730602D01*
X83723082Y-116936918D01*
X83925856Y-117184000D01*
X83929401Y-117188320D01*
X84082704Y-117475130D01*
X84177112Y-117786349D01*
X84208988Y-118110000D01*
X84177112Y-118433651D01*
X84082704Y-118744870D01*
X83929401Y-119031680D01*
X83929399Y-119031683D01*
X83929398Y-119031684D01*
X83723082Y-119283082D01*
X83471684Y-119489398D01*
X83471680Y-119489401D01*
X83184870Y-119642704D01*
X82873651Y-119737112D01*
X82631107Y-119761000D01*
X82468893Y-119761000D01*
X82226349Y-119737112D01*
X81915130Y-119642704D01*
X81628320Y-119489401D01*
X81628316Y-119489398D01*
X81376918Y-119283082D01*
X81170602Y-119031684D01*
X81170601Y-119031683D01*
X81170599Y-119031680D01*
X81017296Y-118744870D01*
X80922888Y-118433651D01*
X80891012Y-118110000D01*
X80922888Y-117786349D01*
X81017296Y-117475130D01*
X81170599Y-117188320D01*
X81174144Y-117184000D01*
X81376918Y-116936918D01*
X81628316Y-116730602D01*
X81628317Y-116730601D01*
X81628320Y-116730599D01*
X81915130Y-116577296D01*
X82226349Y-116482888D01*
X82468893Y-116459000D01*
X82631107Y-116459000D01*
X82873651Y-116482888D01*
X82873651Y-116482888D01*
G37*
G36*
X187641000Y-119061000D02*
G01*
X185739000Y-119061000D01*
X185739000Y-117159000D01*
X187641000Y-117159000D01*
X187641000Y-119061000D01*
X187641000Y-119061000D01*
G37*
G36*
X189507395Y-117195546D02*
G01*
X189680466Y-117267234D01*
X189757818Y-117318919D01*
X189836227Y-117371310D01*
X189968690Y-117503773D01*
X190011284Y-117567520D01*
X190072766Y-117659534D01*
X190144454Y-117832605D01*
X190181000Y-118016333D01*
X190181000Y-118203667D01*
X190144454Y-118387395D01*
X190072766Y-118560466D01*
X190072765Y-118560467D01*
X189968690Y-118716227D01*
X189836227Y-118848690D01*
X189813092Y-118864148D01*
X189680466Y-118952766D01*
X189507395Y-119024454D01*
X189323667Y-119061000D01*
X189136333Y-119061000D01*
X188952605Y-119024454D01*
X188779534Y-118952766D01*
X188646908Y-118864148D01*
X188623773Y-118848690D01*
X188491310Y-118716227D01*
X188387235Y-118560467D01*
X188387234Y-118560466D01*
X188315546Y-118387395D01*
X188279000Y-118203667D01*
X188279000Y-118016333D01*
X188315546Y-117832605D01*
X188387234Y-117659534D01*
X188448716Y-117567520D01*
X188491310Y-117503773D01*
X188623773Y-117371310D01*
X188702182Y-117318919D01*
X188779534Y-117267234D01*
X188952605Y-117195546D01*
X189136333Y-117159000D01*
X189323667Y-117159000D01*
X189507395Y-117195546D01*
X189507395Y-117195546D01*
G37*
G36*
X210322604Y-117188347D02*
G01*
X210359144Y-117199432D01*
X210392821Y-117217433D01*
X210422341Y-117241659D01*
X210446567Y-117271179D01*
X210464568Y-117304856D01*
X210475653Y-117341396D01*
X210480000Y-117385538D01*
X210480000Y-118834462D01*
X210475653Y-118878604D01*
X210464568Y-118915144D01*
X210446567Y-118948821D01*
X210422341Y-118978341D01*
X210392821Y-119002567D01*
X210359144Y-119020568D01*
X210322604Y-119031653D01*
X210278462Y-119036000D01*
X209329538Y-119036000D01*
X209285396Y-119031653D01*
X209248856Y-119020568D01*
X209215179Y-119002567D01*
X209185659Y-118978341D01*
X209161433Y-118948821D01*
X209143432Y-118915144D01*
X209132347Y-118878604D01*
X209128000Y-118834462D01*
X209128000Y-117385538D01*
X209132347Y-117341396D01*
X209143432Y-117304856D01*
X209161433Y-117271179D01*
X209185659Y-117241659D01*
X209215179Y-117217433D01*
X209248856Y-117199432D01*
X209285396Y-117188347D01*
X209329538Y-117184000D01*
X210278462Y-117184000D01*
X210322604Y-117188347D01*
X210322604Y-117188347D01*
G37*
G36*
X207522604Y-117188347D02*
G01*
X207559144Y-117199432D01*
X207592821Y-117217433D01*
X207622341Y-117241659D01*
X207646567Y-117271179D01*
X207664568Y-117304856D01*
X207675653Y-117341396D01*
X207680000Y-117385538D01*
X207680000Y-118834462D01*
X207675653Y-118878604D01*
X207664568Y-118915144D01*
X207646567Y-118948821D01*
X207622341Y-118978341D01*
X207592821Y-119002567D01*
X207559144Y-119020568D01*
X207522604Y-119031653D01*
X207478462Y-119036000D01*
X206529538Y-119036000D01*
X206485396Y-119031653D01*
X206448856Y-119020568D01*
X206415179Y-119002567D01*
X206385659Y-118978341D01*
X206361433Y-118948821D01*
X206343432Y-118915144D01*
X206332347Y-118878604D01*
X206328000Y-118834462D01*
X206328000Y-117385538D01*
X206332347Y-117341396D01*
X206343432Y-117304856D01*
X206361433Y-117271179D01*
X206385659Y-117241659D01*
X206415179Y-117217433D01*
X206448856Y-117199432D01*
X206485396Y-117188347D01*
X206529538Y-117184000D01*
X207478462Y-117184000D01*
X207522604Y-117188347D01*
X207522604Y-117188347D01*
G37*
G36*
X199778604Y-117188347D02*
G01*
X199815144Y-117199432D01*
X199848821Y-117217433D01*
X199878341Y-117241659D01*
X199902567Y-117271179D01*
X199920568Y-117304856D01*
X199931653Y-117341396D01*
X199936000Y-117385538D01*
X199936000Y-118834462D01*
X199931653Y-118878604D01*
X199920568Y-118915144D01*
X199902567Y-118948821D01*
X199878341Y-118978341D01*
X199848821Y-119002567D01*
X199815144Y-119020568D01*
X199778604Y-119031653D01*
X199734462Y-119036000D01*
X198785538Y-119036000D01*
X198741396Y-119031653D01*
X198704856Y-119020568D01*
X198671179Y-119002567D01*
X198641659Y-118978341D01*
X198617433Y-118948821D01*
X198599432Y-118915144D01*
X198588347Y-118878604D01*
X198584000Y-118834462D01*
X198584000Y-117385538D01*
X198588347Y-117341396D01*
X198599432Y-117304856D01*
X198617433Y-117271179D01*
X198641659Y-117241659D01*
X198671179Y-117217433D01*
X198704856Y-117199432D01*
X198741396Y-117188347D01*
X198785538Y-117184000D01*
X199734462Y-117184000D01*
X199778604Y-117188347D01*
X199778604Y-117188347D01*
G37*
G36*
X202578604Y-117188347D02*
G01*
X202615144Y-117199432D01*
X202648821Y-117217433D01*
X202678341Y-117241659D01*
X202702567Y-117271179D01*
X202720568Y-117304856D01*
X202731653Y-117341396D01*
X202736000Y-117385538D01*
X202736000Y-118834462D01*
X202731653Y-118878604D01*
X202720568Y-118915144D01*
X202702567Y-118948821D01*
X202678341Y-118978341D01*
X202648821Y-119002567D01*
X202615144Y-119020568D01*
X202578604Y-119031653D01*
X202534462Y-119036000D01*
X201585538Y-119036000D01*
X201541396Y-119031653D01*
X201504856Y-119020568D01*
X201471179Y-119002567D01*
X201441659Y-118978341D01*
X201417433Y-118948821D01*
X201399432Y-118915144D01*
X201388347Y-118878604D01*
X201384000Y-118834462D01*
X201384000Y-117385538D01*
X201388347Y-117341396D01*
X201399432Y-117304856D01*
X201417433Y-117271179D01*
X201441659Y-117241659D01*
X201471179Y-117217433D01*
X201504856Y-117199432D01*
X201541396Y-117188347D01*
X201585538Y-117184000D01*
X202534462Y-117184000D01*
X202578604Y-117188347D01*
X202578604Y-117188347D01*
G37*
G36*
X129748228Y-117291703D02*
G01*
X129903100Y-117355853D01*
X130042481Y-117448985D01*
X130161015Y-117567519D01*
X130254147Y-117706900D01*
X130318297Y-117861772D01*
X130351000Y-118026184D01*
X130351000Y-118193816D01*
X130318297Y-118358228D01*
X130254147Y-118513100D01*
X130161015Y-118652481D01*
X130042481Y-118771015D01*
X129903100Y-118864147D01*
X129748228Y-118928297D01*
X129583816Y-118961000D01*
X129416184Y-118961000D01*
X129251772Y-118928297D01*
X129096900Y-118864147D01*
X128957519Y-118771015D01*
X128838985Y-118652481D01*
X128745853Y-118513100D01*
X128681703Y-118358228D01*
X128649000Y-118193816D01*
X128649000Y-118026184D01*
X128681703Y-117861772D01*
X128745853Y-117706900D01*
X128838985Y-117567519D01*
X128957519Y-117448985D01*
X129096900Y-117355853D01*
X129251772Y-117291703D01*
X129416184Y-117259000D01*
X129583816Y-117259000D01*
X129748228Y-117291703D01*
X129748228Y-117291703D01*
G37*
G36*
X127851000Y-118961000D02*
G01*
X126149000Y-118961000D01*
X126149000Y-117259000D01*
X127851000Y-117259000D01*
X127851000Y-118961000D01*
X127851000Y-118961000D01*
G37*
G36*
X172218604Y-116038347D02*
G01*
X172255144Y-116049432D01*
X172288821Y-116067433D01*
X172318341Y-116091659D01*
X172342567Y-116121179D01*
X172360568Y-116154856D01*
X172371653Y-116191396D01*
X172376000Y-116235538D01*
X172376000Y-117184462D01*
X172371653Y-117228604D01*
X172360568Y-117265144D01*
X172342567Y-117298821D01*
X172318341Y-117328341D01*
X172288821Y-117352567D01*
X172255144Y-117370568D01*
X172218604Y-117381653D01*
X172174462Y-117386000D01*
X170725538Y-117386000D01*
X170681396Y-117381653D01*
X170644856Y-117370568D01*
X170611179Y-117352567D01*
X170581659Y-117328341D01*
X170557433Y-117298821D01*
X170539432Y-117265144D01*
X170528347Y-117228604D01*
X170524000Y-117184462D01*
X170524000Y-116235538D01*
X170528347Y-116191396D01*
X170539432Y-116154856D01*
X170557433Y-116121179D01*
X170581659Y-116091659D01*
X170611179Y-116067433D01*
X170644856Y-116049432D01*
X170681396Y-116038347D01*
X170725538Y-116034000D01*
X172174462Y-116034000D01*
X172218604Y-116038347D01*
X172218604Y-116038347D01*
G37*
G36*
X179838604Y-115908347D02*
G01*
X179875144Y-115919432D01*
X179908821Y-115937433D01*
X179938341Y-115961659D01*
X179962567Y-115991179D01*
X179980568Y-116024856D01*
X179991653Y-116061396D01*
X179996000Y-116105538D01*
X179996000Y-117054462D01*
X179991653Y-117098604D01*
X179980568Y-117135144D01*
X179962567Y-117168821D01*
X179938341Y-117198341D01*
X179908821Y-117222567D01*
X179875144Y-117240568D01*
X179838604Y-117251653D01*
X179794462Y-117256000D01*
X178345538Y-117256000D01*
X178301396Y-117251653D01*
X178264856Y-117240568D01*
X178231179Y-117222567D01*
X178201659Y-117198341D01*
X178177433Y-117168821D01*
X178159432Y-117135144D01*
X178148347Y-117098604D01*
X178144000Y-117054462D01*
X178144000Y-116105538D01*
X178148347Y-116061396D01*
X178159432Y-116024856D01*
X178177433Y-115991179D01*
X178201659Y-115961659D01*
X178231179Y-115937433D01*
X178264856Y-115919432D01*
X178301396Y-115908347D01*
X178345538Y-115904000D01*
X179794462Y-115904000D01*
X179838604Y-115908347D01*
X179838604Y-115908347D01*
G37*
G36*
X138678228Y-112941703D02*
G01*
X138833100Y-113005853D01*
X138972481Y-113098985D01*
X139091015Y-113217519D01*
X139184147Y-113356900D01*
X139248297Y-113511772D01*
X139281000Y-113676184D01*
X139281000Y-113843816D01*
X139248297Y-114008228D01*
X139184147Y-114163100D01*
X139091015Y-114302481D01*
X138972481Y-114421015D01*
X138833100Y-114514147D01*
X138678228Y-114578297D01*
X138513816Y-114611000D01*
X138346184Y-114611000D01*
X138181772Y-114578297D01*
X138026900Y-114514147D01*
X137887519Y-114421015D01*
X137768985Y-114302481D01*
X137675853Y-114163100D01*
X137611703Y-114008228D01*
X137579000Y-113843816D01*
X137579000Y-113676184D01*
X137611703Y-113511772D01*
X137675853Y-113356900D01*
X137768985Y-113217519D01*
X137887519Y-113098985D01*
X138026900Y-113005853D01*
X138181772Y-112941703D01*
X138346184Y-112909000D01*
X138513816Y-112909000D01*
X138678228Y-112941703D01*
X138678228Y-112941703D01*
G37*
G36*
X166078228Y-112211703D02*
G01*
X166233100Y-112275853D01*
X166372481Y-112368985D01*
X166491015Y-112487519D01*
X166584147Y-112626900D01*
X166648297Y-112781772D01*
X166681000Y-112946184D01*
X166681000Y-113113816D01*
X166648297Y-113278228D01*
X166584147Y-113433100D01*
X166491015Y-113572481D01*
X166372481Y-113691015D01*
X166233100Y-113784147D01*
X166078228Y-113848297D01*
X165913816Y-113881000D01*
X165746184Y-113881000D01*
X165581772Y-113848297D01*
X165426900Y-113784147D01*
X165287519Y-113691015D01*
X165168985Y-113572481D01*
X165075853Y-113433100D01*
X165011703Y-113278228D01*
X164979000Y-113113816D01*
X164979000Y-112946184D01*
X165011703Y-112781772D01*
X165075853Y-112626900D01*
X165168985Y-112487519D01*
X165287519Y-112368985D01*
X165426900Y-112275853D01*
X165581772Y-112211703D01*
X165746184Y-112179000D01*
X165913816Y-112179000D01*
X166078228Y-112211703D01*
X166078228Y-112211703D01*
G37*
G36*
X164681000Y-113881000D02*
G01*
X162979000Y-113881000D01*
X162979000Y-112179000D01*
X164681000Y-112179000D01*
X164681000Y-113881000D01*
X164681000Y-113881000D01*
G37*
G36*
X158998228Y-112211703D02*
G01*
X159153100Y-112275853D01*
X159292481Y-112368985D01*
X159411015Y-112487519D01*
X159504147Y-112626900D01*
X159568297Y-112781772D01*
X159601000Y-112946184D01*
X159601000Y-113113816D01*
X159568297Y-113278228D01*
X159504147Y-113433100D01*
X159411015Y-113572481D01*
X159292481Y-113691015D01*
X159153100Y-113784147D01*
X158998228Y-113848297D01*
X158833816Y-113881000D01*
X158666184Y-113881000D01*
X158501772Y-113848297D01*
X158346900Y-113784147D01*
X158207519Y-113691015D01*
X158088985Y-113572481D01*
X157995853Y-113433100D01*
X157931703Y-113278228D01*
X157899000Y-113113816D01*
X157899000Y-112946184D01*
X157931703Y-112781772D01*
X157995853Y-112626900D01*
X158088985Y-112487519D01*
X158207519Y-112368985D01*
X158346900Y-112275853D01*
X158501772Y-112211703D01*
X158666184Y-112179000D01*
X158833816Y-112179000D01*
X158998228Y-112211703D01*
X158998228Y-112211703D01*
G37*
G36*
X157601000Y-113881000D02*
G01*
X155899000Y-113881000D01*
X155899000Y-112179000D01*
X157601000Y-112179000D01*
X157601000Y-113881000D01*
X157601000Y-113881000D01*
G37*
G36*
X139281000Y-112611000D02*
G01*
X137579000Y-112611000D01*
X137579000Y-110909000D01*
X139281000Y-110909000D01*
X139281000Y-112611000D01*
X139281000Y-112611000D01*
G37*
G36*
X202207395Y-109575546D02*
G01*
X202380466Y-109647234D01*
X202457818Y-109698919D01*
X202536227Y-109751310D01*
X202668690Y-109883773D01*
X202668691Y-109883775D01*
X202772766Y-110039534D01*
X202844454Y-110212605D01*
X202881000Y-110396333D01*
X202881000Y-110583667D01*
X202844454Y-110767395D01*
X202772766Y-110940466D01*
X202772765Y-110940467D01*
X202668690Y-111096227D01*
X202536227Y-111228690D01*
X202521783Y-111238341D01*
X202380466Y-111332766D01*
X202207395Y-111404454D01*
X202023667Y-111441000D01*
X201836333Y-111441000D01*
X201652605Y-111404454D01*
X201479534Y-111332766D01*
X201338217Y-111238341D01*
X201323773Y-111228690D01*
X201191310Y-111096227D01*
X201087235Y-110940467D01*
X201087234Y-110940466D01*
X201015546Y-110767395D01*
X200979000Y-110583667D01*
X200979000Y-110396333D01*
X201015546Y-110212605D01*
X201087234Y-110039534D01*
X201191309Y-109883775D01*
X201191310Y-109883773D01*
X201323773Y-109751310D01*
X201402182Y-109698919D01*
X201479534Y-109647234D01*
X201652605Y-109575546D01*
X201836333Y-109539000D01*
X202023667Y-109539000D01*
X202207395Y-109575546D01*
X202207395Y-109575546D01*
G37*
G36*
X200341000Y-111441000D02*
G01*
X198439000Y-111441000D01*
X198439000Y-109539000D01*
X200341000Y-109539000D01*
X200341000Y-111441000D01*
X200341000Y-111441000D01*
G37*
G36*
X179838604Y-110078347D02*
G01*
X179875144Y-110089432D01*
X179908821Y-110107433D01*
X179938341Y-110131659D01*
X179962567Y-110161179D01*
X179980568Y-110194856D01*
X179991653Y-110231396D01*
X179996000Y-110275538D01*
X179996000Y-111224462D01*
X179991653Y-111268604D01*
X179980568Y-111305144D01*
X179962567Y-111338821D01*
X179938341Y-111368341D01*
X179908821Y-111392567D01*
X179875144Y-111410568D01*
X179838604Y-111421653D01*
X179794462Y-111426000D01*
X178345538Y-111426000D01*
X178301396Y-111421653D01*
X178264856Y-111410568D01*
X178231179Y-111392567D01*
X178201659Y-111368341D01*
X178177433Y-111338821D01*
X178159432Y-111305144D01*
X178148347Y-111268604D01*
X178144000Y-111224462D01*
X178144000Y-110275538D01*
X178148347Y-110231396D01*
X178159432Y-110194856D01*
X178177433Y-110161179D01*
X178201659Y-110131659D01*
X178231179Y-110107433D01*
X178264856Y-110089432D01*
X178301396Y-110078347D01*
X178345538Y-110074000D01*
X179794462Y-110074000D01*
X179838604Y-110078347D01*
X179838604Y-110078347D01*
G37*
G36*
X172218604Y-109948347D02*
G01*
X172255144Y-109959432D01*
X172288821Y-109977433D01*
X172318341Y-110001659D01*
X172342567Y-110031179D01*
X172360568Y-110064856D01*
X172371653Y-110101396D01*
X172376000Y-110145538D01*
X172376000Y-111094462D01*
X172371653Y-111138604D01*
X172360568Y-111175144D01*
X172342567Y-111208821D01*
X172318341Y-111238341D01*
X172288821Y-111262567D01*
X172255144Y-111280568D01*
X172218604Y-111291653D01*
X172174462Y-111296000D01*
X170725538Y-111296000D01*
X170681396Y-111291653D01*
X170644856Y-111280568D01*
X170611179Y-111262567D01*
X170581659Y-111238341D01*
X170557433Y-111208821D01*
X170539432Y-111175144D01*
X170528347Y-111138604D01*
X170524000Y-111094462D01*
X170524000Y-110145538D01*
X170528347Y-110101396D01*
X170539432Y-110064856D01*
X170557433Y-110031179D01*
X170581659Y-110001659D01*
X170611179Y-109977433D01*
X170644856Y-109959432D01*
X170681396Y-109948347D01*
X170725538Y-109944000D01*
X172174462Y-109944000D01*
X172218604Y-109948347D01*
X172218604Y-109948347D01*
G37*
G36*
X98113651Y-107592888D02*
G01*
X98424870Y-107687296D01*
X98711680Y-107840599D01*
X98711683Y-107840601D01*
X98711684Y-107840602D01*
X98963082Y-108046918D01*
X99145339Y-108269000D01*
X99169401Y-108298320D01*
X99322704Y-108585130D01*
X99417112Y-108896349D01*
X99448988Y-109220000D01*
X99417112Y-109543651D01*
X99322704Y-109854870D01*
X99169401Y-110141680D01*
X99169399Y-110141683D01*
X99169398Y-110141684D01*
X98963082Y-110393082D01*
X98730852Y-110583667D01*
X98711680Y-110599401D01*
X98424870Y-110752704D01*
X98113651Y-110847112D01*
X97871107Y-110871000D01*
X97708893Y-110871000D01*
X97466349Y-110847112D01*
X97155130Y-110752704D01*
X96868320Y-110599401D01*
X96849148Y-110583667D01*
X96616918Y-110393082D01*
X96410602Y-110141684D01*
X96410601Y-110141683D01*
X96410599Y-110141680D01*
X96257296Y-109854870D01*
X96162888Y-109543651D01*
X96131012Y-109220000D01*
X96162888Y-108896349D01*
X96257296Y-108585130D01*
X96410599Y-108298320D01*
X96434661Y-108269000D01*
X96616918Y-108046918D01*
X96868316Y-107840602D01*
X96868317Y-107840601D01*
X96868320Y-107840599D01*
X97155130Y-107687296D01*
X97466349Y-107592888D01*
X97708893Y-107569000D01*
X97871107Y-107569000D01*
X98113651Y-107592888D01*
X98113651Y-107592888D01*
G37*
G36*
X84201000Y-110871000D02*
G01*
X80899000Y-110871000D01*
X80899000Y-107569000D01*
X84201000Y-107569000D01*
X84201000Y-110871000D01*
X84201000Y-110871000D01*
G37*
G36*
X105733651Y-107592888D02*
G01*
X106044870Y-107687296D01*
X106331680Y-107840599D01*
X106331683Y-107840601D01*
X106331684Y-107840602D01*
X106583082Y-108046918D01*
X106765339Y-108269000D01*
X106789401Y-108298320D01*
X106942704Y-108585130D01*
X107037112Y-108896349D01*
X107068988Y-109220000D01*
X107037112Y-109543651D01*
X106942704Y-109854870D01*
X106789401Y-110141680D01*
X106789399Y-110141683D01*
X106789398Y-110141684D01*
X106583082Y-110393082D01*
X106350852Y-110583667D01*
X106331680Y-110599401D01*
X106044870Y-110752704D01*
X105733651Y-110847112D01*
X105491107Y-110871000D01*
X105328893Y-110871000D01*
X105086349Y-110847112D01*
X104775130Y-110752704D01*
X104488320Y-110599401D01*
X104469148Y-110583667D01*
X104236918Y-110393082D01*
X104030602Y-110141684D01*
X104030601Y-110141683D01*
X104030599Y-110141680D01*
X103877296Y-109854870D01*
X103782888Y-109543651D01*
X103751012Y-109220000D01*
X103782888Y-108896349D01*
X103877296Y-108585130D01*
X104030599Y-108298320D01*
X104054661Y-108269000D01*
X104236918Y-108046918D01*
X104488316Y-107840602D01*
X104488317Y-107840601D01*
X104488320Y-107840599D01*
X104775130Y-107687296D01*
X105086349Y-107592888D01*
X105328893Y-107569000D01*
X105491107Y-107569000D01*
X105733651Y-107592888D01*
X105733651Y-107592888D01*
G37*
G36*
X122301000Y-110871000D02*
G01*
X118999000Y-110871000D01*
X118999000Y-107569000D01*
X122301000Y-107569000D01*
X122301000Y-110871000D01*
X122301000Y-110871000D01*
G37*
G36*
X189507395Y-108305546D02*
G01*
X189680466Y-108377234D01*
X189751148Y-108424462D01*
X189836227Y-108481310D01*
X189968690Y-108613773D01*
X190011284Y-108677520D01*
X190072766Y-108769534D01*
X190144454Y-108942605D01*
X190181000Y-109126333D01*
X190181000Y-109313667D01*
X190144454Y-109497395D01*
X190072766Y-109670466D01*
X190072765Y-109670467D01*
X189968690Y-109826227D01*
X189836227Y-109958690D01*
X189813092Y-109974148D01*
X189680466Y-110062766D01*
X189507395Y-110134454D01*
X189323667Y-110171000D01*
X189136333Y-110171000D01*
X188952605Y-110134454D01*
X188779534Y-110062766D01*
X188646908Y-109974148D01*
X188623773Y-109958690D01*
X188491310Y-109826227D01*
X188387235Y-109670467D01*
X188387234Y-109670466D01*
X188315546Y-109497395D01*
X188279000Y-109313667D01*
X188279000Y-109126333D01*
X188315546Y-108942605D01*
X188387234Y-108769534D01*
X188448716Y-108677520D01*
X188491310Y-108613773D01*
X188623773Y-108481310D01*
X188708852Y-108424462D01*
X188779534Y-108377234D01*
X188952605Y-108305546D01*
X189136333Y-108269000D01*
X189323667Y-108269000D01*
X189507395Y-108305546D01*
X189507395Y-108305546D01*
G37*
G36*
X187641000Y-110171000D02*
G01*
X185739000Y-110171000D01*
X185739000Y-108269000D01*
X187641000Y-108269000D01*
X187641000Y-110171000D01*
X187641000Y-110171000D01*
G37*
G36*
X129248228Y-108401703D02*
G01*
X129403100Y-108465853D01*
X129542481Y-108558985D01*
X129661015Y-108677519D01*
X129754147Y-108816900D01*
X129818297Y-108971772D01*
X129851000Y-109136184D01*
X129851000Y-109303816D01*
X129818297Y-109468228D01*
X129754147Y-109623100D01*
X129661015Y-109762481D01*
X129542481Y-109881015D01*
X129403100Y-109974147D01*
X129248228Y-110038297D01*
X129083816Y-110071000D01*
X128916184Y-110071000D01*
X128751772Y-110038297D01*
X128596900Y-109974147D01*
X128457519Y-109881015D01*
X128338985Y-109762481D01*
X128245853Y-109623100D01*
X128181703Y-109468228D01*
X128149000Y-109303816D01*
X128149000Y-109136184D01*
X128181703Y-108971772D01*
X128245853Y-108816900D01*
X128338985Y-108677519D01*
X128457519Y-108558985D01*
X128596900Y-108465853D01*
X128751772Y-108401703D01*
X128916184Y-108369000D01*
X129083816Y-108369000D01*
X129248228Y-108401703D01*
X129248228Y-108401703D01*
G37*
G36*
X127851000Y-110071000D02*
G01*
X126149000Y-110071000D01*
X126149000Y-108369000D01*
X127851000Y-108369000D01*
X127851000Y-110071000D01*
X127851000Y-110071000D01*
G37*
G36*
X179838604Y-107278347D02*
G01*
X179875144Y-107289432D01*
X179908821Y-107307433D01*
X179938341Y-107331659D01*
X179962567Y-107361179D01*
X179980568Y-107394856D01*
X179991653Y-107431396D01*
X179996000Y-107475538D01*
X179996000Y-108424462D01*
X179991653Y-108468604D01*
X179980568Y-108505144D01*
X179962567Y-108538821D01*
X179938341Y-108568341D01*
X179908821Y-108592567D01*
X179875144Y-108610568D01*
X179838604Y-108621653D01*
X179794462Y-108626000D01*
X178345538Y-108626000D01*
X178301396Y-108621653D01*
X178264856Y-108610568D01*
X178231179Y-108592567D01*
X178201659Y-108568341D01*
X178177433Y-108538821D01*
X178159432Y-108505144D01*
X178148347Y-108468604D01*
X178144000Y-108424462D01*
X178144000Y-107475538D01*
X178148347Y-107431396D01*
X178159432Y-107394856D01*
X178177433Y-107361179D01*
X178201659Y-107331659D01*
X178231179Y-107307433D01*
X178264856Y-107289432D01*
X178301396Y-107278347D01*
X178345538Y-107274000D01*
X179794462Y-107274000D01*
X179838604Y-107278347D01*
X179838604Y-107278347D01*
G37*
G36*
X172218604Y-107148347D02*
G01*
X172255144Y-107159432D01*
X172288821Y-107177433D01*
X172318341Y-107201659D01*
X172342567Y-107231179D01*
X172360568Y-107264856D01*
X172371653Y-107301396D01*
X172376000Y-107345538D01*
X172376000Y-108294462D01*
X172371653Y-108338604D01*
X172360568Y-108375144D01*
X172342567Y-108408821D01*
X172318341Y-108438341D01*
X172288821Y-108462567D01*
X172255144Y-108480568D01*
X172218604Y-108491653D01*
X172174462Y-108496000D01*
X170725538Y-108496000D01*
X170681396Y-108491653D01*
X170644856Y-108480568D01*
X170611179Y-108462567D01*
X170581659Y-108438341D01*
X170557433Y-108408821D01*
X170539432Y-108375144D01*
X170528347Y-108338604D01*
X170524000Y-108294462D01*
X170524000Y-107345538D01*
X170528347Y-107301396D01*
X170539432Y-107264856D01*
X170557433Y-107231179D01*
X170581659Y-107201659D01*
X170611179Y-107177433D01*
X170644856Y-107159432D01*
X170681396Y-107148347D01*
X170725538Y-107144000D01*
X172174462Y-107144000D01*
X172218604Y-107148347D01*
X172218604Y-107148347D01*
G37*
G36*
X134391000Y-103911000D02*
G01*
X132309000Y-103911000D01*
X132309000Y-101829000D01*
X134391000Y-101829000D01*
X134391000Y-103911000D01*
X134391000Y-103911000D01*
G37*
G36*
X138753647Y-101869004D02*
G01*
X138943097Y-101947477D01*
X138943098Y-101947478D01*
X139113599Y-102061402D01*
X139258598Y-102206401D01*
X139334719Y-102320326D01*
X139372523Y-102376903D01*
X139450996Y-102566353D01*
X139491000Y-102767469D01*
X139491000Y-102972531D01*
X139450996Y-103173647D01*
X139372523Y-103363097D01*
X139372522Y-103363098D01*
X139258598Y-103533599D01*
X139113599Y-103678598D01*
X138999674Y-103754720D01*
X138943097Y-103792523D01*
X138753647Y-103870996D01*
X138552531Y-103911000D01*
X138347469Y-103911000D01*
X138146353Y-103870996D01*
X137956903Y-103792523D01*
X137900326Y-103754719D01*
X137786401Y-103678598D01*
X137641402Y-103533599D01*
X137527478Y-103363098D01*
X137527477Y-103363097D01*
X137449004Y-103173647D01*
X137409000Y-102972531D01*
X137409000Y-102767469D01*
X137449004Y-102566353D01*
X137527477Y-102376903D01*
X137565281Y-102320326D01*
X137641402Y-102206401D01*
X137786401Y-102061402D01*
X137956902Y-101947478D01*
X137956903Y-101947477D01*
X138146353Y-101869004D01*
X138347469Y-101829000D01*
X138552531Y-101829000D01*
X138753647Y-101869004D01*
X138753647Y-101869004D01*
G37*
G36*
X136203647Y-101869004D02*
G01*
X136393097Y-101947477D01*
X136393098Y-101947478D01*
X136563599Y-102061402D01*
X136708598Y-102206401D01*
X136784719Y-102320326D01*
X136822523Y-102376903D01*
X136900996Y-102566353D01*
X136941000Y-102767469D01*
X136941000Y-102972531D01*
X136900996Y-103173647D01*
X136822523Y-103363097D01*
X136822522Y-103363098D01*
X136708598Y-103533599D01*
X136563599Y-103678598D01*
X136449674Y-103754720D01*
X136393097Y-103792523D01*
X136203647Y-103870996D01*
X136002531Y-103911000D01*
X135797469Y-103911000D01*
X135596353Y-103870996D01*
X135406903Y-103792523D01*
X135350326Y-103754719D01*
X135236401Y-103678598D01*
X135091402Y-103533599D01*
X134977478Y-103363098D01*
X134977477Y-103363097D01*
X134899004Y-103173647D01*
X134859000Y-102972531D01*
X134859000Y-102767469D01*
X134899004Y-102566353D01*
X134977477Y-102376903D01*
X135015281Y-102320326D01*
X135091402Y-102206401D01*
X135236401Y-102061402D01*
X135406902Y-101947478D01*
X135406903Y-101947477D01*
X135596353Y-101869004D01*
X135797469Y-101829000D01*
X136002531Y-101829000D01*
X136203647Y-101869004D01*
X136203647Y-101869004D01*
G37*
G36*
X175370442Y-101975518D02*
G01*
X175436627Y-101982037D01*
X175606466Y-102033557D01*
X175762991Y-102117222D01*
X175798729Y-102146552D01*
X175900186Y-102229814D01*
X175983448Y-102331271D01*
X176012778Y-102367009D01*
X176096443Y-102523534D01*
X176147963Y-102693373D01*
X176165359Y-102870000D01*
X176147963Y-103046627D01*
X176096443Y-103216466D01*
X176012778Y-103372991D01*
X175983448Y-103408729D01*
X175900186Y-103510186D01*
X175798729Y-103593448D01*
X175762991Y-103622778D01*
X175606466Y-103706443D01*
X175436627Y-103757963D01*
X175370443Y-103764481D01*
X175304260Y-103771000D01*
X175215740Y-103771000D01*
X175149557Y-103764481D01*
X175083373Y-103757963D01*
X174913534Y-103706443D01*
X174757009Y-103622778D01*
X174721271Y-103593448D01*
X174619814Y-103510186D01*
X174536552Y-103408729D01*
X174507222Y-103372991D01*
X174423557Y-103216466D01*
X174372037Y-103046627D01*
X174354641Y-102870000D01*
X174372037Y-102693373D01*
X174423557Y-102523534D01*
X174507222Y-102367009D01*
X174536552Y-102331271D01*
X174619814Y-102229814D01*
X174721271Y-102146552D01*
X174757009Y-102117222D01*
X174913534Y-102033557D01*
X175083373Y-101982037D01*
X175149558Y-101975518D01*
X175215740Y-101969000D01*
X175304260Y-101969000D01*
X175370442Y-101975518D01*
X175370442Y-101975518D01*
G37*
G36*
X188070442Y-101975518D02*
G01*
X188136627Y-101982037D01*
X188306466Y-102033557D01*
X188462991Y-102117222D01*
X188498729Y-102146552D01*
X188600186Y-102229814D01*
X188683448Y-102331271D01*
X188712778Y-102367009D01*
X188796443Y-102523534D01*
X188847963Y-102693373D01*
X188865359Y-102870000D01*
X188847963Y-103046627D01*
X188796443Y-103216466D01*
X188712778Y-103372991D01*
X188683448Y-103408729D01*
X188600186Y-103510186D01*
X188498729Y-103593448D01*
X188462991Y-103622778D01*
X188306466Y-103706443D01*
X188136627Y-103757963D01*
X188070443Y-103764481D01*
X188004260Y-103771000D01*
X187915740Y-103771000D01*
X187849557Y-103764481D01*
X187783373Y-103757963D01*
X187613534Y-103706443D01*
X187457009Y-103622778D01*
X187421271Y-103593448D01*
X187319814Y-103510186D01*
X187236552Y-103408729D01*
X187207222Y-103372991D01*
X187123557Y-103216466D01*
X187072037Y-103046627D01*
X187054641Y-102870000D01*
X187072037Y-102693373D01*
X187123557Y-102523534D01*
X187207222Y-102367009D01*
X187236552Y-102331271D01*
X187319814Y-102229814D01*
X187421271Y-102146552D01*
X187457009Y-102117222D01*
X187613534Y-102033557D01*
X187783373Y-101982037D01*
X187849558Y-101975518D01*
X187915740Y-101969000D01*
X188004260Y-101969000D01*
X188070442Y-101975518D01*
X188070442Y-101975518D01*
G37*
G36*
X152510442Y-101975518D02*
G01*
X152576627Y-101982037D01*
X152746466Y-102033557D01*
X152902991Y-102117222D01*
X152938729Y-102146552D01*
X153040186Y-102229814D01*
X153123448Y-102331271D01*
X153152778Y-102367009D01*
X153236443Y-102523534D01*
X153287963Y-102693373D01*
X153305359Y-102870000D01*
X153287963Y-103046627D01*
X153236443Y-103216466D01*
X153152778Y-103372991D01*
X153123448Y-103408729D01*
X153040186Y-103510186D01*
X152938729Y-103593448D01*
X152902991Y-103622778D01*
X152746466Y-103706443D01*
X152576627Y-103757963D01*
X152510443Y-103764481D01*
X152444260Y-103771000D01*
X152355740Y-103771000D01*
X152289557Y-103764481D01*
X152223373Y-103757963D01*
X152053534Y-103706443D01*
X151897009Y-103622778D01*
X151861271Y-103593448D01*
X151759814Y-103510186D01*
X151676552Y-103408729D01*
X151647222Y-103372991D01*
X151563557Y-103216466D01*
X151512037Y-103046627D01*
X151494641Y-102870000D01*
X151512037Y-102693373D01*
X151563557Y-102523534D01*
X151647222Y-102367009D01*
X151676552Y-102331271D01*
X151759814Y-102229814D01*
X151861271Y-102146552D01*
X151897009Y-102117222D01*
X152053534Y-102033557D01*
X152223373Y-101982037D01*
X152289558Y-101975518D01*
X152355740Y-101969000D01*
X152444260Y-101969000D01*
X152510442Y-101975518D01*
X152510442Y-101975518D01*
G37*
G36*
X155050442Y-101975518D02*
G01*
X155116627Y-101982037D01*
X155286466Y-102033557D01*
X155442991Y-102117222D01*
X155478729Y-102146552D01*
X155580186Y-102229814D01*
X155663448Y-102331271D01*
X155692778Y-102367009D01*
X155776443Y-102523534D01*
X155827963Y-102693373D01*
X155845359Y-102870000D01*
X155827963Y-103046627D01*
X155776443Y-103216466D01*
X155692778Y-103372991D01*
X155663448Y-103408729D01*
X155580186Y-103510186D01*
X155478729Y-103593448D01*
X155442991Y-103622778D01*
X155286466Y-103706443D01*
X155116627Y-103757963D01*
X155050443Y-103764481D01*
X154984260Y-103771000D01*
X154895740Y-103771000D01*
X154829557Y-103764481D01*
X154763373Y-103757963D01*
X154593534Y-103706443D01*
X154437009Y-103622778D01*
X154401271Y-103593448D01*
X154299814Y-103510186D01*
X154216552Y-103408729D01*
X154187222Y-103372991D01*
X154103557Y-103216466D01*
X154052037Y-103046627D01*
X154034641Y-102870000D01*
X154052037Y-102693373D01*
X154103557Y-102523534D01*
X154187222Y-102367009D01*
X154216552Y-102331271D01*
X154299814Y-102229814D01*
X154401271Y-102146552D01*
X154437009Y-102117222D01*
X154593534Y-102033557D01*
X154763373Y-101982037D01*
X154829558Y-101975518D01*
X154895740Y-101969000D01*
X154984260Y-101969000D01*
X155050442Y-101975518D01*
X155050442Y-101975518D01*
G37*
G36*
X157590442Y-101975518D02*
G01*
X157656627Y-101982037D01*
X157826466Y-102033557D01*
X157982991Y-102117222D01*
X158018729Y-102146552D01*
X158120186Y-102229814D01*
X158203448Y-102331271D01*
X158232778Y-102367009D01*
X158316443Y-102523534D01*
X158367963Y-102693373D01*
X158385359Y-102870000D01*
X158367963Y-103046627D01*
X158316443Y-103216466D01*
X158232778Y-103372991D01*
X158203448Y-103408729D01*
X158120186Y-103510186D01*
X158018729Y-103593448D01*
X157982991Y-103622778D01*
X157826466Y-103706443D01*
X157656627Y-103757963D01*
X157590443Y-103764481D01*
X157524260Y-103771000D01*
X157435740Y-103771000D01*
X157369557Y-103764481D01*
X157303373Y-103757963D01*
X157133534Y-103706443D01*
X156977009Y-103622778D01*
X156941271Y-103593448D01*
X156839814Y-103510186D01*
X156756552Y-103408729D01*
X156727222Y-103372991D01*
X156643557Y-103216466D01*
X156592037Y-103046627D01*
X156574641Y-102870000D01*
X156592037Y-102693373D01*
X156643557Y-102523534D01*
X156727222Y-102367009D01*
X156756552Y-102331271D01*
X156839814Y-102229814D01*
X156941271Y-102146552D01*
X156977009Y-102117222D01*
X157133534Y-102033557D01*
X157303373Y-101982037D01*
X157369558Y-101975518D01*
X157435740Y-101969000D01*
X157524260Y-101969000D01*
X157590442Y-101975518D01*
X157590442Y-101975518D01*
G37*
G36*
X160130442Y-101975518D02*
G01*
X160196627Y-101982037D01*
X160366466Y-102033557D01*
X160522991Y-102117222D01*
X160558729Y-102146552D01*
X160660186Y-102229814D01*
X160743448Y-102331271D01*
X160772778Y-102367009D01*
X160856443Y-102523534D01*
X160907963Y-102693373D01*
X160925359Y-102870000D01*
X160907963Y-103046627D01*
X160856443Y-103216466D01*
X160772778Y-103372991D01*
X160743448Y-103408729D01*
X160660186Y-103510186D01*
X160558729Y-103593448D01*
X160522991Y-103622778D01*
X160366466Y-103706443D01*
X160196627Y-103757963D01*
X160130443Y-103764481D01*
X160064260Y-103771000D01*
X159975740Y-103771000D01*
X159909557Y-103764481D01*
X159843373Y-103757963D01*
X159673534Y-103706443D01*
X159517009Y-103622778D01*
X159481271Y-103593448D01*
X159379814Y-103510186D01*
X159296552Y-103408729D01*
X159267222Y-103372991D01*
X159183557Y-103216466D01*
X159132037Y-103046627D01*
X159114641Y-102870000D01*
X159132037Y-102693373D01*
X159183557Y-102523534D01*
X159267222Y-102367009D01*
X159296552Y-102331271D01*
X159379814Y-102229814D01*
X159481271Y-102146552D01*
X159517009Y-102117222D01*
X159673534Y-102033557D01*
X159843373Y-101982037D01*
X159909558Y-101975518D01*
X159975740Y-101969000D01*
X160064260Y-101969000D01*
X160130442Y-101975518D01*
X160130442Y-101975518D01*
G37*
G36*
X162670442Y-101975518D02*
G01*
X162736627Y-101982037D01*
X162906466Y-102033557D01*
X163062991Y-102117222D01*
X163098729Y-102146552D01*
X163200186Y-102229814D01*
X163283448Y-102331271D01*
X163312778Y-102367009D01*
X163396443Y-102523534D01*
X163447963Y-102693373D01*
X163465359Y-102870000D01*
X163447963Y-103046627D01*
X163396443Y-103216466D01*
X163312778Y-103372991D01*
X163283448Y-103408729D01*
X163200186Y-103510186D01*
X163098729Y-103593448D01*
X163062991Y-103622778D01*
X162906466Y-103706443D01*
X162736627Y-103757963D01*
X162670443Y-103764481D01*
X162604260Y-103771000D01*
X162515740Y-103771000D01*
X162449557Y-103764481D01*
X162383373Y-103757963D01*
X162213534Y-103706443D01*
X162057009Y-103622778D01*
X162021271Y-103593448D01*
X161919814Y-103510186D01*
X161836552Y-103408729D01*
X161807222Y-103372991D01*
X161723557Y-103216466D01*
X161672037Y-103046627D01*
X161654641Y-102870000D01*
X161672037Y-102693373D01*
X161723557Y-102523534D01*
X161807222Y-102367009D01*
X161836552Y-102331271D01*
X161919814Y-102229814D01*
X162021271Y-102146552D01*
X162057009Y-102117222D01*
X162213534Y-102033557D01*
X162383373Y-101982037D01*
X162449558Y-101975518D01*
X162515740Y-101969000D01*
X162604260Y-101969000D01*
X162670442Y-101975518D01*
X162670442Y-101975518D01*
G37*
G36*
X165210442Y-101975518D02*
G01*
X165276627Y-101982037D01*
X165446466Y-102033557D01*
X165602991Y-102117222D01*
X165638729Y-102146552D01*
X165740186Y-102229814D01*
X165823448Y-102331271D01*
X165852778Y-102367009D01*
X165936443Y-102523534D01*
X165987963Y-102693373D01*
X166005359Y-102870000D01*
X165987963Y-103046627D01*
X165936443Y-103216466D01*
X165852778Y-103372991D01*
X165823448Y-103408729D01*
X165740186Y-103510186D01*
X165638729Y-103593448D01*
X165602991Y-103622778D01*
X165446466Y-103706443D01*
X165276627Y-103757963D01*
X165210443Y-103764481D01*
X165144260Y-103771000D01*
X165055740Y-103771000D01*
X164989557Y-103764481D01*
X164923373Y-103757963D01*
X164753534Y-103706443D01*
X164597009Y-103622778D01*
X164561271Y-103593448D01*
X164459814Y-103510186D01*
X164376552Y-103408729D01*
X164347222Y-103372991D01*
X164263557Y-103216466D01*
X164212037Y-103046627D01*
X164194641Y-102870000D01*
X164212037Y-102693373D01*
X164263557Y-102523534D01*
X164347222Y-102367009D01*
X164376552Y-102331271D01*
X164459814Y-102229814D01*
X164561271Y-102146552D01*
X164597009Y-102117222D01*
X164753534Y-102033557D01*
X164923373Y-101982037D01*
X164989558Y-101975518D01*
X165055740Y-101969000D01*
X165144260Y-101969000D01*
X165210442Y-101975518D01*
X165210442Y-101975518D01*
G37*
G36*
X167750442Y-101975518D02*
G01*
X167816627Y-101982037D01*
X167986466Y-102033557D01*
X168142991Y-102117222D01*
X168178729Y-102146552D01*
X168280186Y-102229814D01*
X168363448Y-102331271D01*
X168392778Y-102367009D01*
X168476443Y-102523534D01*
X168527963Y-102693373D01*
X168545359Y-102870000D01*
X168527963Y-103046627D01*
X168476443Y-103216466D01*
X168392778Y-103372991D01*
X168363448Y-103408729D01*
X168280186Y-103510186D01*
X168178729Y-103593448D01*
X168142991Y-103622778D01*
X167986466Y-103706443D01*
X167816627Y-103757963D01*
X167750443Y-103764481D01*
X167684260Y-103771000D01*
X167595740Y-103771000D01*
X167529557Y-103764481D01*
X167463373Y-103757963D01*
X167293534Y-103706443D01*
X167137009Y-103622778D01*
X167101271Y-103593448D01*
X166999814Y-103510186D01*
X166916552Y-103408729D01*
X166887222Y-103372991D01*
X166803557Y-103216466D01*
X166752037Y-103046627D01*
X166734641Y-102870000D01*
X166752037Y-102693373D01*
X166803557Y-102523534D01*
X166887222Y-102367009D01*
X166916552Y-102331271D01*
X166999814Y-102229814D01*
X167101271Y-102146552D01*
X167137009Y-102117222D01*
X167293534Y-102033557D01*
X167463373Y-101982037D01*
X167529558Y-101975518D01*
X167595740Y-101969000D01*
X167684260Y-101969000D01*
X167750442Y-101975518D01*
X167750442Y-101975518D01*
G37*
G36*
X172830442Y-101975518D02*
G01*
X172896627Y-101982037D01*
X173066466Y-102033557D01*
X173222991Y-102117222D01*
X173258729Y-102146552D01*
X173360186Y-102229814D01*
X173443448Y-102331271D01*
X173472778Y-102367009D01*
X173556443Y-102523534D01*
X173607963Y-102693373D01*
X173625359Y-102870000D01*
X173607963Y-103046627D01*
X173556443Y-103216466D01*
X173472778Y-103372991D01*
X173443448Y-103408729D01*
X173360186Y-103510186D01*
X173258729Y-103593448D01*
X173222991Y-103622778D01*
X173066466Y-103706443D01*
X172896627Y-103757963D01*
X172830443Y-103764481D01*
X172764260Y-103771000D01*
X172675740Y-103771000D01*
X172609557Y-103764481D01*
X172543373Y-103757963D01*
X172373534Y-103706443D01*
X172217009Y-103622778D01*
X172181271Y-103593448D01*
X172079814Y-103510186D01*
X171996552Y-103408729D01*
X171967222Y-103372991D01*
X171883557Y-103216466D01*
X171832037Y-103046627D01*
X171814641Y-102870000D01*
X171832037Y-102693373D01*
X171883557Y-102523534D01*
X171967222Y-102367009D01*
X171996552Y-102331271D01*
X172079814Y-102229814D01*
X172181271Y-102146552D01*
X172217009Y-102117222D01*
X172373534Y-102033557D01*
X172543373Y-101982037D01*
X172609558Y-101975518D01*
X172675740Y-101969000D01*
X172764260Y-101969000D01*
X172830442Y-101975518D01*
X172830442Y-101975518D01*
G37*
G36*
X177910442Y-101975518D02*
G01*
X177976627Y-101982037D01*
X178146466Y-102033557D01*
X178302991Y-102117222D01*
X178338729Y-102146552D01*
X178440186Y-102229814D01*
X178523448Y-102331271D01*
X178552778Y-102367009D01*
X178636443Y-102523534D01*
X178687963Y-102693373D01*
X178705359Y-102870000D01*
X178687963Y-103046627D01*
X178636443Y-103216466D01*
X178552778Y-103372991D01*
X178523448Y-103408729D01*
X178440186Y-103510186D01*
X178338729Y-103593448D01*
X178302991Y-103622778D01*
X178146466Y-103706443D01*
X177976627Y-103757963D01*
X177910443Y-103764481D01*
X177844260Y-103771000D01*
X177755740Y-103771000D01*
X177689557Y-103764481D01*
X177623373Y-103757963D01*
X177453534Y-103706443D01*
X177297009Y-103622778D01*
X177261271Y-103593448D01*
X177159814Y-103510186D01*
X177076552Y-103408729D01*
X177047222Y-103372991D01*
X176963557Y-103216466D01*
X176912037Y-103046627D01*
X176894641Y-102870000D01*
X176912037Y-102693373D01*
X176963557Y-102523534D01*
X177047222Y-102367009D01*
X177076552Y-102331271D01*
X177159814Y-102229814D01*
X177261271Y-102146552D01*
X177297009Y-102117222D01*
X177453534Y-102033557D01*
X177623373Y-101982037D01*
X177689558Y-101975518D01*
X177755740Y-101969000D01*
X177844260Y-101969000D01*
X177910442Y-101975518D01*
X177910442Y-101975518D01*
G37*
G36*
X180450442Y-101975518D02*
G01*
X180516627Y-101982037D01*
X180686466Y-102033557D01*
X180842991Y-102117222D01*
X180878729Y-102146552D01*
X180980186Y-102229814D01*
X181063448Y-102331271D01*
X181092778Y-102367009D01*
X181176443Y-102523534D01*
X181227963Y-102693373D01*
X181245359Y-102870000D01*
X181227963Y-103046627D01*
X181176443Y-103216466D01*
X181092778Y-103372991D01*
X181063448Y-103408729D01*
X180980186Y-103510186D01*
X180878729Y-103593448D01*
X180842991Y-103622778D01*
X180686466Y-103706443D01*
X180516627Y-103757963D01*
X180450443Y-103764481D01*
X180384260Y-103771000D01*
X180295740Y-103771000D01*
X180229557Y-103764481D01*
X180163373Y-103757963D01*
X179993534Y-103706443D01*
X179837009Y-103622778D01*
X179801271Y-103593448D01*
X179699814Y-103510186D01*
X179616552Y-103408729D01*
X179587222Y-103372991D01*
X179503557Y-103216466D01*
X179452037Y-103046627D01*
X179434641Y-102870000D01*
X179452037Y-102693373D01*
X179503557Y-102523534D01*
X179587222Y-102367009D01*
X179616552Y-102331271D01*
X179699814Y-102229814D01*
X179801271Y-102146552D01*
X179837009Y-102117222D01*
X179993534Y-102033557D01*
X180163373Y-101982037D01*
X180229558Y-101975518D01*
X180295740Y-101969000D01*
X180384260Y-101969000D01*
X180450442Y-101975518D01*
X180450442Y-101975518D01*
G37*
G36*
X182990442Y-101975518D02*
G01*
X183056627Y-101982037D01*
X183226466Y-102033557D01*
X183382991Y-102117222D01*
X183418729Y-102146552D01*
X183520186Y-102229814D01*
X183603448Y-102331271D01*
X183632778Y-102367009D01*
X183716443Y-102523534D01*
X183767963Y-102693373D01*
X183785359Y-102870000D01*
X183767963Y-103046627D01*
X183716443Y-103216466D01*
X183632778Y-103372991D01*
X183603448Y-103408729D01*
X183520186Y-103510186D01*
X183418729Y-103593448D01*
X183382991Y-103622778D01*
X183226466Y-103706443D01*
X183056627Y-103757963D01*
X182990443Y-103764481D01*
X182924260Y-103771000D01*
X182835740Y-103771000D01*
X182769557Y-103764481D01*
X182703373Y-103757963D01*
X182533534Y-103706443D01*
X182377009Y-103622778D01*
X182341271Y-103593448D01*
X182239814Y-103510186D01*
X182156552Y-103408729D01*
X182127222Y-103372991D01*
X182043557Y-103216466D01*
X181992037Y-103046627D01*
X181974641Y-102870000D01*
X181992037Y-102693373D01*
X182043557Y-102523534D01*
X182127222Y-102367009D01*
X182156552Y-102331271D01*
X182239814Y-102229814D01*
X182341271Y-102146552D01*
X182377009Y-102117222D01*
X182533534Y-102033557D01*
X182703373Y-101982037D01*
X182769558Y-101975518D01*
X182835740Y-101969000D01*
X182924260Y-101969000D01*
X182990442Y-101975518D01*
X182990442Y-101975518D01*
G37*
G36*
X185530442Y-101975518D02*
G01*
X185596627Y-101982037D01*
X185766466Y-102033557D01*
X185922991Y-102117222D01*
X185958729Y-102146552D01*
X186060186Y-102229814D01*
X186143448Y-102331271D01*
X186172778Y-102367009D01*
X186256443Y-102523534D01*
X186307963Y-102693373D01*
X186325359Y-102870000D01*
X186307963Y-103046627D01*
X186256443Y-103216466D01*
X186172778Y-103372991D01*
X186143448Y-103408729D01*
X186060186Y-103510186D01*
X185958729Y-103593448D01*
X185922991Y-103622778D01*
X185766466Y-103706443D01*
X185596627Y-103757963D01*
X185530443Y-103764481D01*
X185464260Y-103771000D01*
X185375740Y-103771000D01*
X185309557Y-103764481D01*
X185243373Y-103757963D01*
X185073534Y-103706443D01*
X184917009Y-103622778D01*
X184881271Y-103593448D01*
X184779814Y-103510186D01*
X184696552Y-103408729D01*
X184667222Y-103372991D01*
X184583557Y-103216466D01*
X184532037Y-103046627D01*
X184514641Y-102870000D01*
X184532037Y-102693373D01*
X184583557Y-102523534D01*
X184667222Y-102367009D01*
X184696552Y-102331271D01*
X184779814Y-102229814D01*
X184881271Y-102146552D01*
X184917009Y-102117222D01*
X185073534Y-102033557D01*
X185243373Y-101982037D01*
X185309558Y-101975518D01*
X185375740Y-101969000D01*
X185464260Y-101969000D01*
X185530442Y-101975518D01*
X185530442Y-101975518D01*
G37*
G36*
X191401000Y-103771000D02*
G01*
X189599000Y-103771000D01*
X189599000Y-101969000D01*
X191401000Y-101969000D01*
X191401000Y-103771000D01*
X191401000Y-103771000D01*
G37*
G36*
X170290442Y-101975518D02*
G01*
X170356627Y-101982037D01*
X170526466Y-102033557D01*
X170682991Y-102117222D01*
X170718729Y-102146552D01*
X170820186Y-102229814D01*
X170903448Y-102331271D01*
X170932778Y-102367009D01*
X171016443Y-102523534D01*
X171067963Y-102693373D01*
X171085359Y-102870000D01*
X171067963Y-103046627D01*
X171016443Y-103216466D01*
X170932778Y-103372991D01*
X170903448Y-103408729D01*
X170820186Y-103510186D01*
X170718729Y-103593448D01*
X170682991Y-103622778D01*
X170526466Y-103706443D01*
X170356627Y-103757963D01*
X170290443Y-103764481D01*
X170224260Y-103771000D01*
X170135740Y-103771000D01*
X170069557Y-103764481D01*
X170003373Y-103757963D01*
X169833534Y-103706443D01*
X169677009Y-103622778D01*
X169641271Y-103593448D01*
X169539814Y-103510186D01*
X169456552Y-103408729D01*
X169427222Y-103372991D01*
X169343557Y-103216466D01*
X169292037Y-103046627D01*
X169274641Y-102870000D01*
X169292037Y-102693373D01*
X169343557Y-102523534D01*
X169427222Y-102367009D01*
X169456552Y-102331271D01*
X169539814Y-102229814D01*
X169641271Y-102146552D01*
X169677009Y-102117222D01*
X169833534Y-102033557D01*
X170003373Y-101982037D01*
X170069558Y-101975518D01*
X170135740Y-101969000D01*
X170224260Y-101969000D01*
X170290442Y-101975518D01*
X170290442Y-101975518D01*
G37*
G36*
X199902604Y-101440347D02*
G01*
X199939144Y-101451432D01*
X199972821Y-101469433D01*
X200002341Y-101493659D01*
X200026567Y-101523179D01*
X200044568Y-101556856D01*
X200055653Y-101593396D01*
X200060000Y-101637538D01*
X200060000Y-103086462D01*
X200055653Y-103130604D01*
X200044568Y-103167144D01*
X200026567Y-103200821D01*
X200002341Y-103230341D01*
X199972821Y-103254567D01*
X199939144Y-103272568D01*
X199902604Y-103283653D01*
X199858462Y-103288000D01*
X198909538Y-103288000D01*
X198865396Y-103283653D01*
X198828856Y-103272568D01*
X198795179Y-103254567D01*
X198765659Y-103230341D01*
X198741433Y-103200821D01*
X198723432Y-103167144D01*
X198712347Y-103130604D01*
X198708000Y-103086462D01*
X198708000Y-101637538D01*
X198712347Y-101593396D01*
X198723432Y-101556856D01*
X198741433Y-101523179D01*
X198765659Y-101493659D01*
X198795179Y-101469433D01*
X198828856Y-101451432D01*
X198865396Y-101440347D01*
X198909538Y-101436000D01*
X199858462Y-101436000D01*
X199902604Y-101440347D01*
X199902604Y-101440347D01*
G37*
G36*
X202702604Y-101440347D02*
G01*
X202739144Y-101451432D01*
X202772821Y-101469433D01*
X202802341Y-101493659D01*
X202826567Y-101523179D01*
X202844568Y-101556856D01*
X202855653Y-101593396D01*
X202860000Y-101637538D01*
X202860000Y-103086462D01*
X202855653Y-103130604D01*
X202844568Y-103167144D01*
X202826567Y-103200821D01*
X202802341Y-103230341D01*
X202772821Y-103254567D01*
X202739144Y-103272568D01*
X202702604Y-103283653D01*
X202658462Y-103288000D01*
X201709538Y-103288000D01*
X201665396Y-103283653D01*
X201628856Y-103272568D01*
X201595179Y-103254567D01*
X201565659Y-103230341D01*
X201541433Y-103200821D01*
X201523432Y-103167144D01*
X201512347Y-103130604D01*
X201508000Y-103086462D01*
X201508000Y-101637538D01*
X201512347Y-101593396D01*
X201523432Y-101556856D01*
X201541433Y-101523179D01*
X201565659Y-101493659D01*
X201595179Y-101469433D01*
X201628856Y-101451432D01*
X201665396Y-101440347D01*
X201709538Y-101436000D01*
X202658462Y-101436000D01*
X202702604Y-101440347D01*
X202702604Y-101440347D01*
G37*
G36*
X103183642Y-94039781D02*
G01*
X103329414Y-94100162D01*
X103329416Y-94100163D01*
X103460608Y-94187822D01*
X103572178Y-94299392D01*
X103587952Y-94323000D01*
X103659838Y-94430586D01*
X103720219Y-94576358D01*
X103751000Y-94731107D01*
X103751000Y-94888893D01*
X103720219Y-95043642D01*
X103659838Y-95189414D01*
X103659837Y-95189416D01*
X103572178Y-95320608D01*
X103460608Y-95432178D01*
X103329416Y-95519837D01*
X103329415Y-95519838D01*
X103329414Y-95519838D01*
X103183642Y-95580219D01*
X103028893Y-95611000D01*
X102871107Y-95611000D01*
X102716358Y-95580219D01*
X102570586Y-95519838D01*
X102570585Y-95519838D01*
X102570584Y-95519837D01*
X102439392Y-95432178D01*
X102327822Y-95320608D01*
X102240163Y-95189416D01*
X102240162Y-95189414D01*
X102179781Y-95043642D01*
X102149000Y-94888893D01*
X102149000Y-94731107D01*
X102179781Y-94576358D01*
X102240162Y-94430586D01*
X102312048Y-94323000D01*
X102327822Y-94299392D01*
X102439392Y-94187822D01*
X102570584Y-94100163D01*
X102570586Y-94100162D01*
X102716358Y-94039781D01*
X102871107Y-94009000D01*
X103028893Y-94009000D01*
X103183642Y-94039781D01*
X103183642Y-94039781D01*
G37*
G36*
X108183642Y-94039781D02*
G01*
X108329414Y-94100162D01*
X108329416Y-94100163D01*
X108460608Y-94187822D01*
X108572178Y-94299392D01*
X108587952Y-94323000D01*
X108659838Y-94430586D01*
X108720219Y-94576358D01*
X108751000Y-94731107D01*
X108751000Y-94888893D01*
X108720219Y-95043642D01*
X108659838Y-95189414D01*
X108659837Y-95189416D01*
X108572178Y-95320608D01*
X108460608Y-95432178D01*
X108329416Y-95519837D01*
X108329415Y-95519838D01*
X108329414Y-95519838D01*
X108183642Y-95580219D01*
X108028893Y-95611000D01*
X107871107Y-95611000D01*
X107716358Y-95580219D01*
X107570586Y-95519838D01*
X107570585Y-95519838D01*
X107570584Y-95519837D01*
X107439392Y-95432178D01*
X107327822Y-95320608D01*
X107240163Y-95189416D01*
X107240162Y-95189414D01*
X107179781Y-95043642D01*
X107149000Y-94888893D01*
X107149000Y-94731107D01*
X107179781Y-94576358D01*
X107240162Y-94430586D01*
X107312048Y-94323000D01*
X107327822Y-94299392D01*
X107439392Y-94187822D01*
X107570584Y-94100163D01*
X107570586Y-94100162D01*
X107716358Y-94039781D01*
X107871107Y-94009000D01*
X108028893Y-94009000D01*
X108183642Y-94039781D01*
X108183642Y-94039781D01*
G37*
G36*
X88183642Y-94039781D02*
G01*
X88329414Y-94100162D01*
X88329416Y-94100163D01*
X88460608Y-94187822D01*
X88572178Y-94299392D01*
X88587952Y-94323000D01*
X88659838Y-94430586D01*
X88720219Y-94576358D01*
X88751000Y-94731107D01*
X88751000Y-94888893D01*
X88720219Y-95043642D01*
X88659838Y-95189414D01*
X88659837Y-95189416D01*
X88572178Y-95320608D01*
X88460608Y-95432178D01*
X88329416Y-95519837D01*
X88329415Y-95519838D01*
X88329414Y-95519838D01*
X88183642Y-95580219D01*
X88028893Y-95611000D01*
X87871107Y-95611000D01*
X87716358Y-95580219D01*
X87570586Y-95519838D01*
X87570585Y-95519838D01*
X87570584Y-95519837D01*
X87439392Y-95432178D01*
X87327822Y-95320608D01*
X87240163Y-95189416D01*
X87240162Y-95189414D01*
X87179781Y-95043642D01*
X87149000Y-94888893D01*
X87149000Y-94731107D01*
X87179781Y-94576358D01*
X87240162Y-94430586D01*
X87312048Y-94323000D01*
X87327822Y-94299392D01*
X87439392Y-94187822D01*
X87570584Y-94100163D01*
X87570586Y-94100162D01*
X87716358Y-94039781D01*
X87871107Y-94009000D01*
X88028893Y-94009000D01*
X88183642Y-94039781D01*
X88183642Y-94039781D01*
G37*
G36*
X83183642Y-94039781D02*
G01*
X83329414Y-94100162D01*
X83329416Y-94100163D01*
X83460608Y-94187822D01*
X83572178Y-94299392D01*
X83587952Y-94323000D01*
X83659838Y-94430586D01*
X83720219Y-94576358D01*
X83751000Y-94731107D01*
X83751000Y-94888893D01*
X83720219Y-95043642D01*
X83659838Y-95189414D01*
X83659837Y-95189416D01*
X83572178Y-95320608D01*
X83460608Y-95432178D01*
X83329416Y-95519837D01*
X83329415Y-95519838D01*
X83329414Y-95519838D01*
X83183642Y-95580219D01*
X83028893Y-95611000D01*
X82871107Y-95611000D01*
X82716358Y-95580219D01*
X82570586Y-95519838D01*
X82570585Y-95519838D01*
X82570584Y-95519837D01*
X82439392Y-95432178D01*
X82327822Y-95320608D01*
X82240163Y-95189416D01*
X82240162Y-95189414D01*
X82179781Y-95043642D01*
X82149000Y-94888893D01*
X82149000Y-94731107D01*
X82179781Y-94576358D01*
X82240162Y-94430586D01*
X82312048Y-94323000D01*
X82327822Y-94299392D01*
X82439392Y-94187822D01*
X82570584Y-94100163D01*
X82570586Y-94100162D01*
X82716358Y-94039781D01*
X82871107Y-94009000D01*
X83028893Y-94009000D01*
X83183642Y-94039781D01*
X83183642Y-94039781D01*
G37*
G36*
X209970823Y-92633313D02*
G01*
X210131242Y-92681976D01*
X210263906Y-92752886D01*
X210279078Y-92760996D01*
X210408659Y-92867341D01*
X210515004Y-92996922D01*
X210515005Y-92996924D01*
X210594024Y-93144758D01*
X210642687Y-93305177D01*
X210659117Y-93472000D01*
X210642687Y-93638823D01*
X210594024Y-93799242D01*
X210523114Y-93931906D01*
X210515004Y-93947078D01*
X210408659Y-94076659D01*
X210279078Y-94183004D01*
X210279076Y-94183005D01*
X210131242Y-94262024D01*
X209970823Y-94310687D01*
X209845804Y-94323000D01*
X209762196Y-94323000D01*
X209637177Y-94310687D01*
X209476758Y-94262024D01*
X209328924Y-94183005D01*
X209328922Y-94183004D01*
X209199341Y-94076659D01*
X209092996Y-93947078D01*
X209084886Y-93931906D01*
X209013976Y-93799242D01*
X208965313Y-93638823D01*
X208948883Y-93472000D01*
X208965313Y-93305177D01*
X209013976Y-93144758D01*
X209092995Y-92996924D01*
X209092996Y-92996922D01*
X209199341Y-92867341D01*
X209328922Y-92760996D01*
X209344094Y-92752886D01*
X209476758Y-92681976D01*
X209637177Y-92633313D01*
X209762196Y-92621000D01*
X209845804Y-92621000D01*
X209970823Y-92633313D01*
X209970823Y-92633313D01*
G37*
G36*
X202350823Y-92633313D02*
G01*
X202511242Y-92681976D01*
X202643906Y-92752886D01*
X202659078Y-92760996D01*
X202788659Y-92867341D01*
X202895004Y-92996922D01*
X202895005Y-92996924D01*
X202974024Y-93144758D01*
X203022687Y-93305177D01*
X203039117Y-93472000D01*
X203022687Y-93638823D01*
X202974024Y-93799242D01*
X202903114Y-93931906D01*
X202895004Y-93947078D01*
X202788659Y-94076659D01*
X202659078Y-94183004D01*
X202659076Y-94183005D01*
X202511242Y-94262024D01*
X202350823Y-94310687D01*
X202225804Y-94323000D01*
X202142196Y-94323000D01*
X202017177Y-94310687D01*
X201856758Y-94262024D01*
X201708924Y-94183005D01*
X201708922Y-94183004D01*
X201579341Y-94076659D01*
X201472996Y-93947078D01*
X201464886Y-93931906D01*
X201393976Y-93799242D01*
X201345313Y-93638823D01*
X201328883Y-93472000D01*
X201345313Y-93305177D01*
X201393976Y-93144758D01*
X201472995Y-92996924D01*
X201472996Y-92996922D01*
X201579341Y-92867341D01*
X201708922Y-92760996D01*
X201724094Y-92752886D01*
X201856758Y-92681976D01*
X202017177Y-92633313D01*
X202142196Y-92621000D01*
X202225804Y-92621000D01*
X202350823Y-92633313D01*
X202350823Y-92633313D01*
G37*
G36*
X143833651Y-88542888D02*
G01*
X144144870Y-88637296D01*
X144431680Y-88790599D01*
X144431683Y-88790601D01*
X144431684Y-88790602D01*
X144683082Y-88996918D01*
X144874930Y-89230687D01*
X144889401Y-89248320D01*
X145042704Y-89535130D01*
X145137112Y-89846349D01*
X145168988Y-90170000D01*
X145137112Y-90493651D01*
X145042704Y-90804870D01*
X144889401Y-91091680D01*
X144889399Y-91091683D01*
X144889398Y-91091684D01*
X144683082Y-91343082D01*
X144431684Y-91549398D01*
X144431680Y-91549401D01*
X144144870Y-91702704D01*
X143833651Y-91797112D01*
X143591107Y-91821000D01*
X143428893Y-91821000D01*
X143186349Y-91797112D01*
X142875130Y-91702704D01*
X142588320Y-91549401D01*
X142588316Y-91549398D01*
X142336918Y-91343082D01*
X142130602Y-91091684D01*
X142130601Y-91091683D01*
X142130599Y-91091680D01*
X141977296Y-90804870D01*
X141882888Y-90493651D01*
X141851012Y-90170000D01*
X141882888Y-89846349D01*
X141977296Y-89535130D01*
X142130599Y-89248320D01*
X142145070Y-89230687D01*
X142336918Y-88996918D01*
X142588316Y-88790602D01*
X142588317Y-88790601D01*
X142588320Y-88790599D01*
X142875130Y-88637296D01*
X143186349Y-88542888D01*
X143428893Y-88519000D01*
X143591107Y-88519000D01*
X143833651Y-88542888D01*
X143833651Y-88542888D01*
G37*
G36*
X129921000Y-91821000D02*
G01*
X126619000Y-91821000D01*
X126619000Y-88519000D01*
X129921000Y-88519000D01*
X129921000Y-91821000D01*
X129921000Y-91821000D01*
G37*
G36*
X202350823Y-90093313D02*
G01*
X202511242Y-90141976D01*
X202643906Y-90212886D01*
X202659078Y-90220996D01*
X202788659Y-90327341D01*
X202895004Y-90456922D01*
X202895005Y-90456924D01*
X202974024Y-90604758D01*
X203022687Y-90765177D01*
X203039117Y-90932000D01*
X203022687Y-91098823D01*
X202974024Y-91259242D01*
X202903114Y-91391906D01*
X202895004Y-91407078D01*
X202788659Y-91536659D01*
X202659078Y-91643004D01*
X202659076Y-91643005D01*
X202511242Y-91722024D01*
X202350823Y-91770687D01*
X202225804Y-91783000D01*
X202142196Y-91783000D01*
X202017177Y-91770687D01*
X201856758Y-91722024D01*
X201708924Y-91643005D01*
X201708922Y-91643004D01*
X201579341Y-91536659D01*
X201472996Y-91407078D01*
X201464886Y-91391906D01*
X201393976Y-91259242D01*
X201345313Y-91098823D01*
X201328883Y-90932000D01*
X201345313Y-90765177D01*
X201393976Y-90604758D01*
X201472995Y-90456924D01*
X201472996Y-90456922D01*
X201579341Y-90327341D01*
X201708922Y-90220996D01*
X201724094Y-90212886D01*
X201856758Y-90141976D01*
X202017177Y-90093313D01*
X202142196Y-90081000D01*
X202225804Y-90081000D01*
X202350823Y-90093313D01*
X202350823Y-90093313D01*
G37*
G36*
X209970823Y-90093313D02*
G01*
X210131242Y-90141976D01*
X210263906Y-90212886D01*
X210279078Y-90220996D01*
X210408659Y-90327341D01*
X210515004Y-90456922D01*
X210515005Y-90456924D01*
X210594024Y-90604758D01*
X210642687Y-90765177D01*
X210659117Y-90932000D01*
X210642687Y-91098823D01*
X210594024Y-91259242D01*
X210523114Y-91391906D01*
X210515004Y-91407078D01*
X210408659Y-91536659D01*
X210279078Y-91643004D01*
X210279076Y-91643005D01*
X210131242Y-91722024D01*
X209970823Y-91770687D01*
X209845804Y-91783000D01*
X209762196Y-91783000D01*
X209637177Y-91770687D01*
X209476758Y-91722024D01*
X209328924Y-91643005D01*
X209328922Y-91643004D01*
X209199341Y-91536659D01*
X209092996Y-91407078D01*
X209084886Y-91391906D01*
X209013976Y-91259242D01*
X208965313Y-91098823D01*
X208948883Y-90932000D01*
X208965313Y-90765177D01*
X209013976Y-90604758D01*
X209092995Y-90456924D01*
X209092996Y-90456922D01*
X209199341Y-90327341D01*
X209328922Y-90220996D01*
X209344094Y-90212886D01*
X209476758Y-90141976D01*
X209637177Y-90093313D01*
X209762196Y-90081000D01*
X209845804Y-90081000D01*
X209970823Y-90093313D01*
X209970823Y-90093313D01*
G37*
G36*
X183392604Y-87470347D02*
G01*
X183429144Y-87481432D01*
X183462821Y-87499433D01*
X183492341Y-87523659D01*
X183516567Y-87553179D01*
X183534568Y-87586856D01*
X183545653Y-87623396D01*
X183550000Y-87667538D01*
X183550000Y-89116462D01*
X183545653Y-89160604D01*
X183534568Y-89197144D01*
X183516567Y-89230821D01*
X183492341Y-89260341D01*
X183462821Y-89284567D01*
X183429144Y-89302568D01*
X183392604Y-89313653D01*
X183348462Y-89318000D01*
X182399538Y-89318000D01*
X182355396Y-89313653D01*
X182318856Y-89302568D01*
X182285179Y-89284567D01*
X182255659Y-89260341D01*
X182231433Y-89230821D01*
X182213432Y-89197144D01*
X182202347Y-89160604D01*
X182198000Y-89116462D01*
X182198000Y-87667538D01*
X182202347Y-87623396D01*
X182213432Y-87586856D01*
X182231433Y-87553179D01*
X182255659Y-87523659D01*
X182285179Y-87499433D01*
X182318856Y-87481432D01*
X182355396Y-87470347D01*
X182399538Y-87466000D01*
X183348462Y-87466000D01*
X183392604Y-87470347D01*
X183392604Y-87470347D01*
G37*
G36*
X186192604Y-87470347D02*
G01*
X186229144Y-87481432D01*
X186262821Y-87499433D01*
X186292341Y-87523659D01*
X186316567Y-87553179D01*
X186334568Y-87586856D01*
X186345653Y-87623396D01*
X186350000Y-87667538D01*
X186350000Y-89116462D01*
X186345653Y-89160604D01*
X186334568Y-89197144D01*
X186316567Y-89230821D01*
X186292341Y-89260341D01*
X186262821Y-89284567D01*
X186229144Y-89302568D01*
X186192604Y-89313653D01*
X186148462Y-89318000D01*
X185199538Y-89318000D01*
X185155396Y-89313653D01*
X185118856Y-89302568D01*
X185085179Y-89284567D01*
X185055659Y-89260341D01*
X185031433Y-89230821D01*
X185013432Y-89197144D01*
X185002347Y-89160604D01*
X184998000Y-89116462D01*
X184998000Y-87667538D01*
X185002347Y-87623396D01*
X185013432Y-87586856D01*
X185031433Y-87553179D01*
X185055659Y-87523659D01*
X185085179Y-87499433D01*
X185118856Y-87481432D01*
X185155396Y-87470347D01*
X185199538Y-87466000D01*
X186148462Y-87466000D01*
X186192604Y-87470347D01*
X186192604Y-87470347D01*
G37*
G36*
X209970823Y-87553313D02*
G01*
X210131242Y-87601976D01*
X210253900Y-87667538D01*
X210279078Y-87680996D01*
X210408659Y-87787341D01*
X210515004Y-87916922D01*
X210515005Y-87916924D01*
X210594024Y-88064758D01*
X210642687Y-88225177D01*
X210659117Y-88392000D01*
X210642687Y-88558823D01*
X210594024Y-88719242D01*
X210555883Y-88790599D01*
X210515004Y-88867078D01*
X210408659Y-88996659D01*
X210279078Y-89103004D01*
X210279076Y-89103005D01*
X210131242Y-89182024D01*
X209970823Y-89230687D01*
X209845804Y-89243000D01*
X209762196Y-89243000D01*
X209637177Y-89230687D01*
X209476758Y-89182024D01*
X209328924Y-89103005D01*
X209328922Y-89103004D01*
X209199341Y-88996659D01*
X209092996Y-88867078D01*
X209052117Y-88790599D01*
X209013976Y-88719242D01*
X208965313Y-88558823D01*
X208948883Y-88392000D01*
X208965313Y-88225177D01*
X209013976Y-88064758D01*
X209092995Y-87916924D01*
X209092996Y-87916922D01*
X209199341Y-87787341D01*
X209328922Y-87680996D01*
X209354100Y-87667538D01*
X209476758Y-87601976D01*
X209637177Y-87553313D01*
X209762196Y-87541000D01*
X209845804Y-87541000D01*
X209970823Y-87553313D01*
X209970823Y-87553313D01*
G37*
G36*
X203035000Y-89243000D02*
G01*
X201333000Y-89243000D01*
X201333000Y-87541000D01*
X203035000Y-87541000D01*
X203035000Y-89243000D01*
X203035000Y-89243000D01*
G37*
G36*
X188748228Y-83001703D02*
G01*
X188903100Y-83065853D01*
X189042481Y-83158985D01*
X189161015Y-83277519D01*
X189254147Y-83416900D01*
X189318297Y-83571772D01*
X189351000Y-83736184D01*
X189351000Y-83903816D01*
X189318297Y-84068228D01*
X189254147Y-84223100D01*
X189161015Y-84362481D01*
X189042481Y-84481015D01*
X188903100Y-84574147D01*
X188748228Y-84638297D01*
X188583816Y-84671000D01*
X188416184Y-84671000D01*
X188251772Y-84638297D01*
X188096900Y-84574147D01*
X187957519Y-84481015D01*
X187838985Y-84362481D01*
X187745853Y-84223100D01*
X187681703Y-84068228D01*
X187649000Y-83903816D01*
X187649000Y-83736184D01*
X187681703Y-83571772D01*
X187745853Y-83416900D01*
X187838985Y-83277519D01*
X187957519Y-83158985D01*
X188096900Y-83065853D01*
X188251772Y-83001703D01*
X188416184Y-82969000D01*
X188583816Y-82969000D01*
X188748228Y-83001703D01*
X188748228Y-83001703D01*
G37*
G36*
X191351000Y-84671000D02*
G01*
X189649000Y-84671000D01*
X189649000Y-82969000D01*
X191351000Y-82969000D01*
X191351000Y-84671000D01*
X191351000Y-84671000D01*
G37*
G36*
X137780915Y-79979334D02*
G01*
X137889491Y-80012271D01*
X137889494Y-80012272D01*
X137925600Y-80031571D01*
X137989556Y-80065756D01*
X138077264Y-80137736D01*
X138149244Y-80225443D01*
X138183429Y-80289399D01*
X138202728Y-80325505D01*
X138202729Y-80325508D01*
X138235666Y-80434084D01*
X138244000Y-80518702D01*
X138244000Y-81025297D01*
X138235666Y-81109916D01*
X138203252Y-81216767D01*
X138202728Y-81218495D01*
X138198528Y-81226352D01*
X138149244Y-81318557D01*
X138077264Y-81406264D01*
X137989557Y-81478244D01*
X137925601Y-81512429D01*
X137889495Y-81531728D01*
X137889492Y-81531729D01*
X137780916Y-81564666D01*
X137668000Y-81575787D01*
X137555085Y-81564666D01*
X137446509Y-81531729D01*
X137446506Y-81531728D01*
X137410400Y-81512429D01*
X137346444Y-81478244D01*
X137258737Y-81406264D01*
X137186757Y-81318557D01*
X137143239Y-81237141D01*
X137129625Y-81216766D01*
X137112298Y-81199439D01*
X137091924Y-81185826D01*
X137069285Y-81176448D01*
X137045252Y-81171668D01*
X137020748Y-81171668D01*
X136996715Y-81176448D01*
X136974076Y-81185826D01*
X136953701Y-81199440D01*
X136936374Y-81216767D01*
X136922761Y-81237141D01*
X136879244Y-81318557D01*
X136807264Y-81406264D01*
X136719557Y-81478244D01*
X136655601Y-81512429D01*
X136619495Y-81531728D01*
X136619492Y-81531729D01*
X136510916Y-81564666D01*
X136398000Y-81575787D01*
X136285085Y-81564666D01*
X136176509Y-81531729D01*
X136176506Y-81531728D01*
X136140400Y-81512429D01*
X136076444Y-81478244D01*
X135988737Y-81406264D01*
X135925622Y-81329359D01*
X135908297Y-81312034D01*
X135887923Y-81298420D01*
X135865284Y-81289043D01*
X135841250Y-81284263D01*
X135816746Y-81284263D01*
X135792713Y-81289044D01*
X135770074Y-81298421D01*
X135749700Y-81312035D01*
X135732373Y-81329362D01*
X135718759Y-81349736D01*
X135709382Y-81372375D01*
X135704000Y-81408660D01*
X135704000Y-81573000D01*
X134552000Y-81573000D01*
X134552000Y-79971000D01*
X135704000Y-79971000D01*
X135704000Y-80135341D01*
X135706402Y-80159727D01*
X135713515Y-80183176D01*
X135725066Y-80204787D01*
X135740611Y-80223729D01*
X135759553Y-80239274D01*
X135781164Y-80250825D01*
X135804613Y-80257938D01*
X135828999Y-80260340D01*
X135853385Y-80257938D01*
X135876834Y-80250825D01*
X135898445Y-80239274D01*
X135917387Y-80223729D01*
X135925608Y-80214657D01*
X135988736Y-80137736D01*
X136076443Y-80065756D01*
X136140399Y-80031571D01*
X136176505Y-80012272D01*
X136176508Y-80012271D01*
X136285084Y-79979334D01*
X136398000Y-79968213D01*
X136510915Y-79979334D01*
X136619491Y-80012271D01*
X136619494Y-80012272D01*
X136655600Y-80031571D01*
X136719556Y-80065756D01*
X136807264Y-80137736D01*
X136879244Y-80225443D01*
X136922761Y-80306859D01*
X136936375Y-80327234D01*
X136953702Y-80344561D01*
X136974076Y-80358174D01*
X136996715Y-80367552D01*
X137020748Y-80372332D01*
X137045252Y-80372332D01*
X137069285Y-80367552D01*
X137091924Y-80358174D01*
X137112299Y-80344560D01*
X137129626Y-80327233D01*
X137143239Y-80306860D01*
X137186756Y-80225444D01*
X137258736Y-80137736D01*
X137346443Y-80065756D01*
X137410399Y-80031571D01*
X137446505Y-80012272D01*
X137446508Y-80012271D01*
X137555084Y-79979334D01*
X137668000Y-79968213D01*
X137780915Y-79979334D01*
X137780915Y-79979334D01*
G37*
G36*
X145292604Y-79596347D02*
G01*
X145329144Y-79607432D01*
X145362821Y-79625433D01*
X145392341Y-79649659D01*
X145416567Y-79679179D01*
X145434568Y-79712856D01*
X145445653Y-79749396D01*
X145450000Y-79793538D01*
X145450000Y-81242462D01*
X145445653Y-81286604D01*
X145434568Y-81323144D01*
X145416567Y-81356821D01*
X145392341Y-81386341D01*
X145362821Y-81410567D01*
X145329144Y-81428568D01*
X145292604Y-81439653D01*
X145248462Y-81444000D01*
X144299538Y-81444000D01*
X144255396Y-81439653D01*
X144218856Y-81428568D01*
X144185179Y-81410567D01*
X144155659Y-81386341D01*
X144131433Y-81356821D01*
X144113432Y-81323144D01*
X144102347Y-81286604D01*
X144098000Y-81242462D01*
X144098000Y-79793538D01*
X144102347Y-79749396D01*
X144113432Y-79712856D01*
X144131433Y-79679179D01*
X144155659Y-79649659D01*
X144185179Y-79625433D01*
X144218856Y-79607432D01*
X144255396Y-79596347D01*
X144299538Y-79592000D01*
X145248462Y-79592000D01*
X145292604Y-79596347D01*
X145292604Y-79596347D01*
G37*
G36*
X148092604Y-79596347D02*
G01*
X148129144Y-79607432D01*
X148162821Y-79625433D01*
X148192341Y-79649659D01*
X148216567Y-79679179D01*
X148234568Y-79712856D01*
X148245653Y-79749396D01*
X148250000Y-79793538D01*
X148250000Y-81242462D01*
X148245653Y-81286604D01*
X148234568Y-81323144D01*
X148216567Y-81356821D01*
X148192341Y-81386341D01*
X148162821Y-81410567D01*
X148129144Y-81428568D01*
X148092604Y-81439653D01*
X148048462Y-81444000D01*
X147099538Y-81444000D01*
X147055396Y-81439653D01*
X147018856Y-81428568D01*
X146985179Y-81410567D01*
X146955659Y-81386341D01*
X146931433Y-81356821D01*
X146913432Y-81323144D01*
X146902347Y-81286604D01*
X146898000Y-81242462D01*
X146898000Y-79793538D01*
X146902347Y-79749396D01*
X146913432Y-79712856D01*
X146931433Y-79679179D01*
X146955659Y-79649659D01*
X146985179Y-79625433D01*
X147018856Y-79607432D01*
X147055396Y-79596347D01*
X147099538Y-79592000D01*
X148048462Y-79592000D01*
X148092604Y-79596347D01*
X148092604Y-79596347D01*
G37*
G36*
X216796604Y-76802347D02*
G01*
X216833144Y-76813432D01*
X216866821Y-76831433D01*
X216896341Y-76855659D01*
X216920567Y-76885179D01*
X216938568Y-76918856D01*
X216949653Y-76955396D01*
X216954000Y-76999538D01*
X216954000Y-78448462D01*
X216949653Y-78492604D01*
X216938568Y-78529144D01*
X216920567Y-78562821D01*
X216896341Y-78592341D01*
X216866821Y-78616567D01*
X216833144Y-78634568D01*
X216796604Y-78645653D01*
X216752462Y-78650000D01*
X215803538Y-78650000D01*
X215759396Y-78645653D01*
X215722856Y-78634568D01*
X215689179Y-78616567D01*
X215659659Y-78592341D01*
X215635433Y-78562821D01*
X215617432Y-78529144D01*
X215606347Y-78492604D01*
X215602000Y-78448462D01*
X215602000Y-76999538D01*
X215606347Y-76955396D01*
X215617432Y-76918856D01*
X215635433Y-76885179D01*
X215659659Y-76855659D01*
X215689179Y-76831433D01*
X215722856Y-76813432D01*
X215759396Y-76802347D01*
X215803538Y-76798000D01*
X216752462Y-76798000D01*
X216796604Y-76802347D01*
X216796604Y-76802347D01*
G37*
G36*
X219596604Y-76802347D02*
G01*
X219633144Y-76813432D01*
X219666821Y-76831433D01*
X219696341Y-76855659D01*
X219720567Y-76885179D01*
X219738568Y-76918856D01*
X219749653Y-76955396D01*
X219754000Y-76999538D01*
X219754000Y-78448462D01*
X219749653Y-78492604D01*
X219738568Y-78529144D01*
X219720567Y-78562821D01*
X219696341Y-78592341D01*
X219666821Y-78616567D01*
X219633144Y-78634568D01*
X219596604Y-78645653D01*
X219552462Y-78650000D01*
X218603538Y-78650000D01*
X218559396Y-78645653D01*
X218522856Y-78634568D01*
X218489179Y-78616567D01*
X218459659Y-78592341D01*
X218435433Y-78562821D01*
X218417432Y-78529144D01*
X218406347Y-78492604D01*
X218402000Y-78448462D01*
X218402000Y-76999538D01*
X218406347Y-76955396D01*
X218417432Y-76918856D01*
X218435433Y-76885179D01*
X218459659Y-76855659D01*
X218489179Y-76831433D01*
X218522856Y-76813432D01*
X218559396Y-76802347D01*
X218603538Y-76798000D01*
X219552462Y-76798000D01*
X219596604Y-76802347D01*
X219596604Y-76802347D01*
G37*
G36*
X191401000Y-78371000D02*
G01*
X189599000Y-78371000D01*
X189599000Y-76569000D01*
X191401000Y-76569000D01*
X191401000Y-78371000D01*
X191401000Y-78371000D01*
G37*
G36*
X155050443Y-76575519D02*
G01*
X155116627Y-76582037D01*
X155286466Y-76633557D01*
X155442991Y-76717222D01*
X155478729Y-76746552D01*
X155580186Y-76829814D01*
X155652700Y-76918174D01*
X155692778Y-76967009D01*
X155776443Y-77123534D01*
X155827963Y-77293373D01*
X155845359Y-77470000D01*
X155827963Y-77646627D01*
X155776443Y-77816466D01*
X155692778Y-77972991D01*
X155663448Y-78008729D01*
X155580186Y-78110186D01*
X155478729Y-78193448D01*
X155442991Y-78222778D01*
X155286466Y-78306443D01*
X155116627Y-78357963D01*
X155050443Y-78364481D01*
X154984260Y-78371000D01*
X154895740Y-78371000D01*
X154829557Y-78364481D01*
X154763373Y-78357963D01*
X154593534Y-78306443D01*
X154437009Y-78222778D01*
X154401271Y-78193448D01*
X154299814Y-78110186D01*
X154216552Y-78008729D01*
X154187222Y-77972991D01*
X154103557Y-77816466D01*
X154052037Y-77646627D01*
X154034641Y-77470000D01*
X154052037Y-77293373D01*
X154103557Y-77123534D01*
X154187222Y-76967009D01*
X154227300Y-76918174D01*
X154299814Y-76829814D01*
X154401271Y-76746552D01*
X154437009Y-76717222D01*
X154593534Y-76633557D01*
X154763373Y-76582037D01*
X154829557Y-76575519D01*
X154895740Y-76569000D01*
X154984260Y-76569000D01*
X155050443Y-76575519D01*
X155050443Y-76575519D01*
G37*
G36*
X185530443Y-76575519D02*
G01*
X185596627Y-76582037D01*
X185766466Y-76633557D01*
X185922991Y-76717222D01*
X185958729Y-76746552D01*
X186060186Y-76829814D01*
X186132700Y-76918174D01*
X186172778Y-76967009D01*
X186256443Y-77123534D01*
X186307963Y-77293373D01*
X186325359Y-77470000D01*
X186307963Y-77646627D01*
X186256443Y-77816466D01*
X186172778Y-77972991D01*
X186143448Y-78008729D01*
X186060186Y-78110186D01*
X185958729Y-78193448D01*
X185922991Y-78222778D01*
X185766466Y-78306443D01*
X185596627Y-78357963D01*
X185530443Y-78364481D01*
X185464260Y-78371000D01*
X185375740Y-78371000D01*
X185309557Y-78364481D01*
X185243373Y-78357963D01*
X185073534Y-78306443D01*
X184917009Y-78222778D01*
X184881271Y-78193448D01*
X184779814Y-78110186D01*
X184696552Y-78008729D01*
X184667222Y-77972991D01*
X184583557Y-77816466D01*
X184532037Y-77646627D01*
X184514641Y-77470000D01*
X184532037Y-77293373D01*
X184583557Y-77123534D01*
X184667222Y-76967009D01*
X184707300Y-76918174D01*
X184779814Y-76829814D01*
X184881271Y-76746552D01*
X184917009Y-76717222D01*
X185073534Y-76633557D01*
X185243373Y-76582037D01*
X185309557Y-76575519D01*
X185375740Y-76569000D01*
X185464260Y-76569000D01*
X185530443Y-76575519D01*
X185530443Y-76575519D01*
G37*
G36*
X182990443Y-76575519D02*
G01*
X183056627Y-76582037D01*
X183226466Y-76633557D01*
X183382991Y-76717222D01*
X183418729Y-76746552D01*
X183520186Y-76829814D01*
X183592700Y-76918174D01*
X183632778Y-76967009D01*
X183716443Y-77123534D01*
X183767963Y-77293373D01*
X183785359Y-77470000D01*
X183767963Y-77646627D01*
X183716443Y-77816466D01*
X183632778Y-77972991D01*
X183603448Y-78008729D01*
X183520186Y-78110186D01*
X183418729Y-78193448D01*
X183382991Y-78222778D01*
X183226466Y-78306443D01*
X183056627Y-78357963D01*
X182990443Y-78364481D01*
X182924260Y-78371000D01*
X182835740Y-78371000D01*
X182769557Y-78364481D01*
X182703373Y-78357963D01*
X182533534Y-78306443D01*
X182377009Y-78222778D01*
X182341271Y-78193448D01*
X182239814Y-78110186D01*
X182156552Y-78008729D01*
X182127222Y-77972991D01*
X182043557Y-77816466D01*
X181992037Y-77646627D01*
X181974641Y-77470000D01*
X181992037Y-77293373D01*
X182043557Y-77123534D01*
X182127222Y-76967009D01*
X182167300Y-76918174D01*
X182239814Y-76829814D01*
X182341271Y-76746552D01*
X182377009Y-76717222D01*
X182533534Y-76633557D01*
X182703373Y-76582037D01*
X182769557Y-76575519D01*
X182835740Y-76569000D01*
X182924260Y-76569000D01*
X182990443Y-76575519D01*
X182990443Y-76575519D01*
G37*
G36*
X180450443Y-76575519D02*
G01*
X180516627Y-76582037D01*
X180686466Y-76633557D01*
X180842991Y-76717222D01*
X180878729Y-76746552D01*
X180980186Y-76829814D01*
X181052700Y-76918174D01*
X181092778Y-76967009D01*
X181176443Y-77123534D01*
X181227963Y-77293373D01*
X181245359Y-77470000D01*
X181227963Y-77646627D01*
X181176443Y-77816466D01*
X181092778Y-77972991D01*
X181063448Y-78008729D01*
X180980186Y-78110186D01*
X180878729Y-78193448D01*
X180842991Y-78222778D01*
X180686466Y-78306443D01*
X180516627Y-78357963D01*
X180450443Y-78364481D01*
X180384260Y-78371000D01*
X180295740Y-78371000D01*
X180229557Y-78364481D01*
X180163373Y-78357963D01*
X179993534Y-78306443D01*
X179837009Y-78222778D01*
X179801271Y-78193448D01*
X179699814Y-78110186D01*
X179616552Y-78008729D01*
X179587222Y-77972991D01*
X179503557Y-77816466D01*
X179452037Y-77646627D01*
X179434641Y-77470000D01*
X179452037Y-77293373D01*
X179503557Y-77123534D01*
X179587222Y-76967009D01*
X179627300Y-76918174D01*
X179699814Y-76829814D01*
X179801271Y-76746552D01*
X179837009Y-76717222D01*
X179993534Y-76633557D01*
X180163373Y-76582037D01*
X180229557Y-76575519D01*
X180295740Y-76569000D01*
X180384260Y-76569000D01*
X180450443Y-76575519D01*
X180450443Y-76575519D01*
G37*
G36*
X177910443Y-76575519D02*
G01*
X177976627Y-76582037D01*
X178146466Y-76633557D01*
X178302991Y-76717222D01*
X178338729Y-76746552D01*
X178440186Y-76829814D01*
X178512700Y-76918174D01*
X178552778Y-76967009D01*
X178636443Y-77123534D01*
X178687963Y-77293373D01*
X178705359Y-77470000D01*
X178687963Y-77646627D01*
X178636443Y-77816466D01*
X178552778Y-77972991D01*
X178523448Y-78008729D01*
X178440186Y-78110186D01*
X178338729Y-78193448D01*
X178302991Y-78222778D01*
X178146466Y-78306443D01*
X177976627Y-78357963D01*
X177910443Y-78364481D01*
X177844260Y-78371000D01*
X177755740Y-78371000D01*
X177689557Y-78364481D01*
X177623373Y-78357963D01*
X177453534Y-78306443D01*
X177297009Y-78222778D01*
X177261271Y-78193448D01*
X177159814Y-78110186D01*
X177076552Y-78008729D01*
X177047222Y-77972991D01*
X176963557Y-77816466D01*
X176912037Y-77646627D01*
X176894641Y-77470000D01*
X176912037Y-77293373D01*
X176963557Y-77123534D01*
X177047222Y-76967009D01*
X177087300Y-76918174D01*
X177159814Y-76829814D01*
X177261271Y-76746552D01*
X177297009Y-76717222D01*
X177453534Y-76633557D01*
X177623373Y-76582037D01*
X177689557Y-76575519D01*
X177755740Y-76569000D01*
X177844260Y-76569000D01*
X177910443Y-76575519D01*
X177910443Y-76575519D01*
G37*
G36*
X188070443Y-76575519D02*
G01*
X188136627Y-76582037D01*
X188306466Y-76633557D01*
X188462991Y-76717222D01*
X188498729Y-76746552D01*
X188600186Y-76829814D01*
X188672700Y-76918174D01*
X188712778Y-76967009D01*
X188796443Y-77123534D01*
X188847963Y-77293373D01*
X188865359Y-77470000D01*
X188847963Y-77646627D01*
X188796443Y-77816466D01*
X188712778Y-77972991D01*
X188683448Y-78008729D01*
X188600186Y-78110186D01*
X188498729Y-78193448D01*
X188462991Y-78222778D01*
X188306466Y-78306443D01*
X188136627Y-78357963D01*
X188070443Y-78364481D01*
X188004260Y-78371000D01*
X187915740Y-78371000D01*
X187849557Y-78364481D01*
X187783373Y-78357963D01*
X187613534Y-78306443D01*
X187457009Y-78222778D01*
X187421271Y-78193448D01*
X187319814Y-78110186D01*
X187236552Y-78008729D01*
X187207222Y-77972991D01*
X187123557Y-77816466D01*
X187072037Y-77646627D01*
X187054641Y-77470000D01*
X187072037Y-77293373D01*
X187123557Y-77123534D01*
X187207222Y-76967009D01*
X187247300Y-76918174D01*
X187319814Y-76829814D01*
X187421271Y-76746552D01*
X187457009Y-76717222D01*
X187613534Y-76633557D01*
X187783373Y-76582037D01*
X187849557Y-76575519D01*
X187915740Y-76569000D01*
X188004260Y-76569000D01*
X188070443Y-76575519D01*
X188070443Y-76575519D01*
G37*
G36*
X172830443Y-76575519D02*
G01*
X172896627Y-76582037D01*
X173066466Y-76633557D01*
X173222991Y-76717222D01*
X173258729Y-76746552D01*
X173360186Y-76829814D01*
X173432700Y-76918174D01*
X173472778Y-76967009D01*
X173556443Y-77123534D01*
X173607963Y-77293373D01*
X173625359Y-77470000D01*
X173607963Y-77646627D01*
X173556443Y-77816466D01*
X173472778Y-77972991D01*
X173443448Y-78008729D01*
X173360186Y-78110186D01*
X173258729Y-78193448D01*
X173222991Y-78222778D01*
X173066466Y-78306443D01*
X172896627Y-78357963D01*
X172830443Y-78364481D01*
X172764260Y-78371000D01*
X172675740Y-78371000D01*
X172609557Y-78364481D01*
X172543373Y-78357963D01*
X172373534Y-78306443D01*
X172217009Y-78222778D01*
X172181271Y-78193448D01*
X172079814Y-78110186D01*
X171996552Y-78008729D01*
X171967222Y-77972991D01*
X171883557Y-77816466D01*
X171832037Y-77646627D01*
X171814641Y-77470000D01*
X171832037Y-77293373D01*
X171883557Y-77123534D01*
X171967222Y-76967009D01*
X172007300Y-76918174D01*
X172079814Y-76829814D01*
X172181271Y-76746552D01*
X172217009Y-76717222D01*
X172373534Y-76633557D01*
X172543373Y-76582037D01*
X172609557Y-76575519D01*
X172675740Y-76569000D01*
X172764260Y-76569000D01*
X172830443Y-76575519D01*
X172830443Y-76575519D01*
G37*
G36*
X167750443Y-76575519D02*
G01*
X167816627Y-76582037D01*
X167986466Y-76633557D01*
X168142991Y-76717222D01*
X168178729Y-76746552D01*
X168280186Y-76829814D01*
X168352700Y-76918174D01*
X168392778Y-76967009D01*
X168476443Y-77123534D01*
X168527963Y-77293373D01*
X168545359Y-77470000D01*
X168527963Y-77646627D01*
X168476443Y-77816466D01*
X168392778Y-77972991D01*
X168363448Y-78008729D01*
X168280186Y-78110186D01*
X168178729Y-78193448D01*
X168142991Y-78222778D01*
X167986466Y-78306443D01*
X167816627Y-78357963D01*
X167750443Y-78364481D01*
X167684260Y-78371000D01*
X167595740Y-78371000D01*
X167529557Y-78364481D01*
X167463373Y-78357963D01*
X167293534Y-78306443D01*
X167137009Y-78222778D01*
X167101271Y-78193448D01*
X166999814Y-78110186D01*
X166916552Y-78008729D01*
X166887222Y-77972991D01*
X166803557Y-77816466D01*
X166752037Y-77646627D01*
X166734641Y-77470000D01*
X166752037Y-77293373D01*
X166803557Y-77123534D01*
X166887222Y-76967009D01*
X166927300Y-76918174D01*
X166999814Y-76829814D01*
X167101271Y-76746552D01*
X167137009Y-76717222D01*
X167293534Y-76633557D01*
X167463373Y-76582037D01*
X167529557Y-76575519D01*
X167595740Y-76569000D01*
X167684260Y-76569000D01*
X167750443Y-76575519D01*
X167750443Y-76575519D01*
G37*
G36*
X170290443Y-76575519D02*
G01*
X170356627Y-76582037D01*
X170526466Y-76633557D01*
X170682991Y-76717222D01*
X170718729Y-76746552D01*
X170820186Y-76829814D01*
X170892700Y-76918174D01*
X170932778Y-76967009D01*
X171016443Y-77123534D01*
X171067963Y-77293373D01*
X171085359Y-77470000D01*
X171067963Y-77646627D01*
X171016443Y-77816466D01*
X170932778Y-77972991D01*
X170903448Y-78008729D01*
X170820186Y-78110186D01*
X170718729Y-78193448D01*
X170682991Y-78222778D01*
X170526466Y-78306443D01*
X170356627Y-78357963D01*
X170290443Y-78364481D01*
X170224260Y-78371000D01*
X170135740Y-78371000D01*
X170069557Y-78364481D01*
X170003373Y-78357963D01*
X169833534Y-78306443D01*
X169677009Y-78222778D01*
X169641271Y-78193448D01*
X169539814Y-78110186D01*
X169456552Y-78008729D01*
X169427222Y-77972991D01*
X169343557Y-77816466D01*
X169292037Y-77646627D01*
X169274641Y-77470000D01*
X169292037Y-77293373D01*
X169343557Y-77123534D01*
X169427222Y-76967009D01*
X169467300Y-76918174D01*
X169539814Y-76829814D01*
X169641271Y-76746552D01*
X169677009Y-76717222D01*
X169833534Y-76633557D01*
X170003373Y-76582037D01*
X170069557Y-76575519D01*
X170135740Y-76569000D01*
X170224260Y-76569000D01*
X170290443Y-76575519D01*
X170290443Y-76575519D01*
G37*
G36*
X175370443Y-76575519D02*
G01*
X175436627Y-76582037D01*
X175606466Y-76633557D01*
X175762991Y-76717222D01*
X175798729Y-76746552D01*
X175900186Y-76829814D01*
X175972700Y-76918174D01*
X176012778Y-76967009D01*
X176096443Y-77123534D01*
X176147963Y-77293373D01*
X176165359Y-77470000D01*
X176147963Y-77646627D01*
X176096443Y-77816466D01*
X176012778Y-77972991D01*
X175983448Y-78008729D01*
X175900186Y-78110186D01*
X175798729Y-78193448D01*
X175762991Y-78222778D01*
X175606466Y-78306443D01*
X175436627Y-78357963D01*
X175370443Y-78364481D01*
X175304260Y-78371000D01*
X175215740Y-78371000D01*
X175149557Y-78364481D01*
X175083373Y-78357963D01*
X174913534Y-78306443D01*
X174757009Y-78222778D01*
X174721271Y-78193448D01*
X174619814Y-78110186D01*
X174536552Y-78008729D01*
X174507222Y-77972991D01*
X174423557Y-77816466D01*
X174372037Y-77646627D01*
X174354641Y-77470000D01*
X174372037Y-77293373D01*
X174423557Y-77123534D01*
X174507222Y-76967009D01*
X174547300Y-76918174D01*
X174619814Y-76829814D01*
X174721271Y-76746552D01*
X174757009Y-76717222D01*
X174913534Y-76633557D01*
X175083373Y-76582037D01*
X175149557Y-76575519D01*
X175215740Y-76569000D01*
X175304260Y-76569000D01*
X175370443Y-76575519D01*
X175370443Y-76575519D01*
G37*
G36*
X152510443Y-76575519D02*
G01*
X152576627Y-76582037D01*
X152746466Y-76633557D01*
X152902991Y-76717222D01*
X152938729Y-76746552D01*
X153040186Y-76829814D01*
X153112700Y-76918174D01*
X153152778Y-76967009D01*
X153236443Y-77123534D01*
X153287963Y-77293373D01*
X153305359Y-77470000D01*
X153287963Y-77646627D01*
X153236443Y-77816466D01*
X153152778Y-77972991D01*
X153123448Y-78008729D01*
X153040186Y-78110186D01*
X152938729Y-78193448D01*
X152902991Y-78222778D01*
X152746466Y-78306443D01*
X152576627Y-78357963D01*
X152510443Y-78364481D01*
X152444260Y-78371000D01*
X152355740Y-78371000D01*
X152289557Y-78364481D01*
X152223373Y-78357963D01*
X152053534Y-78306443D01*
X151897009Y-78222778D01*
X151861271Y-78193448D01*
X151759814Y-78110186D01*
X151676552Y-78008729D01*
X151647222Y-77972991D01*
X151563557Y-77816466D01*
X151512037Y-77646627D01*
X151494641Y-77470000D01*
X151512037Y-77293373D01*
X151563557Y-77123534D01*
X151647222Y-76967009D01*
X151687300Y-76918174D01*
X151759814Y-76829814D01*
X151861271Y-76746552D01*
X151897009Y-76717222D01*
X152053534Y-76633557D01*
X152223373Y-76582037D01*
X152289557Y-76575519D01*
X152355740Y-76569000D01*
X152444260Y-76569000D01*
X152510443Y-76575519D01*
X152510443Y-76575519D01*
G37*
G36*
X157590443Y-76575519D02*
G01*
X157656627Y-76582037D01*
X157826466Y-76633557D01*
X157982991Y-76717222D01*
X158018729Y-76746552D01*
X158120186Y-76829814D01*
X158192700Y-76918174D01*
X158232778Y-76967009D01*
X158316443Y-77123534D01*
X158367963Y-77293373D01*
X158385359Y-77470000D01*
X158367963Y-77646627D01*
X158316443Y-77816466D01*
X158232778Y-77972991D01*
X158203448Y-78008729D01*
X158120186Y-78110186D01*
X158018729Y-78193448D01*
X157982991Y-78222778D01*
X157826466Y-78306443D01*
X157656627Y-78357963D01*
X157590443Y-78364481D01*
X157524260Y-78371000D01*
X157435740Y-78371000D01*
X157369557Y-78364481D01*
X157303373Y-78357963D01*
X157133534Y-78306443D01*
X156977009Y-78222778D01*
X156941271Y-78193448D01*
X156839814Y-78110186D01*
X156756552Y-78008729D01*
X156727222Y-77972991D01*
X156643557Y-77816466D01*
X156592037Y-77646627D01*
X156574641Y-77470000D01*
X156592037Y-77293373D01*
X156643557Y-77123534D01*
X156727222Y-76967009D01*
X156767300Y-76918174D01*
X156839814Y-76829814D01*
X156941271Y-76746552D01*
X156977009Y-76717222D01*
X157133534Y-76633557D01*
X157303373Y-76582037D01*
X157369557Y-76575519D01*
X157435740Y-76569000D01*
X157524260Y-76569000D01*
X157590443Y-76575519D01*
X157590443Y-76575519D01*
G37*
G36*
X160130443Y-76575519D02*
G01*
X160196627Y-76582037D01*
X160366466Y-76633557D01*
X160522991Y-76717222D01*
X160558729Y-76746552D01*
X160660186Y-76829814D01*
X160732700Y-76918174D01*
X160772778Y-76967009D01*
X160856443Y-77123534D01*
X160907963Y-77293373D01*
X160925359Y-77470000D01*
X160907963Y-77646627D01*
X160856443Y-77816466D01*
X160772778Y-77972991D01*
X160743448Y-78008729D01*
X160660186Y-78110186D01*
X160558729Y-78193448D01*
X160522991Y-78222778D01*
X160366466Y-78306443D01*
X160196627Y-78357963D01*
X160130443Y-78364481D01*
X160064260Y-78371000D01*
X159975740Y-78371000D01*
X159909557Y-78364481D01*
X159843373Y-78357963D01*
X159673534Y-78306443D01*
X159517009Y-78222778D01*
X159481271Y-78193448D01*
X159379814Y-78110186D01*
X159296552Y-78008729D01*
X159267222Y-77972991D01*
X159183557Y-77816466D01*
X159132037Y-77646627D01*
X159114641Y-77470000D01*
X159132037Y-77293373D01*
X159183557Y-77123534D01*
X159267222Y-76967009D01*
X159307300Y-76918174D01*
X159379814Y-76829814D01*
X159481271Y-76746552D01*
X159517009Y-76717222D01*
X159673534Y-76633557D01*
X159843373Y-76582037D01*
X159909557Y-76575519D01*
X159975740Y-76569000D01*
X160064260Y-76569000D01*
X160130443Y-76575519D01*
X160130443Y-76575519D01*
G37*
G36*
X162670443Y-76575519D02*
G01*
X162736627Y-76582037D01*
X162906466Y-76633557D01*
X163062991Y-76717222D01*
X163098729Y-76746552D01*
X163200186Y-76829814D01*
X163272700Y-76918174D01*
X163312778Y-76967009D01*
X163396443Y-77123534D01*
X163447963Y-77293373D01*
X163465359Y-77470000D01*
X163447963Y-77646627D01*
X163396443Y-77816466D01*
X163312778Y-77972991D01*
X163283448Y-78008729D01*
X163200186Y-78110186D01*
X163098729Y-78193448D01*
X163062991Y-78222778D01*
X162906466Y-78306443D01*
X162736627Y-78357963D01*
X162670443Y-78364481D01*
X162604260Y-78371000D01*
X162515740Y-78371000D01*
X162449557Y-78364481D01*
X162383373Y-78357963D01*
X162213534Y-78306443D01*
X162057009Y-78222778D01*
X162021271Y-78193448D01*
X161919814Y-78110186D01*
X161836552Y-78008729D01*
X161807222Y-77972991D01*
X161723557Y-77816466D01*
X161672037Y-77646627D01*
X161654641Y-77470000D01*
X161672037Y-77293373D01*
X161723557Y-77123534D01*
X161807222Y-76967009D01*
X161847300Y-76918174D01*
X161919814Y-76829814D01*
X162021271Y-76746552D01*
X162057009Y-76717222D01*
X162213534Y-76633557D01*
X162383373Y-76582037D01*
X162449557Y-76575519D01*
X162515740Y-76569000D01*
X162604260Y-76569000D01*
X162670443Y-76575519D01*
X162670443Y-76575519D01*
G37*
G36*
X165210443Y-76575519D02*
G01*
X165276627Y-76582037D01*
X165446466Y-76633557D01*
X165602991Y-76717222D01*
X165638729Y-76746552D01*
X165740186Y-76829814D01*
X165812700Y-76918174D01*
X165852778Y-76967009D01*
X165936443Y-77123534D01*
X165987963Y-77293373D01*
X166005359Y-77470000D01*
X165987963Y-77646627D01*
X165936443Y-77816466D01*
X165852778Y-77972991D01*
X165823448Y-78008729D01*
X165740186Y-78110186D01*
X165638729Y-78193448D01*
X165602991Y-78222778D01*
X165446466Y-78306443D01*
X165276627Y-78357963D01*
X165210443Y-78364481D01*
X165144260Y-78371000D01*
X165055740Y-78371000D01*
X164989557Y-78364481D01*
X164923373Y-78357963D01*
X164753534Y-78306443D01*
X164597009Y-78222778D01*
X164561271Y-78193448D01*
X164459814Y-78110186D01*
X164376552Y-78008729D01*
X164347222Y-77972991D01*
X164263557Y-77816466D01*
X164212037Y-77646627D01*
X164194641Y-77470000D01*
X164212037Y-77293373D01*
X164263557Y-77123534D01*
X164347222Y-76967009D01*
X164387300Y-76918174D01*
X164459814Y-76829814D01*
X164561271Y-76746552D01*
X164597009Y-76717222D01*
X164753534Y-76633557D01*
X164923373Y-76582037D01*
X164989557Y-76575519D01*
X165055740Y-76569000D01*
X165144260Y-76569000D01*
X165210443Y-76575519D01*
X165210443Y-76575519D01*
G37*
G36*
X142663241Y-68454760D02*
G01*
X142927305Y-68564139D01*
X143164958Y-68722934D01*
X143367066Y-68925042D01*
X143525861Y-69162695D01*
X143635240Y-69426759D01*
X143691000Y-69707088D01*
X143691000Y-69992912D01*
X143635240Y-70273241D01*
X143525861Y-70537305D01*
X143367066Y-70774958D01*
X143164958Y-70977066D01*
X142927305Y-71135861D01*
X142663241Y-71245240D01*
X142382912Y-71301000D01*
X142097088Y-71301000D01*
X141816759Y-71245240D01*
X141552695Y-71135861D01*
X141315042Y-70977066D01*
X141112934Y-70774958D01*
X140954139Y-70537305D01*
X140844760Y-70273241D01*
X140789000Y-69992912D01*
X140789000Y-69707088D01*
X140844760Y-69426759D01*
X140954139Y-69162695D01*
X141112934Y-68925042D01*
X141315042Y-68722934D01*
X141552695Y-68564139D01*
X141816759Y-68454760D01*
X142097088Y-68399000D01*
X142382912Y-68399000D01*
X142663241Y-68454760D01*
X142663241Y-68454760D01*
G37*
G36*
X219466604Y-69182347D02*
G01*
X219503144Y-69193432D01*
X219536821Y-69211433D01*
X219566341Y-69235659D01*
X219590567Y-69265179D01*
X219608568Y-69298856D01*
X219619653Y-69335396D01*
X219624000Y-69379538D01*
X219624000Y-70828462D01*
X219619653Y-70872604D01*
X219608568Y-70909144D01*
X219590567Y-70942821D01*
X219566341Y-70972341D01*
X219536821Y-70996567D01*
X219503144Y-71014568D01*
X219466604Y-71025653D01*
X219422462Y-71030000D01*
X218473538Y-71030000D01*
X218429396Y-71025653D01*
X218392856Y-71014568D01*
X218359179Y-70996567D01*
X218329659Y-70972341D01*
X218305433Y-70942821D01*
X218287432Y-70909144D01*
X218276347Y-70872604D01*
X218272000Y-70828462D01*
X218272000Y-69379538D01*
X218276347Y-69335396D01*
X218287432Y-69298856D01*
X218305433Y-69265179D01*
X218329659Y-69235659D01*
X218359179Y-69211433D01*
X218392856Y-69193432D01*
X218429396Y-69182347D01*
X218473538Y-69178000D01*
X219422462Y-69178000D01*
X219466604Y-69182347D01*
X219466604Y-69182347D01*
G37*
G36*
X216666604Y-69182347D02*
G01*
X216703144Y-69193432D01*
X216736821Y-69211433D01*
X216766341Y-69235659D01*
X216790567Y-69265179D01*
X216808568Y-69298856D01*
X216819653Y-69335396D01*
X216824000Y-69379538D01*
X216824000Y-70828462D01*
X216819653Y-70872604D01*
X216808568Y-70909144D01*
X216790567Y-70942821D01*
X216766341Y-70972341D01*
X216736821Y-70996567D01*
X216703144Y-71014568D01*
X216666604Y-71025653D01*
X216622462Y-71030000D01*
X215673538Y-71030000D01*
X215629396Y-71025653D01*
X215592856Y-71014568D01*
X215559179Y-70996567D01*
X215529659Y-70972341D01*
X215505433Y-70942821D01*
X215487432Y-70909144D01*
X215476347Y-70872604D01*
X215472000Y-70828462D01*
X215472000Y-69379538D01*
X215476347Y-69335396D01*
X215487432Y-69298856D01*
X215505433Y-69265179D01*
X215529659Y-69235659D01*
X215559179Y-69211433D01*
X215592856Y-69193432D01*
X215629396Y-69182347D01*
X215673538Y-69178000D01*
X216622462Y-69178000D01*
X216666604Y-69182347D01*
X216666604Y-69182347D01*
G37*
G36*
X201511000Y-68161000D02*
G01*
X199809000Y-68161000D01*
X199809000Y-66459000D01*
X201511000Y-66459000D01*
X201511000Y-68161000D01*
X201511000Y-68161000D01*
G37*
G36*
X147573642Y-66579781D02*
G01*
X147719414Y-66640162D01*
X147719416Y-66640163D01*
X147850608Y-66727822D01*
X147962178Y-66839392D01*
X148023110Y-66930584D01*
X148049838Y-66970586D01*
X148110219Y-67116358D01*
X148141000Y-67271107D01*
X148141000Y-67428893D01*
X148110219Y-67583642D01*
X148066406Y-67689416D01*
X148049837Y-67729416D01*
X147962178Y-67860608D01*
X147850608Y-67972178D01*
X147719416Y-68059837D01*
X147719415Y-68059838D01*
X147719414Y-68059838D01*
X147573642Y-68120219D01*
X147418893Y-68151000D01*
X147261107Y-68151000D01*
X147106358Y-68120219D01*
X146960586Y-68059838D01*
X146960585Y-68059838D01*
X146960584Y-68059837D01*
X146829392Y-67972178D01*
X146717822Y-67860608D01*
X146630163Y-67729416D01*
X146613594Y-67689416D01*
X146569781Y-67583642D01*
X146539000Y-67428893D01*
X146539000Y-67271107D01*
X146569781Y-67116358D01*
X146630162Y-66970586D01*
X146656890Y-66930584D01*
X146717822Y-66839392D01*
X146829392Y-66727822D01*
X146960584Y-66640163D01*
X146960586Y-66640162D01*
X147106358Y-66579781D01*
X147261107Y-66549000D01*
X147418893Y-66549000D01*
X147573642Y-66579781D01*
X147573642Y-66579781D01*
G37*
G36*
X137373642Y-66579781D02*
G01*
X137519414Y-66640162D01*
X137519416Y-66640163D01*
X137650608Y-66727822D01*
X137762178Y-66839392D01*
X137823110Y-66930584D01*
X137849838Y-66970586D01*
X137910219Y-67116358D01*
X137941000Y-67271107D01*
X137941000Y-67428893D01*
X137910219Y-67583642D01*
X137866406Y-67689416D01*
X137849837Y-67729416D01*
X137762178Y-67860608D01*
X137650608Y-67972178D01*
X137519416Y-68059837D01*
X137519415Y-68059838D01*
X137519414Y-68059838D01*
X137373642Y-68120219D01*
X137218893Y-68151000D01*
X137061107Y-68151000D01*
X136906358Y-68120219D01*
X136760586Y-68059838D01*
X136760585Y-68059838D01*
X136760584Y-68059837D01*
X136629392Y-67972178D01*
X136517822Y-67860608D01*
X136430163Y-67729416D01*
X136413594Y-67689416D01*
X136369781Y-67583642D01*
X136339000Y-67428893D01*
X136339000Y-67271107D01*
X136369781Y-67116358D01*
X136430162Y-66970586D01*
X136456890Y-66930584D01*
X136517822Y-66839392D01*
X136629392Y-66727822D01*
X136760584Y-66640163D01*
X136760586Y-66640162D01*
X136906358Y-66579781D01*
X137061107Y-66549000D01*
X137218893Y-66549000D01*
X137373642Y-66579781D01*
X137373642Y-66579781D01*
G37*
G36*
X108183642Y-66539781D02*
G01*
X108329414Y-66600162D01*
X108329416Y-66600163D01*
X108460608Y-66687822D01*
X108572178Y-66799392D01*
X108659837Y-66930584D01*
X108659838Y-66930586D01*
X108720219Y-67076358D01*
X108751000Y-67231107D01*
X108751000Y-67388893D01*
X108720219Y-67543642D01*
X108659838Y-67689414D01*
X108659837Y-67689416D01*
X108572178Y-67820608D01*
X108460608Y-67932178D01*
X108329416Y-68019837D01*
X108329415Y-68019838D01*
X108329414Y-68019838D01*
X108183642Y-68080219D01*
X108028893Y-68111000D01*
X107871107Y-68111000D01*
X107716358Y-68080219D01*
X107570586Y-68019838D01*
X107570585Y-68019838D01*
X107570584Y-68019837D01*
X107439392Y-67932178D01*
X107327822Y-67820608D01*
X107240163Y-67689416D01*
X107240162Y-67689414D01*
X107179781Y-67543642D01*
X107149000Y-67388893D01*
X107149000Y-67231107D01*
X107179781Y-67076358D01*
X107240162Y-66930586D01*
X107240163Y-66930584D01*
X107327822Y-66799392D01*
X107439392Y-66687822D01*
X107570584Y-66600163D01*
X107570586Y-66600162D01*
X107716358Y-66539781D01*
X107871107Y-66509000D01*
X108028893Y-66509000D01*
X108183642Y-66539781D01*
X108183642Y-66539781D01*
G37*
G36*
X83183642Y-66539781D02*
G01*
X83329414Y-66600162D01*
X83329416Y-66600163D01*
X83460608Y-66687822D01*
X83572178Y-66799392D01*
X83659837Y-66930584D01*
X83659838Y-66930586D01*
X83720219Y-67076358D01*
X83751000Y-67231107D01*
X83751000Y-67388893D01*
X83720219Y-67543642D01*
X83659838Y-67689414D01*
X83659837Y-67689416D01*
X83572178Y-67820608D01*
X83460608Y-67932178D01*
X83329416Y-68019837D01*
X83329415Y-68019838D01*
X83329414Y-68019838D01*
X83183642Y-68080219D01*
X83028893Y-68111000D01*
X82871107Y-68111000D01*
X82716358Y-68080219D01*
X82570586Y-68019838D01*
X82570585Y-68019838D01*
X82570584Y-68019837D01*
X82439392Y-67932178D01*
X82327822Y-67820608D01*
X82240163Y-67689416D01*
X82240162Y-67689414D01*
X82179781Y-67543642D01*
X82149000Y-67388893D01*
X82149000Y-67231107D01*
X82179781Y-67076358D01*
X82240162Y-66930586D01*
X82240163Y-66930584D01*
X82327822Y-66799392D01*
X82439392Y-66687822D01*
X82570584Y-66600163D01*
X82570586Y-66600162D01*
X82716358Y-66539781D01*
X82871107Y-66509000D01*
X83028893Y-66509000D01*
X83183642Y-66539781D01*
X83183642Y-66539781D01*
G37*
G36*
X200908228Y-64491703D02*
G01*
X201063100Y-64555853D01*
X201202481Y-64648985D01*
X201321015Y-64767519D01*
X201414147Y-64906900D01*
X201478297Y-65061772D01*
X201511000Y-65226184D01*
X201511000Y-65393816D01*
X201478297Y-65558228D01*
X201414147Y-65713100D01*
X201321015Y-65852481D01*
X201202481Y-65971015D01*
X201063100Y-66064147D01*
X200908228Y-66128297D01*
X200743816Y-66161000D01*
X200576184Y-66161000D01*
X200411772Y-66128297D01*
X200256900Y-66064147D01*
X200117519Y-65971015D01*
X199998985Y-65852481D01*
X199905853Y-65713100D01*
X199841703Y-65558228D01*
X199809000Y-65393816D01*
X199809000Y-65226184D01*
X199841703Y-65061772D01*
X199905853Y-64906900D01*
X199998985Y-64767519D01*
X200117519Y-64648985D01*
X200256900Y-64555853D01*
X200411772Y-64491703D01*
X200576184Y-64459000D01*
X200743816Y-64459000D01*
X200908228Y-64491703D01*
X200908228Y-64491703D01*
G37*
G36*
X219596604Y-62832347D02*
G01*
X219633144Y-62843432D01*
X219666821Y-62861433D01*
X219696341Y-62885659D01*
X219720567Y-62915179D01*
X219738568Y-62948856D01*
X219749653Y-62985396D01*
X219754000Y-63029538D01*
X219754000Y-64478462D01*
X219749653Y-64522604D01*
X219738568Y-64559144D01*
X219720567Y-64592821D01*
X219696341Y-64622341D01*
X219666821Y-64646567D01*
X219633144Y-64664568D01*
X219596604Y-64675653D01*
X219552462Y-64680000D01*
X218603538Y-64680000D01*
X218559396Y-64675653D01*
X218522856Y-64664568D01*
X218489179Y-64646567D01*
X218459659Y-64622341D01*
X218435433Y-64592821D01*
X218417432Y-64559144D01*
X218406347Y-64522604D01*
X218402000Y-64478462D01*
X218402000Y-63029538D01*
X218406347Y-62985396D01*
X218417432Y-62948856D01*
X218435433Y-62915179D01*
X218459659Y-62885659D01*
X218489179Y-62861433D01*
X218522856Y-62843432D01*
X218559396Y-62832347D01*
X218603538Y-62828000D01*
X219552462Y-62828000D01*
X219596604Y-62832347D01*
X219596604Y-62832347D01*
G37*
G36*
X216796604Y-62832347D02*
G01*
X216833144Y-62843432D01*
X216866821Y-62861433D01*
X216896341Y-62885659D01*
X216920567Y-62915179D01*
X216938568Y-62948856D01*
X216949653Y-62985396D01*
X216954000Y-63029538D01*
X216954000Y-64478462D01*
X216949653Y-64522604D01*
X216938568Y-64559144D01*
X216920567Y-64592821D01*
X216896341Y-64622341D01*
X216866821Y-64646567D01*
X216833144Y-64664568D01*
X216796604Y-64675653D01*
X216752462Y-64680000D01*
X215803538Y-64680000D01*
X215759396Y-64675653D01*
X215722856Y-64664568D01*
X215689179Y-64646567D01*
X215659659Y-64622341D01*
X215635433Y-64592821D01*
X215617432Y-64559144D01*
X215606347Y-64522604D01*
X215602000Y-64478462D01*
X215602000Y-63029538D01*
X215606347Y-62985396D01*
X215617432Y-62948856D01*
X215635433Y-62915179D01*
X215659659Y-62885659D01*
X215689179Y-62861433D01*
X215722856Y-62843432D01*
X215759396Y-62832347D01*
X215803538Y-62828000D01*
X216752462Y-62828000D01*
X216796604Y-62832347D01*
X216796604Y-62832347D01*
G37*
G36*
X169886795Y-59626156D02*
G01*
X169993150Y-59647311D01*
X170193520Y-59730307D01*
X170373844Y-59850795D01*
X170527205Y-60004156D01*
X170647693Y-60184480D01*
X170730689Y-60384851D01*
X170773000Y-60597560D01*
X170773000Y-60814440D01*
X170730689Y-61027149D01*
X170647693Y-61227520D01*
X170527205Y-61407844D01*
X170373844Y-61561205D01*
X170193520Y-61681693D01*
X169993150Y-61764689D01*
X169886794Y-61785845D01*
X169780440Y-61807000D01*
X169563560Y-61807000D01*
X169457206Y-61785845D01*
X169350850Y-61764689D01*
X169250666Y-61723191D01*
X169150480Y-61681693D01*
X168970156Y-61561205D01*
X168816795Y-61407844D01*
X168696307Y-61227520D01*
X168613311Y-61027149D01*
X168571000Y-60814440D01*
X168571000Y-60597560D01*
X168613311Y-60384851D01*
X168696307Y-60184480D01*
X168816795Y-60004156D01*
X168970156Y-59850795D01*
X169150480Y-59730307D01*
X169250666Y-59688809D01*
X169350850Y-59647311D01*
X169457205Y-59626156D01*
X169563560Y-59605000D01*
X169780440Y-59605000D01*
X169886795Y-59626156D01*
X169886795Y-59626156D01*
G37*
G36*
X174886795Y-59626156D02*
G01*
X174993150Y-59647311D01*
X175193520Y-59730307D01*
X175373844Y-59850795D01*
X175527205Y-60004156D01*
X175647693Y-60184480D01*
X175730689Y-60384851D01*
X175773000Y-60597560D01*
X175773000Y-60814440D01*
X175730689Y-61027149D01*
X175647693Y-61227520D01*
X175527205Y-61407844D01*
X175373844Y-61561205D01*
X175193520Y-61681693D01*
X174993150Y-61764689D01*
X174886794Y-61785845D01*
X174780440Y-61807000D01*
X174563560Y-61807000D01*
X174457206Y-61785845D01*
X174350850Y-61764689D01*
X174250666Y-61723191D01*
X174150480Y-61681693D01*
X173970156Y-61561205D01*
X173816795Y-61407844D01*
X173696307Y-61227520D01*
X173613311Y-61027149D01*
X173571000Y-60814440D01*
X173571000Y-60597560D01*
X173613311Y-60384851D01*
X173696307Y-60184480D01*
X173816795Y-60004156D01*
X173970156Y-59850795D01*
X174150480Y-59730307D01*
X174250666Y-59688809D01*
X174350850Y-59647311D01*
X174457205Y-59626156D01*
X174563560Y-59605000D01*
X174780440Y-59605000D01*
X174886795Y-59626156D01*
X174886795Y-59626156D01*
G37*
G36*
X133763241Y-53254760D02*
G01*
X134027305Y-53364139D01*
X134264958Y-53522934D01*
X134467066Y-53725042D01*
X134625861Y-53962695D01*
X134735240Y-54226759D01*
X134791000Y-54507088D01*
X134791000Y-54792912D01*
X134735240Y-55073241D01*
X134625861Y-55337305D01*
X134467066Y-55574958D01*
X134264958Y-55777066D01*
X134027305Y-55935861D01*
X133763241Y-56045240D01*
X133482912Y-56101000D01*
X133197088Y-56101000D01*
X132916759Y-56045240D01*
X132652695Y-55935861D01*
X132415042Y-55777066D01*
X132212934Y-55574958D01*
X132054139Y-55337305D01*
X131944760Y-55073241D01*
X131889000Y-54792912D01*
X131889000Y-54507088D01*
X131944760Y-54226759D01*
X132054139Y-53962695D01*
X132212934Y-53725042D01*
X132415042Y-53522934D01*
X132652695Y-53364139D01*
X132916759Y-53254760D01*
X133197088Y-53199000D01*
X133482912Y-53199000D01*
X133763241Y-53254760D01*
X133763241Y-53254760D01*
G37*
G36*
X151563241Y-50754760D02*
G01*
X151827305Y-50864139D01*
X152064958Y-51022934D01*
X152267066Y-51225042D01*
X152425861Y-51462695D01*
X152535240Y-51726759D01*
X152591000Y-52007088D01*
X152591000Y-52292912D01*
X152535240Y-52573241D01*
X152425861Y-52837305D01*
X152267066Y-53074958D01*
X152064958Y-53277066D01*
X151827305Y-53435861D01*
X151563241Y-53545240D01*
X151282912Y-53601000D01*
X150997088Y-53601000D01*
X150716759Y-53545240D01*
X150452695Y-53435861D01*
X150215042Y-53277066D01*
X150012934Y-53074958D01*
X149854139Y-52837305D01*
X149744760Y-52573241D01*
X149689000Y-52292912D01*
X149689000Y-52007088D01*
X149744760Y-51726759D01*
X149854139Y-51462695D01*
X150012934Y-51225042D01*
X150215042Y-51022934D01*
X150452695Y-50864139D01*
X150716759Y-50754760D01*
X150997088Y-50699000D01*
X151282912Y-50699000D01*
X151563241Y-50754760D01*
X151563241Y-50754760D01*
G37*
G36*
X172396218Y-49756265D02*
G01*
X172448414Y-49766647D01*
X172595916Y-49827744D01*
X172728664Y-49916443D01*
X172841557Y-50029336D01*
X172930256Y-50162084D01*
X172991353Y-50309586D01*
X173022500Y-50466173D01*
X173022500Y-50625827D01*
X172991353Y-50782414D01*
X172930256Y-50929916D01*
X172841557Y-51062664D01*
X172728664Y-51175557D01*
X172595916Y-51264256D01*
X172448414Y-51325353D01*
X172396218Y-51335735D01*
X172291829Y-51356500D01*
X172132171Y-51356500D01*
X172027782Y-51335735D01*
X171975586Y-51325353D01*
X171828084Y-51264256D01*
X171695336Y-51175557D01*
X171582443Y-51062664D01*
X171493744Y-50929916D01*
X171432647Y-50782414D01*
X171401500Y-50625827D01*
X171401500Y-50466173D01*
X171432647Y-50309586D01*
X171493744Y-50162084D01*
X171582443Y-50029336D01*
X171695336Y-49916443D01*
X171828084Y-49827744D01*
X171975586Y-49766647D01*
X172027782Y-49756265D01*
X172132171Y-49735500D01*
X172291829Y-49735500D01*
X172396218Y-49756265D01*
X172396218Y-49756265D01*
G37*
G36*
X83954795Y-44640156D02*
G01*
X84061150Y-44661311D01*
X84137439Y-44692911D01*
X84261520Y-44744307D01*
X84441844Y-44864795D01*
X84595205Y-45018156D01*
X84715693Y-45198480D01*
X84715693Y-45198481D01*
X84798689Y-45398850D01*
X84813828Y-45474958D01*
X84841000Y-45611560D01*
X84841000Y-45828440D01*
X84798689Y-46041149D01*
X84715693Y-46241520D01*
X84595205Y-46421844D01*
X84441844Y-46575205D01*
X84261520Y-46695693D01*
X84161334Y-46737191D01*
X84061150Y-46778689D01*
X83954794Y-46799845D01*
X83848440Y-46821000D01*
X83631560Y-46821000D01*
X83525205Y-46799844D01*
X83418850Y-46778689D01*
X83318666Y-46737191D01*
X83218480Y-46695693D01*
X83038156Y-46575205D01*
X82884795Y-46421844D01*
X82764307Y-46241520D01*
X82681311Y-46041149D01*
X82639000Y-45828440D01*
X82639000Y-45611560D01*
X82666172Y-45474958D01*
X82681311Y-45398850D01*
X82764307Y-45198481D01*
X82764307Y-45198480D01*
X82884795Y-45018156D01*
X83038156Y-44864795D01*
X83218480Y-44744307D01*
X83342561Y-44692911D01*
X83418850Y-44661311D01*
X83525205Y-44640156D01*
X83631560Y-44619000D01*
X83848440Y-44619000D01*
X83954795Y-44640156D01*
X83954795Y-44640156D01*
G37*
G36*
X103258795Y-44640156D02*
G01*
X103365150Y-44661311D01*
X103441439Y-44692911D01*
X103565520Y-44744307D01*
X103745844Y-44864795D01*
X103899205Y-45018156D01*
X104019693Y-45198480D01*
X104019693Y-45198481D01*
X104102689Y-45398850D01*
X104117828Y-45474958D01*
X104145000Y-45611560D01*
X104145000Y-45828440D01*
X104102689Y-46041149D01*
X104019693Y-46241520D01*
X103899205Y-46421844D01*
X103745844Y-46575205D01*
X103565520Y-46695693D01*
X103465334Y-46737191D01*
X103365150Y-46778689D01*
X103258794Y-46799845D01*
X103152440Y-46821000D01*
X102935560Y-46821000D01*
X102829205Y-46799844D01*
X102722850Y-46778689D01*
X102622666Y-46737191D01*
X102522480Y-46695693D01*
X102342156Y-46575205D01*
X102188795Y-46421844D01*
X102068307Y-46241520D01*
X101985311Y-46041149D01*
X101943000Y-45828440D01*
X101943000Y-45611560D01*
X101970172Y-45474958D01*
X101985311Y-45398850D01*
X102068307Y-45198481D01*
X102068307Y-45198480D01*
X102188795Y-45018156D01*
X102342156Y-44864795D01*
X102522480Y-44744307D01*
X102646561Y-44692911D01*
X102722850Y-44661311D01*
X102829205Y-44640156D01*
X102935560Y-44619000D01*
X103152440Y-44619000D01*
X103258795Y-44640156D01*
X103258795Y-44640156D01*
G37*
G36*
X98258795Y-44640156D02*
G01*
X98365150Y-44661311D01*
X98441439Y-44692911D01*
X98565520Y-44744307D01*
X98745844Y-44864795D01*
X98899205Y-45018156D01*
X99019693Y-45198480D01*
X99019693Y-45198481D01*
X99102689Y-45398850D01*
X99117828Y-45474958D01*
X99145000Y-45611560D01*
X99145000Y-45828440D01*
X99102689Y-46041149D01*
X99019693Y-46241520D01*
X98899205Y-46421844D01*
X98745844Y-46575205D01*
X98565520Y-46695693D01*
X98465334Y-46737191D01*
X98365150Y-46778689D01*
X98258794Y-46799845D01*
X98152440Y-46821000D01*
X97935560Y-46821000D01*
X97829205Y-46799844D01*
X97722850Y-46778689D01*
X97622666Y-46737191D01*
X97522480Y-46695693D01*
X97342156Y-46575205D01*
X97188795Y-46421844D01*
X97068307Y-46241520D01*
X96985311Y-46041149D01*
X96943000Y-45828440D01*
X96943000Y-45611560D01*
X96970172Y-45474958D01*
X96985311Y-45398850D01*
X97068307Y-45198481D01*
X97068307Y-45198480D01*
X97188795Y-45018156D01*
X97342156Y-44864795D01*
X97522480Y-44744307D01*
X97646561Y-44692911D01*
X97722850Y-44661311D01*
X97829205Y-44640156D01*
X97935560Y-44619000D01*
X98152440Y-44619000D01*
X98258795Y-44640156D01*
X98258795Y-44640156D01*
G37*
G36*
X78954795Y-44640156D02*
G01*
X79061150Y-44661311D01*
X79137439Y-44692911D01*
X79261520Y-44744307D01*
X79441844Y-44864795D01*
X79595205Y-45018156D01*
X79715693Y-45198480D01*
X79715693Y-45198481D01*
X79798689Y-45398850D01*
X79813828Y-45474958D01*
X79841000Y-45611560D01*
X79841000Y-45828440D01*
X79798689Y-46041149D01*
X79715693Y-46241520D01*
X79595205Y-46421844D01*
X79441844Y-46575205D01*
X79261520Y-46695693D01*
X79161334Y-46737191D01*
X79061150Y-46778689D01*
X78954794Y-46799845D01*
X78848440Y-46821000D01*
X78631560Y-46821000D01*
X78525205Y-46799844D01*
X78418850Y-46778689D01*
X78318666Y-46737191D01*
X78218480Y-46695693D01*
X78038156Y-46575205D01*
X77884795Y-46421844D01*
X77764307Y-46241520D01*
X77681311Y-46041149D01*
X77639000Y-45828440D01*
X77639000Y-45611560D01*
X77666172Y-45474958D01*
X77681311Y-45398850D01*
X77764307Y-45198481D01*
X77764307Y-45198480D01*
X77884795Y-45018156D01*
X78038156Y-44864795D01*
X78218480Y-44744307D01*
X78342561Y-44692911D01*
X78418850Y-44661311D01*
X78525205Y-44640156D01*
X78631560Y-44619000D01*
X78848440Y-44619000D01*
X78954795Y-44640156D01*
X78954795Y-44640156D01*
G37*
G36*
X117689795Y-44640156D02*
G01*
X117796150Y-44661311D01*
X117872439Y-44692911D01*
X117996520Y-44744307D01*
X118176844Y-44864795D01*
X118330205Y-45018156D01*
X118450693Y-45198480D01*
X118450693Y-45198481D01*
X118533689Y-45398850D01*
X118548828Y-45474958D01*
X118576000Y-45611560D01*
X118576000Y-45828440D01*
X118533689Y-46041149D01*
X118450693Y-46241520D01*
X118330205Y-46421844D01*
X118176844Y-46575205D01*
X117996520Y-46695693D01*
X117896334Y-46737191D01*
X117796150Y-46778689D01*
X117689794Y-46799845D01*
X117583440Y-46821000D01*
X117366560Y-46821000D01*
X117260205Y-46799844D01*
X117153850Y-46778689D01*
X117053666Y-46737191D01*
X116953480Y-46695693D01*
X116773156Y-46575205D01*
X116619795Y-46421844D01*
X116499307Y-46241520D01*
X116416311Y-46041149D01*
X116374000Y-45828440D01*
X116374000Y-45611560D01*
X116401172Y-45474958D01*
X116416311Y-45398850D01*
X116499307Y-45198481D01*
X116499307Y-45198480D01*
X116619795Y-45018156D01*
X116773156Y-44864795D01*
X116953480Y-44744307D01*
X117077561Y-44692911D01*
X117153850Y-44661311D01*
X117260205Y-44640156D01*
X117366560Y-44619000D01*
X117583440Y-44619000D01*
X117689795Y-44640156D01*
X117689795Y-44640156D01*
G37*
G36*
X122689795Y-44640156D02*
G01*
X122796150Y-44661311D01*
X122872439Y-44692911D01*
X122996520Y-44744307D01*
X123176844Y-44864795D01*
X123330205Y-45018156D01*
X123450693Y-45198480D01*
X123450693Y-45198481D01*
X123533689Y-45398850D01*
X123548828Y-45474958D01*
X123576000Y-45611560D01*
X123576000Y-45828440D01*
X123533689Y-46041149D01*
X123450693Y-46241520D01*
X123330205Y-46421844D01*
X123176844Y-46575205D01*
X122996520Y-46695693D01*
X122896334Y-46737191D01*
X122796150Y-46778689D01*
X122689794Y-46799845D01*
X122583440Y-46821000D01*
X122366560Y-46821000D01*
X122260205Y-46799844D01*
X122153850Y-46778689D01*
X122053666Y-46737191D01*
X121953480Y-46695693D01*
X121773156Y-46575205D01*
X121619795Y-46421844D01*
X121499307Y-46241520D01*
X121416311Y-46041149D01*
X121374000Y-45828440D01*
X121374000Y-45611560D01*
X121401172Y-45474958D01*
X121416311Y-45398850D01*
X121499307Y-45198481D01*
X121499307Y-45198480D01*
X121619795Y-45018156D01*
X121773156Y-44864795D01*
X121953480Y-44744307D01*
X122077561Y-44692911D01*
X122153850Y-44661311D01*
X122260205Y-44640156D01*
X122366560Y-44619000D01*
X122583440Y-44619000D01*
X122689795Y-44640156D01*
X122689795Y-44640156D01*
G37*
G36*
X151563241Y-43154760D02*
G01*
X151827305Y-43264139D01*
X152064958Y-43422934D01*
X152267066Y-43625042D01*
X152425861Y-43862695D01*
X152535240Y-44126759D01*
X152591000Y-44407088D01*
X152591000Y-44692912D01*
X152535240Y-44973241D01*
X152425861Y-45237305D01*
X152267066Y-45474958D01*
X152064958Y-45677066D01*
X151827305Y-45835861D01*
X151563241Y-45945240D01*
X151282912Y-46001000D01*
X150997088Y-46001000D01*
X150716759Y-45945240D01*
X150452695Y-45835861D01*
X150215042Y-45677066D01*
X150012934Y-45474958D01*
X149854139Y-45237305D01*
X149744760Y-44973241D01*
X149689000Y-44692912D01*
X149689000Y-44407088D01*
X149744760Y-44126759D01*
X149854139Y-43862695D01*
X150012934Y-43625042D01*
X150215042Y-43422934D01*
X150452695Y-43264139D01*
X150716759Y-43154760D01*
X150997088Y-43099000D01*
X151282912Y-43099000D01*
X151563241Y-43154760D01*
X151563241Y-43154760D01*
G37*
G36*
X204992117Y-43736500D02*
G01*
X205172150Y-43772311D01*
X205372520Y-43855307D01*
X205552844Y-43975795D01*
X205706205Y-44129156D01*
X205826693Y-44309480D01*
X205909689Y-44509851D01*
X205952000Y-44722560D01*
X205952000Y-44939440D01*
X205909689Y-45152149D01*
X205826693Y-45352520D01*
X205706205Y-45532844D01*
X205552844Y-45686205D01*
X205372520Y-45806693D01*
X205302104Y-45835860D01*
X205172150Y-45889689D01*
X205065794Y-45910845D01*
X204959440Y-45932000D01*
X204742560Y-45932000D01*
X204636206Y-45910845D01*
X204529850Y-45889689D01*
X204399896Y-45835860D01*
X204329480Y-45806693D01*
X204149156Y-45686205D01*
X203995795Y-45532844D01*
X203875307Y-45352520D01*
X203792311Y-45152149D01*
X203750000Y-44939440D01*
X203750000Y-44722560D01*
X203792311Y-44509851D01*
X203875307Y-44309480D01*
X203995795Y-44129156D01*
X204149156Y-43975795D01*
X204329480Y-43855307D01*
X204529850Y-43772311D01*
X204709883Y-43736500D01*
X204742560Y-43730000D01*
X204959440Y-43730000D01*
X204992117Y-43736500D01*
X204992117Y-43736500D01*
G37*
G36*
X209992117Y-43736500D02*
G01*
X210172150Y-43772311D01*
X210372520Y-43855307D01*
X210552844Y-43975795D01*
X210706205Y-44129156D01*
X210826693Y-44309480D01*
X210909689Y-44509851D01*
X210952000Y-44722560D01*
X210952000Y-44939440D01*
X210909689Y-45152149D01*
X210826693Y-45352520D01*
X210706205Y-45532844D01*
X210552844Y-45686205D01*
X210372520Y-45806693D01*
X210302104Y-45835860D01*
X210172150Y-45889689D01*
X210065794Y-45910845D01*
X209959440Y-45932000D01*
X209742560Y-45932000D01*
X209636206Y-45910845D01*
X209529850Y-45889689D01*
X209399896Y-45835860D01*
X209329480Y-45806693D01*
X209149156Y-45686205D01*
X208995795Y-45532844D01*
X208875307Y-45352520D01*
X208792311Y-45152149D01*
X208750000Y-44939440D01*
X208750000Y-44722560D01*
X208792311Y-44509851D01*
X208875307Y-44309480D01*
X208995795Y-44129156D01*
X209149156Y-43975795D01*
X209329480Y-43855307D01*
X209529850Y-43772311D01*
X209709883Y-43736500D01*
X209742560Y-43730000D01*
X209959440Y-43730000D01*
X209992117Y-43736500D01*
X209992117Y-43736500D01*
G37*
G36*
X191222794Y-43624155D02*
G01*
X191329150Y-43645311D01*
X191529520Y-43728307D01*
X191709844Y-43848795D01*
X191863205Y-44002156D01*
X191983693Y-44182480D01*
X191983693Y-44182481D01*
X192066689Y-44382850D01*
X192109000Y-44595561D01*
X192109000Y-44812439D01*
X192068081Y-45018154D01*
X192066689Y-45025149D01*
X191983693Y-45225520D01*
X191863205Y-45405844D01*
X191709844Y-45559205D01*
X191529520Y-45679693D01*
X191329150Y-45762689D01*
X191222794Y-45783845D01*
X191116440Y-45805000D01*
X190899560Y-45805000D01*
X190793206Y-45783845D01*
X190686850Y-45762689D01*
X190486480Y-45679693D01*
X190306156Y-45559205D01*
X190152795Y-45405844D01*
X190032307Y-45225520D01*
X189949311Y-45025149D01*
X189947920Y-45018154D01*
X189907000Y-44812439D01*
X189907000Y-44595561D01*
X189949311Y-44382850D01*
X190032307Y-44182481D01*
X190032307Y-44182480D01*
X190152795Y-44002156D01*
X190306156Y-43848795D01*
X190486480Y-43728307D01*
X190586666Y-43686809D01*
X190686850Y-43645311D01*
X190793205Y-43624156D01*
X190899560Y-43603000D01*
X191116440Y-43603000D01*
X191222794Y-43624155D01*
X191222794Y-43624155D01*
G37*
G36*
X196222794Y-43624155D02*
G01*
X196329150Y-43645311D01*
X196529520Y-43728307D01*
X196709844Y-43848795D01*
X196863205Y-44002156D01*
X196983693Y-44182480D01*
X196983693Y-44182481D01*
X197066689Y-44382850D01*
X197109000Y-44595561D01*
X197109000Y-44812439D01*
X197068081Y-45018154D01*
X197066689Y-45025149D01*
X196983693Y-45225520D01*
X196863205Y-45405844D01*
X196709844Y-45559205D01*
X196529520Y-45679693D01*
X196329150Y-45762689D01*
X196222794Y-45783845D01*
X196116440Y-45805000D01*
X195899560Y-45805000D01*
X195793206Y-45783845D01*
X195686850Y-45762689D01*
X195486480Y-45679693D01*
X195306156Y-45559205D01*
X195152795Y-45405844D01*
X195032307Y-45225520D01*
X194949311Y-45025149D01*
X194947920Y-45018154D01*
X194907000Y-44812439D01*
X194907000Y-44595561D01*
X194949311Y-44382850D01*
X195032307Y-44182481D01*
X195032307Y-44182480D01*
X195152795Y-44002156D01*
X195306156Y-43848795D01*
X195486480Y-43728307D01*
X195586666Y-43686809D01*
X195686850Y-43645311D01*
X195793205Y-43624156D01*
X195899560Y-43603000D01*
X196116440Y-43603000D01*
X196222794Y-43624155D01*
X196222794Y-43624155D01*
G37*
G36*
X180016218Y-42136265D02*
G01*
X180068414Y-42146647D01*
X180215916Y-42207744D01*
X180348664Y-42296443D01*
X180461557Y-42409336D01*
X180550256Y-42542084D01*
X180611353Y-42689586D01*
X180642500Y-42846173D01*
X180642500Y-43005827D01*
X180611353Y-43162414D01*
X180550256Y-43309916D01*
X180461557Y-43442664D01*
X180348664Y-43555557D01*
X180215916Y-43644256D01*
X180068414Y-43705353D01*
X180016218Y-43715735D01*
X179911829Y-43736500D01*
X179752171Y-43736500D01*
X179647782Y-43715735D01*
X179595586Y-43705353D01*
X179448084Y-43644256D01*
X179315336Y-43555557D01*
X179202443Y-43442664D01*
X179113744Y-43309916D01*
X179052647Y-43162414D01*
X179021500Y-43005827D01*
X179021500Y-42846173D01*
X179052647Y-42689586D01*
X179113744Y-42542084D01*
X179202443Y-42409336D01*
X179315336Y-42296443D01*
X179448084Y-42207744D01*
X179595586Y-42146647D01*
X179647782Y-42136265D01*
X179752171Y-42115500D01*
X179911829Y-42115500D01*
X180016218Y-42136265D01*
X180016218Y-42136265D01*
G37*
G36*
X164776218Y-42136265D02*
G01*
X164828414Y-42146647D01*
X164975916Y-42207744D01*
X165108664Y-42296443D01*
X165221557Y-42409336D01*
X165310256Y-42542084D01*
X165371353Y-42689586D01*
X165402500Y-42846173D01*
X165402500Y-43005827D01*
X165371353Y-43162414D01*
X165310256Y-43309916D01*
X165221557Y-43442664D01*
X165108664Y-43555557D01*
X164975916Y-43644256D01*
X164828414Y-43705353D01*
X164776218Y-43715735D01*
X164671829Y-43736500D01*
X164512171Y-43736500D01*
X164407782Y-43715735D01*
X164355586Y-43705353D01*
X164208084Y-43644256D01*
X164075336Y-43555557D01*
X163962443Y-43442664D01*
X163873744Y-43309916D01*
X163812647Y-43162414D01*
X163781500Y-43005827D01*
X163781500Y-42846173D01*
X163812647Y-42689586D01*
X163873744Y-42542084D01*
X163962443Y-42409336D01*
X164075336Y-42296443D01*
X164208084Y-42207744D01*
X164355586Y-42146647D01*
X164407782Y-42136265D01*
X164512171Y-42115500D01*
X164671829Y-42115500D01*
X164776218Y-42136265D01*
X164776218Y-42136265D01*
G37*
M02*
