G04 #@! TF.GenerationSoftware,KiCad,Pcbnew,(5.1.4)-1*
G04 #@! TF.CreationDate,2021-06-15T15:34:46+02:00*
G04 #@! TF.ProjectId,IOT SMART SWITCH,494f5420-534d-4415-9254-205357495443,1.0*
G04 #@! TF.SameCoordinates,Original*
G04 #@! TF.FileFunction,Profile,NP*
%FSLAX46Y46*%
G04 Gerber Fmt 4.6, Leading zero omitted, Abs format (unit mm)*
G04 Created by KiCad (PCBNEW (5.1.4)-1) date 2021-06-15 15:34:46*
%MOMM*%
%LPD*%
G04 APERTURE LIST*
%ADD10C,0.050000*%
G04 APERTURE END LIST*
D10*
X181610000Y-41402000D02*
X162814000Y-41402000D01*
X162814000Y-38354000D02*
X181610000Y-38354000D01*
X181610000Y-38354000D02*
G75*
G02X181610000Y-41402000I0J-1524000D01*
G01*
X162814000Y-41402000D02*
G75*
G02X162814000Y-38354000I0J1524000D01*
G01*
X163703000Y-65659000D02*
X124714000Y-65659000D01*
X124714000Y-62357000D02*
X163703000Y-62357000D01*
X163703000Y-62357000D02*
G75*
G02X163703000Y-65659000I0J-1651000D01*
G01*
X124714000Y-65659000D02*
G75*
G02X124714000Y-62357000I0J1651000D01*
G01*
X66040000Y-31750000D02*
X66040000Y-36830000D01*
X222250000Y-31750000D02*
X66040000Y-31750000D01*
X222250000Y-34290000D02*
X222250000Y-31750000D01*
X222250000Y-36830000D02*
X222250000Y-34290000D01*
X220154000Y-40894000D02*
G75*
G03X220154000Y-40894000I-2000000J0D01*
G01*
X72104000Y-120396000D02*
G75*
G03X72104000Y-120396000I-2000000J0D01*
G01*
X72072000Y-40894000D02*
G75*
G03X72072000Y-40894000I-2000000J0D01*
G01*
X220154000Y-120364000D02*
G75*
G03X220154000Y-120364000I-2000000J0D01*
G01*
X222250000Y-36830000D02*
X222250000Y-39370000D01*
X66040000Y-39370000D02*
X66040000Y-36830000D01*
X66040000Y-124460000D02*
X66040000Y-39370000D01*
X222250000Y-124460000D02*
X66040000Y-124460000D01*
X222250000Y-121920000D02*
X222250000Y-124460000D01*
X222250000Y-39370000D02*
X222250000Y-121920000D01*
M02*
