G04 #@! TF.GenerationSoftware,KiCad,Pcbnew,(5.1.4)-1*
G04 #@! TF.CreationDate,2021-06-18T12:34:54+02:00*
G04 #@! TF.ProjectId,IOT SMART SWITCH,494f5420-534d-4415-9254-205357495443,1.0*
G04 #@! TF.SameCoordinates,Original*
G04 #@! TF.FileFunction,Legend,Top*
G04 #@! TF.FilePolarity,Positive*
%FSLAX46Y46*%
G04 Gerber Fmt 4.6, Leading zero omitted, Abs format (unit mm)*
G04 Created by KiCad (PCBNEW (5.1.4)-1) date 2021-06-18 12:34:54*
%MOMM*%
%LPD*%
G04 APERTURE LIST*
%ADD10C,0.120000*%
%ADD11C,0.100000*%
%ADD12C,0.200000*%
%ADD13C,0.150000*%
%ADD14C,0.254000*%
G04 APERTURE END LIST*
D10*
X191830000Y-77470000D02*
X191830000Y-78800000D01*
X191830000Y-78800000D02*
X190500000Y-78800000D01*
X189230000Y-78800000D02*
X151070000Y-78800000D01*
X151070000Y-76140000D02*
X151070000Y-78800000D01*
X189230000Y-76140000D02*
X151070000Y-76140000D01*
X189230000Y-76140000D02*
X189230000Y-78800000D01*
X167450000Y-113030000D02*
G75*
G03X167450000Y-113030000I-2620000J0D01*
G01*
X164830000Y-114070000D02*
X164830000Y-115610000D01*
X164830000Y-110450000D02*
X164830000Y-111990000D01*
X164870000Y-114070000D02*
X164870000Y-115610000D01*
X164870000Y-110450000D02*
X164870000Y-111990000D01*
X164910000Y-110451000D02*
X164910000Y-111990000D01*
X164910000Y-114070000D02*
X164910000Y-115609000D01*
X164950000Y-110452000D02*
X164950000Y-111990000D01*
X164950000Y-114070000D02*
X164950000Y-115608000D01*
X164990000Y-110454000D02*
X164990000Y-111990000D01*
X164990000Y-114070000D02*
X164990000Y-115606000D01*
X165030000Y-110457000D02*
X165030000Y-111990000D01*
X165030000Y-114070000D02*
X165030000Y-115603000D01*
X165070000Y-110461000D02*
X165070000Y-111990000D01*
X165070000Y-114070000D02*
X165070000Y-115599000D01*
X165110000Y-110465000D02*
X165110000Y-111990000D01*
X165110000Y-114070000D02*
X165110000Y-115595000D01*
X165150000Y-110469000D02*
X165150000Y-111990000D01*
X165150000Y-114070000D02*
X165150000Y-115591000D01*
X165190000Y-110474000D02*
X165190000Y-111990000D01*
X165190000Y-114070000D02*
X165190000Y-115586000D01*
X165230000Y-110480000D02*
X165230000Y-111990000D01*
X165230000Y-114070000D02*
X165230000Y-115580000D01*
X165270000Y-110487000D02*
X165270000Y-111990000D01*
X165270000Y-114070000D02*
X165270000Y-115573000D01*
X165310000Y-110494000D02*
X165310000Y-111990000D01*
X165310000Y-114070000D02*
X165310000Y-115566000D01*
X165350000Y-110502000D02*
X165350000Y-111990000D01*
X165350000Y-114070000D02*
X165350000Y-115558000D01*
X165390000Y-110510000D02*
X165390000Y-111990000D01*
X165390000Y-114070000D02*
X165390000Y-115550000D01*
X165430000Y-110519000D02*
X165430000Y-111990000D01*
X165430000Y-114070000D02*
X165430000Y-115541000D01*
X165470000Y-110529000D02*
X165470000Y-111990000D01*
X165470000Y-114070000D02*
X165470000Y-115531000D01*
X165510000Y-110539000D02*
X165510000Y-111990000D01*
X165510000Y-114070000D02*
X165510000Y-115521000D01*
X165551000Y-110550000D02*
X165551000Y-111990000D01*
X165551000Y-114070000D02*
X165551000Y-115510000D01*
X165591000Y-110562000D02*
X165591000Y-111990000D01*
X165591000Y-114070000D02*
X165591000Y-115498000D01*
X165631000Y-110575000D02*
X165631000Y-111990000D01*
X165631000Y-114070000D02*
X165631000Y-115485000D01*
X165671000Y-110588000D02*
X165671000Y-111990000D01*
X165671000Y-114070000D02*
X165671000Y-115472000D01*
X165711000Y-110602000D02*
X165711000Y-111990000D01*
X165711000Y-114070000D02*
X165711000Y-115458000D01*
X165751000Y-110616000D02*
X165751000Y-111990000D01*
X165751000Y-114070000D02*
X165751000Y-115444000D01*
X165791000Y-110632000D02*
X165791000Y-111990000D01*
X165791000Y-114070000D02*
X165791000Y-115428000D01*
X165831000Y-110648000D02*
X165831000Y-111990000D01*
X165831000Y-114070000D02*
X165831000Y-115412000D01*
X165871000Y-110665000D02*
X165871000Y-111990000D01*
X165871000Y-114070000D02*
X165871000Y-115395000D01*
X165911000Y-110682000D02*
X165911000Y-111990000D01*
X165911000Y-114070000D02*
X165911000Y-115378000D01*
X165951000Y-110701000D02*
X165951000Y-111990000D01*
X165951000Y-114070000D02*
X165951000Y-115359000D01*
X165991000Y-110720000D02*
X165991000Y-111990000D01*
X165991000Y-114070000D02*
X165991000Y-115340000D01*
X166031000Y-110740000D02*
X166031000Y-111990000D01*
X166031000Y-114070000D02*
X166031000Y-115320000D01*
X166071000Y-110762000D02*
X166071000Y-111990000D01*
X166071000Y-114070000D02*
X166071000Y-115298000D01*
X166111000Y-110783000D02*
X166111000Y-111990000D01*
X166111000Y-114070000D02*
X166111000Y-115277000D01*
X166151000Y-110806000D02*
X166151000Y-111990000D01*
X166151000Y-114070000D02*
X166151000Y-115254000D01*
X166191000Y-110830000D02*
X166191000Y-111990000D01*
X166191000Y-114070000D02*
X166191000Y-115230000D01*
X166231000Y-110855000D02*
X166231000Y-111990000D01*
X166231000Y-114070000D02*
X166231000Y-115205000D01*
X166271000Y-110881000D02*
X166271000Y-111990000D01*
X166271000Y-114070000D02*
X166271000Y-115179000D01*
X166311000Y-110908000D02*
X166311000Y-111990000D01*
X166311000Y-114070000D02*
X166311000Y-115152000D01*
X166351000Y-110935000D02*
X166351000Y-111990000D01*
X166351000Y-114070000D02*
X166351000Y-115125000D01*
X166391000Y-110965000D02*
X166391000Y-111990000D01*
X166391000Y-114070000D02*
X166391000Y-115095000D01*
X166431000Y-110995000D02*
X166431000Y-111990000D01*
X166431000Y-114070000D02*
X166431000Y-115065000D01*
X166471000Y-111026000D02*
X166471000Y-111990000D01*
X166471000Y-114070000D02*
X166471000Y-115034000D01*
X166511000Y-111059000D02*
X166511000Y-111990000D01*
X166511000Y-114070000D02*
X166511000Y-115001000D01*
X166551000Y-111093000D02*
X166551000Y-111990000D01*
X166551000Y-114070000D02*
X166551000Y-114967000D01*
X166591000Y-111129000D02*
X166591000Y-111990000D01*
X166591000Y-114070000D02*
X166591000Y-114931000D01*
X166631000Y-111166000D02*
X166631000Y-111990000D01*
X166631000Y-114070000D02*
X166631000Y-114894000D01*
X166671000Y-111204000D02*
X166671000Y-111990000D01*
X166671000Y-114070000D02*
X166671000Y-114856000D01*
X166711000Y-111245000D02*
X166711000Y-111990000D01*
X166711000Y-114070000D02*
X166711000Y-114815000D01*
X166751000Y-111287000D02*
X166751000Y-111990000D01*
X166751000Y-114070000D02*
X166751000Y-114773000D01*
X166791000Y-111331000D02*
X166791000Y-111990000D01*
X166791000Y-114070000D02*
X166791000Y-114729000D01*
X166831000Y-111377000D02*
X166831000Y-111990000D01*
X166831000Y-114070000D02*
X166831000Y-114683000D01*
X166871000Y-111425000D02*
X166871000Y-114635000D01*
X166911000Y-111476000D02*
X166911000Y-114584000D01*
X166951000Y-111530000D02*
X166951000Y-114530000D01*
X166991000Y-111587000D02*
X166991000Y-114473000D01*
X167031000Y-111647000D02*
X167031000Y-114413000D01*
X167071000Y-111711000D02*
X167071000Y-114349000D01*
X167111000Y-111779000D02*
X167111000Y-114281000D01*
X167151000Y-111852000D02*
X167151000Y-114208000D01*
X167191000Y-111932000D02*
X167191000Y-114128000D01*
X167231000Y-112019000D02*
X167231000Y-114041000D01*
X167271000Y-112115000D02*
X167271000Y-113945000D01*
X167311000Y-112225000D02*
X167311000Y-113835000D01*
X167351000Y-112353000D02*
X167351000Y-113707000D01*
X167391000Y-112512000D02*
X167391000Y-113548000D01*
X167431000Y-112746000D02*
X167431000Y-113314000D01*
X162025225Y-111555000D02*
X162525225Y-111555000D01*
X162275225Y-111305000D02*
X162275225Y-111805000D01*
D11*
X160312000Y-41176000D02*
X184112000Y-41176000D01*
X184112000Y-41176000D02*
X184112000Y-52296000D01*
X184112000Y-52296000D02*
X160312000Y-52296000D01*
X160312000Y-52296000D02*
X160312000Y-41176000D01*
D12*
X164512000Y-40736000D02*
X164512000Y-40736000D01*
X164712000Y-40736000D02*
X164712000Y-40736000D01*
X164712000Y-40736000D02*
G75*
G03X164512000Y-40736000I-100000J0D01*
G01*
X164512000Y-40736000D02*
G75*
G03X164712000Y-40736000I100000J0D01*
G01*
D11*
X167172000Y-56706000D02*
X177172000Y-56706000D01*
X177172000Y-56706000D02*
X177172000Y-64206000D01*
X177172000Y-64206000D02*
X167172000Y-64206000D01*
X167172000Y-64206000D02*
X167172000Y-56706000D01*
D12*
X120950000Y-59560000D02*
X120950000Y-102560000D01*
X120950000Y-102560000D02*
X69950000Y-102560000D01*
X69950000Y-102560000D02*
X69950000Y-59560000D01*
X69950000Y-59560000D02*
X120950000Y-59560000D01*
X107950000Y-58910000D02*
X107950000Y-58910000D01*
X107950000Y-59010000D02*
X107950000Y-59010000D01*
X107950000Y-58910000D02*
X107950000Y-58910000D01*
X107950000Y-58810000D02*
G75*
G02X107950000Y-58910000I0J-50000D01*
G01*
X107950000Y-58710000D02*
G75*
G02X107950000Y-59010000I0J-150000D01*
G01*
X107950000Y-58810000D02*
G75*
G02X107950000Y-58910000I0J-50000D01*
G01*
D10*
X131520000Y-118110000D02*
G75*
G03X131520000Y-118110000I-3270000J0D01*
G01*
X128250000Y-114880000D02*
X128250000Y-121340000D01*
X128290000Y-114880000D02*
X128290000Y-121340000D01*
X128330000Y-114880000D02*
X128330000Y-121340000D01*
X128370000Y-114882000D02*
X128370000Y-121338000D01*
X128410000Y-114883000D02*
X128410000Y-121337000D01*
X128450000Y-114886000D02*
X128450000Y-121334000D01*
X128490000Y-114888000D02*
X128490000Y-117070000D01*
X128490000Y-119150000D02*
X128490000Y-121332000D01*
X128530000Y-114892000D02*
X128530000Y-117070000D01*
X128530000Y-119150000D02*
X128530000Y-121328000D01*
X128570000Y-114895000D02*
X128570000Y-117070000D01*
X128570000Y-119150000D02*
X128570000Y-121325000D01*
X128610000Y-114899000D02*
X128610000Y-117070000D01*
X128610000Y-119150000D02*
X128610000Y-121321000D01*
X128650000Y-114904000D02*
X128650000Y-117070000D01*
X128650000Y-119150000D02*
X128650000Y-121316000D01*
X128690000Y-114909000D02*
X128690000Y-117070000D01*
X128690000Y-119150000D02*
X128690000Y-121311000D01*
X128730000Y-114915000D02*
X128730000Y-117070000D01*
X128730000Y-119150000D02*
X128730000Y-121305000D01*
X128770000Y-114921000D02*
X128770000Y-117070000D01*
X128770000Y-119150000D02*
X128770000Y-121299000D01*
X128810000Y-114928000D02*
X128810000Y-117070000D01*
X128810000Y-119150000D02*
X128810000Y-121292000D01*
X128850000Y-114935000D02*
X128850000Y-117070000D01*
X128850000Y-119150000D02*
X128850000Y-121285000D01*
X128890000Y-114943000D02*
X128890000Y-117070000D01*
X128890000Y-119150000D02*
X128890000Y-121277000D01*
X128930000Y-114951000D02*
X128930000Y-117070000D01*
X128930000Y-119150000D02*
X128930000Y-121269000D01*
X128971000Y-114960000D02*
X128971000Y-117070000D01*
X128971000Y-119150000D02*
X128971000Y-121260000D01*
X129011000Y-114969000D02*
X129011000Y-117070000D01*
X129011000Y-119150000D02*
X129011000Y-121251000D01*
X129051000Y-114979000D02*
X129051000Y-117070000D01*
X129051000Y-119150000D02*
X129051000Y-121241000D01*
X129091000Y-114989000D02*
X129091000Y-117070000D01*
X129091000Y-119150000D02*
X129091000Y-121231000D01*
X129131000Y-115000000D02*
X129131000Y-117070000D01*
X129131000Y-119150000D02*
X129131000Y-121220000D01*
X129171000Y-115012000D02*
X129171000Y-117070000D01*
X129171000Y-119150000D02*
X129171000Y-121208000D01*
X129211000Y-115024000D02*
X129211000Y-117070000D01*
X129211000Y-119150000D02*
X129211000Y-121196000D01*
X129251000Y-115036000D02*
X129251000Y-117070000D01*
X129251000Y-119150000D02*
X129251000Y-121184000D01*
X129291000Y-115049000D02*
X129291000Y-117070000D01*
X129291000Y-119150000D02*
X129291000Y-121171000D01*
X129331000Y-115063000D02*
X129331000Y-117070000D01*
X129331000Y-119150000D02*
X129331000Y-121157000D01*
X129371000Y-115077000D02*
X129371000Y-117070000D01*
X129371000Y-119150000D02*
X129371000Y-121143000D01*
X129411000Y-115092000D02*
X129411000Y-117070000D01*
X129411000Y-119150000D02*
X129411000Y-121128000D01*
X129451000Y-115108000D02*
X129451000Y-117070000D01*
X129451000Y-119150000D02*
X129451000Y-121112000D01*
X129491000Y-115124000D02*
X129491000Y-117070000D01*
X129491000Y-119150000D02*
X129491000Y-121096000D01*
X129531000Y-115140000D02*
X129531000Y-117070000D01*
X129531000Y-119150000D02*
X129531000Y-121080000D01*
X129571000Y-115158000D02*
X129571000Y-117070000D01*
X129571000Y-119150000D02*
X129571000Y-121062000D01*
X129611000Y-115176000D02*
X129611000Y-117070000D01*
X129611000Y-119150000D02*
X129611000Y-121044000D01*
X129651000Y-115194000D02*
X129651000Y-117070000D01*
X129651000Y-119150000D02*
X129651000Y-121026000D01*
X129691000Y-115214000D02*
X129691000Y-117070000D01*
X129691000Y-119150000D02*
X129691000Y-121006000D01*
X129731000Y-115234000D02*
X129731000Y-117070000D01*
X129731000Y-119150000D02*
X129731000Y-120986000D01*
X129771000Y-115254000D02*
X129771000Y-117070000D01*
X129771000Y-119150000D02*
X129771000Y-120966000D01*
X129811000Y-115276000D02*
X129811000Y-117070000D01*
X129811000Y-119150000D02*
X129811000Y-120944000D01*
X129851000Y-115298000D02*
X129851000Y-117070000D01*
X129851000Y-119150000D02*
X129851000Y-120922000D01*
X129891000Y-115320000D02*
X129891000Y-117070000D01*
X129891000Y-119150000D02*
X129891000Y-120900000D01*
X129931000Y-115344000D02*
X129931000Y-117070000D01*
X129931000Y-119150000D02*
X129931000Y-120876000D01*
X129971000Y-115368000D02*
X129971000Y-117070000D01*
X129971000Y-119150000D02*
X129971000Y-120852000D01*
X130011000Y-115394000D02*
X130011000Y-117070000D01*
X130011000Y-119150000D02*
X130011000Y-120826000D01*
X130051000Y-115420000D02*
X130051000Y-117070000D01*
X130051000Y-119150000D02*
X130051000Y-120800000D01*
X130091000Y-115446000D02*
X130091000Y-117070000D01*
X130091000Y-119150000D02*
X130091000Y-120774000D01*
X130131000Y-115474000D02*
X130131000Y-117070000D01*
X130131000Y-119150000D02*
X130131000Y-120746000D01*
X130171000Y-115503000D02*
X130171000Y-117070000D01*
X130171000Y-119150000D02*
X130171000Y-120717000D01*
X130211000Y-115532000D02*
X130211000Y-117070000D01*
X130211000Y-119150000D02*
X130211000Y-120688000D01*
X130251000Y-115562000D02*
X130251000Y-117070000D01*
X130251000Y-119150000D02*
X130251000Y-120658000D01*
X130291000Y-115594000D02*
X130291000Y-117070000D01*
X130291000Y-119150000D02*
X130291000Y-120626000D01*
X130331000Y-115626000D02*
X130331000Y-117070000D01*
X130331000Y-119150000D02*
X130331000Y-120594000D01*
X130371000Y-115660000D02*
X130371000Y-117070000D01*
X130371000Y-119150000D02*
X130371000Y-120560000D01*
X130411000Y-115694000D02*
X130411000Y-117070000D01*
X130411000Y-119150000D02*
X130411000Y-120526000D01*
X130451000Y-115730000D02*
X130451000Y-117070000D01*
X130451000Y-119150000D02*
X130451000Y-120490000D01*
X130491000Y-115767000D02*
X130491000Y-117070000D01*
X130491000Y-119150000D02*
X130491000Y-120453000D01*
X130531000Y-115805000D02*
X130531000Y-117070000D01*
X130531000Y-119150000D02*
X130531000Y-120415000D01*
X130571000Y-115845000D02*
X130571000Y-120375000D01*
X130611000Y-115886000D02*
X130611000Y-120334000D01*
X130651000Y-115928000D02*
X130651000Y-120292000D01*
X130691000Y-115973000D02*
X130691000Y-120247000D01*
X130731000Y-116018000D02*
X130731000Y-120202000D01*
X130771000Y-116066000D02*
X130771000Y-120154000D01*
X130811000Y-116115000D02*
X130811000Y-120105000D01*
X130851000Y-116166000D02*
X130851000Y-120054000D01*
X130891000Y-116220000D02*
X130891000Y-120000000D01*
X130931000Y-116276000D02*
X130931000Y-119944000D01*
X130971000Y-116334000D02*
X130971000Y-119886000D01*
X131011000Y-116396000D02*
X131011000Y-119824000D01*
X131051000Y-116460000D02*
X131051000Y-119760000D01*
X131091000Y-116529000D02*
X131091000Y-119691000D01*
X131131000Y-116601000D02*
X131131000Y-119619000D01*
X131171000Y-116678000D02*
X131171000Y-119542000D01*
X131211000Y-116760000D02*
X131211000Y-119460000D01*
X131251000Y-116848000D02*
X131251000Y-119372000D01*
X131291000Y-116945000D02*
X131291000Y-119275000D01*
X131331000Y-117051000D02*
X131331000Y-119169000D01*
X131371000Y-117170000D02*
X131371000Y-119050000D01*
X131411000Y-117308000D02*
X131411000Y-118912000D01*
X131451000Y-117477000D02*
X131451000Y-118743000D01*
X131491000Y-117708000D02*
X131491000Y-118512000D01*
X124749759Y-116271000D02*
X125379759Y-116271000D01*
X125064759Y-115956000D02*
X125064759Y-116586000D01*
X198935000Y-68864775D02*
X199435000Y-68864775D01*
X199185000Y-69114775D02*
X199185000Y-68614775D01*
X200376000Y-63709000D02*
X200944000Y-63709000D01*
X200142000Y-63749000D02*
X201178000Y-63749000D01*
X199983000Y-63789000D02*
X201337000Y-63789000D01*
X199855000Y-63829000D02*
X201465000Y-63829000D01*
X199745000Y-63869000D02*
X201575000Y-63869000D01*
X199649000Y-63909000D02*
X201671000Y-63909000D01*
X199562000Y-63949000D02*
X201758000Y-63949000D01*
X199482000Y-63989000D02*
X201838000Y-63989000D01*
X199409000Y-64029000D02*
X201911000Y-64029000D01*
X199341000Y-64069000D02*
X201979000Y-64069000D01*
X199277000Y-64109000D02*
X202043000Y-64109000D01*
X199217000Y-64149000D02*
X202103000Y-64149000D01*
X199160000Y-64189000D02*
X202160000Y-64189000D01*
X199106000Y-64229000D02*
X202214000Y-64229000D01*
X199055000Y-64269000D02*
X202265000Y-64269000D01*
X201700000Y-64309000D02*
X202313000Y-64309000D01*
X199007000Y-64309000D02*
X199620000Y-64309000D01*
X201700000Y-64349000D02*
X202359000Y-64349000D01*
X198961000Y-64349000D02*
X199620000Y-64349000D01*
X201700000Y-64389000D02*
X202403000Y-64389000D01*
X198917000Y-64389000D02*
X199620000Y-64389000D01*
X201700000Y-64429000D02*
X202445000Y-64429000D01*
X198875000Y-64429000D02*
X199620000Y-64429000D01*
X201700000Y-64469000D02*
X202486000Y-64469000D01*
X198834000Y-64469000D02*
X199620000Y-64469000D01*
X201700000Y-64509000D02*
X202524000Y-64509000D01*
X198796000Y-64509000D02*
X199620000Y-64509000D01*
X201700000Y-64549000D02*
X202561000Y-64549000D01*
X198759000Y-64549000D02*
X199620000Y-64549000D01*
X201700000Y-64589000D02*
X202597000Y-64589000D01*
X198723000Y-64589000D02*
X199620000Y-64589000D01*
X201700000Y-64629000D02*
X202631000Y-64629000D01*
X198689000Y-64629000D02*
X199620000Y-64629000D01*
X201700000Y-64669000D02*
X202664000Y-64669000D01*
X198656000Y-64669000D02*
X199620000Y-64669000D01*
X201700000Y-64709000D02*
X202695000Y-64709000D01*
X198625000Y-64709000D02*
X199620000Y-64709000D01*
X201700000Y-64749000D02*
X202725000Y-64749000D01*
X198595000Y-64749000D02*
X199620000Y-64749000D01*
X201700000Y-64789000D02*
X202755000Y-64789000D01*
X198565000Y-64789000D02*
X199620000Y-64789000D01*
X201700000Y-64829000D02*
X202782000Y-64829000D01*
X198538000Y-64829000D02*
X199620000Y-64829000D01*
X201700000Y-64869000D02*
X202809000Y-64869000D01*
X198511000Y-64869000D02*
X199620000Y-64869000D01*
X201700000Y-64909000D02*
X202835000Y-64909000D01*
X198485000Y-64909000D02*
X199620000Y-64909000D01*
X201700000Y-64949000D02*
X202860000Y-64949000D01*
X198460000Y-64949000D02*
X199620000Y-64949000D01*
X201700000Y-64989000D02*
X202884000Y-64989000D01*
X198436000Y-64989000D02*
X199620000Y-64989000D01*
X201700000Y-65029000D02*
X202907000Y-65029000D01*
X198413000Y-65029000D02*
X199620000Y-65029000D01*
X201700000Y-65069000D02*
X202928000Y-65069000D01*
X198392000Y-65069000D02*
X199620000Y-65069000D01*
X201700000Y-65109000D02*
X202950000Y-65109000D01*
X198370000Y-65109000D02*
X199620000Y-65109000D01*
X201700000Y-65149000D02*
X202970000Y-65149000D01*
X198350000Y-65149000D02*
X199620000Y-65149000D01*
X201700000Y-65189000D02*
X202989000Y-65189000D01*
X198331000Y-65189000D02*
X199620000Y-65189000D01*
X201700000Y-65229000D02*
X203008000Y-65229000D01*
X198312000Y-65229000D02*
X199620000Y-65229000D01*
X201700000Y-65269000D02*
X203025000Y-65269000D01*
X198295000Y-65269000D02*
X199620000Y-65269000D01*
X201700000Y-65309000D02*
X203042000Y-65309000D01*
X198278000Y-65309000D02*
X199620000Y-65309000D01*
X201700000Y-65349000D02*
X203058000Y-65349000D01*
X198262000Y-65349000D02*
X199620000Y-65349000D01*
X201700000Y-65389000D02*
X203074000Y-65389000D01*
X198246000Y-65389000D02*
X199620000Y-65389000D01*
X201700000Y-65429000D02*
X203088000Y-65429000D01*
X198232000Y-65429000D02*
X199620000Y-65429000D01*
X201700000Y-65469000D02*
X203102000Y-65469000D01*
X198218000Y-65469000D02*
X199620000Y-65469000D01*
X201700000Y-65509000D02*
X203115000Y-65509000D01*
X198205000Y-65509000D02*
X199620000Y-65509000D01*
X201700000Y-65549000D02*
X203128000Y-65549000D01*
X198192000Y-65549000D02*
X199620000Y-65549000D01*
X201700000Y-65589000D02*
X203140000Y-65589000D01*
X198180000Y-65589000D02*
X199620000Y-65589000D01*
X201700000Y-65630000D02*
X203151000Y-65630000D01*
X198169000Y-65630000D02*
X199620000Y-65630000D01*
X201700000Y-65670000D02*
X203161000Y-65670000D01*
X198159000Y-65670000D02*
X199620000Y-65670000D01*
X201700000Y-65710000D02*
X203171000Y-65710000D01*
X198149000Y-65710000D02*
X199620000Y-65710000D01*
X201700000Y-65750000D02*
X203180000Y-65750000D01*
X198140000Y-65750000D02*
X199620000Y-65750000D01*
X201700000Y-65790000D02*
X203188000Y-65790000D01*
X198132000Y-65790000D02*
X199620000Y-65790000D01*
X201700000Y-65830000D02*
X203196000Y-65830000D01*
X198124000Y-65830000D02*
X199620000Y-65830000D01*
X201700000Y-65870000D02*
X203203000Y-65870000D01*
X198117000Y-65870000D02*
X199620000Y-65870000D01*
X201700000Y-65910000D02*
X203210000Y-65910000D01*
X198110000Y-65910000D02*
X199620000Y-65910000D01*
X201700000Y-65950000D02*
X203216000Y-65950000D01*
X198104000Y-65950000D02*
X199620000Y-65950000D01*
X201700000Y-65990000D02*
X203221000Y-65990000D01*
X198099000Y-65990000D02*
X199620000Y-65990000D01*
X201700000Y-66030000D02*
X203225000Y-66030000D01*
X198095000Y-66030000D02*
X199620000Y-66030000D01*
X201700000Y-66070000D02*
X203229000Y-66070000D01*
X198091000Y-66070000D02*
X199620000Y-66070000D01*
X201700000Y-66110000D02*
X203233000Y-66110000D01*
X198087000Y-66110000D02*
X199620000Y-66110000D01*
X201700000Y-66150000D02*
X203236000Y-66150000D01*
X198084000Y-66150000D02*
X199620000Y-66150000D01*
X201700000Y-66190000D02*
X203238000Y-66190000D01*
X198082000Y-66190000D02*
X199620000Y-66190000D01*
X201700000Y-66230000D02*
X203239000Y-66230000D01*
X198081000Y-66230000D02*
X199620000Y-66230000D01*
X198080000Y-66270000D02*
X199620000Y-66270000D01*
X201700000Y-66270000D02*
X203240000Y-66270000D01*
X198080000Y-66310000D02*
X199620000Y-66310000D01*
X201700000Y-66310000D02*
X203240000Y-66310000D01*
X203280000Y-66310000D02*
G75*
G03X203280000Y-66310000I-2620000J0D01*
G01*
X125445225Y-107495000D02*
X125445225Y-107995000D01*
X125195225Y-107745000D02*
X125695225Y-107745000D01*
X130601000Y-108936000D02*
X130601000Y-109504000D01*
X130561000Y-108702000D02*
X130561000Y-109738000D01*
X130521000Y-108543000D02*
X130521000Y-109897000D01*
X130481000Y-108415000D02*
X130481000Y-110025000D01*
X130441000Y-108305000D02*
X130441000Y-110135000D01*
X130401000Y-108209000D02*
X130401000Y-110231000D01*
X130361000Y-108122000D02*
X130361000Y-110318000D01*
X130321000Y-108042000D02*
X130321000Y-110398000D01*
X130281000Y-107969000D02*
X130281000Y-110471000D01*
X130241000Y-107901000D02*
X130241000Y-110539000D01*
X130201000Y-107837000D02*
X130201000Y-110603000D01*
X130161000Y-107777000D02*
X130161000Y-110663000D01*
X130121000Y-107720000D02*
X130121000Y-110720000D01*
X130081000Y-107666000D02*
X130081000Y-110774000D01*
X130041000Y-107615000D02*
X130041000Y-110825000D01*
X130001000Y-110260000D02*
X130001000Y-110873000D01*
X130001000Y-107567000D02*
X130001000Y-108180000D01*
X129961000Y-110260000D02*
X129961000Y-110919000D01*
X129961000Y-107521000D02*
X129961000Y-108180000D01*
X129921000Y-110260000D02*
X129921000Y-110963000D01*
X129921000Y-107477000D02*
X129921000Y-108180000D01*
X129881000Y-110260000D02*
X129881000Y-111005000D01*
X129881000Y-107435000D02*
X129881000Y-108180000D01*
X129841000Y-110260000D02*
X129841000Y-111046000D01*
X129841000Y-107394000D02*
X129841000Y-108180000D01*
X129801000Y-110260000D02*
X129801000Y-111084000D01*
X129801000Y-107356000D02*
X129801000Y-108180000D01*
X129761000Y-110260000D02*
X129761000Y-111121000D01*
X129761000Y-107319000D02*
X129761000Y-108180000D01*
X129721000Y-110260000D02*
X129721000Y-111157000D01*
X129721000Y-107283000D02*
X129721000Y-108180000D01*
X129681000Y-110260000D02*
X129681000Y-111191000D01*
X129681000Y-107249000D02*
X129681000Y-108180000D01*
X129641000Y-110260000D02*
X129641000Y-111224000D01*
X129641000Y-107216000D02*
X129641000Y-108180000D01*
X129601000Y-110260000D02*
X129601000Y-111255000D01*
X129601000Y-107185000D02*
X129601000Y-108180000D01*
X129561000Y-110260000D02*
X129561000Y-111285000D01*
X129561000Y-107155000D02*
X129561000Y-108180000D01*
X129521000Y-110260000D02*
X129521000Y-111315000D01*
X129521000Y-107125000D02*
X129521000Y-108180000D01*
X129481000Y-110260000D02*
X129481000Y-111342000D01*
X129481000Y-107098000D02*
X129481000Y-108180000D01*
X129441000Y-110260000D02*
X129441000Y-111369000D01*
X129441000Y-107071000D02*
X129441000Y-108180000D01*
X129401000Y-110260000D02*
X129401000Y-111395000D01*
X129401000Y-107045000D02*
X129401000Y-108180000D01*
X129361000Y-110260000D02*
X129361000Y-111420000D01*
X129361000Y-107020000D02*
X129361000Y-108180000D01*
X129321000Y-110260000D02*
X129321000Y-111444000D01*
X129321000Y-106996000D02*
X129321000Y-108180000D01*
X129281000Y-110260000D02*
X129281000Y-111467000D01*
X129281000Y-106973000D02*
X129281000Y-108180000D01*
X129241000Y-110260000D02*
X129241000Y-111488000D01*
X129241000Y-106952000D02*
X129241000Y-108180000D01*
X129201000Y-110260000D02*
X129201000Y-111510000D01*
X129201000Y-106930000D02*
X129201000Y-108180000D01*
X129161000Y-110260000D02*
X129161000Y-111530000D01*
X129161000Y-106910000D02*
X129161000Y-108180000D01*
X129121000Y-110260000D02*
X129121000Y-111549000D01*
X129121000Y-106891000D02*
X129121000Y-108180000D01*
X129081000Y-110260000D02*
X129081000Y-111568000D01*
X129081000Y-106872000D02*
X129081000Y-108180000D01*
X129041000Y-110260000D02*
X129041000Y-111585000D01*
X129041000Y-106855000D02*
X129041000Y-108180000D01*
X129001000Y-110260000D02*
X129001000Y-111602000D01*
X129001000Y-106838000D02*
X129001000Y-108180000D01*
X128961000Y-110260000D02*
X128961000Y-111618000D01*
X128961000Y-106822000D02*
X128961000Y-108180000D01*
X128921000Y-110260000D02*
X128921000Y-111634000D01*
X128921000Y-106806000D02*
X128921000Y-108180000D01*
X128881000Y-110260000D02*
X128881000Y-111648000D01*
X128881000Y-106792000D02*
X128881000Y-108180000D01*
X128841000Y-110260000D02*
X128841000Y-111662000D01*
X128841000Y-106778000D02*
X128841000Y-108180000D01*
X128801000Y-110260000D02*
X128801000Y-111675000D01*
X128801000Y-106765000D02*
X128801000Y-108180000D01*
X128761000Y-110260000D02*
X128761000Y-111688000D01*
X128761000Y-106752000D02*
X128761000Y-108180000D01*
X128721000Y-110260000D02*
X128721000Y-111700000D01*
X128721000Y-106740000D02*
X128721000Y-108180000D01*
X128680000Y-110260000D02*
X128680000Y-111711000D01*
X128680000Y-106729000D02*
X128680000Y-108180000D01*
X128640000Y-110260000D02*
X128640000Y-111721000D01*
X128640000Y-106719000D02*
X128640000Y-108180000D01*
X128600000Y-110260000D02*
X128600000Y-111731000D01*
X128600000Y-106709000D02*
X128600000Y-108180000D01*
X128560000Y-110260000D02*
X128560000Y-111740000D01*
X128560000Y-106700000D02*
X128560000Y-108180000D01*
X128520000Y-110260000D02*
X128520000Y-111748000D01*
X128520000Y-106692000D02*
X128520000Y-108180000D01*
X128480000Y-110260000D02*
X128480000Y-111756000D01*
X128480000Y-106684000D02*
X128480000Y-108180000D01*
X128440000Y-110260000D02*
X128440000Y-111763000D01*
X128440000Y-106677000D02*
X128440000Y-108180000D01*
X128400000Y-110260000D02*
X128400000Y-111770000D01*
X128400000Y-106670000D02*
X128400000Y-108180000D01*
X128360000Y-110260000D02*
X128360000Y-111776000D01*
X128360000Y-106664000D02*
X128360000Y-108180000D01*
X128320000Y-110260000D02*
X128320000Y-111781000D01*
X128320000Y-106659000D02*
X128320000Y-108180000D01*
X128280000Y-110260000D02*
X128280000Y-111785000D01*
X128280000Y-106655000D02*
X128280000Y-108180000D01*
X128240000Y-110260000D02*
X128240000Y-111789000D01*
X128240000Y-106651000D02*
X128240000Y-108180000D01*
X128200000Y-110260000D02*
X128200000Y-111793000D01*
X128200000Y-106647000D02*
X128200000Y-108180000D01*
X128160000Y-110260000D02*
X128160000Y-111796000D01*
X128160000Y-106644000D02*
X128160000Y-108180000D01*
X128120000Y-110260000D02*
X128120000Y-111798000D01*
X128120000Y-106642000D02*
X128120000Y-108180000D01*
X128080000Y-110260000D02*
X128080000Y-111799000D01*
X128080000Y-106641000D02*
X128080000Y-108180000D01*
X128040000Y-106640000D02*
X128040000Y-108180000D01*
X128040000Y-110260000D02*
X128040000Y-111800000D01*
X128000000Y-106640000D02*
X128000000Y-108180000D01*
X128000000Y-110260000D02*
X128000000Y-111800000D01*
X130620000Y-109220000D02*
G75*
G03X130620000Y-109220000I-2620000J0D01*
G01*
X141050000Y-112760000D02*
G75*
G03X141050000Y-112760000I-2620000J0D01*
G01*
X137390000Y-112760000D02*
X135850000Y-112760000D01*
X141010000Y-112760000D02*
X139470000Y-112760000D01*
X137390000Y-112800000D02*
X135850000Y-112800000D01*
X141010000Y-112800000D02*
X139470000Y-112800000D01*
X141009000Y-112840000D02*
X139470000Y-112840000D01*
X137390000Y-112840000D02*
X135851000Y-112840000D01*
X141008000Y-112880000D02*
X139470000Y-112880000D01*
X137390000Y-112880000D02*
X135852000Y-112880000D01*
X141006000Y-112920000D02*
X139470000Y-112920000D01*
X137390000Y-112920000D02*
X135854000Y-112920000D01*
X141003000Y-112960000D02*
X139470000Y-112960000D01*
X137390000Y-112960000D02*
X135857000Y-112960000D01*
X140999000Y-113000000D02*
X139470000Y-113000000D01*
X137390000Y-113000000D02*
X135861000Y-113000000D01*
X140995000Y-113040000D02*
X139470000Y-113040000D01*
X137390000Y-113040000D02*
X135865000Y-113040000D01*
X140991000Y-113080000D02*
X139470000Y-113080000D01*
X137390000Y-113080000D02*
X135869000Y-113080000D01*
X140986000Y-113120000D02*
X139470000Y-113120000D01*
X137390000Y-113120000D02*
X135874000Y-113120000D01*
X140980000Y-113160000D02*
X139470000Y-113160000D01*
X137390000Y-113160000D02*
X135880000Y-113160000D01*
X140973000Y-113200000D02*
X139470000Y-113200000D01*
X137390000Y-113200000D02*
X135887000Y-113200000D01*
X140966000Y-113240000D02*
X139470000Y-113240000D01*
X137390000Y-113240000D02*
X135894000Y-113240000D01*
X140958000Y-113280000D02*
X139470000Y-113280000D01*
X137390000Y-113280000D02*
X135902000Y-113280000D01*
X140950000Y-113320000D02*
X139470000Y-113320000D01*
X137390000Y-113320000D02*
X135910000Y-113320000D01*
X140941000Y-113360000D02*
X139470000Y-113360000D01*
X137390000Y-113360000D02*
X135919000Y-113360000D01*
X140931000Y-113400000D02*
X139470000Y-113400000D01*
X137390000Y-113400000D02*
X135929000Y-113400000D01*
X140921000Y-113440000D02*
X139470000Y-113440000D01*
X137390000Y-113440000D02*
X135939000Y-113440000D01*
X140910000Y-113481000D02*
X139470000Y-113481000D01*
X137390000Y-113481000D02*
X135950000Y-113481000D01*
X140898000Y-113521000D02*
X139470000Y-113521000D01*
X137390000Y-113521000D02*
X135962000Y-113521000D01*
X140885000Y-113561000D02*
X139470000Y-113561000D01*
X137390000Y-113561000D02*
X135975000Y-113561000D01*
X140872000Y-113601000D02*
X139470000Y-113601000D01*
X137390000Y-113601000D02*
X135988000Y-113601000D01*
X140858000Y-113641000D02*
X139470000Y-113641000D01*
X137390000Y-113641000D02*
X136002000Y-113641000D01*
X140844000Y-113681000D02*
X139470000Y-113681000D01*
X137390000Y-113681000D02*
X136016000Y-113681000D01*
X140828000Y-113721000D02*
X139470000Y-113721000D01*
X137390000Y-113721000D02*
X136032000Y-113721000D01*
X140812000Y-113761000D02*
X139470000Y-113761000D01*
X137390000Y-113761000D02*
X136048000Y-113761000D01*
X140795000Y-113801000D02*
X139470000Y-113801000D01*
X137390000Y-113801000D02*
X136065000Y-113801000D01*
X140778000Y-113841000D02*
X139470000Y-113841000D01*
X137390000Y-113841000D02*
X136082000Y-113841000D01*
X140759000Y-113881000D02*
X139470000Y-113881000D01*
X137390000Y-113881000D02*
X136101000Y-113881000D01*
X140740000Y-113921000D02*
X139470000Y-113921000D01*
X137390000Y-113921000D02*
X136120000Y-113921000D01*
X140720000Y-113961000D02*
X139470000Y-113961000D01*
X137390000Y-113961000D02*
X136140000Y-113961000D01*
X140698000Y-114001000D02*
X139470000Y-114001000D01*
X137390000Y-114001000D02*
X136162000Y-114001000D01*
X140677000Y-114041000D02*
X139470000Y-114041000D01*
X137390000Y-114041000D02*
X136183000Y-114041000D01*
X140654000Y-114081000D02*
X139470000Y-114081000D01*
X137390000Y-114081000D02*
X136206000Y-114081000D01*
X140630000Y-114121000D02*
X139470000Y-114121000D01*
X137390000Y-114121000D02*
X136230000Y-114121000D01*
X140605000Y-114161000D02*
X139470000Y-114161000D01*
X137390000Y-114161000D02*
X136255000Y-114161000D01*
X140579000Y-114201000D02*
X139470000Y-114201000D01*
X137390000Y-114201000D02*
X136281000Y-114201000D01*
X140552000Y-114241000D02*
X139470000Y-114241000D01*
X137390000Y-114241000D02*
X136308000Y-114241000D01*
X140525000Y-114281000D02*
X139470000Y-114281000D01*
X137390000Y-114281000D02*
X136335000Y-114281000D01*
X140495000Y-114321000D02*
X139470000Y-114321000D01*
X137390000Y-114321000D02*
X136365000Y-114321000D01*
X140465000Y-114361000D02*
X139470000Y-114361000D01*
X137390000Y-114361000D02*
X136395000Y-114361000D01*
X140434000Y-114401000D02*
X139470000Y-114401000D01*
X137390000Y-114401000D02*
X136426000Y-114401000D01*
X140401000Y-114441000D02*
X139470000Y-114441000D01*
X137390000Y-114441000D02*
X136459000Y-114441000D01*
X140367000Y-114481000D02*
X139470000Y-114481000D01*
X137390000Y-114481000D02*
X136493000Y-114481000D01*
X140331000Y-114521000D02*
X139470000Y-114521000D01*
X137390000Y-114521000D02*
X136529000Y-114521000D01*
X140294000Y-114561000D02*
X139470000Y-114561000D01*
X137390000Y-114561000D02*
X136566000Y-114561000D01*
X140256000Y-114601000D02*
X139470000Y-114601000D01*
X137390000Y-114601000D02*
X136604000Y-114601000D01*
X140215000Y-114641000D02*
X139470000Y-114641000D01*
X137390000Y-114641000D02*
X136645000Y-114641000D01*
X140173000Y-114681000D02*
X139470000Y-114681000D01*
X137390000Y-114681000D02*
X136687000Y-114681000D01*
X140129000Y-114721000D02*
X139470000Y-114721000D01*
X137390000Y-114721000D02*
X136731000Y-114721000D01*
X140083000Y-114761000D02*
X139470000Y-114761000D01*
X137390000Y-114761000D02*
X136777000Y-114761000D01*
X140035000Y-114801000D02*
X136825000Y-114801000D01*
X139984000Y-114841000D02*
X136876000Y-114841000D01*
X139930000Y-114881000D02*
X136930000Y-114881000D01*
X139873000Y-114921000D02*
X136987000Y-114921000D01*
X139813000Y-114961000D02*
X137047000Y-114961000D01*
X139749000Y-115001000D02*
X137111000Y-115001000D01*
X139681000Y-115041000D02*
X137179000Y-115041000D01*
X139608000Y-115081000D02*
X137252000Y-115081000D01*
X139528000Y-115121000D02*
X137332000Y-115121000D01*
X139441000Y-115161000D02*
X137419000Y-115161000D01*
X139345000Y-115201000D02*
X137515000Y-115201000D01*
X139235000Y-115241000D02*
X137625000Y-115241000D01*
X139107000Y-115281000D02*
X137753000Y-115281000D01*
X138948000Y-115321000D02*
X137912000Y-115321000D01*
X138714000Y-115361000D02*
X138146000Y-115361000D01*
X139905000Y-109955225D02*
X139905000Y-110455225D01*
X140155000Y-110205225D02*
X139655000Y-110205225D01*
X192120000Y-83820000D02*
G75*
G03X192120000Y-83820000I-2620000J0D01*
G01*
X189500000Y-82780000D02*
X189500000Y-81240000D01*
X189500000Y-86400000D02*
X189500000Y-84860000D01*
X189460000Y-82780000D02*
X189460000Y-81240000D01*
X189460000Y-86400000D02*
X189460000Y-84860000D01*
X189420000Y-86399000D02*
X189420000Y-84860000D01*
X189420000Y-82780000D02*
X189420000Y-81241000D01*
X189380000Y-86398000D02*
X189380000Y-84860000D01*
X189380000Y-82780000D02*
X189380000Y-81242000D01*
X189340000Y-86396000D02*
X189340000Y-84860000D01*
X189340000Y-82780000D02*
X189340000Y-81244000D01*
X189300000Y-86393000D02*
X189300000Y-84860000D01*
X189300000Y-82780000D02*
X189300000Y-81247000D01*
X189260000Y-86389000D02*
X189260000Y-84860000D01*
X189260000Y-82780000D02*
X189260000Y-81251000D01*
X189220000Y-86385000D02*
X189220000Y-84860000D01*
X189220000Y-82780000D02*
X189220000Y-81255000D01*
X189180000Y-86381000D02*
X189180000Y-84860000D01*
X189180000Y-82780000D02*
X189180000Y-81259000D01*
X189140000Y-86376000D02*
X189140000Y-84860000D01*
X189140000Y-82780000D02*
X189140000Y-81264000D01*
X189100000Y-86370000D02*
X189100000Y-84860000D01*
X189100000Y-82780000D02*
X189100000Y-81270000D01*
X189060000Y-86363000D02*
X189060000Y-84860000D01*
X189060000Y-82780000D02*
X189060000Y-81277000D01*
X189020000Y-86356000D02*
X189020000Y-84860000D01*
X189020000Y-82780000D02*
X189020000Y-81284000D01*
X188980000Y-86348000D02*
X188980000Y-84860000D01*
X188980000Y-82780000D02*
X188980000Y-81292000D01*
X188940000Y-86340000D02*
X188940000Y-84860000D01*
X188940000Y-82780000D02*
X188940000Y-81300000D01*
X188900000Y-86331000D02*
X188900000Y-84860000D01*
X188900000Y-82780000D02*
X188900000Y-81309000D01*
X188860000Y-86321000D02*
X188860000Y-84860000D01*
X188860000Y-82780000D02*
X188860000Y-81319000D01*
X188820000Y-86311000D02*
X188820000Y-84860000D01*
X188820000Y-82780000D02*
X188820000Y-81329000D01*
X188779000Y-86300000D02*
X188779000Y-84860000D01*
X188779000Y-82780000D02*
X188779000Y-81340000D01*
X188739000Y-86288000D02*
X188739000Y-84860000D01*
X188739000Y-82780000D02*
X188739000Y-81352000D01*
X188699000Y-86275000D02*
X188699000Y-84860000D01*
X188699000Y-82780000D02*
X188699000Y-81365000D01*
X188659000Y-86262000D02*
X188659000Y-84860000D01*
X188659000Y-82780000D02*
X188659000Y-81378000D01*
X188619000Y-86248000D02*
X188619000Y-84860000D01*
X188619000Y-82780000D02*
X188619000Y-81392000D01*
X188579000Y-86234000D02*
X188579000Y-84860000D01*
X188579000Y-82780000D02*
X188579000Y-81406000D01*
X188539000Y-86218000D02*
X188539000Y-84860000D01*
X188539000Y-82780000D02*
X188539000Y-81422000D01*
X188499000Y-86202000D02*
X188499000Y-84860000D01*
X188499000Y-82780000D02*
X188499000Y-81438000D01*
X188459000Y-86185000D02*
X188459000Y-84860000D01*
X188459000Y-82780000D02*
X188459000Y-81455000D01*
X188419000Y-86168000D02*
X188419000Y-84860000D01*
X188419000Y-82780000D02*
X188419000Y-81472000D01*
X188379000Y-86149000D02*
X188379000Y-84860000D01*
X188379000Y-82780000D02*
X188379000Y-81491000D01*
X188339000Y-86130000D02*
X188339000Y-84860000D01*
X188339000Y-82780000D02*
X188339000Y-81510000D01*
X188299000Y-86110000D02*
X188299000Y-84860000D01*
X188299000Y-82780000D02*
X188299000Y-81530000D01*
X188259000Y-86088000D02*
X188259000Y-84860000D01*
X188259000Y-82780000D02*
X188259000Y-81552000D01*
X188219000Y-86067000D02*
X188219000Y-84860000D01*
X188219000Y-82780000D02*
X188219000Y-81573000D01*
X188179000Y-86044000D02*
X188179000Y-84860000D01*
X188179000Y-82780000D02*
X188179000Y-81596000D01*
X188139000Y-86020000D02*
X188139000Y-84860000D01*
X188139000Y-82780000D02*
X188139000Y-81620000D01*
X188099000Y-85995000D02*
X188099000Y-84860000D01*
X188099000Y-82780000D02*
X188099000Y-81645000D01*
X188059000Y-85969000D02*
X188059000Y-84860000D01*
X188059000Y-82780000D02*
X188059000Y-81671000D01*
X188019000Y-85942000D02*
X188019000Y-84860000D01*
X188019000Y-82780000D02*
X188019000Y-81698000D01*
X187979000Y-85915000D02*
X187979000Y-84860000D01*
X187979000Y-82780000D02*
X187979000Y-81725000D01*
X187939000Y-85885000D02*
X187939000Y-84860000D01*
X187939000Y-82780000D02*
X187939000Y-81755000D01*
X187899000Y-85855000D02*
X187899000Y-84860000D01*
X187899000Y-82780000D02*
X187899000Y-81785000D01*
X187859000Y-85824000D02*
X187859000Y-84860000D01*
X187859000Y-82780000D02*
X187859000Y-81816000D01*
X187819000Y-85791000D02*
X187819000Y-84860000D01*
X187819000Y-82780000D02*
X187819000Y-81849000D01*
X187779000Y-85757000D02*
X187779000Y-84860000D01*
X187779000Y-82780000D02*
X187779000Y-81883000D01*
X187739000Y-85721000D02*
X187739000Y-84860000D01*
X187739000Y-82780000D02*
X187739000Y-81919000D01*
X187699000Y-85684000D02*
X187699000Y-84860000D01*
X187699000Y-82780000D02*
X187699000Y-81956000D01*
X187659000Y-85646000D02*
X187659000Y-84860000D01*
X187659000Y-82780000D02*
X187659000Y-81994000D01*
X187619000Y-85605000D02*
X187619000Y-84860000D01*
X187619000Y-82780000D02*
X187619000Y-82035000D01*
X187579000Y-85563000D02*
X187579000Y-84860000D01*
X187579000Y-82780000D02*
X187579000Y-82077000D01*
X187539000Y-85519000D02*
X187539000Y-84860000D01*
X187539000Y-82780000D02*
X187539000Y-82121000D01*
X187499000Y-85473000D02*
X187499000Y-84860000D01*
X187499000Y-82780000D02*
X187499000Y-82167000D01*
X187459000Y-85425000D02*
X187459000Y-82215000D01*
X187419000Y-85374000D02*
X187419000Y-82266000D01*
X187379000Y-85320000D02*
X187379000Y-82320000D01*
X187339000Y-85263000D02*
X187339000Y-82377000D01*
X187299000Y-85203000D02*
X187299000Y-82437000D01*
X187259000Y-85139000D02*
X187259000Y-82501000D01*
X187219000Y-85071000D02*
X187219000Y-82569000D01*
X187179000Y-84998000D02*
X187179000Y-82642000D01*
X187139000Y-84918000D02*
X187139000Y-82722000D01*
X187099000Y-84831000D02*
X187099000Y-82809000D01*
X187059000Y-84735000D02*
X187059000Y-82905000D01*
X187019000Y-84625000D02*
X187019000Y-83015000D01*
X186979000Y-84497000D02*
X186979000Y-83143000D01*
X186939000Y-84338000D02*
X186939000Y-83302000D01*
X186899000Y-84104000D02*
X186899000Y-83536000D01*
X192304775Y-85295000D02*
X191804775Y-85295000D01*
X192054775Y-85545000D02*
X192054775Y-85045000D01*
X155195225Y-111305000D02*
X155195225Y-111805000D01*
X154945225Y-111555000D02*
X155445225Y-111555000D01*
X160351000Y-112746000D02*
X160351000Y-113314000D01*
X160311000Y-112512000D02*
X160311000Y-113548000D01*
X160271000Y-112353000D02*
X160271000Y-113707000D01*
X160231000Y-112225000D02*
X160231000Y-113835000D01*
X160191000Y-112115000D02*
X160191000Y-113945000D01*
X160151000Y-112019000D02*
X160151000Y-114041000D01*
X160111000Y-111932000D02*
X160111000Y-114128000D01*
X160071000Y-111852000D02*
X160071000Y-114208000D01*
X160031000Y-111779000D02*
X160031000Y-114281000D01*
X159991000Y-111711000D02*
X159991000Y-114349000D01*
X159951000Y-111647000D02*
X159951000Y-114413000D01*
X159911000Y-111587000D02*
X159911000Y-114473000D01*
X159871000Y-111530000D02*
X159871000Y-114530000D01*
X159831000Y-111476000D02*
X159831000Y-114584000D01*
X159791000Y-111425000D02*
X159791000Y-114635000D01*
X159751000Y-114070000D02*
X159751000Y-114683000D01*
X159751000Y-111377000D02*
X159751000Y-111990000D01*
X159711000Y-114070000D02*
X159711000Y-114729000D01*
X159711000Y-111331000D02*
X159711000Y-111990000D01*
X159671000Y-114070000D02*
X159671000Y-114773000D01*
X159671000Y-111287000D02*
X159671000Y-111990000D01*
X159631000Y-114070000D02*
X159631000Y-114815000D01*
X159631000Y-111245000D02*
X159631000Y-111990000D01*
X159591000Y-114070000D02*
X159591000Y-114856000D01*
X159591000Y-111204000D02*
X159591000Y-111990000D01*
X159551000Y-114070000D02*
X159551000Y-114894000D01*
X159551000Y-111166000D02*
X159551000Y-111990000D01*
X159511000Y-114070000D02*
X159511000Y-114931000D01*
X159511000Y-111129000D02*
X159511000Y-111990000D01*
X159471000Y-114070000D02*
X159471000Y-114967000D01*
X159471000Y-111093000D02*
X159471000Y-111990000D01*
X159431000Y-114070000D02*
X159431000Y-115001000D01*
X159431000Y-111059000D02*
X159431000Y-111990000D01*
X159391000Y-114070000D02*
X159391000Y-115034000D01*
X159391000Y-111026000D02*
X159391000Y-111990000D01*
X159351000Y-114070000D02*
X159351000Y-115065000D01*
X159351000Y-110995000D02*
X159351000Y-111990000D01*
X159311000Y-114070000D02*
X159311000Y-115095000D01*
X159311000Y-110965000D02*
X159311000Y-111990000D01*
X159271000Y-114070000D02*
X159271000Y-115125000D01*
X159271000Y-110935000D02*
X159271000Y-111990000D01*
X159231000Y-114070000D02*
X159231000Y-115152000D01*
X159231000Y-110908000D02*
X159231000Y-111990000D01*
X159191000Y-114070000D02*
X159191000Y-115179000D01*
X159191000Y-110881000D02*
X159191000Y-111990000D01*
X159151000Y-114070000D02*
X159151000Y-115205000D01*
X159151000Y-110855000D02*
X159151000Y-111990000D01*
X159111000Y-114070000D02*
X159111000Y-115230000D01*
X159111000Y-110830000D02*
X159111000Y-111990000D01*
X159071000Y-114070000D02*
X159071000Y-115254000D01*
X159071000Y-110806000D02*
X159071000Y-111990000D01*
X159031000Y-114070000D02*
X159031000Y-115277000D01*
X159031000Y-110783000D02*
X159031000Y-111990000D01*
X158991000Y-114070000D02*
X158991000Y-115298000D01*
X158991000Y-110762000D02*
X158991000Y-111990000D01*
X158951000Y-114070000D02*
X158951000Y-115320000D01*
X158951000Y-110740000D02*
X158951000Y-111990000D01*
X158911000Y-114070000D02*
X158911000Y-115340000D01*
X158911000Y-110720000D02*
X158911000Y-111990000D01*
X158871000Y-114070000D02*
X158871000Y-115359000D01*
X158871000Y-110701000D02*
X158871000Y-111990000D01*
X158831000Y-114070000D02*
X158831000Y-115378000D01*
X158831000Y-110682000D02*
X158831000Y-111990000D01*
X158791000Y-114070000D02*
X158791000Y-115395000D01*
X158791000Y-110665000D02*
X158791000Y-111990000D01*
X158751000Y-114070000D02*
X158751000Y-115412000D01*
X158751000Y-110648000D02*
X158751000Y-111990000D01*
X158711000Y-114070000D02*
X158711000Y-115428000D01*
X158711000Y-110632000D02*
X158711000Y-111990000D01*
X158671000Y-114070000D02*
X158671000Y-115444000D01*
X158671000Y-110616000D02*
X158671000Y-111990000D01*
X158631000Y-114070000D02*
X158631000Y-115458000D01*
X158631000Y-110602000D02*
X158631000Y-111990000D01*
X158591000Y-114070000D02*
X158591000Y-115472000D01*
X158591000Y-110588000D02*
X158591000Y-111990000D01*
X158551000Y-114070000D02*
X158551000Y-115485000D01*
X158551000Y-110575000D02*
X158551000Y-111990000D01*
X158511000Y-114070000D02*
X158511000Y-115498000D01*
X158511000Y-110562000D02*
X158511000Y-111990000D01*
X158471000Y-114070000D02*
X158471000Y-115510000D01*
X158471000Y-110550000D02*
X158471000Y-111990000D01*
X158430000Y-114070000D02*
X158430000Y-115521000D01*
X158430000Y-110539000D02*
X158430000Y-111990000D01*
X158390000Y-114070000D02*
X158390000Y-115531000D01*
X158390000Y-110529000D02*
X158390000Y-111990000D01*
X158350000Y-114070000D02*
X158350000Y-115541000D01*
X158350000Y-110519000D02*
X158350000Y-111990000D01*
X158310000Y-114070000D02*
X158310000Y-115550000D01*
X158310000Y-110510000D02*
X158310000Y-111990000D01*
X158270000Y-114070000D02*
X158270000Y-115558000D01*
X158270000Y-110502000D02*
X158270000Y-111990000D01*
X158230000Y-114070000D02*
X158230000Y-115566000D01*
X158230000Y-110494000D02*
X158230000Y-111990000D01*
X158190000Y-114070000D02*
X158190000Y-115573000D01*
X158190000Y-110487000D02*
X158190000Y-111990000D01*
X158150000Y-114070000D02*
X158150000Y-115580000D01*
X158150000Y-110480000D02*
X158150000Y-111990000D01*
X158110000Y-114070000D02*
X158110000Y-115586000D01*
X158110000Y-110474000D02*
X158110000Y-111990000D01*
X158070000Y-114070000D02*
X158070000Y-115591000D01*
X158070000Y-110469000D02*
X158070000Y-111990000D01*
X158030000Y-114070000D02*
X158030000Y-115595000D01*
X158030000Y-110465000D02*
X158030000Y-111990000D01*
X157990000Y-114070000D02*
X157990000Y-115599000D01*
X157990000Y-110461000D02*
X157990000Y-111990000D01*
X157950000Y-114070000D02*
X157950000Y-115603000D01*
X157950000Y-110457000D02*
X157950000Y-111990000D01*
X157910000Y-114070000D02*
X157910000Y-115606000D01*
X157910000Y-110454000D02*
X157910000Y-111990000D01*
X157870000Y-114070000D02*
X157870000Y-115608000D01*
X157870000Y-110452000D02*
X157870000Y-111990000D01*
X157830000Y-114070000D02*
X157830000Y-115609000D01*
X157830000Y-110451000D02*
X157830000Y-111990000D01*
X157790000Y-110450000D02*
X157790000Y-111990000D01*
X157790000Y-114070000D02*
X157790000Y-115610000D01*
X157750000Y-110450000D02*
X157750000Y-111990000D01*
X157750000Y-114070000D02*
X157750000Y-115610000D01*
X160370000Y-113030000D02*
G75*
G03X160370000Y-113030000I-2620000J0D01*
G01*
X132445000Y-87450000D02*
X132445000Y-92890000D01*
X132685000Y-87450000D02*
X132685000Y-92890000D01*
X132565000Y-87450000D02*
X132565000Y-92890000D01*
X141670000Y-90170000D02*
X140760000Y-90170000D01*
X130110000Y-90170000D02*
X131020000Y-90170000D01*
X140760000Y-87450000D02*
X131020000Y-87450000D01*
X140760000Y-92890000D02*
X140760000Y-87450000D01*
X131020000Y-92890000D02*
X140760000Y-92890000D01*
X131020000Y-87450000D02*
X131020000Y-92890000D01*
X117900000Y-111940000D02*
X117900000Y-106500000D01*
X117900000Y-106500000D02*
X108160000Y-106500000D01*
X108160000Y-106500000D02*
X108160000Y-111940000D01*
X108160000Y-111940000D02*
X117900000Y-111940000D01*
X118810000Y-109220000D02*
X117900000Y-109220000D01*
X107250000Y-109220000D02*
X108160000Y-109220000D01*
X116355000Y-111940000D02*
X116355000Y-106500000D01*
X116235000Y-111940000D02*
X116235000Y-106500000D01*
X116475000Y-111940000D02*
X116475000Y-106500000D01*
X109585000Y-115390000D02*
X109585000Y-120830000D01*
X109825000Y-115390000D02*
X109825000Y-120830000D01*
X109705000Y-115390000D02*
X109705000Y-120830000D01*
X118810000Y-118110000D02*
X117900000Y-118110000D01*
X107250000Y-118110000D02*
X108160000Y-118110000D01*
X117900000Y-115390000D02*
X108160000Y-115390000D01*
X117900000Y-120830000D02*
X117900000Y-115390000D01*
X108160000Y-120830000D02*
X117900000Y-120830000D01*
X108160000Y-115390000D02*
X108160000Y-120830000D01*
X85300000Y-106500000D02*
X85300000Y-111940000D01*
X85300000Y-111940000D02*
X95040000Y-111940000D01*
X95040000Y-111940000D02*
X95040000Y-106500000D01*
X95040000Y-106500000D02*
X85300000Y-106500000D01*
X84390000Y-109220000D02*
X85300000Y-109220000D01*
X95950000Y-109220000D02*
X95040000Y-109220000D01*
X86845000Y-106500000D02*
X86845000Y-111940000D01*
X86965000Y-106500000D02*
X86965000Y-111940000D01*
X86725000Y-106500000D02*
X86725000Y-111940000D01*
X95040000Y-120830000D02*
X95040000Y-115390000D01*
X95040000Y-115390000D02*
X85300000Y-115390000D01*
X85300000Y-115390000D02*
X85300000Y-120830000D01*
X85300000Y-120830000D02*
X95040000Y-120830000D01*
X95950000Y-118110000D02*
X95040000Y-118110000D01*
X84390000Y-118110000D02*
X85300000Y-118110000D01*
X93495000Y-120830000D02*
X93495000Y-115390000D01*
X93375000Y-120830000D02*
X93375000Y-115390000D01*
X93615000Y-120830000D02*
X93615000Y-115390000D01*
X199100000Y-111570000D02*
X199100000Y-111726000D01*
X199100000Y-109254000D02*
X199100000Y-109410000D01*
X201701130Y-111569837D02*
G75*
G02X199619039Y-111570000I-1041130J1079837D01*
G01*
X201701130Y-109410163D02*
G75*
G03X199619039Y-109410000I-1041130J-1079837D01*
G01*
X202332335Y-111568608D02*
G75*
G02X199100000Y-111725516I-1672335J1078608D01*
G01*
X202332335Y-109411392D02*
G75*
G03X199100000Y-109254484I-1672335J-1078608D01*
G01*
X189632335Y-108141392D02*
G75*
G03X186400000Y-107984484I-1672335J-1078608D01*
G01*
X189632335Y-110298608D02*
G75*
G02X186400000Y-110455516I-1672335J1078608D01*
G01*
X189001130Y-108140163D02*
G75*
G03X186919039Y-108140000I-1041130J-1079837D01*
G01*
X189001130Y-110299837D02*
G75*
G02X186919039Y-110300000I-1041130J1079837D01*
G01*
X186400000Y-107984000D02*
X186400000Y-108140000D01*
X186400000Y-110300000D02*
X186400000Y-110456000D01*
X189632335Y-117031392D02*
G75*
G03X186400000Y-116874484I-1672335J-1078608D01*
G01*
X189632335Y-119188608D02*
G75*
G02X186400000Y-119345516I-1672335J1078608D01*
G01*
X189001130Y-117030163D02*
G75*
G03X186919039Y-117030000I-1041130J-1079837D01*
G01*
X189001130Y-119189837D02*
G75*
G02X186919039Y-119190000I-1041130J1079837D01*
G01*
X186400000Y-116874000D02*
X186400000Y-117030000D01*
X186400000Y-119190000D02*
X186400000Y-119346000D01*
X189230000Y-101540000D02*
X189230000Y-104200000D01*
X189230000Y-101540000D02*
X151070000Y-101540000D01*
X151070000Y-101540000D02*
X151070000Y-104200000D01*
X189230000Y-104200000D02*
X151070000Y-104200000D01*
X191830000Y-104200000D02*
X190500000Y-104200000D01*
X191830000Y-102870000D02*
X191830000Y-104200000D01*
D11*
X128440000Y-41850000D02*
X156040000Y-41850000D01*
X156040000Y-41850000D02*
X156040000Y-73850000D01*
X156040000Y-73850000D02*
X128440000Y-73850000D01*
X128440000Y-73850000D02*
X128440000Y-41850000D01*
D10*
X134598000Y-82622000D02*
X138198000Y-82622000D01*
X134559522Y-82610478D02*
G75*
G02X136398000Y-78172000I1838478J1838478D01*
G01*
X138236478Y-82610478D02*
G75*
G03X136398000Y-78172000I-1838478J1838478D01*
G01*
X183671936Y-87482000D02*
X184876064Y-87482000D01*
X183671936Y-89302000D02*
X184876064Y-89302000D01*
X209006064Y-119020000D02*
X207801936Y-119020000D01*
X209006064Y-117200000D02*
X207801936Y-117200000D01*
X145571936Y-81428000D02*
X146776064Y-81428000D01*
X145571936Y-79608000D02*
X146776064Y-79608000D01*
X218280064Y-64664000D02*
X217075936Y-64664000D01*
X218280064Y-62844000D02*
X217075936Y-62844000D01*
X216945936Y-69194000D02*
X218150064Y-69194000D01*
X216945936Y-71014000D02*
X218150064Y-71014000D01*
X218280064Y-76814000D02*
X217075936Y-76814000D01*
X218280064Y-78634000D02*
X217075936Y-78634000D01*
X200057936Y-117200000D02*
X201262064Y-117200000D01*
X200057936Y-119020000D02*
X201262064Y-119020000D01*
X179980000Y-108747936D02*
X179980000Y-109952064D01*
X178160000Y-108747936D02*
X178160000Y-109952064D01*
X178160000Y-117377936D02*
X178160000Y-118582064D01*
X179980000Y-117377936D02*
X179980000Y-118582064D01*
X170540000Y-109822064D02*
X170540000Y-108617936D01*
X172360000Y-109822064D02*
X172360000Y-108617936D01*
X172360000Y-118712064D02*
X172360000Y-117507936D01*
X170540000Y-118712064D02*
X170540000Y-117507936D01*
X200181936Y-101452000D02*
X201386064Y-101452000D01*
X200181936Y-103272000D02*
X201386064Y-103272000D01*
X200054936Y-122957000D02*
X201259064Y-122957000D01*
X200054936Y-121137000D02*
X201259064Y-121137000D01*
X208644000Y-87062000D02*
X206994000Y-87062000D01*
X208644000Y-94802000D02*
X208644000Y-87062000D01*
X203344000Y-94802000D02*
X208644000Y-94802000D01*
X203344000Y-87062000D02*
X203344000Y-94802000D01*
X204994000Y-87062000D02*
X203344000Y-87062000D01*
X206994000Y-87062000D02*
G75*
G02X204994000Y-87062000I-1000000J0D01*
G01*
D12*
X130700000Y-99800000D02*
X130700000Y-102870000D01*
X141100000Y-99800000D02*
X130700000Y-99800000D01*
X141100000Y-104400000D02*
X141100000Y-99800000D01*
X151260000Y-120910000D02*
X151260000Y-116310000D01*
X151260000Y-116310000D02*
X140860000Y-116310000D01*
X140860000Y-116310000D02*
X140860000Y-119380000D01*
D11*
X114975000Y-49220000D02*
X114975000Y-41720000D01*
X124975000Y-49220000D02*
X114975000Y-49220000D01*
X124975000Y-41720000D02*
X124975000Y-49220000D01*
X114975000Y-41720000D02*
X124975000Y-41720000D01*
X76240000Y-41720000D02*
X86240000Y-41720000D01*
X86240000Y-41720000D02*
X86240000Y-49220000D01*
X86240000Y-49220000D02*
X76240000Y-49220000D01*
X76240000Y-49220000D02*
X76240000Y-41720000D01*
X95544000Y-41720000D02*
X105544000Y-41720000D01*
X105544000Y-41720000D02*
X105544000Y-49220000D01*
X105544000Y-49220000D02*
X95544000Y-49220000D01*
X95544000Y-49220000D02*
X95544000Y-41720000D01*
X188508000Y-48204000D02*
X188508000Y-40704000D01*
X198508000Y-48204000D02*
X188508000Y-48204000D01*
X198508000Y-40704000D02*
X198508000Y-48204000D01*
X188508000Y-40704000D02*
X198508000Y-40704000D01*
X202351000Y-48331000D02*
X202351000Y-40831000D01*
X212351000Y-48331000D02*
X202351000Y-48331000D01*
X212351000Y-40831000D02*
X212351000Y-48331000D01*
X202351000Y-40831000D02*
X212351000Y-40831000D01*
D13*
X192722380Y-77803333D02*
X193436666Y-77803333D01*
X193579523Y-77850952D01*
X193674761Y-77946190D01*
X193722380Y-78089047D01*
X193722380Y-78184285D01*
X193055714Y-76898571D02*
X193722380Y-76898571D01*
X192674761Y-77136666D02*
X193389047Y-77374761D01*
X193389047Y-76755714D01*
X164663333Y-109637142D02*
X164615714Y-109684761D01*
X164472857Y-109732380D01*
X164377619Y-109732380D01*
X164234761Y-109684761D01*
X164139523Y-109589523D01*
X164091904Y-109494285D01*
X164044285Y-109303809D01*
X164044285Y-109160952D01*
X164091904Y-108970476D01*
X164139523Y-108875238D01*
X164234761Y-108780000D01*
X164377619Y-108732380D01*
X164472857Y-108732380D01*
X164615714Y-108780000D01*
X164663333Y-108827619D01*
X165520476Y-108732380D02*
X165330000Y-108732380D01*
X165234761Y-108780000D01*
X165187142Y-108827619D01*
X165091904Y-108970476D01*
X165044285Y-109160952D01*
X165044285Y-109541904D01*
X165091904Y-109637142D01*
X165139523Y-109684761D01*
X165234761Y-109732380D01*
X165425238Y-109732380D01*
X165520476Y-109684761D01*
X165568095Y-109637142D01*
X165615714Y-109541904D01*
X165615714Y-109303809D01*
X165568095Y-109208571D01*
X165520476Y-109160952D01*
X165425238Y-109113333D01*
X165234761Y-109113333D01*
X165139523Y-109160952D01*
X165091904Y-109208571D01*
X165044285Y-109303809D01*
D14*
X171625380Y-37912523D02*
X172351095Y-37912523D01*
X171988238Y-39182523D02*
X171988238Y-37912523D01*
X172713952Y-38033476D02*
X172774428Y-37973000D01*
X172895380Y-37912523D01*
X173197761Y-37912523D01*
X173318714Y-37973000D01*
X173379190Y-38033476D01*
X173439666Y-38154428D01*
X173439666Y-38275380D01*
X173379190Y-38456809D01*
X172653476Y-39182523D01*
X173439666Y-39182523D01*
X171661666Y-53914523D02*
X171661666Y-54821666D01*
X171601190Y-55003095D01*
X171480238Y-55124047D01*
X171298809Y-55184523D01*
X171177857Y-55184523D01*
X172145476Y-53914523D02*
X172992142Y-53914523D01*
X172447857Y-55184523D01*
X94155380Y-56073523D02*
X94881095Y-56073523D01*
X94518238Y-57343523D02*
X94518238Y-56073523D01*
X95969666Y-57343523D02*
X95243952Y-57343523D01*
X95606809Y-57343523D02*
X95606809Y-56073523D01*
X95485857Y-56254952D01*
X95364904Y-56375904D01*
X95243952Y-56436380D01*
D13*
X128083333Y-114067142D02*
X128035714Y-114114761D01*
X127892857Y-114162380D01*
X127797619Y-114162380D01*
X127654761Y-114114761D01*
X127559523Y-114019523D01*
X127511904Y-113924285D01*
X127464285Y-113733809D01*
X127464285Y-113590952D01*
X127511904Y-113400476D01*
X127559523Y-113305238D01*
X127654761Y-113210000D01*
X127797619Y-113162380D01*
X127892857Y-113162380D01*
X128035714Y-113210000D01*
X128083333Y-113257619D01*
X129035714Y-114162380D02*
X128464285Y-114162380D01*
X128750000Y-114162380D02*
X128750000Y-113162380D01*
X128654761Y-113305238D01*
X128559523Y-113400476D01*
X128464285Y-113448095D01*
X197267142Y-66476666D02*
X197314761Y-66524285D01*
X197362380Y-66667142D01*
X197362380Y-66762380D01*
X197314761Y-66905238D01*
X197219523Y-67000476D01*
X197124285Y-67048095D01*
X196933809Y-67095714D01*
X196790952Y-67095714D01*
X196600476Y-67048095D01*
X196505238Y-67000476D01*
X196410000Y-66905238D01*
X196362380Y-66762380D01*
X196362380Y-66667142D01*
X196410000Y-66524285D01*
X196457619Y-66476666D01*
X196457619Y-66095714D02*
X196410000Y-66048095D01*
X196362380Y-65952857D01*
X196362380Y-65714761D01*
X196410000Y-65619523D01*
X196457619Y-65571904D01*
X196552857Y-65524285D01*
X196648095Y-65524285D01*
X196790952Y-65571904D01*
X197362380Y-66143333D01*
X197362380Y-65524285D01*
X127833333Y-105827142D02*
X127785714Y-105874761D01*
X127642857Y-105922380D01*
X127547619Y-105922380D01*
X127404761Y-105874761D01*
X127309523Y-105779523D01*
X127261904Y-105684285D01*
X127214285Y-105493809D01*
X127214285Y-105350952D01*
X127261904Y-105160476D01*
X127309523Y-105065238D01*
X127404761Y-104970000D01*
X127547619Y-104922380D01*
X127642857Y-104922380D01*
X127785714Y-104970000D01*
X127833333Y-105017619D01*
X128166666Y-104922380D02*
X128785714Y-104922380D01*
X128452380Y-105303333D01*
X128595238Y-105303333D01*
X128690476Y-105350952D01*
X128738095Y-105398571D01*
X128785714Y-105493809D01*
X128785714Y-105731904D01*
X128738095Y-105827142D01*
X128690476Y-105874761D01*
X128595238Y-105922380D01*
X128309523Y-105922380D01*
X128214285Y-105874761D01*
X128166666Y-105827142D01*
X142537142Y-112926666D02*
X142584761Y-112974285D01*
X142632380Y-113117142D01*
X142632380Y-113212380D01*
X142584761Y-113355238D01*
X142489523Y-113450476D01*
X142394285Y-113498095D01*
X142203809Y-113545714D01*
X142060952Y-113545714D01*
X141870476Y-113498095D01*
X141775238Y-113450476D01*
X141680000Y-113355238D01*
X141632380Y-113212380D01*
X141632380Y-113117142D01*
X141680000Y-112974285D01*
X141727619Y-112926666D01*
X141965714Y-112069523D02*
X142632380Y-112069523D01*
X141584761Y-112307619D02*
X142299047Y-112545714D01*
X142299047Y-111926666D01*
X189333333Y-87927142D02*
X189285714Y-87974761D01*
X189142857Y-88022380D01*
X189047619Y-88022380D01*
X188904761Y-87974761D01*
X188809523Y-87879523D01*
X188761904Y-87784285D01*
X188714285Y-87593809D01*
X188714285Y-87450952D01*
X188761904Y-87260476D01*
X188809523Y-87165238D01*
X188904761Y-87070000D01*
X189047619Y-87022380D01*
X189142857Y-87022380D01*
X189285714Y-87070000D01*
X189333333Y-87117619D01*
X190238095Y-87022380D02*
X189761904Y-87022380D01*
X189714285Y-87498571D01*
X189761904Y-87450952D01*
X189857142Y-87403333D01*
X190095238Y-87403333D01*
X190190476Y-87450952D01*
X190238095Y-87498571D01*
X190285714Y-87593809D01*
X190285714Y-87831904D01*
X190238095Y-87927142D01*
X190190476Y-87974761D01*
X190095238Y-88022380D01*
X189857142Y-88022380D01*
X189761904Y-87974761D01*
X189714285Y-87927142D01*
X157583333Y-109637142D02*
X157535714Y-109684761D01*
X157392857Y-109732380D01*
X157297619Y-109732380D01*
X157154761Y-109684761D01*
X157059523Y-109589523D01*
X157011904Y-109494285D01*
X156964285Y-109303809D01*
X156964285Y-109160952D01*
X157011904Y-108970476D01*
X157059523Y-108875238D01*
X157154761Y-108780000D01*
X157297619Y-108732380D01*
X157392857Y-108732380D01*
X157535714Y-108780000D01*
X157583333Y-108827619D01*
X157916666Y-108732380D02*
X158583333Y-108732380D01*
X158154761Y-109732380D01*
X135151904Y-86902380D02*
X135151904Y-85902380D01*
X135390000Y-85902380D01*
X135532857Y-85950000D01*
X135628095Y-86045238D01*
X135675714Y-86140476D01*
X135723333Y-86330952D01*
X135723333Y-86473809D01*
X135675714Y-86664285D01*
X135628095Y-86759523D01*
X135532857Y-86854761D01*
X135390000Y-86902380D01*
X135151904Y-86902380D01*
X136675714Y-86902380D02*
X136104285Y-86902380D01*
X136390000Y-86902380D02*
X136390000Y-85902380D01*
X136294761Y-86045238D01*
X136199523Y-86140476D01*
X136104285Y-86188095D01*
X128008095Y-88022380D02*
X128008095Y-87022380D01*
X128579523Y-88022380D02*
X128150952Y-87450952D01*
X128579523Y-87022380D02*
X128008095Y-87593809D01*
X112037904Y-105862380D02*
X112037904Y-104862380D01*
X112276000Y-104862380D01*
X112418857Y-104910000D01*
X112514095Y-105005238D01*
X112561714Y-105100476D01*
X112609333Y-105290952D01*
X112609333Y-105433809D01*
X112561714Y-105624285D01*
X112514095Y-105719523D01*
X112418857Y-105814761D01*
X112276000Y-105862380D01*
X112037904Y-105862380D01*
X112990285Y-104957619D02*
X113037904Y-104910000D01*
X113133142Y-104862380D01*
X113371238Y-104862380D01*
X113466476Y-104910000D01*
X113514095Y-104957619D01*
X113561714Y-105052857D01*
X113561714Y-105148095D01*
X113514095Y-105290952D01*
X112942666Y-105862380D01*
X113561714Y-105862380D01*
X120388095Y-112272380D02*
X120388095Y-111272380D01*
X120959523Y-112272380D02*
X120530952Y-111700952D01*
X120959523Y-111272380D02*
X120388095Y-111843809D01*
X112545904Y-122372380D02*
X112545904Y-121372380D01*
X112784000Y-121372380D01*
X112926857Y-121420000D01*
X113022095Y-121515238D01*
X113069714Y-121610476D01*
X113117333Y-121800952D01*
X113117333Y-121943809D01*
X113069714Y-122134285D01*
X113022095Y-122229523D01*
X112926857Y-122324761D01*
X112784000Y-122372380D01*
X112545904Y-122372380D01*
X113450666Y-121372380D02*
X114069714Y-121372380D01*
X113736380Y-121753333D01*
X113879238Y-121753333D01*
X113974476Y-121800952D01*
X114022095Y-121848571D01*
X114069714Y-121943809D01*
X114069714Y-122181904D01*
X114022095Y-122277142D01*
X113974476Y-122324761D01*
X113879238Y-122372380D01*
X113593523Y-122372380D01*
X113498285Y-122324761D01*
X113450666Y-122277142D01*
X105148095Y-115962380D02*
X105148095Y-114962380D01*
X105719523Y-115962380D02*
X105290952Y-115390952D01*
X105719523Y-114962380D02*
X105148095Y-115533809D01*
X89431904Y-105952380D02*
X89431904Y-104952380D01*
X89670000Y-104952380D01*
X89812857Y-105000000D01*
X89908095Y-105095238D01*
X89955714Y-105190476D01*
X90003333Y-105380952D01*
X90003333Y-105523809D01*
X89955714Y-105714285D01*
X89908095Y-105809523D01*
X89812857Y-105904761D01*
X89670000Y-105952380D01*
X89431904Y-105952380D01*
X90860476Y-105285714D02*
X90860476Y-105952380D01*
X90622380Y-104904761D02*
X90384285Y-105619047D01*
X91003333Y-105619047D01*
X82288095Y-107072380D02*
X82288095Y-106072380D01*
X82859523Y-107072380D02*
X82430952Y-106500952D01*
X82859523Y-106072380D02*
X82288095Y-106643809D01*
X89431904Y-122282380D02*
X89431904Y-121282380D01*
X89670000Y-121282380D01*
X89812857Y-121330000D01*
X89908095Y-121425238D01*
X89955714Y-121520476D01*
X90003333Y-121710952D01*
X90003333Y-121853809D01*
X89955714Y-122044285D01*
X89908095Y-122139523D01*
X89812857Y-122234761D01*
X89670000Y-122282380D01*
X89431904Y-122282380D01*
X90908095Y-121282380D02*
X90431904Y-121282380D01*
X90384285Y-121758571D01*
X90431904Y-121710952D01*
X90527142Y-121663333D01*
X90765238Y-121663333D01*
X90860476Y-121710952D01*
X90908095Y-121758571D01*
X90955714Y-121853809D01*
X90955714Y-122091904D01*
X90908095Y-122187142D01*
X90860476Y-122234761D01*
X90765238Y-122282380D01*
X90527142Y-122282380D01*
X90431904Y-122234761D01*
X90384285Y-122187142D01*
X97528095Y-121162380D02*
X97528095Y-120162380D01*
X98099523Y-121162380D02*
X97670952Y-120590952D01*
X98099523Y-120162380D02*
X97528095Y-120733809D01*
X199921904Y-107982380D02*
X199921904Y-106982380D01*
X200160000Y-106982380D01*
X200302857Y-107030000D01*
X200398095Y-107125238D01*
X200445714Y-107220476D01*
X200493333Y-107410952D01*
X200493333Y-107553809D01*
X200445714Y-107744285D01*
X200398095Y-107839523D01*
X200302857Y-107934761D01*
X200160000Y-107982380D01*
X199921904Y-107982380D01*
X201350476Y-106982380D02*
X201160000Y-106982380D01*
X201064761Y-107030000D01*
X201017142Y-107077619D01*
X200921904Y-107220476D01*
X200874285Y-107410952D01*
X200874285Y-107791904D01*
X200921904Y-107887142D01*
X200969523Y-107934761D01*
X201064761Y-107982380D01*
X201255238Y-107982380D01*
X201350476Y-107934761D01*
X201398095Y-107887142D01*
X201445714Y-107791904D01*
X201445714Y-107553809D01*
X201398095Y-107458571D01*
X201350476Y-107410952D01*
X201255238Y-107363333D01*
X201064761Y-107363333D01*
X200969523Y-107410952D01*
X200921904Y-107458571D01*
X200874285Y-107553809D01*
X187221904Y-106712380D02*
X187221904Y-105712380D01*
X187460000Y-105712380D01*
X187602857Y-105760000D01*
X187698095Y-105855238D01*
X187745714Y-105950476D01*
X187793333Y-106140952D01*
X187793333Y-106283809D01*
X187745714Y-106474285D01*
X187698095Y-106569523D01*
X187602857Y-106664761D01*
X187460000Y-106712380D01*
X187221904Y-106712380D01*
X188126666Y-105712380D02*
X188793333Y-105712380D01*
X188364761Y-106712380D01*
X187221904Y-115602380D02*
X187221904Y-114602380D01*
X187460000Y-114602380D01*
X187602857Y-114650000D01*
X187698095Y-114745238D01*
X187745714Y-114840476D01*
X187793333Y-115030952D01*
X187793333Y-115173809D01*
X187745714Y-115364285D01*
X187698095Y-115459523D01*
X187602857Y-115554761D01*
X187460000Y-115602380D01*
X187221904Y-115602380D01*
X188364761Y-115030952D02*
X188269523Y-114983333D01*
X188221904Y-114935714D01*
X188174285Y-114840476D01*
X188174285Y-114792857D01*
X188221904Y-114697619D01*
X188269523Y-114650000D01*
X188364761Y-114602380D01*
X188555238Y-114602380D01*
X188650476Y-114650000D01*
X188698095Y-114697619D01*
X188745714Y-114792857D01*
X188745714Y-114840476D01*
X188698095Y-114935714D01*
X188650476Y-114983333D01*
X188555238Y-115030952D01*
X188364761Y-115030952D01*
X188269523Y-115078571D01*
X188221904Y-115126190D01*
X188174285Y-115221428D01*
X188174285Y-115411904D01*
X188221904Y-115507142D01*
X188269523Y-115554761D01*
X188364761Y-115602380D01*
X188555238Y-115602380D01*
X188650476Y-115554761D01*
X188698095Y-115507142D01*
X188745714Y-115411904D01*
X188745714Y-115221428D01*
X188698095Y-115126190D01*
X188650476Y-115078571D01*
X188555238Y-115030952D01*
X192722380Y-103203333D02*
X193436666Y-103203333D01*
X193579523Y-103250952D01*
X193674761Y-103346190D01*
X193722380Y-103489047D01*
X193722380Y-103584285D01*
X192722380Y-102250952D02*
X192722380Y-102727142D01*
X193198571Y-102774761D01*
X193150952Y-102727142D01*
X193103333Y-102631904D01*
X193103333Y-102393809D01*
X193150952Y-102298571D01*
X193198571Y-102250952D01*
X193293809Y-102203333D01*
X193531904Y-102203333D01*
X193627142Y-102250952D01*
X193674761Y-102298571D01*
X193722380Y-102393809D01*
X193722380Y-102631904D01*
X193674761Y-102727142D01*
X193627142Y-102774761D01*
D14*
X142191619Y-40325523D02*
X142191619Y-39055523D01*
X142917333Y-40325523D02*
X142373047Y-39599809D01*
X142917333Y-39055523D02*
X142191619Y-39781238D01*
X144126857Y-40325523D02*
X143401142Y-40325523D01*
X143764000Y-40325523D02*
X143764000Y-39055523D01*
X143643047Y-39236952D01*
X143522095Y-39357904D01*
X143401142Y-39418380D01*
D13*
X136302761Y-77759619D02*
X136207523Y-77712000D01*
X136112285Y-77616761D01*
X135969428Y-77473904D01*
X135874190Y-77426285D01*
X135778952Y-77426285D01*
X135826571Y-77664380D02*
X135731333Y-77616761D01*
X135636095Y-77521523D01*
X135588476Y-77331047D01*
X135588476Y-76997714D01*
X135636095Y-76807238D01*
X135731333Y-76712000D01*
X135826571Y-76664380D01*
X136017047Y-76664380D01*
X136112285Y-76712000D01*
X136207523Y-76807238D01*
X136255142Y-76997714D01*
X136255142Y-77331047D01*
X136207523Y-77521523D01*
X136112285Y-77616761D01*
X136017047Y-77664380D01*
X135826571Y-77664380D01*
X137207523Y-77664380D02*
X136636095Y-77664380D01*
X136921809Y-77664380D02*
X136921809Y-76664380D01*
X136826571Y-76807238D01*
X136731333Y-76902476D01*
X136636095Y-76950095D01*
X184107333Y-87024380D02*
X183774000Y-86548190D01*
X183535904Y-87024380D02*
X183535904Y-86024380D01*
X183916857Y-86024380D01*
X184012095Y-86072000D01*
X184059714Y-86119619D01*
X184107333Y-86214857D01*
X184107333Y-86357714D01*
X184059714Y-86452952D01*
X184012095Y-86500571D01*
X183916857Y-86548190D01*
X183535904Y-86548190D01*
X185059714Y-87024380D02*
X184488285Y-87024380D01*
X184774000Y-87024380D02*
X184774000Y-86024380D01*
X184678761Y-86167238D01*
X184583523Y-86262476D01*
X184488285Y-86310095D01*
X211796333Y-118562380D02*
X211463000Y-118086190D01*
X211224904Y-118562380D02*
X211224904Y-117562380D01*
X211605857Y-117562380D01*
X211701095Y-117610000D01*
X211748714Y-117657619D01*
X211796333Y-117752857D01*
X211796333Y-117895714D01*
X211748714Y-117990952D01*
X211701095Y-118038571D01*
X211605857Y-118086190D01*
X211224904Y-118086190D01*
X212177285Y-117657619D02*
X212224904Y-117610000D01*
X212320142Y-117562380D01*
X212558238Y-117562380D01*
X212653476Y-117610000D01*
X212701095Y-117657619D01*
X212748714Y-117752857D01*
X212748714Y-117848095D01*
X212701095Y-117990952D01*
X212129666Y-118562380D01*
X212748714Y-118562380D01*
X146007333Y-79150380D02*
X145674000Y-78674190D01*
X145435904Y-79150380D02*
X145435904Y-78150380D01*
X145816857Y-78150380D01*
X145912095Y-78198000D01*
X145959714Y-78245619D01*
X146007333Y-78340857D01*
X146007333Y-78483714D01*
X145959714Y-78578952D01*
X145912095Y-78626571D01*
X145816857Y-78674190D01*
X145435904Y-78674190D01*
X146340666Y-78150380D02*
X146959714Y-78150380D01*
X146626380Y-78531333D01*
X146769238Y-78531333D01*
X146864476Y-78578952D01*
X146912095Y-78626571D01*
X146959714Y-78721809D01*
X146959714Y-78959904D01*
X146912095Y-79055142D01*
X146864476Y-79102761D01*
X146769238Y-79150380D01*
X146483523Y-79150380D01*
X146388285Y-79102761D01*
X146340666Y-79055142D01*
X217511333Y-66026380D02*
X217178000Y-65550190D01*
X216939904Y-66026380D02*
X216939904Y-65026380D01*
X217320857Y-65026380D01*
X217416095Y-65074000D01*
X217463714Y-65121619D01*
X217511333Y-65216857D01*
X217511333Y-65359714D01*
X217463714Y-65454952D01*
X217416095Y-65502571D01*
X217320857Y-65550190D01*
X216939904Y-65550190D01*
X218368476Y-65359714D02*
X218368476Y-66026380D01*
X218130380Y-64978761D02*
X217892285Y-65693047D01*
X218511333Y-65693047D01*
X217381333Y-68736380D02*
X217048000Y-68260190D01*
X216809904Y-68736380D02*
X216809904Y-67736380D01*
X217190857Y-67736380D01*
X217286095Y-67784000D01*
X217333714Y-67831619D01*
X217381333Y-67926857D01*
X217381333Y-68069714D01*
X217333714Y-68164952D01*
X217286095Y-68212571D01*
X217190857Y-68260190D01*
X216809904Y-68260190D01*
X218286095Y-67736380D02*
X217809904Y-67736380D01*
X217762285Y-68212571D01*
X217809904Y-68164952D01*
X217905142Y-68117333D01*
X218143238Y-68117333D01*
X218238476Y-68164952D01*
X218286095Y-68212571D01*
X218333714Y-68307809D01*
X218333714Y-68545904D01*
X218286095Y-68641142D01*
X218238476Y-68688761D01*
X218143238Y-68736380D01*
X217905142Y-68736380D01*
X217809904Y-68688761D01*
X217762285Y-68641142D01*
X217511333Y-79996380D02*
X217178000Y-79520190D01*
X216939904Y-79996380D02*
X216939904Y-78996380D01*
X217320857Y-78996380D01*
X217416095Y-79044000D01*
X217463714Y-79091619D01*
X217511333Y-79186857D01*
X217511333Y-79329714D01*
X217463714Y-79424952D01*
X217416095Y-79472571D01*
X217320857Y-79520190D01*
X216939904Y-79520190D01*
X218368476Y-78996380D02*
X218178000Y-78996380D01*
X218082761Y-79044000D01*
X218035142Y-79091619D01*
X217939904Y-79234476D01*
X217892285Y-79424952D01*
X217892285Y-79805904D01*
X217939904Y-79901142D01*
X217987523Y-79948761D01*
X218082761Y-79996380D01*
X218273238Y-79996380D01*
X218368476Y-79948761D01*
X218416095Y-79901142D01*
X218463714Y-79805904D01*
X218463714Y-79567809D01*
X218416095Y-79472571D01*
X218368476Y-79424952D01*
X218273238Y-79377333D01*
X218082761Y-79377333D01*
X217987523Y-79424952D01*
X217939904Y-79472571D01*
X217892285Y-79567809D01*
X200493333Y-116742380D02*
X200160000Y-116266190D01*
X199921904Y-116742380D02*
X199921904Y-115742380D01*
X200302857Y-115742380D01*
X200398095Y-115790000D01*
X200445714Y-115837619D01*
X200493333Y-115932857D01*
X200493333Y-116075714D01*
X200445714Y-116170952D01*
X200398095Y-116218571D01*
X200302857Y-116266190D01*
X199921904Y-116266190D01*
X200826666Y-115742380D02*
X201493333Y-115742380D01*
X201064761Y-116742380D01*
X181342380Y-109516666D02*
X180866190Y-109850000D01*
X181342380Y-110088095D02*
X180342380Y-110088095D01*
X180342380Y-109707142D01*
X180390000Y-109611904D01*
X180437619Y-109564285D01*
X180532857Y-109516666D01*
X180675714Y-109516666D01*
X180770952Y-109564285D01*
X180818571Y-109611904D01*
X180866190Y-109707142D01*
X180866190Y-110088095D01*
X180770952Y-108945238D02*
X180723333Y-109040476D01*
X180675714Y-109088095D01*
X180580476Y-109135714D01*
X180532857Y-109135714D01*
X180437619Y-109088095D01*
X180390000Y-109040476D01*
X180342380Y-108945238D01*
X180342380Y-108754761D01*
X180390000Y-108659523D01*
X180437619Y-108611904D01*
X180532857Y-108564285D01*
X180580476Y-108564285D01*
X180675714Y-108611904D01*
X180723333Y-108659523D01*
X180770952Y-108754761D01*
X180770952Y-108945238D01*
X180818571Y-109040476D01*
X180866190Y-109088095D01*
X180961428Y-109135714D01*
X181151904Y-109135714D01*
X181247142Y-109088095D01*
X181294761Y-109040476D01*
X181342380Y-108945238D01*
X181342380Y-108754761D01*
X181294761Y-108659523D01*
X181247142Y-108611904D01*
X181151904Y-108564285D01*
X180961428Y-108564285D01*
X180866190Y-108611904D01*
X180818571Y-108659523D01*
X180770952Y-108754761D01*
X181342380Y-118146666D02*
X180866190Y-118480000D01*
X181342380Y-118718095D02*
X180342380Y-118718095D01*
X180342380Y-118337142D01*
X180390000Y-118241904D01*
X180437619Y-118194285D01*
X180532857Y-118146666D01*
X180675714Y-118146666D01*
X180770952Y-118194285D01*
X180818571Y-118241904D01*
X180866190Y-118337142D01*
X180866190Y-118718095D01*
X181342380Y-117670476D02*
X181342380Y-117480000D01*
X181294761Y-117384761D01*
X181247142Y-117337142D01*
X181104285Y-117241904D01*
X180913809Y-117194285D01*
X180532857Y-117194285D01*
X180437619Y-117241904D01*
X180390000Y-117289523D01*
X180342380Y-117384761D01*
X180342380Y-117575238D01*
X180390000Y-117670476D01*
X180437619Y-117718095D01*
X180532857Y-117765714D01*
X180770952Y-117765714D01*
X180866190Y-117718095D01*
X180913809Y-117670476D01*
X180961428Y-117575238D01*
X180961428Y-117384761D01*
X180913809Y-117289523D01*
X180866190Y-117241904D01*
X180770952Y-117194285D01*
X170082380Y-109862857D02*
X169606190Y-110196190D01*
X170082380Y-110434285D02*
X169082380Y-110434285D01*
X169082380Y-110053333D01*
X169130000Y-109958095D01*
X169177619Y-109910476D01*
X169272857Y-109862857D01*
X169415714Y-109862857D01*
X169510952Y-109910476D01*
X169558571Y-109958095D01*
X169606190Y-110053333D01*
X169606190Y-110434285D01*
X170082380Y-108910476D02*
X170082380Y-109481904D01*
X170082380Y-109196190D02*
X169082380Y-109196190D01*
X169225238Y-109291428D01*
X169320476Y-109386666D01*
X169368095Y-109481904D01*
X169082380Y-108291428D02*
X169082380Y-108196190D01*
X169130000Y-108100952D01*
X169177619Y-108053333D01*
X169272857Y-108005714D01*
X169463333Y-107958095D01*
X169701428Y-107958095D01*
X169891904Y-108005714D01*
X169987142Y-108053333D01*
X170034761Y-108100952D01*
X170082380Y-108196190D01*
X170082380Y-108291428D01*
X170034761Y-108386666D01*
X169987142Y-108434285D01*
X169891904Y-108481904D01*
X169701428Y-108529523D01*
X169463333Y-108529523D01*
X169272857Y-108481904D01*
X169177619Y-108434285D01*
X169130000Y-108386666D01*
X169082380Y-108291428D01*
X170082380Y-118752857D02*
X169606190Y-119086190D01*
X170082380Y-119324285D02*
X169082380Y-119324285D01*
X169082380Y-118943333D01*
X169130000Y-118848095D01*
X169177619Y-118800476D01*
X169272857Y-118752857D01*
X169415714Y-118752857D01*
X169510952Y-118800476D01*
X169558571Y-118848095D01*
X169606190Y-118943333D01*
X169606190Y-119324285D01*
X170082380Y-117800476D02*
X170082380Y-118371904D01*
X170082380Y-118086190D02*
X169082380Y-118086190D01*
X169225238Y-118181428D01*
X169320476Y-118276666D01*
X169368095Y-118371904D01*
X170082380Y-116848095D02*
X170082380Y-117419523D01*
X170082380Y-117133809D02*
X169082380Y-117133809D01*
X169225238Y-117229047D01*
X169320476Y-117324285D01*
X169368095Y-117419523D01*
X200141142Y-100994380D02*
X199807809Y-100518190D01*
X199569714Y-100994380D02*
X199569714Y-99994380D01*
X199950666Y-99994380D01*
X200045904Y-100042000D01*
X200093523Y-100089619D01*
X200141142Y-100184857D01*
X200141142Y-100327714D01*
X200093523Y-100422952D01*
X200045904Y-100470571D01*
X199950666Y-100518190D01*
X199569714Y-100518190D01*
X201093523Y-100994380D02*
X200522095Y-100994380D01*
X200807809Y-100994380D02*
X200807809Y-99994380D01*
X200712571Y-100137238D01*
X200617333Y-100232476D01*
X200522095Y-100280095D01*
X201474476Y-100089619D02*
X201522095Y-100042000D01*
X201617333Y-99994380D01*
X201855428Y-99994380D01*
X201950666Y-100042000D01*
X201998285Y-100089619D01*
X202045904Y-100184857D01*
X202045904Y-100280095D01*
X201998285Y-100422952D01*
X201426857Y-100994380D01*
X202045904Y-100994380D01*
X200014142Y-120679380D02*
X199680809Y-120203190D01*
X199442714Y-120679380D02*
X199442714Y-119679380D01*
X199823666Y-119679380D01*
X199918904Y-119727000D01*
X199966523Y-119774619D01*
X200014142Y-119869857D01*
X200014142Y-120012714D01*
X199966523Y-120107952D01*
X199918904Y-120155571D01*
X199823666Y-120203190D01*
X199442714Y-120203190D01*
X200966523Y-120679380D02*
X200395095Y-120679380D01*
X200680809Y-120679380D02*
X200680809Y-119679380D01*
X200585571Y-119822238D01*
X200490333Y-119917476D01*
X200395095Y-119965095D01*
X201299857Y-119679380D02*
X201918904Y-119679380D01*
X201585571Y-120060333D01*
X201728428Y-120060333D01*
X201823666Y-120107952D01*
X201871285Y-120155571D01*
X201918904Y-120250809D01*
X201918904Y-120488904D01*
X201871285Y-120584142D01*
X201823666Y-120631761D01*
X201728428Y-120679380D01*
X201442714Y-120679380D01*
X201347476Y-120631761D01*
X201299857Y-120584142D01*
X205232095Y-85514380D02*
X205232095Y-86323904D01*
X205279714Y-86419142D01*
X205327333Y-86466761D01*
X205422571Y-86514380D01*
X205613047Y-86514380D01*
X205708285Y-86466761D01*
X205755904Y-86419142D01*
X205803523Y-86323904D01*
X205803523Y-85514380D01*
X206803523Y-86514380D02*
X206232095Y-86514380D01*
X206517809Y-86514380D02*
X206517809Y-85514380D01*
X206422571Y-85657238D01*
X206327333Y-85752476D01*
X206232095Y-85800095D01*
D14*
X134922380Y-97348523D02*
X134922380Y-98376619D01*
X134982857Y-98497571D01*
X135043333Y-98558047D01*
X135164285Y-98618523D01*
X135406190Y-98618523D01*
X135527142Y-98558047D01*
X135587619Y-98497571D01*
X135648095Y-98376619D01*
X135648095Y-97348523D01*
X136192380Y-97469476D02*
X136252857Y-97409000D01*
X136373809Y-97348523D01*
X136676190Y-97348523D01*
X136797142Y-97409000D01*
X136857619Y-97469476D01*
X136918095Y-97590428D01*
X136918095Y-97711380D01*
X136857619Y-97892809D01*
X136131904Y-98618523D01*
X136918095Y-98618523D01*
X145082380Y-114366523D02*
X145082380Y-115394619D01*
X145142857Y-115515571D01*
X145203333Y-115576047D01*
X145324285Y-115636523D01*
X145566190Y-115636523D01*
X145687142Y-115576047D01*
X145747619Y-115515571D01*
X145808095Y-115394619D01*
X145808095Y-114366523D01*
X146291904Y-114366523D02*
X147078095Y-114366523D01*
X146654761Y-114850333D01*
X146836190Y-114850333D01*
X146957142Y-114910809D01*
X147017619Y-114971285D01*
X147078095Y-115092238D01*
X147078095Y-115394619D01*
X147017619Y-115515571D01*
X146957142Y-115576047D01*
X146836190Y-115636523D01*
X146473333Y-115636523D01*
X146352380Y-115576047D01*
X146291904Y-115515571D01*
X119551666Y-44774523D02*
X119551666Y-45681666D01*
X119491190Y-45863095D01*
X119370238Y-45984047D01*
X119188809Y-46044523D01*
X119067857Y-46044523D01*
X120821666Y-46044523D02*
X120095952Y-46044523D01*
X120458809Y-46044523D02*
X120458809Y-44774523D01*
X120337857Y-44955952D01*
X120216904Y-45076904D01*
X120095952Y-45137380D01*
X80816666Y-44774523D02*
X80816666Y-45681666D01*
X80756190Y-45863095D01*
X80635238Y-45984047D01*
X80453809Y-46044523D01*
X80332857Y-46044523D01*
X81360952Y-44895476D02*
X81421428Y-44835000D01*
X81542380Y-44774523D01*
X81844761Y-44774523D01*
X81965714Y-44835000D01*
X82026190Y-44895476D01*
X82086666Y-45016428D01*
X82086666Y-45137380D01*
X82026190Y-45318809D01*
X81300476Y-46044523D01*
X82086666Y-46044523D01*
X100120666Y-44774523D02*
X100120666Y-45681666D01*
X100060190Y-45863095D01*
X99939238Y-45984047D01*
X99757809Y-46044523D01*
X99636857Y-46044523D01*
X100604476Y-44774523D02*
X101390666Y-44774523D01*
X100967333Y-45258333D01*
X101148761Y-45258333D01*
X101269714Y-45318809D01*
X101330190Y-45379285D01*
X101390666Y-45500238D01*
X101390666Y-45802619D01*
X101330190Y-45923571D01*
X101269714Y-45984047D01*
X101148761Y-46044523D01*
X100785904Y-46044523D01*
X100664952Y-45984047D01*
X100604476Y-45923571D01*
X192362666Y-49850523D02*
X192362666Y-50757666D01*
X192302190Y-50939095D01*
X192181238Y-51060047D01*
X191999809Y-51120523D01*
X191878857Y-51120523D01*
X193511714Y-49850523D02*
X193269809Y-49850523D01*
X193148857Y-49911000D01*
X193088380Y-49971476D01*
X192967428Y-50152904D01*
X192906952Y-50394809D01*
X192906952Y-50878619D01*
X192967428Y-50999571D01*
X193027904Y-51060047D01*
X193148857Y-51120523D01*
X193390761Y-51120523D01*
X193511714Y-51060047D01*
X193572190Y-50999571D01*
X193632666Y-50878619D01*
X193632666Y-50576238D01*
X193572190Y-50455285D01*
X193511714Y-50394809D01*
X193390761Y-50334333D01*
X193148857Y-50334333D01*
X193027904Y-50394809D01*
X192967428Y-50455285D01*
X192906952Y-50576238D01*
X206713666Y-49977523D02*
X206713666Y-50884666D01*
X206653190Y-51066095D01*
X206532238Y-51187047D01*
X206350809Y-51247523D01*
X206229857Y-51247523D01*
X207499857Y-50521809D02*
X207378904Y-50461333D01*
X207318428Y-50400857D01*
X207257952Y-50279904D01*
X207257952Y-50219428D01*
X207318428Y-50098476D01*
X207378904Y-50038000D01*
X207499857Y-49977523D01*
X207741761Y-49977523D01*
X207862714Y-50038000D01*
X207923190Y-50098476D01*
X207983666Y-50219428D01*
X207983666Y-50279904D01*
X207923190Y-50400857D01*
X207862714Y-50461333D01*
X207741761Y-50521809D01*
X207499857Y-50521809D01*
X207378904Y-50582285D01*
X207318428Y-50642761D01*
X207257952Y-50763714D01*
X207257952Y-51005619D01*
X207318428Y-51126571D01*
X207378904Y-51187047D01*
X207499857Y-51247523D01*
X207741761Y-51247523D01*
X207862714Y-51187047D01*
X207923190Y-51126571D01*
X207983666Y-51005619D01*
X207983666Y-50763714D01*
X207923190Y-50642761D01*
X207862714Y-50582285D01*
X207741761Y-50521809D01*
M02*
