G04 #@! TF.GenerationSoftware,KiCad,Pcbnew,(5.0.1)-4*
G04 #@! TF.CreationDate,2021-06-16T15:33:18+02:00*
G04 #@! TF.ProjectId,IOT SMART SWITCH,494F5420534D41525420535749544348,1.0*
G04 #@! TF.SameCoordinates,Original*
G04 #@! TF.FileFunction,Copper,L1,Top,Signal*
G04 #@! TF.FilePolarity,Positive*
%FSLAX46Y46*%
G04 Gerber Fmt 4.6, Leading zero omitted, Abs format (unit mm)*
G04 Created by KiCad (PCBNEW (5.0.1)-4) date 2021/06/16 15:33:18*
%MOMM*%
%LPD*%
G01*
G04 APERTURE LIST*
G04 #@! TA.AperFunction,ComponentPad*
%ADD10O,1.700000X1.700000*%
G04 #@! TD*
G04 #@! TA.AperFunction,ComponentPad*
%ADD11R,1.700000X1.700000*%
G04 #@! TD*
G04 #@! TA.AperFunction,ComponentPad*
%ADD12R,1.600000X1.600000*%
G04 #@! TD*
G04 #@! TA.AperFunction,ComponentPad*
%ADD13C,1.600000*%
G04 #@! TD*
G04 #@! TA.AperFunction,ComponentPad*
%ADD14C,1.519000*%
G04 #@! TD*
G04 #@! TA.AperFunction,ComponentPad*
%ADD15C,2.100000*%
G04 #@! TD*
G04 #@! TA.AperFunction,ComponentPad*
%ADD16C,1.500000*%
G04 #@! TD*
G04 #@! TA.AperFunction,ComponentPad*
%ADD17O,3.200000X3.200000*%
G04 #@! TD*
G04 #@! TA.AperFunction,ComponentPad*
%ADD18R,3.200000X3.200000*%
G04 #@! TD*
G04 #@! TA.AperFunction,ComponentPad*
%ADD19C,1.800000*%
G04 #@! TD*
G04 #@! TA.AperFunction,ComponentPad*
%ADD20R,1.800000X1.800000*%
G04 #@! TD*
G04 #@! TA.AperFunction,ComponentPad*
%ADD21C,2.800000*%
G04 #@! TD*
G04 #@! TA.AperFunction,ComponentPad*
%ADD22O,1.050000X1.500000*%
G04 #@! TD*
G04 #@! TA.AperFunction,ComponentPad*
%ADD23R,1.050000X1.500000*%
G04 #@! TD*
G04 #@! TA.AperFunction,Conductor*
%ADD24C,0.100000*%
G04 #@! TD*
G04 #@! TA.AperFunction,SMDPad,CuDef*
%ADD25C,1.250000*%
G04 #@! TD*
G04 #@! TA.AperFunction,ComponentPad*
%ADD26O,1.600000X1.600000*%
G04 #@! TD*
G04 #@! TA.AperFunction,ComponentPad*
%ADD27C,1.980000*%
G04 #@! TD*
G04 #@! TA.AperFunction,ComponentPad*
%ADD28R,1.980000X1.980000*%
G04 #@! TD*
G04 #@! TA.AperFunction,ViaPad*
%ADD29C,0.800000*%
G04 #@! TD*
G04 #@! TA.AperFunction,Conductor*
%ADD30C,0.250000*%
G04 #@! TD*
G04 #@! TA.AperFunction,Conductor*
%ADD31C,2.000000*%
G04 #@! TD*
G04 #@! TA.AperFunction,Conductor*
%ADD32C,0.254000*%
G04 #@! TD*
G04 APERTURE END LIST*
D10*
G04 #@! TO.P,J4,16*
G04 #@! TO.N,Net-(J4-Pad16)*
X152400000Y-77470000D03*
G04 #@! TO.P,J4,15*
G04 #@! TO.N,Net-(J4-Pad15)*
X154940000Y-77470000D03*
G04 #@! TO.P,J4,14*
G04 #@! TO.N,Net-(J4-Pad14)*
X157480000Y-77470000D03*
G04 #@! TO.P,J4,13*
G04 #@! TO.N,Net-(J4-Pad13)*
X160020000Y-77470000D03*
G04 #@! TO.P,J4,12*
G04 #@! TO.N,Net-(J4-Pad12)*
X162560000Y-77470000D03*
G04 #@! TO.P,J4,11*
G04 #@! TO.N,Net-(J4-Pad11)*
X165100000Y-77470000D03*
G04 #@! TO.P,J4,10*
G04 #@! TO.N,Net-(J4-Pad10)*
X167640000Y-77470000D03*
G04 #@! TO.P,J4,9*
G04 #@! TO.N,Net-(J4-Pad9)*
X170180000Y-77470000D03*
G04 #@! TO.P,J4,8*
G04 #@! TO.N,Net-(J4-Pad8)*
X172720000Y-77470000D03*
G04 #@! TO.P,J4,7*
G04 #@! TO.N,Net-(J4-Pad7)*
X175260000Y-77470000D03*
G04 #@! TO.P,J4,6*
G04 #@! TO.N,Net-(J4-Pad6)*
X177800000Y-77470000D03*
G04 #@! TO.P,J4,5*
G04 #@! TO.N,Net-(J4-Pad5)*
X180340000Y-77470000D03*
G04 #@! TO.P,J4,4*
G04 #@! TO.N,ESP_Pin_21*
X182880000Y-77470000D03*
G04 #@! TO.P,J4,3*
G04 #@! TO.N,Net-(J4-Pad3)*
X185420000Y-77470000D03*
G04 #@! TO.P,J4,2*
G04 #@! TO.N,GNDPWR*
X187960000Y-77470000D03*
D11*
G04 #@! TO.P,J4,1*
G04 #@! TO.N,3V3_DC*
X190500000Y-77470000D03*
G04 #@! TD*
D12*
G04 #@! TO.P,C6,1*
G04 #@! TO.N,12V_DC*
X163830000Y-113030000D03*
D13*
G04 #@! TO.P,C6,2*
G04 #@! TO.N,GNDPWR*
X165830000Y-113030000D03*
G04 #@! TD*
D14*
G04 #@! TO.P,T2,1*
G04 #@! TO.N,CT_ADC*
X164592000Y-42926000D03*
G04 #@! TO.P,T2,2*
G04 #@! TO.N,Net-(C2-Pad1)*
X179832000Y-42926000D03*
G04 #@! TO.P,T2,3*
G04 #@! TO.N,Net-(T2-Pad3)*
X172212000Y-50546000D03*
G04 #@! TD*
D15*
G04 #@! TO.P,J7,1*
G04 #@! TO.N,Net-(J7-Pad1)*
X169672000Y-60706000D03*
G04 #@! TO.P,J7,2*
X174672000Y-60706000D03*
G04 #@! TD*
D16*
G04 #@! TO.P,T1,1*
G04 #@! TO.N,MAINS_L*
X107950000Y-67310000D03*
G04 #@! TO.P,T1,2*
G04 #@! TO.N,MAINS_N*
X82950000Y-67310000D03*
G04 #@! TO.P,T1,3*
G04 #@! TO.N,-18V_AC*
X82950000Y-94810000D03*
G04 #@! TO.P,T1,4*
X87950000Y-94810000D03*
G04 #@! TO.P,T1,5*
G04 #@! TO.N,Net-(D2-Pad2)*
X102950000Y-94810000D03*
G04 #@! TO.P,T1,6*
X107950000Y-94810000D03*
G04 #@! TD*
D12*
G04 #@! TO.P,C1,1*
G04 #@! TO.N,16V_DC*
X127000000Y-118110000D03*
D13*
G04 #@! TO.P,C1,2*
G04 #@! TO.N,GNDPWR*
X129500000Y-118110000D03*
G04 #@! TD*
G04 #@! TO.P,C2,2*
G04 #@! TO.N,GNDPWR*
X200660000Y-65310000D03*
D12*
G04 #@! TO.P,C2,1*
G04 #@! TO.N,Net-(C2-Pad1)*
X200660000Y-67310000D03*
G04 #@! TD*
D13*
G04 #@! TO.P,C3,2*
G04 #@! TO.N,GNDPWR*
X129000000Y-109220000D03*
D12*
G04 #@! TO.P,C3,1*
G04 #@! TO.N,16V_DC*
X127000000Y-109220000D03*
G04 #@! TD*
G04 #@! TO.P,C4,1*
G04 #@! TO.N,16V_DC*
X138430000Y-111760000D03*
D13*
G04 #@! TO.P,C4,2*
G04 #@! TO.N,GNDPWR*
X138430000Y-113760000D03*
G04 #@! TD*
D12*
G04 #@! TO.P,C5,1*
G04 #@! TO.N,3V3_DC*
X190500000Y-83820000D03*
D13*
G04 #@! TO.P,C5,2*
G04 #@! TO.N,GNDPWR*
X188500000Y-83820000D03*
G04 #@! TD*
G04 #@! TO.P,C7,2*
G04 #@! TO.N,GNDPWR*
X158750000Y-113030000D03*
D12*
G04 #@! TO.P,C7,1*
G04 #@! TO.N,3V3_DC*
X156750000Y-113030000D03*
G04 #@! TD*
D17*
G04 #@! TO.P,D1,2*
G04 #@! TO.N,12V_DC*
X143510000Y-90170000D03*
D18*
G04 #@! TO.P,D1,1*
G04 #@! TO.N,Net-(D1-Pad1)*
X128270000Y-90170000D03*
G04 #@! TD*
G04 #@! TO.P,D2,1*
G04 #@! TO.N,16V_DC*
X120650000Y-109220000D03*
D17*
G04 #@! TO.P,D2,2*
G04 #@! TO.N,Net-(D2-Pad2)*
X105410000Y-109220000D03*
G04 #@! TD*
G04 #@! TO.P,D3,2*
G04 #@! TO.N,GNDPWR*
X120650000Y-118110000D03*
D18*
G04 #@! TO.P,D3,1*
G04 #@! TO.N,Net-(D2-Pad2)*
X105410000Y-118110000D03*
G04 #@! TD*
G04 #@! TO.P,D4,1*
G04 #@! TO.N,16V_DC*
X82550000Y-109220000D03*
D17*
G04 #@! TO.P,D4,2*
G04 #@! TO.N,-18V_AC*
X97790000Y-109220000D03*
G04 #@! TD*
D18*
G04 #@! TO.P,D5,1*
G04 #@! TO.N,-18V_AC*
X97790000Y-118110000D03*
D17*
G04 #@! TO.P,D5,2*
G04 #@! TO.N,GNDPWR*
X82550000Y-118110000D03*
G04 #@! TD*
D19*
G04 #@! TO.P,D6,2*
G04 #@! TO.N,Net-(D6-Pad2)*
X201930000Y-110490000D03*
D20*
G04 #@! TO.P,D6,1*
G04 #@! TO.N,Net-(D6-Pad1)*
X199390000Y-110490000D03*
G04 #@! TD*
G04 #@! TO.P,D7,1*
G04 #@! TO.N,Net-(D7-Pad1)*
X186690000Y-109220000D03*
D19*
G04 #@! TO.P,D7,2*
G04 #@! TO.N,12V_DC*
X189230000Y-109220000D03*
G04 #@! TD*
D20*
G04 #@! TO.P,D8,1*
G04 #@! TO.N,Net-(D8-Pad1)*
X186690000Y-118110000D03*
D19*
G04 #@! TO.P,D8,2*
G04 #@! TO.N,3V3_DC*
X189230000Y-118110000D03*
G04 #@! TD*
D11*
G04 #@! TO.P,J5,1*
G04 #@! TO.N,Net-(J5-Pad1)*
X190500000Y-102870000D03*
D10*
G04 #@! TO.P,J5,2*
G04 #@! TO.N,Net-(J5-Pad2)*
X187960000Y-102870000D03*
G04 #@! TO.P,J5,3*
G04 #@! TO.N,CT_ADC*
X185420000Y-102870000D03*
G04 #@! TO.P,J5,4*
G04 #@! TO.N,Net-(J5-Pad4)*
X182880000Y-102870000D03*
G04 #@! TO.P,J5,5*
G04 #@! TO.N,Net-(J5-Pad5)*
X180340000Y-102870000D03*
G04 #@! TO.P,J5,6*
G04 #@! TO.N,Net-(J5-Pad6)*
X177800000Y-102870000D03*
G04 #@! TO.P,J5,7*
G04 #@! TO.N,Net-(J5-Pad7)*
X175260000Y-102870000D03*
G04 #@! TO.P,J5,8*
G04 #@! TO.N,Net-(J5-Pad8)*
X172720000Y-102870000D03*
G04 #@! TO.P,J5,9*
G04 #@! TO.N,Net-(J5-Pad9)*
X170180000Y-102870000D03*
G04 #@! TO.P,J5,10*
G04 #@! TO.N,Net-(J5-Pad10)*
X167640000Y-102870000D03*
G04 #@! TO.P,J5,11*
G04 #@! TO.N,Net-(J5-Pad11)*
X165100000Y-102870000D03*
G04 #@! TO.P,J5,12*
G04 #@! TO.N,Net-(J5-Pad12)*
X162560000Y-102870000D03*
G04 #@! TO.P,J5,13*
G04 #@! TO.N,Net-(D6-Pad2)*
X160020000Y-102870000D03*
G04 #@! TO.P,J5,14*
G04 #@! TO.N,Net-(J5-Pad14)*
X157480000Y-102870000D03*
G04 #@! TO.P,J5,15*
G04 #@! TO.N,Net-(J5-Pad15)*
X154940000Y-102870000D03*
G04 #@! TO.P,J5,16*
G04 #@! TO.N,Net-(J5-Pad16)*
X152400000Y-102870000D03*
G04 #@! TD*
D21*
G04 #@! TO.P,K1,1*
G04 #@! TO.N,Net-(K1-Pad1)*
X142240000Y-69850000D03*
D16*
G04 #@! TO.P,K1,2*
G04 #@! TO.N,12V_DC*
X147340000Y-67350000D03*
D21*
G04 #@! TO.P,K1,3*
G04 #@! TO.N,MAINS_L*
X151140000Y-52150000D03*
G04 #@! TO.P,K1,4*
G04 #@! TO.N,Net-(K1-Pad4)*
X151140000Y-44550000D03*
G04 #@! TO.P,K1,5*
G04 #@! TO.N,Net-(J7-Pad1)*
X133340000Y-54650000D03*
D16*
G04 #@! TO.P,K1,6*
G04 #@! TO.N,Net-(D1-Pad1)*
X137140000Y-67350000D03*
G04 #@! TD*
D22*
G04 #@! TO.P,Q1,2*
G04 #@! TO.N,Net-(Q1-Pad2)*
X136398000Y-80772000D03*
G04 #@! TO.P,Q1,3*
G04 #@! TO.N,GNDPWR*
X137668000Y-80772000D03*
D23*
G04 #@! TO.P,Q1,1*
G04 #@! TO.N,Net-(D1-Pad1)*
X135128000Y-80772000D03*
G04 #@! TD*
D24*
G04 #@! TO.N,ESP_Pin_21*
G04 #@! TO.C,R1*
G36*
X183273504Y-87518204D02*
X183297773Y-87521804D01*
X183321571Y-87527765D01*
X183344671Y-87536030D01*
X183366849Y-87546520D01*
X183387893Y-87559133D01*
X183407598Y-87573747D01*
X183425777Y-87590223D01*
X183442253Y-87608402D01*
X183456867Y-87628107D01*
X183469480Y-87649151D01*
X183479970Y-87671329D01*
X183488235Y-87694429D01*
X183494196Y-87718227D01*
X183497796Y-87742496D01*
X183499000Y-87767000D01*
X183499000Y-89017000D01*
X183497796Y-89041504D01*
X183494196Y-89065773D01*
X183488235Y-89089571D01*
X183479970Y-89112671D01*
X183469480Y-89134849D01*
X183456867Y-89155893D01*
X183442253Y-89175598D01*
X183425777Y-89193777D01*
X183407598Y-89210253D01*
X183387893Y-89224867D01*
X183366849Y-89237480D01*
X183344671Y-89247970D01*
X183321571Y-89256235D01*
X183297773Y-89262196D01*
X183273504Y-89265796D01*
X183249000Y-89267000D01*
X182499000Y-89267000D01*
X182474496Y-89265796D01*
X182450227Y-89262196D01*
X182426429Y-89256235D01*
X182403329Y-89247970D01*
X182381151Y-89237480D01*
X182360107Y-89224867D01*
X182340402Y-89210253D01*
X182322223Y-89193777D01*
X182305747Y-89175598D01*
X182291133Y-89155893D01*
X182278520Y-89134849D01*
X182268030Y-89112671D01*
X182259765Y-89089571D01*
X182253804Y-89065773D01*
X182250204Y-89041504D01*
X182249000Y-89017000D01*
X182249000Y-87767000D01*
X182250204Y-87742496D01*
X182253804Y-87718227D01*
X182259765Y-87694429D01*
X182268030Y-87671329D01*
X182278520Y-87649151D01*
X182291133Y-87628107D01*
X182305747Y-87608402D01*
X182322223Y-87590223D01*
X182340402Y-87573747D01*
X182360107Y-87559133D01*
X182381151Y-87546520D01*
X182403329Y-87536030D01*
X182426429Y-87527765D01*
X182450227Y-87521804D01*
X182474496Y-87518204D01*
X182499000Y-87517000D01*
X183249000Y-87517000D01*
X183273504Y-87518204D01*
X183273504Y-87518204D01*
G37*
D25*
G04 #@! TD*
G04 #@! TO.P,R1,1*
G04 #@! TO.N,ESP_Pin_21*
X182874000Y-88392000D03*
D24*
G04 #@! TO.N,Net-(R1-Pad2)*
G04 #@! TO.C,R1*
G36*
X186073504Y-87518204D02*
X186097773Y-87521804D01*
X186121571Y-87527765D01*
X186144671Y-87536030D01*
X186166849Y-87546520D01*
X186187893Y-87559133D01*
X186207598Y-87573747D01*
X186225777Y-87590223D01*
X186242253Y-87608402D01*
X186256867Y-87628107D01*
X186269480Y-87649151D01*
X186279970Y-87671329D01*
X186288235Y-87694429D01*
X186294196Y-87718227D01*
X186297796Y-87742496D01*
X186299000Y-87767000D01*
X186299000Y-89017000D01*
X186297796Y-89041504D01*
X186294196Y-89065773D01*
X186288235Y-89089571D01*
X186279970Y-89112671D01*
X186269480Y-89134849D01*
X186256867Y-89155893D01*
X186242253Y-89175598D01*
X186225777Y-89193777D01*
X186207598Y-89210253D01*
X186187893Y-89224867D01*
X186166849Y-89237480D01*
X186144671Y-89247970D01*
X186121571Y-89256235D01*
X186097773Y-89262196D01*
X186073504Y-89265796D01*
X186049000Y-89267000D01*
X185299000Y-89267000D01*
X185274496Y-89265796D01*
X185250227Y-89262196D01*
X185226429Y-89256235D01*
X185203329Y-89247970D01*
X185181151Y-89237480D01*
X185160107Y-89224867D01*
X185140402Y-89210253D01*
X185122223Y-89193777D01*
X185105747Y-89175598D01*
X185091133Y-89155893D01*
X185078520Y-89134849D01*
X185068030Y-89112671D01*
X185059765Y-89089571D01*
X185053804Y-89065773D01*
X185050204Y-89041504D01*
X185049000Y-89017000D01*
X185049000Y-87767000D01*
X185050204Y-87742496D01*
X185053804Y-87718227D01*
X185059765Y-87694429D01*
X185068030Y-87671329D01*
X185078520Y-87649151D01*
X185091133Y-87628107D01*
X185105747Y-87608402D01*
X185122223Y-87590223D01*
X185140402Y-87573747D01*
X185160107Y-87559133D01*
X185181151Y-87546520D01*
X185203329Y-87536030D01*
X185226429Y-87527765D01*
X185250227Y-87521804D01*
X185274496Y-87518204D01*
X185299000Y-87517000D01*
X186049000Y-87517000D01*
X186073504Y-87518204D01*
X186073504Y-87518204D01*
G37*
D25*
G04 #@! TD*
G04 #@! TO.P,R1,2*
G04 #@! TO.N,Net-(R1-Pad2)*
X185674000Y-88392000D03*
D24*
G04 #@! TO.N,Net-(R2-Pad1)*
G04 #@! TO.C,R2*
G36*
X210203504Y-117236204D02*
X210227773Y-117239804D01*
X210251571Y-117245765D01*
X210274671Y-117254030D01*
X210296849Y-117264520D01*
X210317893Y-117277133D01*
X210337598Y-117291747D01*
X210355777Y-117308223D01*
X210372253Y-117326402D01*
X210386867Y-117346107D01*
X210399480Y-117367151D01*
X210409970Y-117389329D01*
X210418235Y-117412429D01*
X210424196Y-117436227D01*
X210427796Y-117460496D01*
X210429000Y-117485000D01*
X210429000Y-118735000D01*
X210427796Y-118759504D01*
X210424196Y-118783773D01*
X210418235Y-118807571D01*
X210409970Y-118830671D01*
X210399480Y-118852849D01*
X210386867Y-118873893D01*
X210372253Y-118893598D01*
X210355777Y-118911777D01*
X210337598Y-118928253D01*
X210317893Y-118942867D01*
X210296849Y-118955480D01*
X210274671Y-118965970D01*
X210251571Y-118974235D01*
X210227773Y-118980196D01*
X210203504Y-118983796D01*
X210179000Y-118985000D01*
X209429000Y-118985000D01*
X209404496Y-118983796D01*
X209380227Y-118980196D01*
X209356429Y-118974235D01*
X209333329Y-118965970D01*
X209311151Y-118955480D01*
X209290107Y-118942867D01*
X209270402Y-118928253D01*
X209252223Y-118911777D01*
X209235747Y-118893598D01*
X209221133Y-118873893D01*
X209208520Y-118852849D01*
X209198030Y-118830671D01*
X209189765Y-118807571D01*
X209183804Y-118783773D01*
X209180204Y-118759504D01*
X209179000Y-118735000D01*
X209179000Y-117485000D01*
X209180204Y-117460496D01*
X209183804Y-117436227D01*
X209189765Y-117412429D01*
X209198030Y-117389329D01*
X209208520Y-117367151D01*
X209221133Y-117346107D01*
X209235747Y-117326402D01*
X209252223Y-117308223D01*
X209270402Y-117291747D01*
X209290107Y-117277133D01*
X209311151Y-117264520D01*
X209333329Y-117254030D01*
X209356429Y-117245765D01*
X209380227Y-117239804D01*
X209404496Y-117236204D01*
X209429000Y-117235000D01*
X210179000Y-117235000D01*
X210203504Y-117236204D01*
X210203504Y-117236204D01*
G37*
D25*
G04 #@! TD*
G04 #@! TO.P,R2,1*
G04 #@! TO.N,Net-(R2-Pad1)*
X209804000Y-118110000D03*
D24*
G04 #@! TO.N,GNDPWR*
G04 #@! TO.C,R2*
G36*
X207403504Y-117236204D02*
X207427773Y-117239804D01*
X207451571Y-117245765D01*
X207474671Y-117254030D01*
X207496849Y-117264520D01*
X207517893Y-117277133D01*
X207537598Y-117291747D01*
X207555777Y-117308223D01*
X207572253Y-117326402D01*
X207586867Y-117346107D01*
X207599480Y-117367151D01*
X207609970Y-117389329D01*
X207618235Y-117412429D01*
X207624196Y-117436227D01*
X207627796Y-117460496D01*
X207629000Y-117485000D01*
X207629000Y-118735000D01*
X207627796Y-118759504D01*
X207624196Y-118783773D01*
X207618235Y-118807571D01*
X207609970Y-118830671D01*
X207599480Y-118852849D01*
X207586867Y-118873893D01*
X207572253Y-118893598D01*
X207555777Y-118911777D01*
X207537598Y-118928253D01*
X207517893Y-118942867D01*
X207496849Y-118955480D01*
X207474671Y-118965970D01*
X207451571Y-118974235D01*
X207427773Y-118980196D01*
X207403504Y-118983796D01*
X207379000Y-118985000D01*
X206629000Y-118985000D01*
X206604496Y-118983796D01*
X206580227Y-118980196D01*
X206556429Y-118974235D01*
X206533329Y-118965970D01*
X206511151Y-118955480D01*
X206490107Y-118942867D01*
X206470402Y-118928253D01*
X206452223Y-118911777D01*
X206435747Y-118893598D01*
X206421133Y-118873893D01*
X206408520Y-118852849D01*
X206398030Y-118830671D01*
X206389765Y-118807571D01*
X206383804Y-118783773D01*
X206380204Y-118759504D01*
X206379000Y-118735000D01*
X206379000Y-117485000D01*
X206380204Y-117460496D01*
X206383804Y-117436227D01*
X206389765Y-117412429D01*
X206398030Y-117389329D01*
X206408520Y-117367151D01*
X206421133Y-117346107D01*
X206435747Y-117326402D01*
X206452223Y-117308223D01*
X206470402Y-117291747D01*
X206490107Y-117277133D01*
X206511151Y-117264520D01*
X206533329Y-117254030D01*
X206556429Y-117245765D01*
X206580227Y-117239804D01*
X206604496Y-117236204D01*
X206629000Y-117235000D01*
X207379000Y-117235000D01*
X207403504Y-117236204D01*
X207403504Y-117236204D01*
G37*
D25*
G04 #@! TD*
G04 #@! TO.P,R2,2*
G04 #@! TO.N,GNDPWR*
X207004000Y-118110000D03*
D24*
G04 #@! TO.N,Net-(R2-Pad1)*
G04 #@! TO.C,R3*
G36*
X147973504Y-79644204D02*
X147997773Y-79647804D01*
X148021571Y-79653765D01*
X148044671Y-79662030D01*
X148066849Y-79672520D01*
X148087893Y-79685133D01*
X148107598Y-79699747D01*
X148125777Y-79716223D01*
X148142253Y-79734402D01*
X148156867Y-79754107D01*
X148169480Y-79775151D01*
X148179970Y-79797329D01*
X148188235Y-79820429D01*
X148194196Y-79844227D01*
X148197796Y-79868496D01*
X148199000Y-79893000D01*
X148199000Y-81143000D01*
X148197796Y-81167504D01*
X148194196Y-81191773D01*
X148188235Y-81215571D01*
X148179970Y-81238671D01*
X148169480Y-81260849D01*
X148156867Y-81281893D01*
X148142253Y-81301598D01*
X148125777Y-81319777D01*
X148107598Y-81336253D01*
X148087893Y-81350867D01*
X148066849Y-81363480D01*
X148044671Y-81373970D01*
X148021571Y-81382235D01*
X147997773Y-81388196D01*
X147973504Y-81391796D01*
X147949000Y-81393000D01*
X147199000Y-81393000D01*
X147174496Y-81391796D01*
X147150227Y-81388196D01*
X147126429Y-81382235D01*
X147103329Y-81373970D01*
X147081151Y-81363480D01*
X147060107Y-81350867D01*
X147040402Y-81336253D01*
X147022223Y-81319777D01*
X147005747Y-81301598D01*
X146991133Y-81281893D01*
X146978520Y-81260849D01*
X146968030Y-81238671D01*
X146959765Y-81215571D01*
X146953804Y-81191773D01*
X146950204Y-81167504D01*
X146949000Y-81143000D01*
X146949000Y-79893000D01*
X146950204Y-79868496D01*
X146953804Y-79844227D01*
X146959765Y-79820429D01*
X146968030Y-79797329D01*
X146978520Y-79775151D01*
X146991133Y-79754107D01*
X147005747Y-79734402D01*
X147022223Y-79716223D01*
X147040402Y-79699747D01*
X147060107Y-79685133D01*
X147081151Y-79672520D01*
X147103329Y-79662030D01*
X147126429Y-79653765D01*
X147150227Y-79647804D01*
X147174496Y-79644204D01*
X147199000Y-79643000D01*
X147949000Y-79643000D01*
X147973504Y-79644204D01*
X147973504Y-79644204D01*
G37*
D25*
G04 #@! TD*
G04 #@! TO.P,R3,2*
G04 #@! TO.N,Net-(R2-Pad1)*
X147574000Y-80518000D03*
D24*
G04 #@! TO.N,Net-(Q1-Pad2)*
G04 #@! TO.C,R3*
G36*
X145173504Y-79644204D02*
X145197773Y-79647804D01*
X145221571Y-79653765D01*
X145244671Y-79662030D01*
X145266849Y-79672520D01*
X145287893Y-79685133D01*
X145307598Y-79699747D01*
X145325777Y-79716223D01*
X145342253Y-79734402D01*
X145356867Y-79754107D01*
X145369480Y-79775151D01*
X145379970Y-79797329D01*
X145388235Y-79820429D01*
X145394196Y-79844227D01*
X145397796Y-79868496D01*
X145399000Y-79893000D01*
X145399000Y-81143000D01*
X145397796Y-81167504D01*
X145394196Y-81191773D01*
X145388235Y-81215571D01*
X145379970Y-81238671D01*
X145369480Y-81260849D01*
X145356867Y-81281893D01*
X145342253Y-81301598D01*
X145325777Y-81319777D01*
X145307598Y-81336253D01*
X145287893Y-81350867D01*
X145266849Y-81363480D01*
X145244671Y-81373970D01*
X145221571Y-81382235D01*
X145197773Y-81388196D01*
X145173504Y-81391796D01*
X145149000Y-81393000D01*
X144399000Y-81393000D01*
X144374496Y-81391796D01*
X144350227Y-81388196D01*
X144326429Y-81382235D01*
X144303329Y-81373970D01*
X144281151Y-81363480D01*
X144260107Y-81350867D01*
X144240402Y-81336253D01*
X144222223Y-81319777D01*
X144205747Y-81301598D01*
X144191133Y-81281893D01*
X144178520Y-81260849D01*
X144168030Y-81238671D01*
X144159765Y-81215571D01*
X144153804Y-81191773D01*
X144150204Y-81167504D01*
X144149000Y-81143000D01*
X144149000Y-79893000D01*
X144150204Y-79868496D01*
X144153804Y-79844227D01*
X144159765Y-79820429D01*
X144168030Y-79797329D01*
X144178520Y-79775151D01*
X144191133Y-79754107D01*
X144205747Y-79734402D01*
X144222223Y-79716223D01*
X144240402Y-79699747D01*
X144260107Y-79685133D01*
X144281151Y-79672520D01*
X144303329Y-79662030D01*
X144326429Y-79653765D01*
X144350227Y-79647804D01*
X144374496Y-79644204D01*
X144399000Y-79643000D01*
X145149000Y-79643000D01*
X145173504Y-79644204D01*
X145173504Y-79644204D01*
G37*
D25*
G04 #@! TD*
G04 #@! TO.P,R3,1*
G04 #@! TO.N,Net-(Q1-Pad2)*
X144774000Y-80518000D03*
D24*
G04 #@! TO.N,CT_ADC*
G04 #@! TO.C,R4*
G36*
X219477504Y-62880204D02*
X219501773Y-62883804D01*
X219525571Y-62889765D01*
X219548671Y-62898030D01*
X219570849Y-62908520D01*
X219591893Y-62921133D01*
X219611598Y-62935747D01*
X219629777Y-62952223D01*
X219646253Y-62970402D01*
X219660867Y-62990107D01*
X219673480Y-63011151D01*
X219683970Y-63033329D01*
X219692235Y-63056429D01*
X219698196Y-63080227D01*
X219701796Y-63104496D01*
X219703000Y-63129000D01*
X219703000Y-64379000D01*
X219701796Y-64403504D01*
X219698196Y-64427773D01*
X219692235Y-64451571D01*
X219683970Y-64474671D01*
X219673480Y-64496849D01*
X219660867Y-64517893D01*
X219646253Y-64537598D01*
X219629777Y-64555777D01*
X219611598Y-64572253D01*
X219591893Y-64586867D01*
X219570849Y-64599480D01*
X219548671Y-64609970D01*
X219525571Y-64618235D01*
X219501773Y-64624196D01*
X219477504Y-64627796D01*
X219453000Y-64629000D01*
X218703000Y-64629000D01*
X218678496Y-64627796D01*
X218654227Y-64624196D01*
X218630429Y-64618235D01*
X218607329Y-64609970D01*
X218585151Y-64599480D01*
X218564107Y-64586867D01*
X218544402Y-64572253D01*
X218526223Y-64555777D01*
X218509747Y-64537598D01*
X218495133Y-64517893D01*
X218482520Y-64496849D01*
X218472030Y-64474671D01*
X218463765Y-64451571D01*
X218457804Y-64427773D01*
X218454204Y-64403504D01*
X218453000Y-64379000D01*
X218453000Y-63129000D01*
X218454204Y-63104496D01*
X218457804Y-63080227D01*
X218463765Y-63056429D01*
X218472030Y-63033329D01*
X218482520Y-63011151D01*
X218495133Y-62990107D01*
X218509747Y-62970402D01*
X218526223Y-62952223D01*
X218544402Y-62935747D01*
X218564107Y-62921133D01*
X218585151Y-62908520D01*
X218607329Y-62898030D01*
X218630429Y-62889765D01*
X218654227Y-62883804D01*
X218678496Y-62880204D01*
X218703000Y-62879000D01*
X219453000Y-62879000D01*
X219477504Y-62880204D01*
X219477504Y-62880204D01*
G37*
D25*
G04 #@! TD*
G04 #@! TO.P,R4,1*
G04 #@! TO.N,CT_ADC*
X219078000Y-63754000D03*
D24*
G04 #@! TO.N,Net-(C2-Pad1)*
G04 #@! TO.C,R4*
G36*
X216677504Y-62880204D02*
X216701773Y-62883804D01*
X216725571Y-62889765D01*
X216748671Y-62898030D01*
X216770849Y-62908520D01*
X216791893Y-62921133D01*
X216811598Y-62935747D01*
X216829777Y-62952223D01*
X216846253Y-62970402D01*
X216860867Y-62990107D01*
X216873480Y-63011151D01*
X216883970Y-63033329D01*
X216892235Y-63056429D01*
X216898196Y-63080227D01*
X216901796Y-63104496D01*
X216903000Y-63129000D01*
X216903000Y-64379000D01*
X216901796Y-64403504D01*
X216898196Y-64427773D01*
X216892235Y-64451571D01*
X216883970Y-64474671D01*
X216873480Y-64496849D01*
X216860867Y-64517893D01*
X216846253Y-64537598D01*
X216829777Y-64555777D01*
X216811598Y-64572253D01*
X216791893Y-64586867D01*
X216770849Y-64599480D01*
X216748671Y-64609970D01*
X216725571Y-64618235D01*
X216701773Y-64624196D01*
X216677504Y-64627796D01*
X216653000Y-64629000D01*
X215903000Y-64629000D01*
X215878496Y-64627796D01*
X215854227Y-64624196D01*
X215830429Y-64618235D01*
X215807329Y-64609970D01*
X215785151Y-64599480D01*
X215764107Y-64586867D01*
X215744402Y-64572253D01*
X215726223Y-64555777D01*
X215709747Y-64537598D01*
X215695133Y-64517893D01*
X215682520Y-64496849D01*
X215672030Y-64474671D01*
X215663765Y-64451571D01*
X215657804Y-64427773D01*
X215654204Y-64403504D01*
X215653000Y-64379000D01*
X215653000Y-63129000D01*
X215654204Y-63104496D01*
X215657804Y-63080227D01*
X215663765Y-63056429D01*
X215672030Y-63033329D01*
X215682520Y-63011151D01*
X215695133Y-62990107D01*
X215709747Y-62970402D01*
X215726223Y-62952223D01*
X215744402Y-62935747D01*
X215764107Y-62921133D01*
X215785151Y-62908520D01*
X215807329Y-62898030D01*
X215830429Y-62889765D01*
X215854227Y-62883804D01*
X215878496Y-62880204D01*
X215903000Y-62879000D01*
X216653000Y-62879000D01*
X216677504Y-62880204D01*
X216677504Y-62880204D01*
G37*
D25*
G04 #@! TD*
G04 #@! TO.P,R4,2*
G04 #@! TO.N,Net-(C2-Pad1)*
X216278000Y-63754000D03*
D24*
G04 #@! TO.N,3V3_DC*
G04 #@! TO.C,R5*
G36*
X216547504Y-69230204D02*
X216571773Y-69233804D01*
X216595571Y-69239765D01*
X216618671Y-69248030D01*
X216640849Y-69258520D01*
X216661893Y-69271133D01*
X216681598Y-69285747D01*
X216699777Y-69302223D01*
X216716253Y-69320402D01*
X216730867Y-69340107D01*
X216743480Y-69361151D01*
X216753970Y-69383329D01*
X216762235Y-69406429D01*
X216768196Y-69430227D01*
X216771796Y-69454496D01*
X216773000Y-69479000D01*
X216773000Y-70729000D01*
X216771796Y-70753504D01*
X216768196Y-70777773D01*
X216762235Y-70801571D01*
X216753970Y-70824671D01*
X216743480Y-70846849D01*
X216730867Y-70867893D01*
X216716253Y-70887598D01*
X216699777Y-70905777D01*
X216681598Y-70922253D01*
X216661893Y-70936867D01*
X216640849Y-70949480D01*
X216618671Y-70959970D01*
X216595571Y-70968235D01*
X216571773Y-70974196D01*
X216547504Y-70977796D01*
X216523000Y-70979000D01*
X215773000Y-70979000D01*
X215748496Y-70977796D01*
X215724227Y-70974196D01*
X215700429Y-70968235D01*
X215677329Y-70959970D01*
X215655151Y-70949480D01*
X215634107Y-70936867D01*
X215614402Y-70922253D01*
X215596223Y-70905777D01*
X215579747Y-70887598D01*
X215565133Y-70867893D01*
X215552520Y-70846849D01*
X215542030Y-70824671D01*
X215533765Y-70801571D01*
X215527804Y-70777773D01*
X215524204Y-70753504D01*
X215523000Y-70729000D01*
X215523000Y-69479000D01*
X215524204Y-69454496D01*
X215527804Y-69430227D01*
X215533765Y-69406429D01*
X215542030Y-69383329D01*
X215552520Y-69361151D01*
X215565133Y-69340107D01*
X215579747Y-69320402D01*
X215596223Y-69302223D01*
X215614402Y-69285747D01*
X215634107Y-69271133D01*
X215655151Y-69258520D01*
X215677329Y-69248030D01*
X215700429Y-69239765D01*
X215724227Y-69233804D01*
X215748496Y-69230204D01*
X215773000Y-69229000D01*
X216523000Y-69229000D01*
X216547504Y-69230204D01*
X216547504Y-69230204D01*
G37*
D25*
G04 #@! TD*
G04 #@! TO.P,R5,1*
G04 #@! TO.N,3V3_DC*
X216148000Y-70104000D03*
D24*
G04 #@! TO.N,Net-(C2-Pad1)*
G04 #@! TO.C,R5*
G36*
X219347504Y-69230204D02*
X219371773Y-69233804D01*
X219395571Y-69239765D01*
X219418671Y-69248030D01*
X219440849Y-69258520D01*
X219461893Y-69271133D01*
X219481598Y-69285747D01*
X219499777Y-69302223D01*
X219516253Y-69320402D01*
X219530867Y-69340107D01*
X219543480Y-69361151D01*
X219553970Y-69383329D01*
X219562235Y-69406429D01*
X219568196Y-69430227D01*
X219571796Y-69454496D01*
X219573000Y-69479000D01*
X219573000Y-70729000D01*
X219571796Y-70753504D01*
X219568196Y-70777773D01*
X219562235Y-70801571D01*
X219553970Y-70824671D01*
X219543480Y-70846849D01*
X219530867Y-70867893D01*
X219516253Y-70887598D01*
X219499777Y-70905777D01*
X219481598Y-70922253D01*
X219461893Y-70936867D01*
X219440849Y-70949480D01*
X219418671Y-70959970D01*
X219395571Y-70968235D01*
X219371773Y-70974196D01*
X219347504Y-70977796D01*
X219323000Y-70979000D01*
X218573000Y-70979000D01*
X218548496Y-70977796D01*
X218524227Y-70974196D01*
X218500429Y-70968235D01*
X218477329Y-70959970D01*
X218455151Y-70949480D01*
X218434107Y-70936867D01*
X218414402Y-70922253D01*
X218396223Y-70905777D01*
X218379747Y-70887598D01*
X218365133Y-70867893D01*
X218352520Y-70846849D01*
X218342030Y-70824671D01*
X218333765Y-70801571D01*
X218327804Y-70777773D01*
X218324204Y-70753504D01*
X218323000Y-70729000D01*
X218323000Y-69479000D01*
X218324204Y-69454496D01*
X218327804Y-69430227D01*
X218333765Y-69406429D01*
X218342030Y-69383329D01*
X218352520Y-69361151D01*
X218365133Y-69340107D01*
X218379747Y-69320402D01*
X218396223Y-69302223D01*
X218414402Y-69285747D01*
X218434107Y-69271133D01*
X218455151Y-69258520D01*
X218477329Y-69248030D01*
X218500429Y-69239765D01*
X218524227Y-69233804D01*
X218548496Y-69230204D01*
X218573000Y-69229000D01*
X219323000Y-69229000D01*
X219347504Y-69230204D01*
X219347504Y-69230204D01*
G37*
D25*
G04 #@! TD*
G04 #@! TO.P,R5,2*
G04 #@! TO.N,Net-(C2-Pad1)*
X218948000Y-70104000D03*
D24*
G04 #@! TO.N,GNDPWR*
G04 #@! TO.C,R6*
G36*
X216677504Y-76850204D02*
X216701773Y-76853804D01*
X216725571Y-76859765D01*
X216748671Y-76868030D01*
X216770849Y-76878520D01*
X216791893Y-76891133D01*
X216811598Y-76905747D01*
X216829777Y-76922223D01*
X216846253Y-76940402D01*
X216860867Y-76960107D01*
X216873480Y-76981151D01*
X216883970Y-77003329D01*
X216892235Y-77026429D01*
X216898196Y-77050227D01*
X216901796Y-77074496D01*
X216903000Y-77099000D01*
X216903000Y-78349000D01*
X216901796Y-78373504D01*
X216898196Y-78397773D01*
X216892235Y-78421571D01*
X216883970Y-78444671D01*
X216873480Y-78466849D01*
X216860867Y-78487893D01*
X216846253Y-78507598D01*
X216829777Y-78525777D01*
X216811598Y-78542253D01*
X216791893Y-78556867D01*
X216770849Y-78569480D01*
X216748671Y-78579970D01*
X216725571Y-78588235D01*
X216701773Y-78594196D01*
X216677504Y-78597796D01*
X216653000Y-78599000D01*
X215903000Y-78599000D01*
X215878496Y-78597796D01*
X215854227Y-78594196D01*
X215830429Y-78588235D01*
X215807329Y-78579970D01*
X215785151Y-78569480D01*
X215764107Y-78556867D01*
X215744402Y-78542253D01*
X215726223Y-78525777D01*
X215709747Y-78507598D01*
X215695133Y-78487893D01*
X215682520Y-78466849D01*
X215672030Y-78444671D01*
X215663765Y-78421571D01*
X215657804Y-78397773D01*
X215654204Y-78373504D01*
X215653000Y-78349000D01*
X215653000Y-77099000D01*
X215654204Y-77074496D01*
X215657804Y-77050227D01*
X215663765Y-77026429D01*
X215672030Y-77003329D01*
X215682520Y-76981151D01*
X215695133Y-76960107D01*
X215709747Y-76940402D01*
X215726223Y-76922223D01*
X215744402Y-76905747D01*
X215764107Y-76891133D01*
X215785151Y-76878520D01*
X215807329Y-76868030D01*
X215830429Y-76859765D01*
X215854227Y-76853804D01*
X215878496Y-76850204D01*
X215903000Y-76849000D01*
X216653000Y-76849000D01*
X216677504Y-76850204D01*
X216677504Y-76850204D01*
G37*
D25*
G04 #@! TD*
G04 #@! TO.P,R6,2*
G04 #@! TO.N,GNDPWR*
X216278000Y-77724000D03*
D24*
G04 #@! TO.N,Net-(C2-Pad1)*
G04 #@! TO.C,R6*
G36*
X219477504Y-76850204D02*
X219501773Y-76853804D01*
X219525571Y-76859765D01*
X219548671Y-76868030D01*
X219570849Y-76878520D01*
X219591893Y-76891133D01*
X219611598Y-76905747D01*
X219629777Y-76922223D01*
X219646253Y-76940402D01*
X219660867Y-76960107D01*
X219673480Y-76981151D01*
X219683970Y-77003329D01*
X219692235Y-77026429D01*
X219698196Y-77050227D01*
X219701796Y-77074496D01*
X219703000Y-77099000D01*
X219703000Y-78349000D01*
X219701796Y-78373504D01*
X219698196Y-78397773D01*
X219692235Y-78421571D01*
X219683970Y-78444671D01*
X219673480Y-78466849D01*
X219660867Y-78487893D01*
X219646253Y-78507598D01*
X219629777Y-78525777D01*
X219611598Y-78542253D01*
X219591893Y-78556867D01*
X219570849Y-78569480D01*
X219548671Y-78579970D01*
X219525571Y-78588235D01*
X219501773Y-78594196D01*
X219477504Y-78597796D01*
X219453000Y-78599000D01*
X218703000Y-78599000D01*
X218678496Y-78597796D01*
X218654227Y-78594196D01*
X218630429Y-78588235D01*
X218607329Y-78579970D01*
X218585151Y-78569480D01*
X218564107Y-78556867D01*
X218544402Y-78542253D01*
X218526223Y-78525777D01*
X218509747Y-78507598D01*
X218495133Y-78487893D01*
X218482520Y-78466849D01*
X218472030Y-78444671D01*
X218463765Y-78421571D01*
X218457804Y-78397773D01*
X218454204Y-78373504D01*
X218453000Y-78349000D01*
X218453000Y-77099000D01*
X218454204Y-77074496D01*
X218457804Y-77050227D01*
X218463765Y-77026429D01*
X218472030Y-77003329D01*
X218482520Y-76981151D01*
X218495133Y-76960107D01*
X218509747Y-76940402D01*
X218526223Y-76922223D01*
X218544402Y-76905747D01*
X218564107Y-76891133D01*
X218585151Y-76878520D01*
X218607329Y-76868030D01*
X218630429Y-76859765D01*
X218654227Y-76853804D01*
X218678496Y-76850204D01*
X218703000Y-76849000D01*
X219453000Y-76849000D01*
X219477504Y-76850204D01*
X219477504Y-76850204D01*
G37*
D25*
G04 #@! TD*
G04 #@! TO.P,R6,1*
G04 #@! TO.N,Net-(C2-Pad1)*
X219078000Y-77724000D03*
D24*
G04 #@! TO.N,Net-(D6-Pad1)*
G04 #@! TO.C,R7*
G36*
X199659504Y-117236204D02*
X199683773Y-117239804D01*
X199707571Y-117245765D01*
X199730671Y-117254030D01*
X199752849Y-117264520D01*
X199773893Y-117277133D01*
X199793598Y-117291747D01*
X199811777Y-117308223D01*
X199828253Y-117326402D01*
X199842867Y-117346107D01*
X199855480Y-117367151D01*
X199865970Y-117389329D01*
X199874235Y-117412429D01*
X199880196Y-117436227D01*
X199883796Y-117460496D01*
X199885000Y-117485000D01*
X199885000Y-118735000D01*
X199883796Y-118759504D01*
X199880196Y-118783773D01*
X199874235Y-118807571D01*
X199865970Y-118830671D01*
X199855480Y-118852849D01*
X199842867Y-118873893D01*
X199828253Y-118893598D01*
X199811777Y-118911777D01*
X199793598Y-118928253D01*
X199773893Y-118942867D01*
X199752849Y-118955480D01*
X199730671Y-118965970D01*
X199707571Y-118974235D01*
X199683773Y-118980196D01*
X199659504Y-118983796D01*
X199635000Y-118985000D01*
X198885000Y-118985000D01*
X198860496Y-118983796D01*
X198836227Y-118980196D01*
X198812429Y-118974235D01*
X198789329Y-118965970D01*
X198767151Y-118955480D01*
X198746107Y-118942867D01*
X198726402Y-118928253D01*
X198708223Y-118911777D01*
X198691747Y-118893598D01*
X198677133Y-118873893D01*
X198664520Y-118852849D01*
X198654030Y-118830671D01*
X198645765Y-118807571D01*
X198639804Y-118783773D01*
X198636204Y-118759504D01*
X198635000Y-118735000D01*
X198635000Y-117485000D01*
X198636204Y-117460496D01*
X198639804Y-117436227D01*
X198645765Y-117412429D01*
X198654030Y-117389329D01*
X198664520Y-117367151D01*
X198677133Y-117346107D01*
X198691747Y-117326402D01*
X198708223Y-117308223D01*
X198726402Y-117291747D01*
X198746107Y-117277133D01*
X198767151Y-117264520D01*
X198789329Y-117254030D01*
X198812429Y-117245765D01*
X198836227Y-117239804D01*
X198860496Y-117236204D01*
X198885000Y-117235000D01*
X199635000Y-117235000D01*
X199659504Y-117236204D01*
X199659504Y-117236204D01*
G37*
D25*
G04 #@! TD*
G04 #@! TO.P,R7,1*
G04 #@! TO.N,Net-(D6-Pad1)*
X199260000Y-118110000D03*
D24*
G04 #@! TO.N,GNDPWR*
G04 #@! TO.C,R7*
G36*
X202459504Y-117236204D02*
X202483773Y-117239804D01*
X202507571Y-117245765D01*
X202530671Y-117254030D01*
X202552849Y-117264520D01*
X202573893Y-117277133D01*
X202593598Y-117291747D01*
X202611777Y-117308223D01*
X202628253Y-117326402D01*
X202642867Y-117346107D01*
X202655480Y-117367151D01*
X202665970Y-117389329D01*
X202674235Y-117412429D01*
X202680196Y-117436227D01*
X202683796Y-117460496D01*
X202685000Y-117485000D01*
X202685000Y-118735000D01*
X202683796Y-118759504D01*
X202680196Y-118783773D01*
X202674235Y-118807571D01*
X202665970Y-118830671D01*
X202655480Y-118852849D01*
X202642867Y-118873893D01*
X202628253Y-118893598D01*
X202611777Y-118911777D01*
X202593598Y-118928253D01*
X202573893Y-118942867D01*
X202552849Y-118955480D01*
X202530671Y-118965970D01*
X202507571Y-118974235D01*
X202483773Y-118980196D01*
X202459504Y-118983796D01*
X202435000Y-118985000D01*
X201685000Y-118985000D01*
X201660496Y-118983796D01*
X201636227Y-118980196D01*
X201612429Y-118974235D01*
X201589329Y-118965970D01*
X201567151Y-118955480D01*
X201546107Y-118942867D01*
X201526402Y-118928253D01*
X201508223Y-118911777D01*
X201491747Y-118893598D01*
X201477133Y-118873893D01*
X201464520Y-118852849D01*
X201454030Y-118830671D01*
X201445765Y-118807571D01*
X201439804Y-118783773D01*
X201436204Y-118759504D01*
X201435000Y-118735000D01*
X201435000Y-117485000D01*
X201436204Y-117460496D01*
X201439804Y-117436227D01*
X201445765Y-117412429D01*
X201454030Y-117389329D01*
X201464520Y-117367151D01*
X201477133Y-117346107D01*
X201491747Y-117326402D01*
X201508223Y-117308223D01*
X201526402Y-117291747D01*
X201546107Y-117277133D01*
X201567151Y-117264520D01*
X201589329Y-117254030D01*
X201612429Y-117245765D01*
X201636227Y-117239804D01*
X201660496Y-117236204D01*
X201685000Y-117235000D01*
X202435000Y-117235000D01*
X202459504Y-117236204D01*
X202459504Y-117236204D01*
G37*
D25*
G04 #@! TD*
G04 #@! TO.P,R7,2*
G04 #@! TO.N,GNDPWR*
X202060000Y-118110000D03*
D24*
G04 #@! TO.N,12V_DC*
G04 #@! TO.C,R8*
G36*
X179719504Y-107326204D02*
X179743773Y-107329804D01*
X179767571Y-107335765D01*
X179790671Y-107344030D01*
X179812849Y-107354520D01*
X179833893Y-107367133D01*
X179853598Y-107381747D01*
X179871777Y-107398223D01*
X179888253Y-107416402D01*
X179902867Y-107436107D01*
X179915480Y-107457151D01*
X179925970Y-107479329D01*
X179934235Y-107502429D01*
X179940196Y-107526227D01*
X179943796Y-107550496D01*
X179945000Y-107575000D01*
X179945000Y-108325000D01*
X179943796Y-108349504D01*
X179940196Y-108373773D01*
X179934235Y-108397571D01*
X179925970Y-108420671D01*
X179915480Y-108442849D01*
X179902867Y-108463893D01*
X179888253Y-108483598D01*
X179871777Y-108501777D01*
X179853598Y-108518253D01*
X179833893Y-108532867D01*
X179812849Y-108545480D01*
X179790671Y-108555970D01*
X179767571Y-108564235D01*
X179743773Y-108570196D01*
X179719504Y-108573796D01*
X179695000Y-108575000D01*
X178445000Y-108575000D01*
X178420496Y-108573796D01*
X178396227Y-108570196D01*
X178372429Y-108564235D01*
X178349329Y-108555970D01*
X178327151Y-108545480D01*
X178306107Y-108532867D01*
X178286402Y-108518253D01*
X178268223Y-108501777D01*
X178251747Y-108483598D01*
X178237133Y-108463893D01*
X178224520Y-108442849D01*
X178214030Y-108420671D01*
X178205765Y-108397571D01*
X178199804Y-108373773D01*
X178196204Y-108349504D01*
X178195000Y-108325000D01*
X178195000Y-107575000D01*
X178196204Y-107550496D01*
X178199804Y-107526227D01*
X178205765Y-107502429D01*
X178214030Y-107479329D01*
X178224520Y-107457151D01*
X178237133Y-107436107D01*
X178251747Y-107416402D01*
X178268223Y-107398223D01*
X178286402Y-107381747D01*
X178306107Y-107367133D01*
X178327151Y-107354520D01*
X178349329Y-107344030D01*
X178372429Y-107335765D01*
X178396227Y-107329804D01*
X178420496Y-107326204D01*
X178445000Y-107325000D01*
X179695000Y-107325000D01*
X179719504Y-107326204D01*
X179719504Y-107326204D01*
G37*
D25*
G04 #@! TD*
G04 #@! TO.P,R8,1*
G04 #@! TO.N,12V_DC*
X179070000Y-107950000D03*
D24*
G04 #@! TO.N,Net-(R8-Pad2)*
G04 #@! TO.C,R8*
G36*
X179719504Y-110126204D02*
X179743773Y-110129804D01*
X179767571Y-110135765D01*
X179790671Y-110144030D01*
X179812849Y-110154520D01*
X179833893Y-110167133D01*
X179853598Y-110181747D01*
X179871777Y-110198223D01*
X179888253Y-110216402D01*
X179902867Y-110236107D01*
X179915480Y-110257151D01*
X179925970Y-110279329D01*
X179934235Y-110302429D01*
X179940196Y-110326227D01*
X179943796Y-110350496D01*
X179945000Y-110375000D01*
X179945000Y-111125000D01*
X179943796Y-111149504D01*
X179940196Y-111173773D01*
X179934235Y-111197571D01*
X179925970Y-111220671D01*
X179915480Y-111242849D01*
X179902867Y-111263893D01*
X179888253Y-111283598D01*
X179871777Y-111301777D01*
X179853598Y-111318253D01*
X179833893Y-111332867D01*
X179812849Y-111345480D01*
X179790671Y-111355970D01*
X179767571Y-111364235D01*
X179743773Y-111370196D01*
X179719504Y-111373796D01*
X179695000Y-111375000D01*
X178445000Y-111375000D01*
X178420496Y-111373796D01*
X178396227Y-111370196D01*
X178372429Y-111364235D01*
X178349329Y-111355970D01*
X178327151Y-111345480D01*
X178306107Y-111332867D01*
X178286402Y-111318253D01*
X178268223Y-111301777D01*
X178251747Y-111283598D01*
X178237133Y-111263893D01*
X178224520Y-111242849D01*
X178214030Y-111220671D01*
X178205765Y-111197571D01*
X178199804Y-111173773D01*
X178196204Y-111149504D01*
X178195000Y-111125000D01*
X178195000Y-110375000D01*
X178196204Y-110350496D01*
X178199804Y-110326227D01*
X178205765Y-110302429D01*
X178214030Y-110279329D01*
X178224520Y-110257151D01*
X178237133Y-110236107D01*
X178251747Y-110216402D01*
X178268223Y-110198223D01*
X178286402Y-110181747D01*
X178306107Y-110167133D01*
X178327151Y-110154520D01*
X178349329Y-110144030D01*
X178372429Y-110135765D01*
X178396227Y-110129804D01*
X178420496Y-110126204D01*
X178445000Y-110125000D01*
X179695000Y-110125000D01*
X179719504Y-110126204D01*
X179719504Y-110126204D01*
G37*
D25*
G04 #@! TD*
G04 #@! TO.P,R8,2*
G04 #@! TO.N,Net-(R8-Pad2)*
X179070000Y-110750000D03*
D24*
G04 #@! TO.N,GNDPWR*
G04 #@! TO.C,R9*
G36*
X179719504Y-118756204D02*
X179743773Y-118759804D01*
X179767571Y-118765765D01*
X179790671Y-118774030D01*
X179812849Y-118784520D01*
X179833893Y-118797133D01*
X179853598Y-118811747D01*
X179871777Y-118828223D01*
X179888253Y-118846402D01*
X179902867Y-118866107D01*
X179915480Y-118887151D01*
X179925970Y-118909329D01*
X179934235Y-118932429D01*
X179940196Y-118956227D01*
X179943796Y-118980496D01*
X179945000Y-119005000D01*
X179945000Y-119755000D01*
X179943796Y-119779504D01*
X179940196Y-119803773D01*
X179934235Y-119827571D01*
X179925970Y-119850671D01*
X179915480Y-119872849D01*
X179902867Y-119893893D01*
X179888253Y-119913598D01*
X179871777Y-119931777D01*
X179853598Y-119948253D01*
X179833893Y-119962867D01*
X179812849Y-119975480D01*
X179790671Y-119985970D01*
X179767571Y-119994235D01*
X179743773Y-120000196D01*
X179719504Y-120003796D01*
X179695000Y-120005000D01*
X178445000Y-120005000D01*
X178420496Y-120003796D01*
X178396227Y-120000196D01*
X178372429Y-119994235D01*
X178349329Y-119985970D01*
X178327151Y-119975480D01*
X178306107Y-119962867D01*
X178286402Y-119948253D01*
X178268223Y-119931777D01*
X178251747Y-119913598D01*
X178237133Y-119893893D01*
X178224520Y-119872849D01*
X178214030Y-119850671D01*
X178205765Y-119827571D01*
X178199804Y-119803773D01*
X178196204Y-119779504D01*
X178195000Y-119755000D01*
X178195000Y-119005000D01*
X178196204Y-118980496D01*
X178199804Y-118956227D01*
X178205765Y-118932429D01*
X178214030Y-118909329D01*
X178224520Y-118887151D01*
X178237133Y-118866107D01*
X178251747Y-118846402D01*
X178268223Y-118828223D01*
X178286402Y-118811747D01*
X178306107Y-118797133D01*
X178327151Y-118784520D01*
X178349329Y-118774030D01*
X178372429Y-118765765D01*
X178396227Y-118759804D01*
X178420496Y-118756204D01*
X178445000Y-118755000D01*
X179695000Y-118755000D01*
X179719504Y-118756204D01*
X179719504Y-118756204D01*
G37*
D25*
G04 #@! TD*
G04 #@! TO.P,R9,2*
G04 #@! TO.N,GNDPWR*
X179070000Y-119380000D03*
D24*
G04 #@! TO.N,Net-(R8-Pad2)*
G04 #@! TO.C,R9*
G36*
X179719504Y-115956204D02*
X179743773Y-115959804D01*
X179767571Y-115965765D01*
X179790671Y-115974030D01*
X179812849Y-115984520D01*
X179833893Y-115997133D01*
X179853598Y-116011747D01*
X179871777Y-116028223D01*
X179888253Y-116046402D01*
X179902867Y-116066107D01*
X179915480Y-116087151D01*
X179925970Y-116109329D01*
X179934235Y-116132429D01*
X179940196Y-116156227D01*
X179943796Y-116180496D01*
X179945000Y-116205000D01*
X179945000Y-116955000D01*
X179943796Y-116979504D01*
X179940196Y-117003773D01*
X179934235Y-117027571D01*
X179925970Y-117050671D01*
X179915480Y-117072849D01*
X179902867Y-117093893D01*
X179888253Y-117113598D01*
X179871777Y-117131777D01*
X179853598Y-117148253D01*
X179833893Y-117162867D01*
X179812849Y-117175480D01*
X179790671Y-117185970D01*
X179767571Y-117194235D01*
X179743773Y-117200196D01*
X179719504Y-117203796D01*
X179695000Y-117205000D01*
X178445000Y-117205000D01*
X178420496Y-117203796D01*
X178396227Y-117200196D01*
X178372429Y-117194235D01*
X178349329Y-117185970D01*
X178327151Y-117175480D01*
X178306107Y-117162867D01*
X178286402Y-117148253D01*
X178268223Y-117131777D01*
X178251747Y-117113598D01*
X178237133Y-117093893D01*
X178224520Y-117072849D01*
X178214030Y-117050671D01*
X178205765Y-117027571D01*
X178199804Y-117003773D01*
X178196204Y-116979504D01*
X178195000Y-116955000D01*
X178195000Y-116205000D01*
X178196204Y-116180496D01*
X178199804Y-116156227D01*
X178205765Y-116132429D01*
X178214030Y-116109329D01*
X178224520Y-116087151D01*
X178237133Y-116066107D01*
X178251747Y-116046402D01*
X178268223Y-116028223D01*
X178286402Y-116011747D01*
X178306107Y-115997133D01*
X178327151Y-115984520D01*
X178349329Y-115974030D01*
X178372429Y-115965765D01*
X178396227Y-115959804D01*
X178420496Y-115956204D01*
X178445000Y-115955000D01*
X179695000Y-115955000D01*
X179719504Y-115956204D01*
X179719504Y-115956204D01*
G37*
D25*
G04 #@! TD*
G04 #@! TO.P,R9,1*
G04 #@! TO.N,Net-(R8-Pad2)*
X179070000Y-116580000D03*
D24*
G04 #@! TO.N,3V3_DC*
G04 #@! TO.C,R10*
G36*
X172099504Y-109996204D02*
X172123773Y-109999804D01*
X172147571Y-110005765D01*
X172170671Y-110014030D01*
X172192849Y-110024520D01*
X172213893Y-110037133D01*
X172233598Y-110051747D01*
X172251777Y-110068223D01*
X172268253Y-110086402D01*
X172282867Y-110106107D01*
X172295480Y-110127151D01*
X172305970Y-110149329D01*
X172314235Y-110172429D01*
X172320196Y-110196227D01*
X172323796Y-110220496D01*
X172325000Y-110245000D01*
X172325000Y-110995000D01*
X172323796Y-111019504D01*
X172320196Y-111043773D01*
X172314235Y-111067571D01*
X172305970Y-111090671D01*
X172295480Y-111112849D01*
X172282867Y-111133893D01*
X172268253Y-111153598D01*
X172251777Y-111171777D01*
X172233598Y-111188253D01*
X172213893Y-111202867D01*
X172192849Y-111215480D01*
X172170671Y-111225970D01*
X172147571Y-111234235D01*
X172123773Y-111240196D01*
X172099504Y-111243796D01*
X172075000Y-111245000D01*
X170825000Y-111245000D01*
X170800496Y-111243796D01*
X170776227Y-111240196D01*
X170752429Y-111234235D01*
X170729329Y-111225970D01*
X170707151Y-111215480D01*
X170686107Y-111202867D01*
X170666402Y-111188253D01*
X170648223Y-111171777D01*
X170631747Y-111153598D01*
X170617133Y-111133893D01*
X170604520Y-111112849D01*
X170594030Y-111090671D01*
X170585765Y-111067571D01*
X170579804Y-111043773D01*
X170576204Y-111019504D01*
X170575000Y-110995000D01*
X170575000Y-110245000D01*
X170576204Y-110220496D01*
X170579804Y-110196227D01*
X170585765Y-110172429D01*
X170594030Y-110149329D01*
X170604520Y-110127151D01*
X170617133Y-110106107D01*
X170631747Y-110086402D01*
X170648223Y-110068223D01*
X170666402Y-110051747D01*
X170686107Y-110037133D01*
X170707151Y-110024520D01*
X170729329Y-110014030D01*
X170752429Y-110005765D01*
X170776227Y-109999804D01*
X170800496Y-109996204D01*
X170825000Y-109995000D01*
X172075000Y-109995000D01*
X172099504Y-109996204D01*
X172099504Y-109996204D01*
G37*
D25*
G04 #@! TD*
G04 #@! TO.P,R10,1*
G04 #@! TO.N,3V3_DC*
X171450000Y-110620000D03*
D24*
G04 #@! TO.N,Net-(R10-Pad2)*
G04 #@! TO.C,R10*
G36*
X172099504Y-107196204D02*
X172123773Y-107199804D01*
X172147571Y-107205765D01*
X172170671Y-107214030D01*
X172192849Y-107224520D01*
X172213893Y-107237133D01*
X172233598Y-107251747D01*
X172251777Y-107268223D01*
X172268253Y-107286402D01*
X172282867Y-107306107D01*
X172295480Y-107327151D01*
X172305970Y-107349329D01*
X172314235Y-107372429D01*
X172320196Y-107396227D01*
X172323796Y-107420496D01*
X172325000Y-107445000D01*
X172325000Y-108195000D01*
X172323796Y-108219504D01*
X172320196Y-108243773D01*
X172314235Y-108267571D01*
X172305970Y-108290671D01*
X172295480Y-108312849D01*
X172282867Y-108333893D01*
X172268253Y-108353598D01*
X172251777Y-108371777D01*
X172233598Y-108388253D01*
X172213893Y-108402867D01*
X172192849Y-108415480D01*
X172170671Y-108425970D01*
X172147571Y-108434235D01*
X172123773Y-108440196D01*
X172099504Y-108443796D01*
X172075000Y-108445000D01*
X170825000Y-108445000D01*
X170800496Y-108443796D01*
X170776227Y-108440196D01*
X170752429Y-108434235D01*
X170729329Y-108425970D01*
X170707151Y-108415480D01*
X170686107Y-108402867D01*
X170666402Y-108388253D01*
X170648223Y-108371777D01*
X170631747Y-108353598D01*
X170617133Y-108333893D01*
X170604520Y-108312849D01*
X170594030Y-108290671D01*
X170585765Y-108267571D01*
X170579804Y-108243773D01*
X170576204Y-108219504D01*
X170575000Y-108195000D01*
X170575000Y-107445000D01*
X170576204Y-107420496D01*
X170579804Y-107396227D01*
X170585765Y-107372429D01*
X170594030Y-107349329D01*
X170604520Y-107327151D01*
X170617133Y-107306107D01*
X170631747Y-107286402D01*
X170648223Y-107268223D01*
X170666402Y-107251747D01*
X170686107Y-107237133D01*
X170707151Y-107224520D01*
X170729329Y-107214030D01*
X170752429Y-107205765D01*
X170776227Y-107199804D01*
X170800496Y-107196204D01*
X170825000Y-107195000D01*
X172075000Y-107195000D01*
X172099504Y-107196204D01*
X172099504Y-107196204D01*
G37*
D25*
G04 #@! TD*
G04 #@! TO.P,R10,2*
G04 #@! TO.N,Net-(R10-Pad2)*
X171450000Y-107820000D03*
D24*
G04 #@! TO.N,GNDPWR*
G04 #@! TO.C,R11*
G36*
X172099504Y-116086204D02*
X172123773Y-116089804D01*
X172147571Y-116095765D01*
X172170671Y-116104030D01*
X172192849Y-116114520D01*
X172213893Y-116127133D01*
X172233598Y-116141747D01*
X172251777Y-116158223D01*
X172268253Y-116176402D01*
X172282867Y-116196107D01*
X172295480Y-116217151D01*
X172305970Y-116239329D01*
X172314235Y-116262429D01*
X172320196Y-116286227D01*
X172323796Y-116310496D01*
X172325000Y-116335000D01*
X172325000Y-117085000D01*
X172323796Y-117109504D01*
X172320196Y-117133773D01*
X172314235Y-117157571D01*
X172305970Y-117180671D01*
X172295480Y-117202849D01*
X172282867Y-117223893D01*
X172268253Y-117243598D01*
X172251777Y-117261777D01*
X172233598Y-117278253D01*
X172213893Y-117292867D01*
X172192849Y-117305480D01*
X172170671Y-117315970D01*
X172147571Y-117324235D01*
X172123773Y-117330196D01*
X172099504Y-117333796D01*
X172075000Y-117335000D01*
X170825000Y-117335000D01*
X170800496Y-117333796D01*
X170776227Y-117330196D01*
X170752429Y-117324235D01*
X170729329Y-117315970D01*
X170707151Y-117305480D01*
X170686107Y-117292867D01*
X170666402Y-117278253D01*
X170648223Y-117261777D01*
X170631747Y-117243598D01*
X170617133Y-117223893D01*
X170604520Y-117202849D01*
X170594030Y-117180671D01*
X170585765Y-117157571D01*
X170579804Y-117133773D01*
X170576204Y-117109504D01*
X170575000Y-117085000D01*
X170575000Y-116335000D01*
X170576204Y-116310496D01*
X170579804Y-116286227D01*
X170585765Y-116262429D01*
X170594030Y-116239329D01*
X170604520Y-116217151D01*
X170617133Y-116196107D01*
X170631747Y-116176402D01*
X170648223Y-116158223D01*
X170666402Y-116141747D01*
X170686107Y-116127133D01*
X170707151Y-116114520D01*
X170729329Y-116104030D01*
X170752429Y-116095765D01*
X170776227Y-116089804D01*
X170800496Y-116086204D01*
X170825000Y-116085000D01*
X172075000Y-116085000D01*
X172099504Y-116086204D01*
X172099504Y-116086204D01*
G37*
D25*
G04 #@! TD*
G04 #@! TO.P,R11,2*
G04 #@! TO.N,GNDPWR*
X171450000Y-116710000D03*
D24*
G04 #@! TO.N,Net-(R10-Pad2)*
G04 #@! TO.C,R11*
G36*
X172099504Y-118886204D02*
X172123773Y-118889804D01*
X172147571Y-118895765D01*
X172170671Y-118904030D01*
X172192849Y-118914520D01*
X172213893Y-118927133D01*
X172233598Y-118941747D01*
X172251777Y-118958223D01*
X172268253Y-118976402D01*
X172282867Y-118996107D01*
X172295480Y-119017151D01*
X172305970Y-119039329D01*
X172314235Y-119062429D01*
X172320196Y-119086227D01*
X172323796Y-119110496D01*
X172325000Y-119135000D01*
X172325000Y-119885000D01*
X172323796Y-119909504D01*
X172320196Y-119933773D01*
X172314235Y-119957571D01*
X172305970Y-119980671D01*
X172295480Y-120002849D01*
X172282867Y-120023893D01*
X172268253Y-120043598D01*
X172251777Y-120061777D01*
X172233598Y-120078253D01*
X172213893Y-120092867D01*
X172192849Y-120105480D01*
X172170671Y-120115970D01*
X172147571Y-120124235D01*
X172123773Y-120130196D01*
X172099504Y-120133796D01*
X172075000Y-120135000D01*
X170825000Y-120135000D01*
X170800496Y-120133796D01*
X170776227Y-120130196D01*
X170752429Y-120124235D01*
X170729329Y-120115970D01*
X170707151Y-120105480D01*
X170686107Y-120092867D01*
X170666402Y-120078253D01*
X170648223Y-120061777D01*
X170631747Y-120043598D01*
X170617133Y-120023893D01*
X170604520Y-120002849D01*
X170594030Y-119980671D01*
X170585765Y-119957571D01*
X170579804Y-119933773D01*
X170576204Y-119909504D01*
X170575000Y-119885000D01*
X170575000Y-119135000D01*
X170576204Y-119110496D01*
X170579804Y-119086227D01*
X170585765Y-119062429D01*
X170594030Y-119039329D01*
X170604520Y-119017151D01*
X170617133Y-118996107D01*
X170631747Y-118976402D01*
X170648223Y-118958223D01*
X170666402Y-118941747D01*
X170686107Y-118927133D01*
X170707151Y-118914520D01*
X170729329Y-118904030D01*
X170752429Y-118895765D01*
X170776227Y-118889804D01*
X170800496Y-118886204D01*
X170825000Y-118885000D01*
X172075000Y-118885000D01*
X172099504Y-118886204D01*
X172099504Y-118886204D01*
G37*
D25*
G04 #@! TD*
G04 #@! TO.P,R11,1*
G04 #@! TO.N,Net-(R10-Pad2)*
X171450000Y-119510000D03*
D24*
G04 #@! TO.N,Net-(D7-Pad1)*
G04 #@! TO.C,R12*
G36*
X199783504Y-101488204D02*
X199807773Y-101491804D01*
X199831571Y-101497765D01*
X199854671Y-101506030D01*
X199876849Y-101516520D01*
X199897893Y-101529133D01*
X199917598Y-101543747D01*
X199935777Y-101560223D01*
X199952253Y-101578402D01*
X199966867Y-101598107D01*
X199979480Y-101619151D01*
X199989970Y-101641329D01*
X199998235Y-101664429D01*
X200004196Y-101688227D01*
X200007796Y-101712496D01*
X200009000Y-101737000D01*
X200009000Y-102987000D01*
X200007796Y-103011504D01*
X200004196Y-103035773D01*
X199998235Y-103059571D01*
X199989970Y-103082671D01*
X199979480Y-103104849D01*
X199966867Y-103125893D01*
X199952253Y-103145598D01*
X199935777Y-103163777D01*
X199917598Y-103180253D01*
X199897893Y-103194867D01*
X199876849Y-103207480D01*
X199854671Y-103217970D01*
X199831571Y-103226235D01*
X199807773Y-103232196D01*
X199783504Y-103235796D01*
X199759000Y-103237000D01*
X199009000Y-103237000D01*
X198984496Y-103235796D01*
X198960227Y-103232196D01*
X198936429Y-103226235D01*
X198913329Y-103217970D01*
X198891151Y-103207480D01*
X198870107Y-103194867D01*
X198850402Y-103180253D01*
X198832223Y-103163777D01*
X198815747Y-103145598D01*
X198801133Y-103125893D01*
X198788520Y-103104849D01*
X198778030Y-103082671D01*
X198769765Y-103059571D01*
X198763804Y-103035773D01*
X198760204Y-103011504D01*
X198759000Y-102987000D01*
X198759000Y-101737000D01*
X198760204Y-101712496D01*
X198763804Y-101688227D01*
X198769765Y-101664429D01*
X198778030Y-101641329D01*
X198788520Y-101619151D01*
X198801133Y-101598107D01*
X198815747Y-101578402D01*
X198832223Y-101560223D01*
X198850402Y-101543747D01*
X198870107Y-101529133D01*
X198891151Y-101516520D01*
X198913329Y-101506030D01*
X198936429Y-101497765D01*
X198960227Y-101491804D01*
X198984496Y-101488204D01*
X199009000Y-101487000D01*
X199759000Y-101487000D01*
X199783504Y-101488204D01*
X199783504Y-101488204D01*
G37*
D25*
G04 #@! TD*
G04 #@! TO.P,R12,1*
G04 #@! TO.N,Net-(D7-Pad1)*
X199384000Y-102362000D03*
D24*
G04 #@! TO.N,GNDPWR*
G04 #@! TO.C,R12*
G36*
X202583504Y-101488204D02*
X202607773Y-101491804D01*
X202631571Y-101497765D01*
X202654671Y-101506030D01*
X202676849Y-101516520D01*
X202697893Y-101529133D01*
X202717598Y-101543747D01*
X202735777Y-101560223D01*
X202752253Y-101578402D01*
X202766867Y-101598107D01*
X202779480Y-101619151D01*
X202789970Y-101641329D01*
X202798235Y-101664429D01*
X202804196Y-101688227D01*
X202807796Y-101712496D01*
X202809000Y-101737000D01*
X202809000Y-102987000D01*
X202807796Y-103011504D01*
X202804196Y-103035773D01*
X202798235Y-103059571D01*
X202789970Y-103082671D01*
X202779480Y-103104849D01*
X202766867Y-103125893D01*
X202752253Y-103145598D01*
X202735777Y-103163777D01*
X202717598Y-103180253D01*
X202697893Y-103194867D01*
X202676849Y-103207480D01*
X202654671Y-103217970D01*
X202631571Y-103226235D01*
X202607773Y-103232196D01*
X202583504Y-103235796D01*
X202559000Y-103237000D01*
X201809000Y-103237000D01*
X201784496Y-103235796D01*
X201760227Y-103232196D01*
X201736429Y-103226235D01*
X201713329Y-103217970D01*
X201691151Y-103207480D01*
X201670107Y-103194867D01*
X201650402Y-103180253D01*
X201632223Y-103163777D01*
X201615747Y-103145598D01*
X201601133Y-103125893D01*
X201588520Y-103104849D01*
X201578030Y-103082671D01*
X201569765Y-103059571D01*
X201563804Y-103035773D01*
X201560204Y-103011504D01*
X201559000Y-102987000D01*
X201559000Y-101737000D01*
X201560204Y-101712496D01*
X201563804Y-101688227D01*
X201569765Y-101664429D01*
X201578030Y-101641329D01*
X201588520Y-101619151D01*
X201601133Y-101598107D01*
X201615747Y-101578402D01*
X201632223Y-101560223D01*
X201650402Y-101543747D01*
X201670107Y-101529133D01*
X201691151Y-101516520D01*
X201713329Y-101506030D01*
X201736429Y-101497765D01*
X201760227Y-101491804D01*
X201784496Y-101488204D01*
X201809000Y-101487000D01*
X202559000Y-101487000D01*
X202583504Y-101488204D01*
X202583504Y-101488204D01*
G37*
D25*
G04 #@! TD*
G04 #@! TO.P,R12,2*
G04 #@! TO.N,GNDPWR*
X202184000Y-102362000D03*
D24*
G04 #@! TO.N,GNDPWR*
G04 #@! TO.C,R13*
G36*
X202456504Y-121173204D02*
X202480773Y-121176804D01*
X202504571Y-121182765D01*
X202527671Y-121191030D01*
X202549849Y-121201520D01*
X202570893Y-121214133D01*
X202590598Y-121228747D01*
X202608777Y-121245223D01*
X202625253Y-121263402D01*
X202639867Y-121283107D01*
X202652480Y-121304151D01*
X202662970Y-121326329D01*
X202671235Y-121349429D01*
X202677196Y-121373227D01*
X202680796Y-121397496D01*
X202682000Y-121422000D01*
X202682000Y-122672000D01*
X202680796Y-122696504D01*
X202677196Y-122720773D01*
X202671235Y-122744571D01*
X202662970Y-122767671D01*
X202652480Y-122789849D01*
X202639867Y-122810893D01*
X202625253Y-122830598D01*
X202608777Y-122848777D01*
X202590598Y-122865253D01*
X202570893Y-122879867D01*
X202549849Y-122892480D01*
X202527671Y-122902970D01*
X202504571Y-122911235D01*
X202480773Y-122917196D01*
X202456504Y-122920796D01*
X202432000Y-122922000D01*
X201682000Y-122922000D01*
X201657496Y-122920796D01*
X201633227Y-122917196D01*
X201609429Y-122911235D01*
X201586329Y-122902970D01*
X201564151Y-122892480D01*
X201543107Y-122879867D01*
X201523402Y-122865253D01*
X201505223Y-122848777D01*
X201488747Y-122830598D01*
X201474133Y-122810893D01*
X201461520Y-122789849D01*
X201451030Y-122767671D01*
X201442765Y-122744571D01*
X201436804Y-122720773D01*
X201433204Y-122696504D01*
X201432000Y-122672000D01*
X201432000Y-121422000D01*
X201433204Y-121397496D01*
X201436804Y-121373227D01*
X201442765Y-121349429D01*
X201451030Y-121326329D01*
X201461520Y-121304151D01*
X201474133Y-121283107D01*
X201488747Y-121263402D01*
X201505223Y-121245223D01*
X201523402Y-121228747D01*
X201543107Y-121214133D01*
X201564151Y-121201520D01*
X201586329Y-121191030D01*
X201609429Y-121182765D01*
X201633227Y-121176804D01*
X201657496Y-121173204D01*
X201682000Y-121172000D01*
X202432000Y-121172000D01*
X202456504Y-121173204D01*
X202456504Y-121173204D01*
G37*
D25*
G04 #@! TD*
G04 #@! TO.P,R13,2*
G04 #@! TO.N,GNDPWR*
X202057000Y-122047000D03*
D24*
G04 #@! TO.N,Net-(D8-Pad1)*
G04 #@! TO.C,R13*
G36*
X199656504Y-121173204D02*
X199680773Y-121176804D01*
X199704571Y-121182765D01*
X199727671Y-121191030D01*
X199749849Y-121201520D01*
X199770893Y-121214133D01*
X199790598Y-121228747D01*
X199808777Y-121245223D01*
X199825253Y-121263402D01*
X199839867Y-121283107D01*
X199852480Y-121304151D01*
X199862970Y-121326329D01*
X199871235Y-121349429D01*
X199877196Y-121373227D01*
X199880796Y-121397496D01*
X199882000Y-121422000D01*
X199882000Y-122672000D01*
X199880796Y-122696504D01*
X199877196Y-122720773D01*
X199871235Y-122744571D01*
X199862970Y-122767671D01*
X199852480Y-122789849D01*
X199839867Y-122810893D01*
X199825253Y-122830598D01*
X199808777Y-122848777D01*
X199790598Y-122865253D01*
X199770893Y-122879867D01*
X199749849Y-122892480D01*
X199727671Y-122902970D01*
X199704571Y-122911235D01*
X199680773Y-122917196D01*
X199656504Y-122920796D01*
X199632000Y-122922000D01*
X198882000Y-122922000D01*
X198857496Y-122920796D01*
X198833227Y-122917196D01*
X198809429Y-122911235D01*
X198786329Y-122902970D01*
X198764151Y-122892480D01*
X198743107Y-122879867D01*
X198723402Y-122865253D01*
X198705223Y-122848777D01*
X198688747Y-122830598D01*
X198674133Y-122810893D01*
X198661520Y-122789849D01*
X198651030Y-122767671D01*
X198642765Y-122744571D01*
X198636804Y-122720773D01*
X198633204Y-122696504D01*
X198632000Y-122672000D01*
X198632000Y-121422000D01*
X198633204Y-121397496D01*
X198636804Y-121373227D01*
X198642765Y-121349429D01*
X198651030Y-121326329D01*
X198661520Y-121304151D01*
X198674133Y-121283107D01*
X198688747Y-121263402D01*
X198705223Y-121245223D01*
X198723402Y-121228747D01*
X198743107Y-121214133D01*
X198764151Y-121201520D01*
X198786329Y-121191030D01*
X198809429Y-121182765D01*
X198833227Y-121176804D01*
X198857496Y-121173204D01*
X198882000Y-121172000D01*
X199632000Y-121172000D01*
X199656504Y-121173204D01*
X199656504Y-121173204D01*
G37*
D25*
G04 #@! TD*
G04 #@! TO.P,R13,1*
G04 #@! TO.N,Net-(D8-Pad1)*
X199257000Y-122047000D03*
D26*
G04 #@! TO.P,U1,6*
G04 #@! TO.N,Net-(U1-Pad6)*
X209804000Y-88392000D03*
G04 #@! TO.P,U1,3*
G04 #@! TO.N,Net-(U1-Pad3)*
X202184000Y-93472000D03*
G04 #@! TO.P,U1,5*
G04 #@! TO.N,12V_DC*
X209804000Y-90932000D03*
G04 #@! TO.P,U1,2*
G04 #@! TO.N,GNDPWR*
X202184000Y-90932000D03*
G04 #@! TO.P,U1,4*
G04 #@! TO.N,Net-(R2-Pad1)*
X209804000Y-93472000D03*
D12*
G04 #@! TO.P,U1,1*
G04 #@! TO.N,Net-(R1-Pad2)*
X202184000Y-88392000D03*
G04 #@! TD*
D27*
G04 #@! TO.P,U2,3*
G04 #@! TO.N,12V_DC*
X138450000Y-102870000D03*
G04 #@! TO.P,U2,2*
G04 #@! TO.N,Net-(R8-Pad2)*
X135900000Y-102870000D03*
D28*
G04 #@! TO.P,U2,1*
G04 #@! TO.N,16V_DC*
X133350000Y-102870000D03*
G04 #@! TD*
G04 #@! TO.P,U3,1*
G04 #@! TO.N,16V_DC*
X143510000Y-119380000D03*
D27*
G04 #@! TO.P,U3,2*
G04 #@! TO.N,Net-(R10-Pad2)*
X146060000Y-119380000D03*
G04 #@! TO.P,U3,3*
G04 #@! TO.N,3V3_DC*
X148610000Y-119380000D03*
G04 #@! TD*
D15*
G04 #@! TO.P,J1,2*
G04 #@! TO.N,MAINS_L*
X122475000Y-45720000D03*
G04 #@! TO.P,J1,1*
X117475000Y-45720000D03*
G04 #@! TD*
G04 #@! TO.P,J2,1*
G04 #@! TO.N,Earth*
X78740000Y-45720000D03*
G04 #@! TO.P,J2,2*
X83740000Y-45720000D03*
G04 #@! TD*
G04 #@! TO.P,J3,1*
G04 #@! TO.N,MAINS_N*
X98044000Y-45720000D03*
G04 #@! TO.P,J3,2*
X103044000Y-45720000D03*
G04 #@! TD*
G04 #@! TO.P,J6,2*
G04 #@! TO.N,MAINS_N*
X196008000Y-44704000D03*
G04 #@! TO.P,J6,1*
X191008000Y-44704000D03*
G04 #@! TD*
G04 #@! TO.P,J8,2*
G04 #@! TO.N,Earth*
X209851000Y-44831000D03*
G04 #@! TO.P,J8,1*
X204851000Y-44831000D03*
G04 #@! TD*
D29*
G04 #@! TO.N,12V_DC*
X166497000Y-106807000D03*
X175260000Y-109855000D03*
X159766000Y-106807000D03*
G04 #@! TO.N,GNDPWR*
X211074000Y-82550000D03*
X157828410Y-118618000D03*
X175006000Y-118618000D03*
X200406000Y-113792000D03*
G04 #@! TO.N,3V3_DC*
X167894000Y-120904000D03*
X192532000Y-120650000D03*
G04 #@! TO.N,Net-(D7-Pad1)*
X196596000Y-102362000D03*
G04 #@! TO.N,ESP_Pin_21*
X180213000Y-89916000D03*
G04 #@! TO.N,CT_ADC*
X209550000Y-57404000D03*
X195326000Y-57404000D03*
G04 #@! TD*
D30*
G04 #@! TO.N,16V_DC*
X120650000Y-111070000D02*
X120650000Y-109220000D01*
X117674000Y-114046000D02*
X120650000Y-111070000D01*
X89226000Y-114046000D02*
X117674000Y-114046000D01*
X84400000Y-109220000D02*
X89226000Y-114046000D01*
X82550000Y-109220000D02*
X84400000Y-109220000D01*
X127000000Y-118110000D02*
X127000000Y-109220000D01*
X125950000Y-109220000D02*
X120650000Y-109220000D01*
X127000000Y-109220000D02*
X125950000Y-109220000D01*
X137380000Y-111760000D02*
X138430000Y-111760000D01*
X133350000Y-107730000D02*
X137380000Y-111760000D01*
X133350000Y-102870000D02*
X133350000Y-107730000D01*
X132110000Y-102870000D02*
X133350000Y-102870000D01*
X127000000Y-107980000D02*
X132110000Y-102870000D01*
X127000000Y-109220000D02*
X127000000Y-107980000D01*
X143510000Y-118140000D02*
X143510000Y-119380000D01*
X143510000Y-115790000D02*
X143510000Y-118140000D01*
X139480000Y-111760000D02*
X143510000Y-115790000D01*
X138430000Y-111760000D02*
X139480000Y-111760000D01*
G04 #@! TO.N,GNDPWR*
X82550000Y-120372741D02*
X84859259Y-122682000D01*
X82550000Y-118110000D02*
X82550000Y-120372741D01*
X116078000Y-122682000D02*
X120650000Y-118110000D01*
X84859259Y-122682000D02*
X116078000Y-122682000D01*
X129500000Y-118110000D02*
X133850000Y-113760000D01*
X133850000Y-113760000D02*
X138430000Y-113760000D01*
X133540000Y-113760000D02*
X129000000Y-109220000D01*
X133850000Y-113760000D02*
X133540000Y-113760000D01*
X169510000Y-116710000D02*
X171450000Y-116710000D01*
X165830000Y-113030000D02*
X169510000Y-116710000D01*
X137668000Y-79772000D02*
X139208000Y-78232000D01*
X137668000Y-80772000D02*
X137668000Y-79772000D01*
X139208000Y-78232000D02*
X149098000Y-78232000D01*
X154686000Y-83820000D02*
X188500000Y-83820000D01*
X149098000Y-78232000D02*
X154686000Y-83820000D01*
X201488290Y-101666290D02*
X202184000Y-102362000D01*
X199136000Y-99314000D02*
X201488290Y-101666290D01*
X202184000Y-90932000D02*
X199136000Y-93980000D01*
X176400000Y-116710000D02*
X179070000Y-119380000D01*
X171450000Y-116710000D02*
X176400000Y-116710000D01*
X178816000Y-94742000D02*
X181864000Y-97790000D01*
X181864000Y-97790000D02*
X199136000Y-97790000D01*
X182626000Y-85598000D02*
X178816000Y-89408000D01*
X199136000Y-97790000D02*
X199136000Y-99314000D01*
X199136000Y-93980000D02*
X199136000Y-97790000D01*
X188500000Y-83820000D02*
X187700001Y-84619999D01*
X178816000Y-89408000D02*
X178816000Y-94742000D01*
X187700001Y-84619999D02*
X187414001Y-84619999D01*
X187414001Y-84619999D02*
X186436000Y-85598000D01*
X186436000Y-85598000D02*
X182626000Y-85598000D01*
X215900000Y-77724000D02*
X216278000Y-77724000D01*
X211074000Y-82550000D02*
X215900000Y-77724000D01*
X158750000Y-117696410D02*
X158750000Y-113030000D01*
X157828410Y-118618000D02*
X158750000Y-117696410D01*
X179070000Y-119380000D02*
X178095000Y-119380000D01*
X178095000Y-119380000D02*
X175768000Y-119380000D01*
X175768000Y-119380000D02*
X175006000Y-118618000D01*
X175006000Y-118618000D02*
X175006000Y-118618000D01*
X202686000Y-113792000D02*
X207004000Y-118110000D01*
X200406000Y-113792000D02*
X202686000Y-113792000D01*
X202060000Y-118110000D02*
X207004000Y-118110000D01*
X126960000Y-120650000D02*
X129500000Y-118110000D01*
X120650000Y-118110000D02*
X123190000Y-120650000D01*
X123190000Y-120650000D02*
X126960000Y-120650000D01*
X158750000Y-113030000D02*
X159881370Y-113030000D01*
X159881370Y-113030000D02*
X160274000Y-113030000D01*
X160274000Y-113030000D02*
X162814000Y-115570000D01*
X164421370Y-115570000D02*
X162814000Y-115570000D01*
X165830000Y-114161370D02*
X164421370Y-115570000D01*
X165830000Y-113030000D02*
X165830000Y-114161370D01*
X202057000Y-118113000D02*
X202060000Y-118110000D01*
X202057000Y-122047000D02*
X202057000Y-118113000D01*
X187960000Y-77470000D02*
X187960000Y-70231000D01*
X192881000Y-65310000D02*
X200660000Y-65310000D01*
X187960000Y-70231000D02*
X192881000Y-65310000D01*
G04 #@! TO.N,Net-(C2-Pad1)*
X181102000Y-42926000D02*
X192278000Y-54102000D01*
X179832000Y-42926000D02*
X181102000Y-42926000D01*
X192278000Y-54102000D02*
X200152000Y-54102000D01*
X200152000Y-54102000D02*
X207518000Y-61468000D01*
X207518000Y-61468000D02*
X207518000Y-63246000D01*
X203454000Y-67310000D02*
X200660000Y-67310000D01*
X219078000Y-70234000D02*
X218948000Y-70104000D01*
X219078000Y-77724000D02*
X219078000Y-70234000D01*
X218948000Y-66424000D02*
X216278000Y-63754000D01*
X218948000Y-70104000D02*
X218948000Y-66424000D01*
X215299000Y-63500000D02*
X207264000Y-63500000D01*
X215553000Y-63754000D02*
X215299000Y-63500000D01*
X216278000Y-63754000D02*
X215553000Y-63754000D01*
X207518000Y-63246000D02*
X207264000Y-63500000D01*
X207264000Y-63500000D02*
X203454000Y-67310000D01*
G04 #@! TO.N,3V3_DC*
X154960000Y-113030000D02*
X156750000Y-113030000D01*
X148610000Y-119380000D02*
X154960000Y-113030000D01*
X171450000Y-111345000D02*
X174659000Y-114554000D01*
X171450000Y-110620000D02*
X171450000Y-111345000D01*
X185674000Y-114554000D02*
X189230000Y-118110000D01*
X174659000Y-114554000D02*
X185674000Y-114554000D01*
X190500000Y-78570000D02*
X190500000Y-83820000D01*
X190500000Y-77470000D02*
X190500000Y-78570000D01*
X208782000Y-77470000D02*
X216148000Y-70104000D01*
X190500000Y-77470000D02*
X208782000Y-77470000D01*
X156750000Y-114080000D02*
X154940000Y-115890000D01*
X156750000Y-113030000D02*
X156750000Y-114080000D01*
X154940000Y-115890000D02*
X154940000Y-118872000D01*
X154940000Y-118872000D02*
X156972000Y-120904000D01*
X156972000Y-120904000D02*
X167894000Y-120904000D01*
X167894000Y-120904000D02*
X167894000Y-120904000D01*
X189992000Y-118110000D02*
X189230000Y-118110000D01*
X192532000Y-120650000D02*
X189992000Y-118110000D01*
G04 #@! TO.N,12V_DC*
X181102000Y-105918000D02*
X179070000Y-107950000D01*
X189230000Y-109220000D02*
X189230000Y-107188000D01*
X189230000Y-107188000D02*
X187960000Y-105918000D01*
X165227000Y-105537000D02*
X166497000Y-106807000D01*
X159766000Y-106807000D02*
X161036000Y-105537000D01*
X161036000Y-105537000D02*
X165227000Y-105537000D01*
X182880000Y-107569000D02*
X181229000Y-105918000D01*
X181229000Y-105918000D02*
X181102000Y-105918000D01*
X187960000Y-105918000D02*
X181229000Y-105918000D01*
X175260000Y-109855000D02*
X175260000Y-110617000D01*
X175260000Y-110617000D02*
X176911000Y-112268000D01*
X182880000Y-110744000D02*
X182880000Y-107569000D01*
X176911000Y-112268000D02*
X181356000Y-112268000D01*
X181356000Y-112268000D02*
X182880000Y-110744000D01*
G04 #@! TO.N,Net-(D1-Pad1)*
X135128000Y-69362000D02*
X135128000Y-80772000D01*
X137140000Y-67350000D02*
X135128000Y-69362000D01*
X128270000Y-86855000D02*
X128270000Y-90170000D01*
X135128000Y-80772000D02*
X134353000Y-80772000D01*
X134353000Y-80772000D02*
X128270000Y-86855000D01*
G04 #@! TO.N,Net-(D2-Pad2)*
X107950000Y-106680000D02*
X105410000Y-109220000D01*
X107950000Y-94810000D02*
X107950000Y-106680000D01*
X104010660Y-94810000D02*
X107950000Y-94810000D01*
X102950000Y-94810000D02*
X104010660Y-94810000D01*
G04 #@! TO.N,-18V_AC*
X97790000Y-104650000D02*
X87950000Y-94810000D01*
X97790000Y-109220000D02*
X97790000Y-104650000D01*
X84010660Y-94810000D02*
X87950000Y-94810000D01*
X82950000Y-94810000D02*
X84010660Y-94810000D01*
G04 #@! TO.N,Net-(D6-Pad1)*
X199260000Y-110620000D02*
X199390000Y-110490000D01*
X199260000Y-118110000D02*
X199260000Y-110620000D01*
G04 #@! TO.N,Net-(D7-Pad1)*
X196596000Y-102362000D02*
X199384000Y-102362000D01*
G04 #@! TO.N,Net-(D8-Pad1)*
X186690000Y-119260000D02*
X186690000Y-118110000D01*
X189477000Y-122047000D02*
X186690000Y-119260000D01*
X199257000Y-122047000D02*
X189477000Y-122047000D01*
G04 #@! TO.N,ESP_Pin_21*
X182149000Y-88392000D02*
X180625000Y-89916000D01*
X182874000Y-88392000D02*
X182149000Y-88392000D01*
X180625000Y-89916000D02*
X180213000Y-89916000D01*
X180213000Y-89916000D02*
X180213000Y-89916000D01*
G04 #@! TO.N,CT_ADC*
X210115685Y-57404000D02*
X209550000Y-57404000D01*
X213703000Y-57404000D02*
X210115685Y-57404000D01*
X219078000Y-62779000D02*
X213703000Y-57404000D01*
X219078000Y-63754000D02*
X219078000Y-62779000D01*
X165676501Y-44010501D02*
X174312501Y-44010501D01*
X164592000Y-42926000D02*
X165676501Y-44010501D01*
X174312501Y-44010501D02*
X187706000Y-57404000D01*
X187706000Y-57404000D02*
X195326000Y-57404000D01*
X195326000Y-57404000D02*
X195326000Y-57404000D01*
G04 #@! TO.N,Net-(Q1-Pad2)*
X144774000Y-80518000D02*
X141218000Y-84074000D01*
X136398000Y-80997000D02*
X136398000Y-80772000D01*
X139475000Y-84074000D02*
X136398000Y-80997000D01*
X141218000Y-84074000D02*
X139475000Y-84074000D01*
G04 #@! TO.N,Net-(R1-Pad2)*
X185674000Y-88392000D02*
X202184000Y-88392000D01*
G04 #@! TO.N,Net-(R2-Pad1)*
X209804000Y-117135000D02*
X204978000Y-112309000D01*
X209804000Y-118110000D02*
X209804000Y-117135000D01*
X204978000Y-98298000D02*
X209804000Y-93472000D01*
X148299000Y-80518000D02*
X167603000Y-99822000D01*
X147574000Y-80518000D02*
X148299000Y-80518000D01*
X167603000Y-99822000D02*
X192024000Y-99822000D01*
X198374000Y-106172000D02*
X204978000Y-106172000D01*
X192024000Y-99822000D02*
X198374000Y-106172000D01*
X204978000Y-112309000D02*
X204978000Y-106172000D01*
X204978000Y-106172000D02*
X204978000Y-98298000D01*
G04 #@! TO.N,Net-(R8-Pad2)*
X176784000Y-108464000D02*
X179070000Y-110750000D01*
X176784000Y-107950000D02*
X176784000Y-108464000D01*
X174752000Y-105918000D02*
X176784000Y-107950000D01*
X178374290Y-115884290D02*
X173288290Y-115884290D01*
X179070000Y-116580000D02*
X178374290Y-115884290D01*
X173288290Y-115884290D02*
X168910000Y-111506000D01*
X168910000Y-106934000D02*
X169926000Y-105918000D01*
X169926000Y-105918000D02*
X174752000Y-105918000D01*
X135900000Y-102870000D02*
X140726000Y-98044000D01*
X140726000Y-98044000D02*
X144780000Y-98044000D01*
X144780000Y-98044000D02*
X147320000Y-100584000D01*
X147320000Y-100584000D02*
X147320000Y-105410000D01*
X149860000Y-107950000D02*
X168910000Y-107950000D01*
X147320000Y-105410000D02*
X149860000Y-107950000D01*
X168910000Y-111506000D02*
X168910000Y-107950000D01*
X168910000Y-107950000D02*
X168910000Y-106934000D01*
G04 #@! TO.N,Net-(R10-Pad2)*
X179619190Y-115316000D02*
X174332810Y-115316000D01*
X172425000Y-119510000D02*
X173819000Y-120904000D01*
X171450000Y-119510000D02*
X172425000Y-119510000D01*
X174332810Y-115316000D02*
X169760810Y-110744000D01*
X179359190Y-120904000D02*
X180270010Y-119993180D01*
X169760810Y-109509190D02*
X171450000Y-107820000D01*
X180270010Y-119993180D02*
X180270010Y-115966820D01*
X169760810Y-110744000D02*
X169760810Y-109509190D01*
X180270010Y-115966820D02*
X179619190Y-115316000D01*
X173609000Y-122936000D02*
X175641000Y-120904000D01*
X175641000Y-120904000D02*
X179359190Y-120904000D01*
X173819000Y-120904000D02*
X175641000Y-120904000D01*
X149108000Y-122428000D02*
X149108000Y-122438000D01*
X146060000Y-119380000D02*
X149108000Y-122428000D01*
X149108000Y-122438000D02*
X149606000Y-122936000D01*
X149606000Y-122936000D02*
X173609000Y-122936000D01*
D31*
G04 #@! TO.N,Earth*
X204470000Y-44704000D02*
X209470000Y-44704000D01*
X78740000Y-45720000D02*
X83740000Y-45720000D01*
X84789999Y-44670001D02*
X83740000Y-45720000D01*
X92684990Y-36775010D02*
X84789999Y-44670001D01*
X196795010Y-36775010D02*
X92684990Y-36775010D01*
X204851000Y-44831000D02*
X196795010Y-36775010D01*
G04 #@! TD*
D32*
G04 #@! TO.N,Earth*
G36*
X221590000Y-34355002D02*
X221590001Y-34355007D01*
X221590000Y-36764997D01*
X221590000Y-36764998D01*
X221590001Y-39304993D01*
X221590000Y-39304998D01*
X221590000Y-59277764D01*
X217005745Y-54693510D01*
X216768521Y-54338479D01*
X215362048Y-53398704D01*
X214121783Y-53152000D01*
X214121782Y-53152000D01*
X213703000Y-53068699D01*
X213284218Y-53152000D01*
X211114384Y-53152000D01*
X210450476Y-52877000D01*
X208649524Y-52877000D01*
X206985661Y-53566195D01*
X206307546Y-54244310D01*
X203454745Y-51391510D01*
X203217521Y-51036479D01*
X201811048Y-50096704D01*
X200570783Y-49850000D01*
X200570782Y-49850000D01*
X200152000Y-49766699D01*
X199733218Y-49850000D01*
X197112610Y-49850000D01*
X198940535Y-49092848D01*
X200396848Y-47636535D01*
X201066562Y-46019703D01*
X203841902Y-46019703D01*
X203946687Y-46291745D01*
X204574526Y-46526619D01*
X205244456Y-46503349D01*
X205755313Y-46291745D01*
X205860098Y-46019703D01*
X208841902Y-46019703D01*
X208946687Y-46291745D01*
X209574526Y-46526619D01*
X210244456Y-46503349D01*
X210755313Y-46291745D01*
X210860098Y-46019703D01*
X209851000Y-45010605D01*
X208841902Y-46019703D01*
X205860098Y-46019703D01*
X204851000Y-45010605D01*
X203841902Y-46019703D01*
X201066562Y-46019703D01*
X201185000Y-45733769D01*
X201185000Y-44554526D01*
X203155381Y-44554526D01*
X203178651Y-45224456D01*
X203390255Y-45735313D01*
X203662297Y-45840098D01*
X204671395Y-44831000D01*
X205030605Y-44831000D01*
X206039703Y-45840098D01*
X206311745Y-45735313D01*
X206546619Y-45107474D01*
X206527413Y-44554526D01*
X208155381Y-44554526D01*
X208178651Y-45224456D01*
X208390255Y-45735313D01*
X208662297Y-45840098D01*
X209671395Y-44831000D01*
X210030605Y-44831000D01*
X211039703Y-45840098D01*
X211311745Y-45735313D01*
X211546619Y-45107474D01*
X211523349Y-44437544D01*
X211311745Y-43926687D01*
X211039703Y-43821902D01*
X210030605Y-44831000D01*
X209671395Y-44831000D01*
X208662297Y-43821902D01*
X208390255Y-43926687D01*
X208155381Y-44554526D01*
X206527413Y-44554526D01*
X206523349Y-44437544D01*
X206311745Y-43926687D01*
X206039703Y-43821902D01*
X205030605Y-44831000D01*
X204671395Y-44831000D01*
X203662297Y-43821902D01*
X203390255Y-43926687D01*
X203155381Y-44554526D01*
X201185000Y-44554526D01*
X201185000Y-43674231D01*
X201171773Y-43642297D01*
X203841902Y-43642297D01*
X204851000Y-44651395D01*
X205860098Y-43642297D01*
X208841902Y-43642297D01*
X209851000Y-44651395D01*
X210860098Y-43642297D01*
X210755313Y-43370255D01*
X210127474Y-43135381D01*
X209457544Y-43158651D01*
X208946687Y-43370255D01*
X208841902Y-43642297D01*
X205860098Y-43642297D01*
X205755313Y-43370255D01*
X205127474Y-43135381D01*
X204457544Y-43158651D01*
X203946687Y-43370255D01*
X203841902Y-43642297D01*
X201171773Y-43642297D01*
X200396848Y-41771465D01*
X199552125Y-40926742D01*
X215474200Y-40926742D01*
X215591103Y-41677556D01*
X215914036Y-42365381D01*
X216417039Y-42934923D01*
X217059674Y-43340396D01*
X217790282Y-43549204D01*
X218550129Y-43544563D01*
X219278132Y-43326844D01*
X219915766Y-42913550D01*
X220411772Y-42337906D01*
X220726278Y-41646187D01*
X220834000Y-40894000D01*
X220833200Y-40828522D01*
X220707133Y-40079191D01*
X220375821Y-39395363D01*
X219865898Y-38832009D01*
X219218356Y-38434418D01*
X218485252Y-38234550D01*
X217725518Y-38248475D01*
X217000230Y-38475071D01*
X216367693Y-38896124D01*
X215878756Y-39477785D01*
X215572724Y-40173295D01*
X215474200Y-40926742D01*
X199552125Y-40926742D01*
X198940535Y-40315152D01*
X197037769Y-39527000D01*
X194978231Y-39527000D01*
X193508000Y-40135990D01*
X192037769Y-39527000D01*
X189978231Y-39527000D01*
X188075465Y-40315152D01*
X186619152Y-41771465D01*
X186426296Y-42237061D01*
X184404745Y-40215510D01*
X184167521Y-39860479D01*
X183756089Y-39585569D01*
X183743659Y-39442048D01*
X183730733Y-39391704D01*
X183726655Y-39339887D01*
X183689761Y-39232129D01*
X183487411Y-38774422D01*
X183458873Y-38730978D01*
X183438231Y-38683277D01*
X183368423Y-38593280D01*
X183028723Y-38225795D01*
X182987651Y-38193937D01*
X182952672Y-38155495D01*
X182857475Y-38092962D01*
X182417055Y-37855324D01*
X182367879Y-37838487D01*
X182322333Y-37813448D01*
X182212017Y-37785124D01*
X182212014Y-37785123D01*
X182212013Y-37785123D01*
X181728592Y-37704660D01*
X181675003Y-37694000D01*
X162748997Y-37694000D01*
X162720872Y-37699595D01*
X162495032Y-37719154D01*
X162469732Y-37725650D01*
X162443616Y-37725650D01*
X162333296Y-37753975D01*
X161861123Y-37919791D01*
X161815575Y-37944832D01*
X161766402Y-37961667D01*
X161671205Y-38024200D01*
X161278200Y-38334020D01*
X161243218Y-38372465D01*
X161202149Y-38404321D01*
X161132340Y-38494318D01*
X160860880Y-38914736D01*
X160840237Y-38962441D01*
X160811702Y-39005880D01*
X160774808Y-39113637D01*
X160654164Y-39599318D01*
X160650086Y-39651136D01*
X160637160Y-39701479D01*
X160637160Y-39815377D01*
X160649507Y-39957938D01*
X160449425Y-40158020D01*
X159705500Y-41954015D01*
X159705500Y-43897985D01*
X160449425Y-45693980D01*
X161824020Y-47068575D01*
X163620015Y-47812500D01*
X163713197Y-47812500D01*
X164017453Y-48015797D01*
X165257718Y-48262501D01*
X165676500Y-48345802D01*
X166095283Y-48262501D01*
X167868747Y-48262501D01*
X167325500Y-49574015D01*
X167325500Y-51517985D01*
X168069425Y-53313980D01*
X169444020Y-54688575D01*
X171240015Y-55432500D01*
X173183985Y-55432500D01*
X174979980Y-54688575D01*
X176354575Y-53313980D01*
X176720155Y-52431391D01*
X184403257Y-60114493D01*
X184640479Y-60469521D01*
X185613918Y-61119952D01*
X186046952Y-61409296D01*
X187706000Y-61739301D01*
X188124782Y-61656000D01*
X190696200Y-61656000D01*
X189815479Y-62244479D01*
X189578257Y-62599508D01*
X185249508Y-66928257D01*
X184894480Y-67165479D01*
X184616637Y-67581301D01*
X183954704Y-68571953D01*
X183624699Y-70231000D01*
X183708001Y-70649787D01*
X183708001Y-72560195D01*
X183370190Y-72493000D01*
X182389810Y-72493000D01*
X181610000Y-72648114D01*
X180830190Y-72493000D01*
X179849810Y-72493000D01*
X179070000Y-72648114D01*
X178290190Y-72493000D01*
X177309810Y-72493000D01*
X176530000Y-72648114D01*
X175750190Y-72493000D01*
X174769810Y-72493000D01*
X173990000Y-72648114D01*
X173210190Y-72493000D01*
X172229810Y-72493000D01*
X171450000Y-72648114D01*
X170670190Y-72493000D01*
X169689810Y-72493000D01*
X168910000Y-72648114D01*
X168130190Y-72493000D01*
X167149810Y-72493000D01*
X166370000Y-72648114D01*
X165590190Y-72493000D01*
X164609810Y-72493000D01*
X163830000Y-72648114D01*
X163050190Y-72493000D01*
X162069810Y-72493000D01*
X161290000Y-72648114D01*
X160510190Y-72493000D01*
X159529810Y-72493000D01*
X158750000Y-72648114D01*
X157970190Y-72493000D01*
X156989810Y-72493000D01*
X156210000Y-72648114D01*
X155430190Y-72493000D01*
X154449810Y-72493000D01*
X153670000Y-72648114D01*
X152890190Y-72493000D01*
X151909810Y-72493000D01*
X150458071Y-72781769D01*
X148811783Y-73881783D01*
X148756417Y-73964644D01*
X148679218Y-73980000D01*
X145926358Y-73980000D01*
X146925564Y-72980794D01*
X147237796Y-72227000D01*
X148310096Y-72227000D01*
X150102599Y-71484521D01*
X151474521Y-70112599D01*
X152217000Y-68320096D01*
X152217000Y-66379904D01*
X152191773Y-66319000D01*
X163768003Y-66319000D01*
X163819047Y-66308847D01*
X164316435Y-66230068D01*
X164512821Y-66166258D01*
X164973067Y-65931751D01*
X165140123Y-65810377D01*
X165505377Y-65445124D01*
X165626751Y-65278067D01*
X165861258Y-64817821D01*
X165925068Y-64621434D01*
X165925068Y-64621433D01*
X165971690Y-64327073D01*
X166739465Y-65094848D01*
X168642231Y-65883000D01*
X170701769Y-65883000D01*
X172172000Y-65274010D01*
X173642231Y-65883000D01*
X175701769Y-65883000D01*
X177604535Y-65094848D01*
X179060848Y-63638535D01*
X179849000Y-61735769D01*
X179849000Y-59676231D01*
X179060848Y-57773465D01*
X177604535Y-56317152D01*
X175701769Y-55529000D01*
X173642231Y-55529000D01*
X172172000Y-56137990D01*
X170701769Y-55529000D01*
X168642231Y-55529000D01*
X166739465Y-56317152D01*
X165283152Y-57773465D01*
X164495000Y-59676231D01*
X164495000Y-61735769D01*
X164550071Y-61868722D01*
X164512821Y-61849742D01*
X164485768Y-61840952D01*
X164316435Y-61785932D01*
X163819047Y-61707153D01*
X163768003Y-61697000D01*
X124648997Y-61697000D01*
X124597953Y-61707153D01*
X124100566Y-61785932D01*
X123904179Y-61849742D01*
X123443933Y-62084249D01*
X123276876Y-62205623D01*
X122911624Y-62570876D01*
X122911623Y-62570877D01*
X122790249Y-62737933D01*
X122555742Y-63198179D01*
X122491932Y-63394565D01*
X122411126Y-63904753D01*
X122411126Y-64111247D01*
X122491932Y-64621435D01*
X122535533Y-64755623D01*
X122555742Y-64817821D01*
X122790249Y-65278067D01*
X122911623Y-65445123D01*
X123276876Y-65810377D01*
X123376833Y-65883000D01*
X123443933Y-65931751D01*
X123904179Y-66166258D01*
X124100566Y-66230068D01*
X124597953Y-66308847D01*
X124648997Y-66319000D01*
X132047431Y-66319000D01*
X131242606Y-67523507D01*
X131122704Y-67702953D01*
X130792699Y-69362000D01*
X130876000Y-69780783D01*
X130876001Y-78171447D01*
X130746488Y-78365276D01*
X125559510Y-83552255D01*
X125204479Y-83789479D01*
X124379599Y-85024000D01*
X124264704Y-85195953D01*
X124260640Y-85216383D01*
X123694599Y-85594599D01*
X122782452Y-86959725D01*
X122462148Y-88570000D01*
X122462148Y-91770000D01*
X122782452Y-93380275D01*
X123694599Y-94745401D01*
X125059725Y-95657548D01*
X126670000Y-95977852D01*
X129870000Y-95977852D01*
X131480275Y-95657548D01*
X132845401Y-94745401D01*
X133757548Y-93380275D01*
X134077852Y-91770000D01*
X134077852Y-88570000D01*
X133827390Y-87310845D01*
X135263000Y-85875236D01*
X136172256Y-86784492D01*
X136409479Y-87139521D01*
X137815952Y-88079296D01*
X138076365Y-88131095D01*
X137670802Y-90170000D01*
X138115284Y-92404564D01*
X139190730Y-94014083D01*
X139066952Y-94038704D01*
X137660479Y-94978479D01*
X137423257Y-95333508D01*
X135003765Y-97753000D01*
X134882165Y-97753000D01*
X134838142Y-97771235D01*
X134340000Y-97672148D01*
X132360000Y-97672148D01*
X130749725Y-97992452D01*
X129384599Y-98904599D01*
X128472452Y-100269725D01*
X128416686Y-100550078D01*
X124683951Y-104282814D01*
X123860275Y-103732452D01*
X122250000Y-103412148D01*
X119050000Y-103412148D01*
X117439725Y-103732452D01*
X116074599Y-104644599D01*
X115162452Y-106009725D01*
X114842148Y-107620000D01*
X114842148Y-109794000D01*
X111135022Y-109794000D01*
X111199407Y-109470316D01*
X111955296Y-108339048D01*
X112202000Y-107098783D01*
X112202000Y-107098782D01*
X112285301Y-106680001D01*
X112202000Y-106261220D01*
X112202000Y-97288980D01*
X112827000Y-95780096D01*
X112827000Y-93839904D01*
X112084521Y-92047401D01*
X110712599Y-90675479D01*
X108920096Y-89933000D01*
X106979904Y-89933000D01*
X105471020Y-90558000D01*
X105428980Y-90558000D01*
X103920096Y-89933000D01*
X101979904Y-89933000D01*
X100187401Y-90675479D01*
X98815479Y-92047401D01*
X98073000Y-93839904D01*
X98073000Y-95780096D01*
X98815479Y-97572599D01*
X100187401Y-98944521D01*
X101979904Y-99687000D01*
X103698000Y-99687000D01*
X103698001Y-103721340D01*
X103175436Y-103825284D01*
X102103698Y-104541396D01*
X102021608Y-104128699D01*
X101795296Y-102990952D01*
X100855521Y-101584479D01*
X100500495Y-101347259D01*
X92709522Y-93556286D01*
X92084521Y-92047401D01*
X90712599Y-90675479D01*
X88920096Y-89933000D01*
X86979904Y-89933000D01*
X85471020Y-90558000D01*
X85428980Y-90558000D01*
X83920096Y-89933000D01*
X81979904Y-89933000D01*
X80187401Y-90675479D01*
X78815479Y-92047401D01*
X78073000Y-93839904D01*
X78073000Y-95780096D01*
X78815479Y-97572599D01*
X80187401Y-98944521D01*
X81979904Y-99687000D01*
X83920096Y-99687000D01*
X85428980Y-99062000D01*
X85471020Y-99062000D01*
X86696286Y-99569522D01*
X93082984Y-105956220D01*
X92395284Y-106985436D01*
X91950802Y-109220000D01*
X92064978Y-109794000D01*
X90987236Y-109794000D01*
X88244779Y-107051544D01*
X88037548Y-106009725D01*
X87125401Y-104644599D01*
X85760275Y-103732452D01*
X84150000Y-103412148D01*
X80950000Y-103412148D01*
X79339725Y-103732452D01*
X77974599Y-104644599D01*
X77062452Y-106009725D01*
X76742148Y-107620000D01*
X76742148Y-110820000D01*
X77062452Y-112430275D01*
X77974599Y-113795401D01*
X78369023Y-114058946D01*
X77155284Y-115875436D01*
X76710802Y-118110000D01*
X77155284Y-120344564D01*
X78421063Y-122238937D01*
X78894479Y-122555263D01*
X78899680Y-122563047D01*
X79484480Y-123438262D01*
X79839508Y-123675484D01*
X79964024Y-123800000D01*
X66700000Y-123800000D01*
X66700000Y-120428742D01*
X67424200Y-120428742D01*
X67541103Y-121179556D01*
X67864036Y-121867381D01*
X68367039Y-122436923D01*
X69009674Y-122842396D01*
X69740282Y-123051204D01*
X70500129Y-123046563D01*
X71228132Y-122828844D01*
X71865766Y-122415550D01*
X72361772Y-121839906D01*
X72676278Y-121148187D01*
X72784000Y-120396000D01*
X72783200Y-120330522D01*
X72657133Y-119581191D01*
X72325821Y-118897363D01*
X71815898Y-118334009D01*
X71168356Y-117936418D01*
X70435252Y-117736550D01*
X69675518Y-117750475D01*
X68950230Y-117977071D01*
X68317693Y-118398124D01*
X67828756Y-118979785D01*
X67522724Y-119675295D01*
X67424200Y-120428742D01*
X66700000Y-120428742D01*
X66700000Y-66339904D01*
X78073000Y-66339904D01*
X78073000Y-68280096D01*
X78815479Y-70072599D01*
X80187401Y-71444521D01*
X81979904Y-72187000D01*
X83920096Y-72187000D01*
X85712599Y-71444521D01*
X87084521Y-70072599D01*
X87827000Y-68280096D01*
X87827000Y-66339904D01*
X103073000Y-66339904D01*
X103073000Y-68280096D01*
X103815479Y-70072599D01*
X105187401Y-71444521D01*
X106979904Y-72187000D01*
X108920096Y-72187000D01*
X110712599Y-71444521D01*
X112084521Y-70072599D01*
X112827000Y-68280096D01*
X112827000Y-66339904D01*
X112084521Y-64547401D01*
X110712599Y-63175479D01*
X108920096Y-62433000D01*
X106979904Y-62433000D01*
X105187401Y-63175479D01*
X103815479Y-64547401D01*
X103073000Y-66339904D01*
X87827000Y-66339904D01*
X87084521Y-64547401D01*
X85712599Y-63175479D01*
X83920096Y-62433000D01*
X81979904Y-62433000D01*
X80187401Y-63175479D01*
X78815479Y-64547401D01*
X78073000Y-66339904D01*
X66700000Y-66339904D01*
X66700000Y-53550611D01*
X127813000Y-53550611D01*
X127813000Y-55749389D01*
X128654436Y-57780794D01*
X130209206Y-59335564D01*
X132240611Y-60177000D01*
X134439389Y-60177000D01*
X136470794Y-59335564D01*
X138025564Y-57780794D01*
X138867000Y-55749389D01*
X138867000Y-53550611D01*
X138025564Y-51519206D01*
X136470794Y-49964436D01*
X134439389Y-49123000D01*
X132240611Y-49123000D01*
X130209206Y-49964436D01*
X128654436Y-51519206D01*
X127813000Y-53550611D01*
X66700000Y-53550611D01*
X66700000Y-46908703D01*
X77730902Y-46908703D01*
X77835687Y-47180745D01*
X78463526Y-47415619D01*
X79133456Y-47392349D01*
X79644313Y-47180745D01*
X79749098Y-46908703D01*
X82730902Y-46908703D01*
X82835687Y-47180745D01*
X83463526Y-47415619D01*
X84133456Y-47392349D01*
X84644313Y-47180745D01*
X84749098Y-46908703D01*
X83740000Y-45899605D01*
X82730902Y-46908703D01*
X79749098Y-46908703D01*
X78740000Y-45899605D01*
X77730902Y-46908703D01*
X66700000Y-46908703D01*
X66700000Y-45443526D01*
X77044381Y-45443526D01*
X77067651Y-46113456D01*
X77279255Y-46624313D01*
X77551297Y-46729098D01*
X78560395Y-45720000D01*
X78919605Y-45720000D01*
X79928703Y-46729098D01*
X80200745Y-46624313D01*
X80435619Y-45996474D01*
X80416413Y-45443526D01*
X82044381Y-45443526D01*
X82067651Y-46113456D01*
X82279255Y-46624313D01*
X82551297Y-46729098D01*
X83560395Y-45720000D01*
X83919605Y-45720000D01*
X84928703Y-46729098D01*
X85200745Y-46624313D01*
X85435619Y-45996474D01*
X85412349Y-45326544D01*
X85200745Y-44815687D01*
X84928703Y-44710902D01*
X83919605Y-45720000D01*
X83560395Y-45720000D01*
X82551297Y-44710902D01*
X82279255Y-44815687D01*
X82044381Y-45443526D01*
X80416413Y-45443526D01*
X80412349Y-45326544D01*
X80200745Y-44815687D01*
X79928703Y-44710902D01*
X78919605Y-45720000D01*
X78560395Y-45720000D01*
X77551297Y-44710902D01*
X77279255Y-44815687D01*
X77044381Y-45443526D01*
X66700000Y-45443526D01*
X66700000Y-44531297D01*
X77730902Y-44531297D01*
X78740000Y-45540395D01*
X79749098Y-44531297D01*
X82730902Y-44531297D01*
X83740000Y-45540395D01*
X84590164Y-44690231D01*
X92867000Y-44690231D01*
X92867000Y-46749769D01*
X93655152Y-48652535D01*
X95111465Y-50108848D01*
X97014231Y-50897000D01*
X99073769Y-50897000D01*
X100544000Y-50288010D01*
X102014231Y-50897000D01*
X104073769Y-50897000D01*
X105976535Y-50108848D01*
X107432848Y-48652535D01*
X108221000Y-46749769D01*
X108221000Y-44690231D01*
X112298000Y-44690231D01*
X112298000Y-46749769D01*
X113086152Y-48652535D01*
X114542465Y-50108848D01*
X116445231Y-50897000D01*
X118504769Y-50897000D01*
X119975000Y-50288010D01*
X121445231Y-50897000D01*
X123504769Y-50897000D01*
X125407535Y-50108848D01*
X126863848Y-48652535D01*
X127652000Y-46749769D01*
X127652000Y-44690231D01*
X127138533Y-43450611D01*
X145613000Y-43450611D01*
X145613000Y-45649389D01*
X146454436Y-47680794D01*
X147123642Y-48350000D01*
X146454436Y-49019206D01*
X145613000Y-51050611D01*
X145613000Y-53249389D01*
X146454436Y-55280794D01*
X148009206Y-56835564D01*
X150040611Y-57677000D01*
X152239389Y-57677000D01*
X154270794Y-56835564D01*
X155825564Y-55280794D01*
X156667000Y-53249389D01*
X156667000Y-51050611D01*
X155825564Y-49019206D01*
X155156358Y-48350000D01*
X155825564Y-47680794D01*
X156667000Y-45649389D01*
X156667000Y-43450611D01*
X155825564Y-41419206D01*
X154270794Y-39864436D01*
X152239389Y-39023000D01*
X150040611Y-39023000D01*
X148009206Y-39864436D01*
X146454436Y-41419206D01*
X145613000Y-43450611D01*
X127138533Y-43450611D01*
X126863848Y-42787465D01*
X125407535Y-41331152D01*
X123504769Y-40543000D01*
X121445231Y-40543000D01*
X119975000Y-41151990D01*
X118504769Y-40543000D01*
X116445231Y-40543000D01*
X114542465Y-41331152D01*
X113086152Y-42787465D01*
X112298000Y-44690231D01*
X108221000Y-44690231D01*
X107432848Y-42787465D01*
X105976535Y-41331152D01*
X104073769Y-40543000D01*
X102014231Y-40543000D01*
X100544000Y-41151990D01*
X99073769Y-40543000D01*
X97014231Y-40543000D01*
X95111465Y-41331152D01*
X93655152Y-42787465D01*
X92867000Y-44690231D01*
X84590164Y-44690231D01*
X84749098Y-44531297D01*
X84644313Y-44259255D01*
X84016474Y-44024381D01*
X83346544Y-44047651D01*
X82835687Y-44259255D01*
X82730902Y-44531297D01*
X79749098Y-44531297D01*
X79644313Y-44259255D01*
X79016474Y-44024381D01*
X78346544Y-44047651D01*
X77835687Y-44259255D01*
X77730902Y-44531297D01*
X66700000Y-44531297D01*
X66700000Y-40926742D01*
X67392200Y-40926742D01*
X67509103Y-41677556D01*
X67832036Y-42365381D01*
X68335039Y-42934923D01*
X68977674Y-43340396D01*
X69708282Y-43549204D01*
X70468129Y-43544563D01*
X71196132Y-43326844D01*
X71833766Y-42913550D01*
X72329772Y-42337906D01*
X72644278Y-41646187D01*
X72752000Y-40894000D01*
X72751200Y-40828522D01*
X72625133Y-40079191D01*
X72293821Y-39395363D01*
X71783898Y-38832009D01*
X71136356Y-38434418D01*
X70403252Y-38234550D01*
X69643518Y-38248475D01*
X68918230Y-38475071D01*
X68285693Y-38896124D01*
X67796756Y-39477785D01*
X67490724Y-40173295D01*
X67392200Y-40926742D01*
X66700000Y-40926742D01*
X66700000Y-32410000D01*
X221590001Y-32410000D01*
X221590000Y-34355002D01*
X221590000Y-34355002D01*
G37*
X221590000Y-34355002D02*
X221590001Y-34355007D01*
X221590000Y-36764997D01*
X221590000Y-36764998D01*
X221590001Y-39304993D01*
X221590000Y-39304998D01*
X221590000Y-59277764D01*
X217005745Y-54693510D01*
X216768521Y-54338479D01*
X215362048Y-53398704D01*
X214121783Y-53152000D01*
X214121782Y-53152000D01*
X213703000Y-53068699D01*
X213284218Y-53152000D01*
X211114384Y-53152000D01*
X210450476Y-52877000D01*
X208649524Y-52877000D01*
X206985661Y-53566195D01*
X206307546Y-54244310D01*
X203454745Y-51391510D01*
X203217521Y-51036479D01*
X201811048Y-50096704D01*
X200570783Y-49850000D01*
X200570782Y-49850000D01*
X200152000Y-49766699D01*
X199733218Y-49850000D01*
X197112610Y-49850000D01*
X198940535Y-49092848D01*
X200396848Y-47636535D01*
X201066562Y-46019703D01*
X203841902Y-46019703D01*
X203946687Y-46291745D01*
X204574526Y-46526619D01*
X205244456Y-46503349D01*
X205755313Y-46291745D01*
X205860098Y-46019703D01*
X208841902Y-46019703D01*
X208946687Y-46291745D01*
X209574526Y-46526619D01*
X210244456Y-46503349D01*
X210755313Y-46291745D01*
X210860098Y-46019703D01*
X209851000Y-45010605D01*
X208841902Y-46019703D01*
X205860098Y-46019703D01*
X204851000Y-45010605D01*
X203841902Y-46019703D01*
X201066562Y-46019703D01*
X201185000Y-45733769D01*
X201185000Y-44554526D01*
X203155381Y-44554526D01*
X203178651Y-45224456D01*
X203390255Y-45735313D01*
X203662297Y-45840098D01*
X204671395Y-44831000D01*
X205030605Y-44831000D01*
X206039703Y-45840098D01*
X206311745Y-45735313D01*
X206546619Y-45107474D01*
X206527413Y-44554526D01*
X208155381Y-44554526D01*
X208178651Y-45224456D01*
X208390255Y-45735313D01*
X208662297Y-45840098D01*
X209671395Y-44831000D01*
X210030605Y-44831000D01*
X211039703Y-45840098D01*
X211311745Y-45735313D01*
X211546619Y-45107474D01*
X211523349Y-44437544D01*
X211311745Y-43926687D01*
X211039703Y-43821902D01*
X210030605Y-44831000D01*
X209671395Y-44831000D01*
X208662297Y-43821902D01*
X208390255Y-43926687D01*
X208155381Y-44554526D01*
X206527413Y-44554526D01*
X206523349Y-44437544D01*
X206311745Y-43926687D01*
X206039703Y-43821902D01*
X205030605Y-44831000D01*
X204671395Y-44831000D01*
X203662297Y-43821902D01*
X203390255Y-43926687D01*
X203155381Y-44554526D01*
X201185000Y-44554526D01*
X201185000Y-43674231D01*
X201171773Y-43642297D01*
X203841902Y-43642297D01*
X204851000Y-44651395D01*
X205860098Y-43642297D01*
X208841902Y-43642297D01*
X209851000Y-44651395D01*
X210860098Y-43642297D01*
X210755313Y-43370255D01*
X210127474Y-43135381D01*
X209457544Y-43158651D01*
X208946687Y-43370255D01*
X208841902Y-43642297D01*
X205860098Y-43642297D01*
X205755313Y-43370255D01*
X205127474Y-43135381D01*
X204457544Y-43158651D01*
X203946687Y-43370255D01*
X203841902Y-43642297D01*
X201171773Y-43642297D01*
X200396848Y-41771465D01*
X199552125Y-40926742D01*
X215474200Y-40926742D01*
X215591103Y-41677556D01*
X215914036Y-42365381D01*
X216417039Y-42934923D01*
X217059674Y-43340396D01*
X217790282Y-43549204D01*
X218550129Y-43544563D01*
X219278132Y-43326844D01*
X219915766Y-42913550D01*
X220411772Y-42337906D01*
X220726278Y-41646187D01*
X220834000Y-40894000D01*
X220833200Y-40828522D01*
X220707133Y-40079191D01*
X220375821Y-39395363D01*
X219865898Y-38832009D01*
X219218356Y-38434418D01*
X218485252Y-38234550D01*
X217725518Y-38248475D01*
X217000230Y-38475071D01*
X216367693Y-38896124D01*
X215878756Y-39477785D01*
X215572724Y-40173295D01*
X215474200Y-40926742D01*
X199552125Y-40926742D01*
X198940535Y-40315152D01*
X197037769Y-39527000D01*
X194978231Y-39527000D01*
X193508000Y-40135990D01*
X192037769Y-39527000D01*
X189978231Y-39527000D01*
X188075465Y-40315152D01*
X186619152Y-41771465D01*
X186426296Y-42237061D01*
X184404745Y-40215510D01*
X184167521Y-39860479D01*
X183756089Y-39585569D01*
X183743659Y-39442048D01*
X183730733Y-39391704D01*
X183726655Y-39339887D01*
X183689761Y-39232129D01*
X183487411Y-38774422D01*
X183458873Y-38730978D01*
X183438231Y-38683277D01*
X183368423Y-38593280D01*
X183028723Y-38225795D01*
X182987651Y-38193937D01*
X182952672Y-38155495D01*
X182857475Y-38092962D01*
X182417055Y-37855324D01*
X182367879Y-37838487D01*
X182322333Y-37813448D01*
X182212017Y-37785124D01*
X182212014Y-37785123D01*
X182212013Y-37785123D01*
X181728592Y-37704660D01*
X181675003Y-37694000D01*
X162748997Y-37694000D01*
X162720872Y-37699595D01*
X162495032Y-37719154D01*
X162469732Y-37725650D01*
X162443616Y-37725650D01*
X162333296Y-37753975D01*
X161861123Y-37919791D01*
X161815575Y-37944832D01*
X161766402Y-37961667D01*
X161671205Y-38024200D01*
X161278200Y-38334020D01*
X161243218Y-38372465D01*
X161202149Y-38404321D01*
X161132340Y-38494318D01*
X160860880Y-38914736D01*
X160840237Y-38962441D01*
X160811702Y-39005880D01*
X160774808Y-39113637D01*
X160654164Y-39599318D01*
X160650086Y-39651136D01*
X160637160Y-39701479D01*
X160637160Y-39815377D01*
X160649507Y-39957938D01*
X160449425Y-40158020D01*
X159705500Y-41954015D01*
X159705500Y-43897985D01*
X160449425Y-45693980D01*
X161824020Y-47068575D01*
X163620015Y-47812500D01*
X163713197Y-47812500D01*
X164017453Y-48015797D01*
X165257718Y-48262501D01*
X165676500Y-48345802D01*
X166095283Y-48262501D01*
X167868747Y-48262501D01*
X167325500Y-49574015D01*
X167325500Y-51517985D01*
X168069425Y-53313980D01*
X169444020Y-54688575D01*
X171240015Y-55432500D01*
X173183985Y-55432500D01*
X174979980Y-54688575D01*
X176354575Y-53313980D01*
X176720155Y-52431391D01*
X184403257Y-60114493D01*
X184640479Y-60469521D01*
X185613918Y-61119952D01*
X186046952Y-61409296D01*
X187706000Y-61739301D01*
X188124782Y-61656000D01*
X190696200Y-61656000D01*
X189815479Y-62244479D01*
X189578257Y-62599508D01*
X185249508Y-66928257D01*
X184894480Y-67165479D01*
X184616637Y-67581301D01*
X183954704Y-68571953D01*
X183624699Y-70231000D01*
X183708001Y-70649787D01*
X183708001Y-72560195D01*
X183370190Y-72493000D01*
X182389810Y-72493000D01*
X181610000Y-72648114D01*
X180830190Y-72493000D01*
X179849810Y-72493000D01*
X179070000Y-72648114D01*
X178290190Y-72493000D01*
X177309810Y-72493000D01*
X176530000Y-72648114D01*
X175750190Y-72493000D01*
X174769810Y-72493000D01*
X173990000Y-72648114D01*
X173210190Y-72493000D01*
X172229810Y-72493000D01*
X171450000Y-72648114D01*
X170670190Y-72493000D01*
X169689810Y-72493000D01*
X168910000Y-72648114D01*
X168130190Y-72493000D01*
X167149810Y-72493000D01*
X166370000Y-72648114D01*
X165590190Y-72493000D01*
X164609810Y-72493000D01*
X163830000Y-72648114D01*
X163050190Y-72493000D01*
X162069810Y-72493000D01*
X161290000Y-72648114D01*
X160510190Y-72493000D01*
X159529810Y-72493000D01*
X158750000Y-72648114D01*
X157970190Y-72493000D01*
X156989810Y-72493000D01*
X156210000Y-72648114D01*
X155430190Y-72493000D01*
X154449810Y-72493000D01*
X153670000Y-72648114D01*
X152890190Y-72493000D01*
X151909810Y-72493000D01*
X150458071Y-72781769D01*
X148811783Y-73881783D01*
X148756417Y-73964644D01*
X148679218Y-73980000D01*
X145926358Y-73980000D01*
X146925564Y-72980794D01*
X147237796Y-72227000D01*
X148310096Y-72227000D01*
X150102599Y-71484521D01*
X151474521Y-70112599D01*
X152217000Y-68320096D01*
X152217000Y-66379904D01*
X152191773Y-66319000D01*
X163768003Y-66319000D01*
X163819047Y-66308847D01*
X164316435Y-66230068D01*
X164512821Y-66166258D01*
X164973067Y-65931751D01*
X165140123Y-65810377D01*
X165505377Y-65445124D01*
X165626751Y-65278067D01*
X165861258Y-64817821D01*
X165925068Y-64621434D01*
X165925068Y-64621433D01*
X165971690Y-64327073D01*
X166739465Y-65094848D01*
X168642231Y-65883000D01*
X170701769Y-65883000D01*
X172172000Y-65274010D01*
X173642231Y-65883000D01*
X175701769Y-65883000D01*
X177604535Y-65094848D01*
X179060848Y-63638535D01*
X179849000Y-61735769D01*
X179849000Y-59676231D01*
X179060848Y-57773465D01*
X177604535Y-56317152D01*
X175701769Y-55529000D01*
X173642231Y-55529000D01*
X172172000Y-56137990D01*
X170701769Y-55529000D01*
X168642231Y-55529000D01*
X166739465Y-56317152D01*
X165283152Y-57773465D01*
X164495000Y-59676231D01*
X164495000Y-61735769D01*
X164550071Y-61868722D01*
X164512821Y-61849742D01*
X164485768Y-61840952D01*
X164316435Y-61785932D01*
X163819047Y-61707153D01*
X163768003Y-61697000D01*
X124648997Y-61697000D01*
X124597953Y-61707153D01*
X124100566Y-61785932D01*
X123904179Y-61849742D01*
X123443933Y-62084249D01*
X123276876Y-62205623D01*
X122911624Y-62570876D01*
X122911623Y-62570877D01*
X122790249Y-62737933D01*
X122555742Y-63198179D01*
X122491932Y-63394565D01*
X122411126Y-63904753D01*
X122411126Y-64111247D01*
X122491932Y-64621435D01*
X122535533Y-64755623D01*
X122555742Y-64817821D01*
X122790249Y-65278067D01*
X122911623Y-65445123D01*
X123276876Y-65810377D01*
X123376833Y-65883000D01*
X123443933Y-65931751D01*
X123904179Y-66166258D01*
X124100566Y-66230068D01*
X124597953Y-66308847D01*
X124648997Y-66319000D01*
X132047431Y-66319000D01*
X131242606Y-67523507D01*
X131122704Y-67702953D01*
X130792699Y-69362000D01*
X130876000Y-69780783D01*
X130876001Y-78171447D01*
X130746488Y-78365276D01*
X125559510Y-83552255D01*
X125204479Y-83789479D01*
X124379599Y-85024000D01*
X124264704Y-85195953D01*
X124260640Y-85216383D01*
X123694599Y-85594599D01*
X122782452Y-86959725D01*
X122462148Y-88570000D01*
X122462148Y-91770000D01*
X122782452Y-93380275D01*
X123694599Y-94745401D01*
X125059725Y-95657548D01*
X126670000Y-95977852D01*
X129870000Y-95977852D01*
X131480275Y-95657548D01*
X132845401Y-94745401D01*
X133757548Y-93380275D01*
X134077852Y-91770000D01*
X134077852Y-88570000D01*
X133827390Y-87310845D01*
X135263000Y-85875236D01*
X136172256Y-86784492D01*
X136409479Y-87139521D01*
X137815952Y-88079296D01*
X138076365Y-88131095D01*
X137670802Y-90170000D01*
X138115284Y-92404564D01*
X139190730Y-94014083D01*
X139066952Y-94038704D01*
X137660479Y-94978479D01*
X137423257Y-95333508D01*
X135003765Y-97753000D01*
X134882165Y-97753000D01*
X134838142Y-97771235D01*
X134340000Y-97672148D01*
X132360000Y-97672148D01*
X130749725Y-97992452D01*
X129384599Y-98904599D01*
X128472452Y-100269725D01*
X128416686Y-100550078D01*
X124683951Y-104282814D01*
X123860275Y-103732452D01*
X122250000Y-103412148D01*
X119050000Y-103412148D01*
X117439725Y-103732452D01*
X116074599Y-104644599D01*
X115162452Y-106009725D01*
X114842148Y-107620000D01*
X114842148Y-109794000D01*
X111135022Y-109794000D01*
X111199407Y-109470316D01*
X111955296Y-108339048D01*
X112202000Y-107098783D01*
X112202000Y-107098782D01*
X112285301Y-106680001D01*
X112202000Y-106261220D01*
X112202000Y-97288980D01*
X112827000Y-95780096D01*
X112827000Y-93839904D01*
X112084521Y-92047401D01*
X110712599Y-90675479D01*
X108920096Y-89933000D01*
X106979904Y-89933000D01*
X105471020Y-90558000D01*
X105428980Y-90558000D01*
X103920096Y-89933000D01*
X101979904Y-89933000D01*
X100187401Y-90675479D01*
X98815479Y-92047401D01*
X98073000Y-93839904D01*
X98073000Y-95780096D01*
X98815479Y-97572599D01*
X100187401Y-98944521D01*
X101979904Y-99687000D01*
X103698000Y-99687000D01*
X103698001Y-103721340D01*
X103175436Y-103825284D01*
X102103698Y-104541396D01*
X102021608Y-104128699D01*
X101795296Y-102990952D01*
X100855521Y-101584479D01*
X100500495Y-101347259D01*
X92709522Y-93556286D01*
X92084521Y-92047401D01*
X90712599Y-90675479D01*
X88920096Y-89933000D01*
X86979904Y-89933000D01*
X85471020Y-90558000D01*
X85428980Y-90558000D01*
X83920096Y-89933000D01*
X81979904Y-89933000D01*
X80187401Y-90675479D01*
X78815479Y-92047401D01*
X78073000Y-93839904D01*
X78073000Y-95780096D01*
X78815479Y-97572599D01*
X80187401Y-98944521D01*
X81979904Y-99687000D01*
X83920096Y-99687000D01*
X85428980Y-99062000D01*
X85471020Y-99062000D01*
X86696286Y-99569522D01*
X93082984Y-105956220D01*
X92395284Y-106985436D01*
X91950802Y-109220000D01*
X92064978Y-109794000D01*
X90987236Y-109794000D01*
X88244779Y-107051544D01*
X88037548Y-106009725D01*
X87125401Y-104644599D01*
X85760275Y-103732452D01*
X84150000Y-103412148D01*
X80950000Y-103412148D01*
X79339725Y-103732452D01*
X77974599Y-104644599D01*
X77062452Y-106009725D01*
X76742148Y-107620000D01*
X76742148Y-110820000D01*
X77062452Y-112430275D01*
X77974599Y-113795401D01*
X78369023Y-114058946D01*
X77155284Y-115875436D01*
X76710802Y-118110000D01*
X77155284Y-120344564D01*
X78421063Y-122238937D01*
X78894479Y-122555263D01*
X78899680Y-122563047D01*
X79484480Y-123438262D01*
X79839508Y-123675484D01*
X79964024Y-123800000D01*
X66700000Y-123800000D01*
X66700000Y-120428742D01*
X67424200Y-120428742D01*
X67541103Y-121179556D01*
X67864036Y-121867381D01*
X68367039Y-122436923D01*
X69009674Y-122842396D01*
X69740282Y-123051204D01*
X70500129Y-123046563D01*
X71228132Y-122828844D01*
X71865766Y-122415550D01*
X72361772Y-121839906D01*
X72676278Y-121148187D01*
X72784000Y-120396000D01*
X72783200Y-120330522D01*
X72657133Y-119581191D01*
X72325821Y-118897363D01*
X71815898Y-118334009D01*
X71168356Y-117936418D01*
X70435252Y-117736550D01*
X69675518Y-117750475D01*
X68950230Y-117977071D01*
X68317693Y-118398124D01*
X67828756Y-118979785D01*
X67522724Y-119675295D01*
X67424200Y-120428742D01*
X66700000Y-120428742D01*
X66700000Y-66339904D01*
X78073000Y-66339904D01*
X78073000Y-68280096D01*
X78815479Y-70072599D01*
X80187401Y-71444521D01*
X81979904Y-72187000D01*
X83920096Y-72187000D01*
X85712599Y-71444521D01*
X87084521Y-70072599D01*
X87827000Y-68280096D01*
X87827000Y-66339904D01*
X103073000Y-66339904D01*
X103073000Y-68280096D01*
X103815479Y-70072599D01*
X105187401Y-71444521D01*
X106979904Y-72187000D01*
X108920096Y-72187000D01*
X110712599Y-71444521D01*
X112084521Y-70072599D01*
X112827000Y-68280096D01*
X112827000Y-66339904D01*
X112084521Y-64547401D01*
X110712599Y-63175479D01*
X108920096Y-62433000D01*
X106979904Y-62433000D01*
X105187401Y-63175479D01*
X103815479Y-64547401D01*
X103073000Y-66339904D01*
X87827000Y-66339904D01*
X87084521Y-64547401D01*
X85712599Y-63175479D01*
X83920096Y-62433000D01*
X81979904Y-62433000D01*
X80187401Y-63175479D01*
X78815479Y-64547401D01*
X78073000Y-66339904D01*
X66700000Y-66339904D01*
X66700000Y-53550611D01*
X127813000Y-53550611D01*
X127813000Y-55749389D01*
X128654436Y-57780794D01*
X130209206Y-59335564D01*
X132240611Y-60177000D01*
X134439389Y-60177000D01*
X136470794Y-59335564D01*
X138025564Y-57780794D01*
X138867000Y-55749389D01*
X138867000Y-53550611D01*
X138025564Y-51519206D01*
X136470794Y-49964436D01*
X134439389Y-49123000D01*
X132240611Y-49123000D01*
X130209206Y-49964436D01*
X128654436Y-51519206D01*
X127813000Y-53550611D01*
X66700000Y-53550611D01*
X66700000Y-46908703D01*
X77730902Y-46908703D01*
X77835687Y-47180745D01*
X78463526Y-47415619D01*
X79133456Y-47392349D01*
X79644313Y-47180745D01*
X79749098Y-46908703D01*
X82730902Y-46908703D01*
X82835687Y-47180745D01*
X83463526Y-47415619D01*
X84133456Y-47392349D01*
X84644313Y-47180745D01*
X84749098Y-46908703D01*
X83740000Y-45899605D01*
X82730902Y-46908703D01*
X79749098Y-46908703D01*
X78740000Y-45899605D01*
X77730902Y-46908703D01*
X66700000Y-46908703D01*
X66700000Y-45443526D01*
X77044381Y-45443526D01*
X77067651Y-46113456D01*
X77279255Y-46624313D01*
X77551297Y-46729098D01*
X78560395Y-45720000D01*
X78919605Y-45720000D01*
X79928703Y-46729098D01*
X80200745Y-46624313D01*
X80435619Y-45996474D01*
X80416413Y-45443526D01*
X82044381Y-45443526D01*
X82067651Y-46113456D01*
X82279255Y-46624313D01*
X82551297Y-46729098D01*
X83560395Y-45720000D01*
X83919605Y-45720000D01*
X84928703Y-46729098D01*
X85200745Y-46624313D01*
X85435619Y-45996474D01*
X85412349Y-45326544D01*
X85200745Y-44815687D01*
X84928703Y-44710902D01*
X83919605Y-45720000D01*
X83560395Y-45720000D01*
X82551297Y-44710902D01*
X82279255Y-44815687D01*
X82044381Y-45443526D01*
X80416413Y-45443526D01*
X80412349Y-45326544D01*
X80200745Y-44815687D01*
X79928703Y-44710902D01*
X78919605Y-45720000D01*
X78560395Y-45720000D01*
X77551297Y-44710902D01*
X77279255Y-44815687D01*
X77044381Y-45443526D01*
X66700000Y-45443526D01*
X66700000Y-44531297D01*
X77730902Y-44531297D01*
X78740000Y-45540395D01*
X79749098Y-44531297D01*
X82730902Y-44531297D01*
X83740000Y-45540395D01*
X84590164Y-44690231D01*
X92867000Y-44690231D01*
X92867000Y-46749769D01*
X93655152Y-48652535D01*
X95111465Y-50108848D01*
X97014231Y-50897000D01*
X99073769Y-50897000D01*
X100544000Y-50288010D01*
X102014231Y-50897000D01*
X104073769Y-50897000D01*
X105976535Y-50108848D01*
X107432848Y-48652535D01*
X108221000Y-46749769D01*
X108221000Y-44690231D01*
X112298000Y-44690231D01*
X112298000Y-46749769D01*
X113086152Y-48652535D01*
X114542465Y-50108848D01*
X116445231Y-50897000D01*
X118504769Y-50897000D01*
X119975000Y-50288010D01*
X121445231Y-50897000D01*
X123504769Y-50897000D01*
X125407535Y-50108848D01*
X126863848Y-48652535D01*
X127652000Y-46749769D01*
X127652000Y-44690231D01*
X127138533Y-43450611D01*
X145613000Y-43450611D01*
X145613000Y-45649389D01*
X146454436Y-47680794D01*
X147123642Y-48350000D01*
X146454436Y-49019206D01*
X145613000Y-51050611D01*
X145613000Y-53249389D01*
X146454436Y-55280794D01*
X148009206Y-56835564D01*
X150040611Y-57677000D01*
X152239389Y-57677000D01*
X154270794Y-56835564D01*
X155825564Y-55280794D01*
X156667000Y-53249389D01*
X156667000Y-51050611D01*
X155825564Y-49019206D01*
X155156358Y-48350000D01*
X155825564Y-47680794D01*
X156667000Y-45649389D01*
X156667000Y-43450611D01*
X155825564Y-41419206D01*
X154270794Y-39864436D01*
X152239389Y-39023000D01*
X150040611Y-39023000D01*
X148009206Y-39864436D01*
X146454436Y-41419206D01*
X145613000Y-43450611D01*
X127138533Y-43450611D01*
X126863848Y-42787465D01*
X125407535Y-41331152D01*
X123504769Y-40543000D01*
X121445231Y-40543000D01*
X119975000Y-41151990D01*
X118504769Y-40543000D01*
X116445231Y-40543000D01*
X114542465Y-41331152D01*
X113086152Y-42787465D01*
X112298000Y-44690231D01*
X108221000Y-44690231D01*
X107432848Y-42787465D01*
X105976535Y-41331152D01*
X104073769Y-40543000D01*
X102014231Y-40543000D01*
X100544000Y-41151990D01*
X99073769Y-40543000D01*
X97014231Y-40543000D01*
X95111465Y-41331152D01*
X93655152Y-42787465D01*
X92867000Y-44690231D01*
X84590164Y-44690231D01*
X84749098Y-44531297D01*
X84644313Y-44259255D01*
X84016474Y-44024381D01*
X83346544Y-44047651D01*
X82835687Y-44259255D01*
X82730902Y-44531297D01*
X79749098Y-44531297D01*
X79644313Y-44259255D01*
X79016474Y-44024381D01*
X78346544Y-44047651D01*
X77835687Y-44259255D01*
X77730902Y-44531297D01*
X66700000Y-44531297D01*
X66700000Y-40926742D01*
X67392200Y-40926742D01*
X67509103Y-41677556D01*
X67832036Y-42365381D01*
X68335039Y-42934923D01*
X68977674Y-43340396D01*
X69708282Y-43549204D01*
X70468129Y-43544563D01*
X71196132Y-43326844D01*
X71833766Y-42913550D01*
X72329772Y-42337906D01*
X72644278Y-41646187D01*
X72752000Y-40894000D01*
X72751200Y-40828522D01*
X72625133Y-40079191D01*
X72293821Y-39395363D01*
X71783898Y-38832009D01*
X71136356Y-38434418D01*
X70403252Y-38234550D01*
X69643518Y-38248475D01*
X68918230Y-38475071D01*
X68285693Y-38896124D01*
X67796756Y-39477785D01*
X67490724Y-40173295D01*
X67392200Y-40926742D01*
X66700000Y-40926742D01*
X66700000Y-32410000D01*
X221590001Y-32410000D01*
X221590000Y-34355002D01*
G04 #@! TD*
M02*
