G04 #@! TF.GenerationSoftware,KiCad,Pcbnew,(5.1.4)-1*
G04 #@! TF.CreationDate,2021-06-15T15:36:41+02:00*
G04 #@! TF.ProjectId,IOT SMART SWITCH,494f5420-534d-4415-9254-205357495443,1.0*
G04 #@! TF.SameCoordinates,Original*
G04 #@! TF.FileFunction,Copper,L2,Bot*
G04 #@! TF.FilePolarity,Positive*
%FSLAX46Y46*%
G04 Gerber Fmt 4.6, Leading zero omitted, Abs format (unit mm)*
G04 Created by KiCad (PCBNEW (5.1.4)-1) date 2021-06-15 15:36:41*
%MOMM*%
%LPD*%
G04 APERTURE LIST*
%ADD10O,1.700000X1.700000*%
%ADD11R,1.700000X1.700000*%
%ADD12R,1.600000X1.600000*%
%ADD13C,1.600000*%
%ADD14C,1.519000*%
%ADD15C,2.100000*%
%ADD16C,1.500000*%
%ADD17O,3.200000X3.200000*%
%ADD18R,3.200000X3.200000*%
%ADD19C,1.800000*%
%ADD20R,1.800000X1.800000*%
%ADD21C,2.800000*%
%ADD22O,1.050000X1.500000*%
%ADD23R,1.050000X1.500000*%
%ADD24O,1.600000X1.600000*%
%ADD25C,1.980000*%
%ADD26R,1.980000X1.980000*%
%ADD27C,0.800000*%
%ADD28C,0.250000*%
%ADD29C,2.000000*%
%ADD30C,0.254000*%
G04 APERTURE END LIST*
D10*
X152400000Y-77470000D03*
X154940000Y-77470000D03*
X157480000Y-77470000D03*
X160020000Y-77470000D03*
X162560000Y-77470000D03*
X165100000Y-77470000D03*
X167640000Y-77470000D03*
X170180000Y-77470000D03*
X172720000Y-77470000D03*
X175260000Y-77470000D03*
X177800000Y-77470000D03*
X180340000Y-77470000D03*
X182880000Y-77470000D03*
X185420000Y-77470000D03*
X187960000Y-77470000D03*
D11*
X190500000Y-77470000D03*
D12*
X163830000Y-113030000D03*
D13*
X165830000Y-113030000D03*
D14*
X164592000Y-42926000D03*
X179832000Y-42926000D03*
X172212000Y-50546000D03*
D15*
X169672000Y-60706000D03*
X174672000Y-60706000D03*
D16*
X107950000Y-67310000D03*
X82950000Y-67310000D03*
X82950000Y-94810000D03*
X87950000Y-94810000D03*
X102950000Y-94810000D03*
X107950000Y-94810000D03*
D12*
X127000000Y-118110000D03*
D13*
X129500000Y-118110000D03*
X200660000Y-65310000D03*
D12*
X200660000Y-67310000D03*
D13*
X129000000Y-109220000D03*
D12*
X127000000Y-109220000D03*
X138430000Y-111760000D03*
D13*
X138430000Y-113760000D03*
D12*
X190500000Y-83820000D03*
D13*
X188500000Y-83820000D03*
X158750000Y-113030000D03*
D12*
X156750000Y-113030000D03*
D17*
X143510000Y-90170000D03*
D18*
X128270000Y-90170000D03*
X120650000Y-109220000D03*
D17*
X105410000Y-109220000D03*
X120650000Y-118110000D03*
D18*
X105410000Y-118110000D03*
X82550000Y-109220000D03*
D17*
X97790000Y-109220000D03*
D18*
X97790000Y-118110000D03*
D17*
X82550000Y-118110000D03*
D19*
X201930000Y-110490000D03*
D20*
X199390000Y-110490000D03*
X186690000Y-109220000D03*
D19*
X189230000Y-109220000D03*
D20*
X186690000Y-118110000D03*
D19*
X189230000Y-118110000D03*
D11*
X190500000Y-102870000D03*
D10*
X187960000Y-102870000D03*
X185420000Y-102870000D03*
X182880000Y-102870000D03*
X180340000Y-102870000D03*
X177800000Y-102870000D03*
X175260000Y-102870000D03*
X172720000Y-102870000D03*
X170180000Y-102870000D03*
X167640000Y-102870000D03*
X165100000Y-102870000D03*
X162560000Y-102870000D03*
X160020000Y-102870000D03*
X157480000Y-102870000D03*
X154940000Y-102870000D03*
X152400000Y-102870000D03*
D21*
X142240000Y-69850000D03*
D16*
X147340000Y-67350000D03*
D21*
X151140000Y-52150000D03*
X151140000Y-44550000D03*
X133340000Y-54650000D03*
D16*
X137140000Y-67350000D03*
D22*
X136398000Y-80772000D03*
X137668000Y-80772000D03*
D23*
X135128000Y-80772000D03*
D24*
X209804000Y-88392000D03*
X202184000Y-93472000D03*
X209804000Y-90932000D03*
X202184000Y-90932000D03*
X209804000Y-93472000D03*
D12*
X202184000Y-88392000D03*
D25*
X138450000Y-102870000D03*
X135900000Y-102870000D03*
D26*
X133350000Y-102870000D03*
X143510000Y-119380000D03*
D25*
X146060000Y-119380000D03*
X148610000Y-119380000D03*
D15*
X122475000Y-45720000D03*
X117475000Y-45720000D03*
X78740000Y-45720000D03*
X83740000Y-45720000D03*
X98044000Y-45720000D03*
X103044000Y-45720000D03*
X196008000Y-44704000D03*
X191008000Y-44704000D03*
X209851000Y-44831000D03*
X204851000Y-44831000D03*
D27*
X211074000Y-82550000D03*
X157828410Y-118618000D03*
X175006000Y-118618000D03*
X200406000Y-113792000D03*
X167894000Y-120904000D03*
X192532000Y-120650000D03*
X166497000Y-106807000D03*
X175260000Y-109855000D03*
X159766000Y-106807000D03*
X196596000Y-102362000D03*
X180213000Y-89916000D03*
X209550000Y-57404000D03*
X195326000Y-57404000D03*
D28*
X187960000Y-77470000D02*
X187960000Y-81534000D01*
X188500000Y-82074000D02*
X188500000Y-83820000D01*
X187960000Y-81534000D02*
X188500000Y-82074000D01*
X205994000Y-87122000D02*
X202184000Y-90932000D01*
X211074000Y-82550000D02*
X206502000Y-87122000D01*
X206502000Y-87122000D02*
X205994000Y-87122000D01*
X139229999Y-114559999D02*
X139229999Y-120179999D01*
X138430000Y-113760000D02*
X139229999Y-114559999D01*
X139229999Y-120179999D02*
X141224000Y-122174000D01*
X141224000Y-122174000D02*
X148590000Y-122174000D01*
X154272410Y-122174000D02*
X157828410Y-118618000D01*
X148590000Y-122174000D02*
X154272410Y-122174000D01*
X157828410Y-118618000D02*
X157828410Y-118618000D01*
X218440000Y-89916000D02*
X211074000Y-82550000D01*
X175006000Y-118618000D02*
X173736000Y-117348000D01*
X173736000Y-114808000D02*
X174752000Y-113792000D01*
X174752000Y-113792000D02*
X200406000Y-113792000D01*
X200441002Y-113792000D02*
X218440000Y-95793002D01*
X173736000Y-117348000D02*
X173736000Y-114808000D01*
X218440000Y-95793002D02*
X218440000Y-89916000D01*
X200406000Y-113792000D02*
X200441002Y-113792000D01*
X167894000Y-120904000D02*
X169418000Y-120904000D01*
X169418000Y-120904000D02*
X170942000Y-122428000D01*
X170942000Y-122428000D02*
X190754000Y-122428000D01*
X190754000Y-122428000D02*
X192532000Y-120650000D01*
X192532000Y-120650000D02*
X192532000Y-120650000D01*
X190500000Y-89281000D02*
X190500000Y-83820000D01*
X181515001Y-98265999D02*
X190500000Y-89281000D01*
X152559001Y-98265999D02*
X181515001Y-98265999D01*
X156750000Y-111980000D02*
X154752000Y-109982000D01*
X156750000Y-113030000D02*
X156750000Y-111980000D01*
X154752000Y-109982000D02*
X151511000Y-109982000D01*
X151511000Y-109982000D02*
X148971000Y-107442000D01*
X148971000Y-107442000D02*
X148971000Y-101854000D01*
X148971000Y-101854000D02*
X152559001Y-98265999D01*
X147340000Y-86340000D02*
X143510000Y-90170000D01*
X147340000Y-67350000D02*
X147340000Y-86340000D01*
X138450000Y-102870000D02*
X152674000Y-117094000D01*
X162780000Y-113030000D02*
X163830000Y-113030000D01*
X158716000Y-117094000D02*
X162780000Y-113030000D01*
X152674000Y-117094000D02*
X158716000Y-117094000D01*
X191516000Y-109220000D02*
X209804000Y-90932000D01*
X189230000Y-109220000D02*
X191516000Y-109220000D01*
X138450000Y-95230000D02*
X143510000Y-90170000D01*
X138450000Y-102870000D02*
X138450000Y-95230000D01*
X163830000Y-110871000D02*
X159766000Y-106807000D01*
X163830000Y-113030000D02*
X163830000Y-110871000D01*
X172212000Y-106807000D02*
X175260000Y-109855000D01*
X166497000Y-106807000D02*
X172212000Y-106807000D01*
X105410000Y-111482741D02*
X105410000Y-118110000D01*
X105410000Y-109220000D02*
X105410000Y-111482741D01*
X97790000Y-116260000D02*
X97790000Y-109220000D01*
X97790000Y-118110000D02*
X97790000Y-116260000D01*
X160020000Y-104072081D02*
X165167919Y-109220000D01*
X160020000Y-102870000D02*
X160020000Y-104072081D01*
X165167919Y-109220000D02*
X167640000Y-109220000D01*
X167640000Y-109220000D02*
X171450000Y-113030000D01*
X199390000Y-113030000D02*
X201930000Y-110490000D01*
X171450000Y-113030000D02*
X199390000Y-113030000D01*
X186690000Y-108070000D02*
X189096000Y-105664000D01*
X186690000Y-109220000D02*
X186690000Y-108070000D01*
X189096000Y-105664000D02*
X193040000Y-105664000D01*
X193040000Y-105664000D02*
X193294000Y-105664000D01*
X193294000Y-105664000D02*
X196596000Y-102362000D01*
X196596000Y-102362000D02*
X196596000Y-102362000D01*
D29*
X107950000Y-55245000D02*
X117475000Y-45720000D01*
X107950000Y-67310000D02*
X107950000Y-55245000D01*
X141792002Y-52150000D02*
X135362002Y-45720000D01*
X151140000Y-52150000D02*
X141792002Y-52150000D01*
X135362002Y-45720000D02*
X117475000Y-45720000D01*
X82950000Y-60814000D02*
X98044000Y-45720000D01*
X82950000Y-67310000D02*
X82950000Y-60814000D01*
X98044000Y-45720000D02*
X101600000Y-45720000D01*
X101600000Y-45720000D02*
X103044000Y-45720000D01*
X103044000Y-45720000D02*
X113077000Y-35687000D01*
X181991000Y-35687000D02*
X191008000Y-44704000D01*
X113077000Y-35687000D02*
X181991000Y-35687000D01*
X191008000Y-44704000D02*
X196008000Y-44704000D01*
D28*
X179647315Y-89916000D02*
X177292000Y-87560685D01*
X180213000Y-89916000D02*
X179647315Y-89916000D01*
X182880000Y-77470000D02*
X182880000Y-80264000D01*
X177292000Y-85852000D02*
X177292000Y-87560685D01*
X182880000Y-80264000D02*
X177292000Y-85852000D01*
X209550000Y-57404000D02*
X209550000Y-57404000D01*
X209550000Y-57404000D02*
X209550000Y-57404000D01*
X195326000Y-57404000D02*
X209550000Y-57404000D01*
X185420000Y-102870000D02*
X185420000Y-98044000D01*
X195326000Y-88138000D02*
X195326000Y-57404000D01*
X185420000Y-98044000D02*
X195326000Y-88138000D01*
D29*
X139396000Y-60706000D02*
X133340000Y-54650000D01*
X169672000Y-60706000D02*
X139396000Y-60706000D01*
X169672000Y-60706000D02*
X174672000Y-60706000D01*
D30*
G36*
X100920328Y-40593000D02*
G01*
X98805257Y-40593000D01*
X98553890Y-40543000D01*
X97534110Y-40543000D01*
X96533925Y-40741949D01*
X95591771Y-41132202D01*
X94743855Y-41698762D01*
X94022762Y-42419855D01*
X93880375Y-42632952D01*
X79502766Y-57010562D01*
X79307123Y-57171122D01*
X78666430Y-57951809D01*
X78548064Y-58173257D01*
X78190352Y-58842489D01*
X77897184Y-59808933D01*
X77798193Y-60814000D01*
X77823000Y-61065868D01*
X77823000Y-67561868D01*
X77897184Y-68315067D01*
X78190351Y-69281510D01*
X78666429Y-70172190D01*
X79307122Y-70952878D01*
X80087809Y-71593571D01*
X80978489Y-72069649D01*
X81944932Y-72362816D01*
X82950000Y-72461807D01*
X83955067Y-72362816D01*
X84921510Y-72069649D01*
X85812190Y-71593571D01*
X86592878Y-70952878D01*
X87233571Y-70172191D01*
X87709649Y-69281511D01*
X88002816Y-68315068D01*
X88077000Y-67561869D01*
X88077000Y-62937672D01*
X100167673Y-50847000D01*
X102282743Y-50847000D01*
X102534110Y-50897000D01*
X103553890Y-50897000D01*
X104554075Y-50698051D01*
X105496229Y-50307798D01*
X105919050Y-50025278D01*
X104502766Y-51441562D01*
X104307123Y-51602122D01*
X103666430Y-52382809D01*
X103190352Y-53273489D01*
X102897184Y-54239933D01*
X102798193Y-55245000D01*
X102823001Y-55496878D01*
X102823000Y-67561868D01*
X102897184Y-68315067D01*
X103190351Y-69281510D01*
X103666429Y-70172190D01*
X104307122Y-70952878D01*
X105087809Y-71593571D01*
X105978489Y-72069649D01*
X106944932Y-72362816D01*
X107950000Y-72461807D01*
X108955067Y-72362816D01*
X109921510Y-72069649D01*
X110812190Y-71593571D01*
X111592878Y-70952878D01*
X112233571Y-70172191D01*
X112709649Y-69281511D01*
X113002816Y-68315068D01*
X113077000Y-67561869D01*
X113077000Y-57368672D01*
X119598673Y-50847000D01*
X121713743Y-50847000D01*
X121965110Y-50897000D01*
X122984890Y-50897000D01*
X123236257Y-50847000D01*
X129326642Y-50847000D01*
X129046899Y-51126743D01*
X128442036Y-52031984D01*
X128025399Y-53037834D01*
X127813000Y-54105638D01*
X127813000Y-55194362D01*
X128025399Y-56262166D01*
X128442036Y-57268016D01*
X129046899Y-58173257D01*
X129816743Y-58943101D01*
X130721984Y-59547964D01*
X131174893Y-59735565D01*
X133136327Y-61697000D01*
X124681581Y-61697000D01*
X124647963Y-61700311D01*
X124626544Y-61700311D01*
X124617379Y-61701274D01*
X124297169Y-61737191D01*
X124238675Y-61749624D01*
X124179975Y-61761247D01*
X124171178Y-61763971D01*
X124171174Y-61763972D01*
X124171171Y-61763973D01*
X124171172Y-61763973D01*
X123864037Y-61861403D01*
X123809100Y-61884949D01*
X123753751Y-61907762D01*
X123745645Y-61912145D01*
X123463282Y-62067375D01*
X123413926Y-62101170D01*
X123364099Y-62134275D01*
X123356999Y-62140149D01*
X123110166Y-62347267D01*
X123068322Y-62389997D01*
X123025868Y-62432155D01*
X123020044Y-62439296D01*
X122818140Y-62690414D01*
X122785404Y-62740439D01*
X122751933Y-62790061D01*
X122747607Y-62798198D01*
X122598325Y-63083750D01*
X122575929Y-63139182D01*
X122552735Y-63194358D01*
X122550072Y-63203180D01*
X122459097Y-63512288D01*
X122447899Y-63570994D01*
X122435859Y-63629643D01*
X122434960Y-63638815D01*
X122405756Y-63959708D01*
X122406174Y-64019525D01*
X122405756Y-64079343D01*
X122406656Y-64088515D01*
X122440337Y-64408968D01*
X122452360Y-64467542D01*
X122463574Y-64526326D01*
X122466238Y-64535148D01*
X122561520Y-64842956D01*
X122584694Y-64898082D01*
X122607109Y-64953564D01*
X122611436Y-64961700D01*
X122764691Y-65245140D01*
X122798158Y-65294756D01*
X122830896Y-65344786D01*
X122836720Y-65351927D01*
X123042110Y-65600201D01*
X123084546Y-65642341D01*
X123126409Y-65685091D01*
X123133510Y-65690964D01*
X123383211Y-65894616D01*
X123433020Y-65927708D01*
X123482392Y-65961515D01*
X123490499Y-65965898D01*
X123775001Y-66117171D01*
X123830307Y-66139966D01*
X123885290Y-66163532D01*
X123894093Y-66166257D01*
X124202558Y-66259388D01*
X124261261Y-66271011D01*
X124319750Y-66283444D01*
X124328914Y-66284407D01*
X124649596Y-66315850D01*
X124649598Y-66315850D01*
X124681581Y-66319000D01*
X132372532Y-66319000D01*
X132263000Y-66869657D01*
X132263000Y-67830343D01*
X132450420Y-68772569D01*
X132818058Y-69660126D01*
X133351787Y-70458906D01*
X134031094Y-71138213D01*
X134829874Y-71671942D01*
X135717431Y-72039580D01*
X136659657Y-72227000D01*
X137242204Y-72227000D01*
X137342036Y-72468016D01*
X137946899Y-73373257D01*
X138716743Y-74143101D01*
X139621984Y-74747964D01*
X140627834Y-75164601D01*
X141695638Y-75377000D01*
X142784362Y-75377000D01*
X143088000Y-75316603D01*
X143088001Y-84456853D01*
X142387312Y-84525865D01*
X141307768Y-84853341D01*
X140312854Y-85385134D01*
X139440806Y-86100806D01*
X138725134Y-86972854D01*
X138193341Y-87967768D01*
X137865865Y-89047312D01*
X137783534Y-89883230D01*
X135591082Y-92075683D01*
X135428836Y-92208835D01*
X135295684Y-92371081D01*
X135295681Y-92371084D01*
X134897485Y-92856286D01*
X134502658Y-93594957D01*
X134259524Y-94396462D01*
X134177428Y-95230000D01*
X134198001Y-95438881D01*
X134198001Y-97733032D01*
X132360000Y-97733032D01*
X131550967Y-97812715D01*
X130773024Y-98048701D01*
X130056068Y-98431922D01*
X129427651Y-98947651D01*
X128911922Y-99576068D01*
X128528701Y-100293024D01*
X128292715Y-101070967D01*
X128213032Y-101880000D01*
X128213032Y-103860000D01*
X128258157Y-104318157D01*
X127800000Y-104273032D01*
X126200000Y-104273032D01*
X125390967Y-104352715D01*
X124940671Y-104489311D01*
X124553932Y-104171922D01*
X123836976Y-103788701D01*
X123059033Y-103552715D01*
X122250000Y-103473032D01*
X119050000Y-103473032D01*
X118240967Y-103552715D01*
X117463024Y-103788701D01*
X116746068Y-104171922D01*
X116117651Y-104687651D01*
X115601922Y-105316068D01*
X115218701Y-106033024D01*
X114982715Y-106810967D01*
X114903032Y-107620000D01*
X114903032Y-110820000D01*
X114982715Y-111629033D01*
X115218701Y-112406976D01*
X115601922Y-113123932D01*
X116117651Y-113752349D01*
X116535864Y-114095568D01*
X115865134Y-114912854D01*
X115333341Y-115907768D01*
X115005865Y-116987312D01*
X114895290Y-118110000D01*
X115005865Y-119232688D01*
X115333341Y-120312232D01*
X115865134Y-121307146D01*
X116580806Y-122179194D01*
X117452854Y-122894866D01*
X118447768Y-123426659D01*
X119527312Y-123754135D01*
X119992987Y-123800000D01*
X107588404Y-123800000D01*
X107819033Y-123777285D01*
X108596976Y-123541299D01*
X109313932Y-123158078D01*
X109942349Y-122642349D01*
X110458078Y-122013932D01*
X110841299Y-121296976D01*
X111077285Y-120519033D01*
X111156968Y-119710000D01*
X111156968Y-116510000D01*
X111077285Y-115700967D01*
X110841299Y-114923024D01*
X110458078Y-114206068D01*
X109942349Y-113577651D01*
X109662000Y-113347574D01*
X109662000Y-113066444D01*
X110194866Y-112417146D01*
X110726659Y-111422232D01*
X111054135Y-110342688D01*
X111164710Y-109220000D01*
X111054135Y-108097312D01*
X110726659Y-107017768D01*
X110194866Y-106022854D01*
X109479194Y-105150806D01*
X108607146Y-104435134D01*
X107612232Y-103903341D01*
X106532688Y-103575865D01*
X105691345Y-103493000D01*
X105128655Y-103493000D01*
X104287312Y-103575865D01*
X103207768Y-103903341D01*
X102212854Y-104435134D01*
X101600000Y-104938091D01*
X100987146Y-104435134D01*
X99992232Y-103903341D01*
X98912688Y-103575865D01*
X98071345Y-103493000D01*
X97508655Y-103493000D01*
X96667312Y-103575865D01*
X95587768Y-103903341D01*
X94592854Y-104435134D01*
X93720806Y-105150806D01*
X93005134Y-106022854D01*
X92473341Y-107017768D01*
X92145865Y-108097312D01*
X92035290Y-109220000D01*
X92145865Y-110342688D01*
X92473341Y-111422232D01*
X93005134Y-112417146D01*
X93538000Y-113066444D01*
X93538000Y-113347574D01*
X93257651Y-113577651D01*
X92741922Y-114206068D01*
X92358701Y-114923024D01*
X92122715Y-115700967D01*
X92043032Y-116510000D01*
X92043032Y-119710000D01*
X92122715Y-120519033D01*
X92358701Y-121296976D01*
X92741922Y-122013932D01*
X93257651Y-122642349D01*
X93886068Y-123158078D01*
X94603024Y-123541299D01*
X95380967Y-123777285D01*
X95611596Y-123800000D01*
X83207013Y-123800000D01*
X83672688Y-123754135D01*
X84752232Y-123426659D01*
X85747146Y-122894866D01*
X86619194Y-122179194D01*
X87334866Y-121307146D01*
X87866659Y-120312232D01*
X88194135Y-119232688D01*
X88304710Y-118110000D01*
X88194135Y-116987312D01*
X87866659Y-115907768D01*
X87334866Y-114912854D01*
X86664136Y-114095568D01*
X87082349Y-113752349D01*
X87598078Y-113123932D01*
X87981299Y-112406976D01*
X88217285Y-111629033D01*
X88296968Y-110820000D01*
X88296968Y-107620000D01*
X88217285Y-106810967D01*
X87981299Y-106033024D01*
X87598078Y-105316068D01*
X87082349Y-104687651D01*
X86453932Y-104171922D01*
X85736976Y-103788701D01*
X84959033Y-103552715D01*
X84150000Y-103473032D01*
X80950000Y-103473032D01*
X80140967Y-103552715D01*
X79363024Y-103788701D01*
X78646068Y-104171922D01*
X78017651Y-104687651D01*
X77501922Y-105316068D01*
X77118701Y-106033024D01*
X76882715Y-106810967D01*
X76803032Y-107620000D01*
X76803032Y-110820000D01*
X76882715Y-111629033D01*
X77118701Y-112406976D01*
X77501922Y-113123932D01*
X78017651Y-113752349D01*
X78435864Y-114095568D01*
X77765134Y-114912854D01*
X77233341Y-115907768D01*
X76905865Y-116987312D01*
X76795290Y-118110000D01*
X76905865Y-119232688D01*
X77233341Y-120312232D01*
X77765134Y-121307146D01*
X78480806Y-122179194D01*
X79352854Y-122894866D01*
X80347768Y-123426659D01*
X81427312Y-123754135D01*
X81892987Y-123800000D01*
X66700000Y-123800000D01*
X66700000Y-120133314D01*
X67436905Y-120133314D01*
X67436905Y-120658686D01*
X67539400Y-121173963D01*
X67740451Y-121659343D01*
X68032332Y-122096174D01*
X68403826Y-122467668D01*
X68840657Y-122759549D01*
X69326037Y-122960600D01*
X69841314Y-123063095D01*
X70366686Y-123063095D01*
X70881963Y-122960600D01*
X71367343Y-122759549D01*
X71804174Y-122467668D01*
X72175668Y-122096174D01*
X72467549Y-121659343D01*
X72668600Y-121173963D01*
X72771095Y-120658686D01*
X72771095Y-120133314D01*
X72668600Y-119618037D01*
X72467549Y-119132657D01*
X72175668Y-118695826D01*
X71804174Y-118324332D01*
X71367343Y-118032451D01*
X70881963Y-117831400D01*
X70366686Y-117728905D01*
X69841314Y-117728905D01*
X69326037Y-117831400D01*
X68840657Y-118032451D01*
X68403826Y-118324332D01*
X68032332Y-118695826D01*
X67740451Y-119132657D01*
X67539400Y-119618037D01*
X67436905Y-120133314D01*
X66700000Y-120133314D01*
X66700000Y-94329657D01*
X78073000Y-94329657D01*
X78073000Y-95290343D01*
X78260420Y-96232569D01*
X78628058Y-97120126D01*
X79161787Y-97918906D01*
X79841094Y-98598213D01*
X80639874Y-99131942D01*
X81527431Y-99499580D01*
X82469657Y-99687000D01*
X83430343Y-99687000D01*
X84372569Y-99499580D01*
X85260126Y-99131942D01*
X85450000Y-99005072D01*
X85639874Y-99131942D01*
X86527431Y-99499580D01*
X87469657Y-99687000D01*
X88430343Y-99687000D01*
X89372569Y-99499580D01*
X90260126Y-99131942D01*
X91058906Y-98598213D01*
X91738213Y-97918906D01*
X92271942Y-97120126D01*
X92639580Y-96232569D01*
X92827000Y-95290343D01*
X92827000Y-94329657D01*
X98073000Y-94329657D01*
X98073000Y-95290343D01*
X98260420Y-96232569D01*
X98628058Y-97120126D01*
X99161787Y-97918906D01*
X99841094Y-98598213D01*
X100639874Y-99131942D01*
X101527431Y-99499580D01*
X102469657Y-99687000D01*
X103430343Y-99687000D01*
X104372569Y-99499580D01*
X105260126Y-99131942D01*
X105450000Y-99005072D01*
X105639874Y-99131942D01*
X106527431Y-99499580D01*
X107469657Y-99687000D01*
X108430343Y-99687000D01*
X109372569Y-99499580D01*
X110260126Y-99131942D01*
X111058906Y-98598213D01*
X111738213Y-97918906D01*
X112271942Y-97120126D01*
X112639580Y-96232569D01*
X112827000Y-95290343D01*
X112827000Y-94329657D01*
X112639580Y-93387431D01*
X112271942Y-92499874D01*
X111738213Y-91701094D01*
X111058906Y-91021787D01*
X110260126Y-90488058D01*
X109372569Y-90120420D01*
X108430343Y-89933000D01*
X107469657Y-89933000D01*
X106527431Y-90120420D01*
X105639874Y-90488058D01*
X105450000Y-90614928D01*
X105260126Y-90488058D01*
X104372569Y-90120420D01*
X103430343Y-89933000D01*
X102469657Y-89933000D01*
X101527431Y-90120420D01*
X100639874Y-90488058D01*
X99841094Y-91021787D01*
X99161787Y-91701094D01*
X98628058Y-92499874D01*
X98260420Y-93387431D01*
X98073000Y-94329657D01*
X92827000Y-94329657D01*
X92639580Y-93387431D01*
X92271942Y-92499874D01*
X91738213Y-91701094D01*
X91058906Y-91021787D01*
X90260126Y-90488058D01*
X89372569Y-90120420D01*
X88430343Y-89933000D01*
X87469657Y-89933000D01*
X86527431Y-90120420D01*
X85639874Y-90488058D01*
X85450000Y-90614928D01*
X85260126Y-90488058D01*
X84372569Y-90120420D01*
X83430343Y-89933000D01*
X82469657Y-89933000D01*
X81527431Y-90120420D01*
X80639874Y-90488058D01*
X79841094Y-91021787D01*
X79161787Y-91701094D01*
X78628058Y-92499874D01*
X78260420Y-93387431D01*
X78073000Y-94329657D01*
X66700000Y-94329657D01*
X66700000Y-88570000D01*
X122523032Y-88570000D01*
X122523032Y-91770000D01*
X122602715Y-92579033D01*
X122838701Y-93356976D01*
X123221922Y-94073932D01*
X123737651Y-94702349D01*
X124366068Y-95218078D01*
X125083024Y-95601299D01*
X125860967Y-95837285D01*
X126670000Y-95916968D01*
X129870000Y-95916968D01*
X130679033Y-95837285D01*
X131456976Y-95601299D01*
X132173932Y-95218078D01*
X132802349Y-94702349D01*
X133318078Y-94073932D01*
X133701299Y-93356976D01*
X133937285Y-92579033D01*
X134016968Y-91770000D01*
X134016968Y-88570000D01*
X133937285Y-87760967D01*
X133701299Y-86983024D01*
X133318078Y-86266068D01*
X132802349Y-85637651D01*
X132173932Y-85121922D01*
X131456976Y-84738701D01*
X130679033Y-84502715D01*
X129870000Y-84423032D01*
X126670000Y-84423032D01*
X125860967Y-84502715D01*
X125083024Y-84738701D01*
X124366068Y-85121922D01*
X123737651Y-85637651D01*
X123221922Y-86266068D01*
X122838701Y-86983024D01*
X122602715Y-87760967D01*
X122523032Y-88570000D01*
X66700000Y-88570000D01*
X66700000Y-80022000D01*
X130456032Y-80022000D01*
X130456032Y-81522000D01*
X130535715Y-82331033D01*
X130771701Y-83108976D01*
X131154922Y-83825932D01*
X131670651Y-84454349D01*
X132299068Y-84970078D01*
X133016024Y-85353299D01*
X133793967Y-85589285D01*
X134603000Y-85668968D01*
X135653000Y-85668968D01*
X136012599Y-85633550D01*
X136398000Y-85671509D01*
X137033000Y-85608967D01*
X137668000Y-85671509D01*
X138579951Y-85581690D01*
X139456857Y-85315683D01*
X140265018Y-84883712D01*
X140973377Y-84302377D01*
X141554712Y-83594017D01*
X141986683Y-82785856D01*
X142252690Y-81908950D01*
X142320000Y-81225538D01*
X142320000Y-80318461D01*
X142252690Y-79635049D01*
X141986683Y-78758143D01*
X141554712Y-77949982D01*
X140973377Y-77241623D01*
X140265017Y-76660288D01*
X139456856Y-76228317D01*
X138579950Y-75962310D01*
X137668000Y-75872491D01*
X137033000Y-75935033D01*
X136398000Y-75872491D01*
X136012599Y-75910450D01*
X135653000Y-75875032D01*
X134603000Y-75875032D01*
X133793967Y-75954715D01*
X133016024Y-76190701D01*
X132299068Y-76573922D01*
X131670651Y-77089651D01*
X131154922Y-77718068D01*
X130771701Y-78435024D01*
X130535715Y-79212967D01*
X130456032Y-80022000D01*
X66700000Y-80022000D01*
X66700000Y-46891066D01*
X77748539Y-46891066D01*
X77850339Y-47160579D01*
X78148477Y-47306463D01*
X78469346Y-47391380D01*
X78800617Y-47412066D01*
X79129557Y-47367728D01*
X79443527Y-47260069D01*
X79629661Y-47160579D01*
X79731461Y-46891066D01*
X82748539Y-46891066D01*
X82850339Y-47160579D01*
X83148477Y-47306463D01*
X83469346Y-47391380D01*
X83800617Y-47412066D01*
X84129557Y-47367728D01*
X84443527Y-47260069D01*
X84629661Y-47160579D01*
X84731461Y-46891066D01*
X83740000Y-45899605D01*
X82748539Y-46891066D01*
X79731461Y-46891066D01*
X78740000Y-45899605D01*
X77748539Y-46891066D01*
X66700000Y-46891066D01*
X66700000Y-45780617D01*
X77047934Y-45780617D01*
X77092272Y-46109557D01*
X77199931Y-46423527D01*
X77299421Y-46609661D01*
X77568934Y-46711461D01*
X78560395Y-45720000D01*
X78919605Y-45720000D01*
X79911066Y-46711461D01*
X80180579Y-46609661D01*
X80326463Y-46311523D01*
X80411380Y-45990654D01*
X80424495Y-45780617D01*
X82047934Y-45780617D01*
X82092272Y-46109557D01*
X82199931Y-46423527D01*
X82299421Y-46609661D01*
X82568934Y-46711461D01*
X83560395Y-45720000D01*
X83919605Y-45720000D01*
X84911066Y-46711461D01*
X85180579Y-46609661D01*
X85326463Y-46311523D01*
X85411380Y-45990654D01*
X85432066Y-45659383D01*
X85387728Y-45330443D01*
X85280069Y-45016473D01*
X85180579Y-44830339D01*
X84911066Y-44728539D01*
X83919605Y-45720000D01*
X83560395Y-45720000D01*
X82568934Y-44728539D01*
X82299421Y-44830339D01*
X82153537Y-45128477D01*
X82068620Y-45449346D01*
X82047934Y-45780617D01*
X80424495Y-45780617D01*
X80432066Y-45659383D01*
X80387728Y-45330443D01*
X80280069Y-45016473D01*
X80180579Y-44830339D01*
X79911066Y-44728539D01*
X78919605Y-45720000D01*
X78560395Y-45720000D01*
X77568934Y-44728539D01*
X77299421Y-44830339D01*
X77153537Y-45128477D01*
X77068620Y-45449346D01*
X77047934Y-45780617D01*
X66700000Y-45780617D01*
X66700000Y-44548934D01*
X77748539Y-44548934D01*
X78740000Y-45540395D01*
X79731461Y-44548934D01*
X82748539Y-44548934D01*
X83740000Y-45540395D01*
X84731461Y-44548934D01*
X84629661Y-44279421D01*
X84331523Y-44133537D01*
X84010654Y-44048620D01*
X83679383Y-44027934D01*
X83350443Y-44072272D01*
X83036473Y-44179931D01*
X82850339Y-44279421D01*
X82748539Y-44548934D01*
X79731461Y-44548934D01*
X79629661Y-44279421D01*
X79331523Y-44133537D01*
X79010654Y-44048620D01*
X78679383Y-44027934D01*
X78350443Y-44072272D01*
X78036473Y-44179931D01*
X77850339Y-44279421D01*
X77748539Y-44548934D01*
X66700000Y-44548934D01*
X66700000Y-40631314D01*
X67404905Y-40631314D01*
X67404905Y-41156686D01*
X67507400Y-41671963D01*
X67708451Y-42157343D01*
X68000332Y-42594174D01*
X68371826Y-42965668D01*
X68808657Y-43257549D01*
X69294037Y-43458600D01*
X69809314Y-43561095D01*
X70334686Y-43561095D01*
X70849963Y-43458600D01*
X71335343Y-43257549D01*
X71772174Y-42965668D01*
X72143668Y-42594174D01*
X72435549Y-42157343D01*
X72636600Y-41671963D01*
X72739095Y-41156686D01*
X72739095Y-40631314D01*
X72636600Y-40116037D01*
X72435549Y-39630657D01*
X72143668Y-39193826D01*
X71772174Y-38822332D01*
X71335343Y-38530451D01*
X70849963Y-38329400D01*
X70334686Y-38226905D01*
X69809314Y-38226905D01*
X69294037Y-38329400D01*
X68808657Y-38530451D01*
X68371826Y-38822332D01*
X68000332Y-39193826D01*
X67708451Y-39630657D01*
X67507400Y-40116037D01*
X67404905Y-40631314D01*
X66700000Y-40631314D01*
X66700000Y-32410000D01*
X109103328Y-32410000D01*
X100920328Y-40593000D01*
X100920328Y-40593000D01*
G37*
X100920328Y-40593000D02*
X98805257Y-40593000D01*
X98553890Y-40543000D01*
X97534110Y-40543000D01*
X96533925Y-40741949D01*
X95591771Y-41132202D01*
X94743855Y-41698762D01*
X94022762Y-42419855D01*
X93880375Y-42632952D01*
X79502766Y-57010562D01*
X79307123Y-57171122D01*
X78666430Y-57951809D01*
X78548064Y-58173257D01*
X78190352Y-58842489D01*
X77897184Y-59808933D01*
X77798193Y-60814000D01*
X77823000Y-61065868D01*
X77823000Y-67561868D01*
X77897184Y-68315067D01*
X78190351Y-69281510D01*
X78666429Y-70172190D01*
X79307122Y-70952878D01*
X80087809Y-71593571D01*
X80978489Y-72069649D01*
X81944932Y-72362816D01*
X82950000Y-72461807D01*
X83955067Y-72362816D01*
X84921510Y-72069649D01*
X85812190Y-71593571D01*
X86592878Y-70952878D01*
X87233571Y-70172191D01*
X87709649Y-69281511D01*
X88002816Y-68315068D01*
X88077000Y-67561869D01*
X88077000Y-62937672D01*
X100167673Y-50847000D01*
X102282743Y-50847000D01*
X102534110Y-50897000D01*
X103553890Y-50897000D01*
X104554075Y-50698051D01*
X105496229Y-50307798D01*
X105919050Y-50025278D01*
X104502766Y-51441562D01*
X104307123Y-51602122D01*
X103666430Y-52382809D01*
X103190352Y-53273489D01*
X102897184Y-54239933D01*
X102798193Y-55245000D01*
X102823001Y-55496878D01*
X102823000Y-67561868D01*
X102897184Y-68315067D01*
X103190351Y-69281510D01*
X103666429Y-70172190D01*
X104307122Y-70952878D01*
X105087809Y-71593571D01*
X105978489Y-72069649D01*
X106944932Y-72362816D01*
X107950000Y-72461807D01*
X108955067Y-72362816D01*
X109921510Y-72069649D01*
X110812190Y-71593571D01*
X111592878Y-70952878D01*
X112233571Y-70172191D01*
X112709649Y-69281511D01*
X113002816Y-68315068D01*
X113077000Y-67561869D01*
X113077000Y-57368672D01*
X119598673Y-50847000D01*
X121713743Y-50847000D01*
X121965110Y-50897000D01*
X122984890Y-50897000D01*
X123236257Y-50847000D01*
X129326642Y-50847000D01*
X129046899Y-51126743D01*
X128442036Y-52031984D01*
X128025399Y-53037834D01*
X127813000Y-54105638D01*
X127813000Y-55194362D01*
X128025399Y-56262166D01*
X128442036Y-57268016D01*
X129046899Y-58173257D01*
X129816743Y-58943101D01*
X130721984Y-59547964D01*
X131174893Y-59735565D01*
X133136327Y-61697000D01*
X124681581Y-61697000D01*
X124647963Y-61700311D01*
X124626544Y-61700311D01*
X124617379Y-61701274D01*
X124297169Y-61737191D01*
X124238675Y-61749624D01*
X124179975Y-61761247D01*
X124171178Y-61763971D01*
X124171174Y-61763972D01*
X124171171Y-61763973D01*
X124171172Y-61763973D01*
X123864037Y-61861403D01*
X123809100Y-61884949D01*
X123753751Y-61907762D01*
X123745645Y-61912145D01*
X123463282Y-62067375D01*
X123413926Y-62101170D01*
X123364099Y-62134275D01*
X123356999Y-62140149D01*
X123110166Y-62347267D01*
X123068322Y-62389997D01*
X123025868Y-62432155D01*
X123020044Y-62439296D01*
X122818140Y-62690414D01*
X122785404Y-62740439D01*
X122751933Y-62790061D01*
X122747607Y-62798198D01*
X122598325Y-63083750D01*
X122575929Y-63139182D01*
X122552735Y-63194358D01*
X122550072Y-63203180D01*
X122459097Y-63512288D01*
X122447899Y-63570994D01*
X122435859Y-63629643D01*
X122434960Y-63638815D01*
X122405756Y-63959708D01*
X122406174Y-64019525D01*
X122405756Y-64079343D01*
X122406656Y-64088515D01*
X122440337Y-64408968D01*
X122452360Y-64467542D01*
X122463574Y-64526326D01*
X122466238Y-64535148D01*
X122561520Y-64842956D01*
X122584694Y-64898082D01*
X122607109Y-64953564D01*
X122611436Y-64961700D01*
X122764691Y-65245140D01*
X122798158Y-65294756D01*
X122830896Y-65344786D01*
X122836720Y-65351927D01*
X123042110Y-65600201D01*
X123084546Y-65642341D01*
X123126409Y-65685091D01*
X123133510Y-65690964D01*
X123383211Y-65894616D01*
X123433020Y-65927708D01*
X123482392Y-65961515D01*
X123490499Y-65965898D01*
X123775001Y-66117171D01*
X123830307Y-66139966D01*
X123885290Y-66163532D01*
X123894093Y-66166257D01*
X124202558Y-66259388D01*
X124261261Y-66271011D01*
X124319750Y-66283444D01*
X124328914Y-66284407D01*
X124649596Y-66315850D01*
X124649598Y-66315850D01*
X124681581Y-66319000D01*
X132372532Y-66319000D01*
X132263000Y-66869657D01*
X132263000Y-67830343D01*
X132450420Y-68772569D01*
X132818058Y-69660126D01*
X133351787Y-70458906D01*
X134031094Y-71138213D01*
X134829874Y-71671942D01*
X135717431Y-72039580D01*
X136659657Y-72227000D01*
X137242204Y-72227000D01*
X137342036Y-72468016D01*
X137946899Y-73373257D01*
X138716743Y-74143101D01*
X139621984Y-74747964D01*
X140627834Y-75164601D01*
X141695638Y-75377000D01*
X142784362Y-75377000D01*
X143088000Y-75316603D01*
X143088001Y-84456853D01*
X142387312Y-84525865D01*
X141307768Y-84853341D01*
X140312854Y-85385134D01*
X139440806Y-86100806D01*
X138725134Y-86972854D01*
X138193341Y-87967768D01*
X137865865Y-89047312D01*
X137783534Y-89883230D01*
X135591082Y-92075683D01*
X135428836Y-92208835D01*
X135295684Y-92371081D01*
X135295681Y-92371084D01*
X134897485Y-92856286D01*
X134502658Y-93594957D01*
X134259524Y-94396462D01*
X134177428Y-95230000D01*
X134198001Y-95438881D01*
X134198001Y-97733032D01*
X132360000Y-97733032D01*
X131550967Y-97812715D01*
X130773024Y-98048701D01*
X130056068Y-98431922D01*
X129427651Y-98947651D01*
X128911922Y-99576068D01*
X128528701Y-100293024D01*
X128292715Y-101070967D01*
X128213032Y-101880000D01*
X128213032Y-103860000D01*
X128258157Y-104318157D01*
X127800000Y-104273032D01*
X126200000Y-104273032D01*
X125390967Y-104352715D01*
X124940671Y-104489311D01*
X124553932Y-104171922D01*
X123836976Y-103788701D01*
X123059033Y-103552715D01*
X122250000Y-103473032D01*
X119050000Y-103473032D01*
X118240967Y-103552715D01*
X117463024Y-103788701D01*
X116746068Y-104171922D01*
X116117651Y-104687651D01*
X115601922Y-105316068D01*
X115218701Y-106033024D01*
X114982715Y-106810967D01*
X114903032Y-107620000D01*
X114903032Y-110820000D01*
X114982715Y-111629033D01*
X115218701Y-112406976D01*
X115601922Y-113123932D01*
X116117651Y-113752349D01*
X116535864Y-114095568D01*
X115865134Y-114912854D01*
X115333341Y-115907768D01*
X115005865Y-116987312D01*
X114895290Y-118110000D01*
X115005865Y-119232688D01*
X115333341Y-120312232D01*
X115865134Y-121307146D01*
X116580806Y-122179194D01*
X117452854Y-122894866D01*
X118447768Y-123426659D01*
X119527312Y-123754135D01*
X119992987Y-123800000D01*
X107588404Y-123800000D01*
X107819033Y-123777285D01*
X108596976Y-123541299D01*
X109313932Y-123158078D01*
X109942349Y-122642349D01*
X110458078Y-122013932D01*
X110841299Y-121296976D01*
X111077285Y-120519033D01*
X111156968Y-119710000D01*
X111156968Y-116510000D01*
X111077285Y-115700967D01*
X110841299Y-114923024D01*
X110458078Y-114206068D01*
X109942349Y-113577651D01*
X109662000Y-113347574D01*
X109662000Y-113066444D01*
X110194866Y-112417146D01*
X110726659Y-111422232D01*
X111054135Y-110342688D01*
X111164710Y-109220000D01*
X111054135Y-108097312D01*
X110726659Y-107017768D01*
X110194866Y-106022854D01*
X109479194Y-105150806D01*
X108607146Y-104435134D01*
X107612232Y-103903341D01*
X106532688Y-103575865D01*
X105691345Y-103493000D01*
X105128655Y-103493000D01*
X104287312Y-103575865D01*
X103207768Y-103903341D01*
X102212854Y-104435134D01*
X101600000Y-104938091D01*
X100987146Y-104435134D01*
X99992232Y-103903341D01*
X98912688Y-103575865D01*
X98071345Y-103493000D01*
X97508655Y-103493000D01*
X96667312Y-103575865D01*
X95587768Y-103903341D01*
X94592854Y-104435134D01*
X93720806Y-105150806D01*
X93005134Y-106022854D01*
X92473341Y-107017768D01*
X92145865Y-108097312D01*
X92035290Y-109220000D01*
X92145865Y-110342688D01*
X92473341Y-111422232D01*
X93005134Y-112417146D01*
X93538000Y-113066444D01*
X93538000Y-113347574D01*
X93257651Y-113577651D01*
X92741922Y-114206068D01*
X92358701Y-114923024D01*
X92122715Y-115700967D01*
X92043032Y-116510000D01*
X92043032Y-119710000D01*
X92122715Y-120519033D01*
X92358701Y-121296976D01*
X92741922Y-122013932D01*
X93257651Y-122642349D01*
X93886068Y-123158078D01*
X94603024Y-123541299D01*
X95380967Y-123777285D01*
X95611596Y-123800000D01*
X83207013Y-123800000D01*
X83672688Y-123754135D01*
X84752232Y-123426659D01*
X85747146Y-122894866D01*
X86619194Y-122179194D01*
X87334866Y-121307146D01*
X87866659Y-120312232D01*
X88194135Y-119232688D01*
X88304710Y-118110000D01*
X88194135Y-116987312D01*
X87866659Y-115907768D01*
X87334866Y-114912854D01*
X86664136Y-114095568D01*
X87082349Y-113752349D01*
X87598078Y-113123932D01*
X87981299Y-112406976D01*
X88217285Y-111629033D01*
X88296968Y-110820000D01*
X88296968Y-107620000D01*
X88217285Y-106810967D01*
X87981299Y-106033024D01*
X87598078Y-105316068D01*
X87082349Y-104687651D01*
X86453932Y-104171922D01*
X85736976Y-103788701D01*
X84959033Y-103552715D01*
X84150000Y-103473032D01*
X80950000Y-103473032D01*
X80140967Y-103552715D01*
X79363024Y-103788701D01*
X78646068Y-104171922D01*
X78017651Y-104687651D01*
X77501922Y-105316068D01*
X77118701Y-106033024D01*
X76882715Y-106810967D01*
X76803032Y-107620000D01*
X76803032Y-110820000D01*
X76882715Y-111629033D01*
X77118701Y-112406976D01*
X77501922Y-113123932D01*
X78017651Y-113752349D01*
X78435864Y-114095568D01*
X77765134Y-114912854D01*
X77233341Y-115907768D01*
X76905865Y-116987312D01*
X76795290Y-118110000D01*
X76905865Y-119232688D01*
X77233341Y-120312232D01*
X77765134Y-121307146D01*
X78480806Y-122179194D01*
X79352854Y-122894866D01*
X80347768Y-123426659D01*
X81427312Y-123754135D01*
X81892987Y-123800000D01*
X66700000Y-123800000D01*
X66700000Y-120133314D01*
X67436905Y-120133314D01*
X67436905Y-120658686D01*
X67539400Y-121173963D01*
X67740451Y-121659343D01*
X68032332Y-122096174D01*
X68403826Y-122467668D01*
X68840657Y-122759549D01*
X69326037Y-122960600D01*
X69841314Y-123063095D01*
X70366686Y-123063095D01*
X70881963Y-122960600D01*
X71367343Y-122759549D01*
X71804174Y-122467668D01*
X72175668Y-122096174D01*
X72467549Y-121659343D01*
X72668600Y-121173963D01*
X72771095Y-120658686D01*
X72771095Y-120133314D01*
X72668600Y-119618037D01*
X72467549Y-119132657D01*
X72175668Y-118695826D01*
X71804174Y-118324332D01*
X71367343Y-118032451D01*
X70881963Y-117831400D01*
X70366686Y-117728905D01*
X69841314Y-117728905D01*
X69326037Y-117831400D01*
X68840657Y-118032451D01*
X68403826Y-118324332D01*
X68032332Y-118695826D01*
X67740451Y-119132657D01*
X67539400Y-119618037D01*
X67436905Y-120133314D01*
X66700000Y-120133314D01*
X66700000Y-94329657D01*
X78073000Y-94329657D01*
X78073000Y-95290343D01*
X78260420Y-96232569D01*
X78628058Y-97120126D01*
X79161787Y-97918906D01*
X79841094Y-98598213D01*
X80639874Y-99131942D01*
X81527431Y-99499580D01*
X82469657Y-99687000D01*
X83430343Y-99687000D01*
X84372569Y-99499580D01*
X85260126Y-99131942D01*
X85450000Y-99005072D01*
X85639874Y-99131942D01*
X86527431Y-99499580D01*
X87469657Y-99687000D01*
X88430343Y-99687000D01*
X89372569Y-99499580D01*
X90260126Y-99131942D01*
X91058906Y-98598213D01*
X91738213Y-97918906D01*
X92271942Y-97120126D01*
X92639580Y-96232569D01*
X92827000Y-95290343D01*
X92827000Y-94329657D01*
X98073000Y-94329657D01*
X98073000Y-95290343D01*
X98260420Y-96232569D01*
X98628058Y-97120126D01*
X99161787Y-97918906D01*
X99841094Y-98598213D01*
X100639874Y-99131942D01*
X101527431Y-99499580D01*
X102469657Y-99687000D01*
X103430343Y-99687000D01*
X104372569Y-99499580D01*
X105260126Y-99131942D01*
X105450000Y-99005072D01*
X105639874Y-99131942D01*
X106527431Y-99499580D01*
X107469657Y-99687000D01*
X108430343Y-99687000D01*
X109372569Y-99499580D01*
X110260126Y-99131942D01*
X111058906Y-98598213D01*
X111738213Y-97918906D01*
X112271942Y-97120126D01*
X112639580Y-96232569D01*
X112827000Y-95290343D01*
X112827000Y-94329657D01*
X112639580Y-93387431D01*
X112271942Y-92499874D01*
X111738213Y-91701094D01*
X111058906Y-91021787D01*
X110260126Y-90488058D01*
X109372569Y-90120420D01*
X108430343Y-89933000D01*
X107469657Y-89933000D01*
X106527431Y-90120420D01*
X105639874Y-90488058D01*
X105450000Y-90614928D01*
X105260126Y-90488058D01*
X104372569Y-90120420D01*
X103430343Y-89933000D01*
X102469657Y-89933000D01*
X101527431Y-90120420D01*
X100639874Y-90488058D01*
X99841094Y-91021787D01*
X99161787Y-91701094D01*
X98628058Y-92499874D01*
X98260420Y-93387431D01*
X98073000Y-94329657D01*
X92827000Y-94329657D01*
X92639580Y-93387431D01*
X92271942Y-92499874D01*
X91738213Y-91701094D01*
X91058906Y-91021787D01*
X90260126Y-90488058D01*
X89372569Y-90120420D01*
X88430343Y-89933000D01*
X87469657Y-89933000D01*
X86527431Y-90120420D01*
X85639874Y-90488058D01*
X85450000Y-90614928D01*
X85260126Y-90488058D01*
X84372569Y-90120420D01*
X83430343Y-89933000D01*
X82469657Y-89933000D01*
X81527431Y-90120420D01*
X80639874Y-90488058D01*
X79841094Y-91021787D01*
X79161787Y-91701094D01*
X78628058Y-92499874D01*
X78260420Y-93387431D01*
X78073000Y-94329657D01*
X66700000Y-94329657D01*
X66700000Y-88570000D01*
X122523032Y-88570000D01*
X122523032Y-91770000D01*
X122602715Y-92579033D01*
X122838701Y-93356976D01*
X123221922Y-94073932D01*
X123737651Y-94702349D01*
X124366068Y-95218078D01*
X125083024Y-95601299D01*
X125860967Y-95837285D01*
X126670000Y-95916968D01*
X129870000Y-95916968D01*
X130679033Y-95837285D01*
X131456976Y-95601299D01*
X132173932Y-95218078D01*
X132802349Y-94702349D01*
X133318078Y-94073932D01*
X133701299Y-93356976D01*
X133937285Y-92579033D01*
X134016968Y-91770000D01*
X134016968Y-88570000D01*
X133937285Y-87760967D01*
X133701299Y-86983024D01*
X133318078Y-86266068D01*
X132802349Y-85637651D01*
X132173932Y-85121922D01*
X131456976Y-84738701D01*
X130679033Y-84502715D01*
X129870000Y-84423032D01*
X126670000Y-84423032D01*
X125860967Y-84502715D01*
X125083024Y-84738701D01*
X124366068Y-85121922D01*
X123737651Y-85637651D01*
X123221922Y-86266068D01*
X122838701Y-86983024D01*
X122602715Y-87760967D01*
X122523032Y-88570000D01*
X66700000Y-88570000D01*
X66700000Y-80022000D01*
X130456032Y-80022000D01*
X130456032Y-81522000D01*
X130535715Y-82331033D01*
X130771701Y-83108976D01*
X131154922Y-83825932D01*
X131670651Y-84454349D01*
X132299068Y-84970078D01*
X133016024Y-85353299D01*
X133793967Y-85589285D01*
X134603000Y-85668968D01*
X135653000Y-85668968D01*
X136012599Y-85633550D01*
X136398000Y-85671509D01*
X137033000Y-85608967D01*
X137668000Y-85671509D01*
X138579951Y-85581690D01*
X139456857Y-85315683D01*
X140265018Y-84883712D01*
X140973377Y-84302377D01*
X141554712Y-83594017D01*
X141986683Y-82785856D01*
X142252690Y-81908950D01*
X142320000Y-81225538D01*
X142320000Y-80318461D01*
X142252690Y-79635049D01*
X141986683Y-78758143D01*
X141554712Y-77949982D01*
X140973377Y-77241623D01*
X140265017Y-76660288D01*
X139456856Y-76228317D01*
X138579950Y-75962310D01*
X137668000Y-75872491D01*
X137033000Y-75935033D01*
X136398000Y-75872491D01*
X136012599Y-75910450D01*
X135653000Y-75875032D01*
X134603000Y-75875032D01*
X133793967Y-75954715D01*
X133016024Y-76190701D01*
X132299068Y-76573922D01*
X131670651Y-77089651D01*
X131154922Y-77718068D01*
X130771701Y-78435024D01*
X130535715Y-79212967D01*
X130456032Y-80022000D01*
X66700000Y-80022000D01*
X66700000Y-46891066D01*
X77748539Y-46891066D01*
X77850339Y-47160579D01*
X78148477Y-47306463D01*
X78469346Y-47391380D01*
X78800617Y-47412066D01*
X79129557Y-47367728D01*
X79443527Y-47260069D01*
X79629661Y-47160579D01*
X79731461Y-46891066D01*
X82748539Y-46891066D01*
X82850339Y-47160579D01*
X83148477Y-47306463D01*
X83469346Y-47391380D01*
X83800617Y-47412066D01*
X84129557Y-47367728D01*
X84443527Y-47260069D01*
X84629661Y-47160579D01*
X84731461Y-46891066D01*
X83740000Y-45899605D01*
X82748539Y-46891066D01*
X79731461Y-46891066D01*
X78740000Y-45899605D01*
X77748539Y-46891066D01*
X66700000Y-46891066D01*
X66700000Y-45780617D01*
X77047934Y-45780617D01*
X77092272Y-46109557D01*
X77199931Y-46423527D01*
X77299421Y-46609661D01*
X77568934Y-46711461D01*
X78560395Y-45720000D01*
X78919605Y-45720000D01*
X79911066Y-46711461D01*
X80180579Y-46609661D01*
X80326463Y-46311523D01*
X80411380Y-45990654D01*
X80424495Y-45780617D01*
X82047934Y-45780617D01*
X82092272Y-46109557D01*
X82199931Y-46423527D01*
X82299421Y-46609661D01*
X82568934Y-46711461D01*
X83560395Y-45720000D01*
X83919605Y-45720000D01*
X84911066Y-46711461D01*
X85180579Y-46609661D01*
X85326463Y-46311523D01*
X85411380Y-45990654D01*
X85432066Y-45659383D01*
X85387728Y-45330443D01*
X85280069Y-45016473D01*
X85180579Y-44830339D01*
X84911066Y-44728539D01*
X83919605Y-45720000D01*
X83560395Y-45720000D01*
X82568934Y-44728539D01*
X82299421Y-44830339D01*
X82153537Y-45128477D01*
X82068620Y-45449346D01*
X82047934Y-45780617D01*
X80424495Y-45780617D01*
X80432066Y-45659383D01*
X80387728Y-45330443D01*
X80280069Y-45016473D01*
X80180579Y-44830339D01*
X79911066Y-44728539D01*
X78919605Y-45720000D01*
X78560395Y-45720000D01*
X77568934Y-44728539D01*
X77299421Y-44830339D01*
X77153537Y-45128477D01*
X77068620Y-45449346D01*
X77047934Y-45780617D01*
X66700000Y-45780617D01*
X66700000Y-44548934D01*
X77748539Y-44548934D01*
X78740000Y-45540395D01*
X79731461Y-44548934D01*
X82748539Y-44548934D01*
X83740000Y-45540395D01*
X84731461Y-44548934D01*
X84629661Y-44279421D01*
X84331523Y-44133537D01*
X84010654Y-44048620D01*
X83679383Y-44027934D01*
X83350443Y-44072272D01*
X83036473Y-44179931D01*
X82850339Y-44279421D01*
X82748539Y-44548934D01*
X79731461Y-44548934D01*
X79629661Y-44279421D01*
X79331523Y-44133537D01*
X79010654Y-44048620D01*
X78679383Y-44027934D01*
X78350443Y-44072272D01*
X78036473Y-44179931D01*
X77850339Y-44279421D01*
X77748539Y-44548934D01*
X66700000Y-44548934D01*
X66700000Y-40631314D01*
X67404905Y-40631314D01*
X67404905Y-41156686D01*
X67507400Y-41671963D01*
X67708451Y-42157343D01*
X68000332Y-42594174D01*
X68371826Y-42965668D01*
X68808657Y-43257549D01*
X69294037Y-43458600D01*
X69809314Y-43561095D01*
X70334686Y-43561095D01*
X70849963Y-43458600D01*
X71335343Y-43257549D01*
X71772174Y-42965668D01*
X72143668Y-42594174D01*
X72435549Y-42157343D01*
X72636600Y-41671963D01*
X72739095Y-41156686D01*
X72739095Y-40631314D01*
X72636600Y-40116037D01*
X72435549Y-39630657D01*
X72143668Y-39193826D01*
X71772174Y-38822332D01*
X71335343Y-38530451D01*
X70849963Y-38329400D01*
X70334686Y-38226905D01*
X69809314Y-38226905D01*
X69294037Y-38329400D01*
X68808657Y-38530451D01*
X68371826Y-38822332D01*
X68000332Y-39193826D01*
X67708451Y-39630657D01*
X67507400Y-40116037D01*
X67404905Y-40631314D01*
X66700000Y-40631314D01*
X66700000Y-32410000D01*
X109103328Y-32410000D01*
X100920328Y-40593000D01*
G36*
X221590000Y-34322418D02*
G01*
X221590001Y-34322428D01*
X221590000Y-36797581D01*
X221590000Y-36797582D01*
X221590001Y-39337572D01*
X221590000Y-39337582D01*
X221590001Y-87051821D01*
X221461165Y-86894835D01*
X221298919Y-86761683D01*
X215186806Y-80649571D01*
X215085775Y-80405661D01*
X214590350Y-79664206D01*
X213959794Y-79033650D01*
X213218339Y-78538225D01*
X212394477Y-78196970D01*
X211519871Y-78023000D01*
X210628129Y-78023000D01*
X209753523Y-78196970D01*
X208929661Y-78538225D01*
X208188206Y-79033650D01*
X207557650Y-79664206D01*
X207062225Y-80405661D01*
X206961195Y-80649570D01*
X204469702Y-83141063D01*
X204377464Y-83169043D01*
X204358957Y-83174657D01*
X203717890Y-83517314D01*
X202984000Y-83445032D01*
X201384000Y-83445032D01*
X200574967Y-83524715D01*
X199797024Y-83760701D01*
X199578000Y-83877772D01*
X199578000Y-72229193D01*
X199860000Y-72256968D01*
X201460000Y-72256968D01*
X202269033Y-72177285D01*
X203046976Y-71941299D01*
X203763932Y-71558078D01*
X204392349Y-71042349D01*
X204908078Y-70413932D01*
X205291299Y-69696976D01*
X205527285Y-68919033D01*
X205606968Y-68110000D01*
X205606968Y-66510000D01*
X205553273Y-65964825D01*
X205587000Y-65795267D01*
X205587000Y-64824733D01*
X205397658Y-63872847D01*
X205026251Y-62976190D01*
X204487051Y-62169220D01*
X203973831Y-61656000D01*
X207985615Y-61656000D01*
X208229523Y-61757030D01*
X209104129Y-61931000D01*
X209995871Y-61931000D01*
X210870477Y-61757030D01*
X211694339Y-61415775D01*
X212435794Y-60920350D01*
X213066350Y-60289794D01*
X213561775Y-59548339D01*
X213903030Y-58724477D01*
X214077000Y-57849871D01*
X214077000Y-56958129D01*
X213903030Y-56083523D01*
X213561775Y-55259661D01*
X213066350Y-54518206D01*
X212435794Y-53887650D01*
X211694339Y-53392225D01*
X210870477Y-53050970D01*
X209995871Y-52877000D01*
X209104129Y-52877000D01*
X208229523Y-53050970D01*
X207985615Y-53152000D01*
X196890385Y-53152000D01*
X196646477Y-53050970D01*
X195771871Y-52877000D01*
X194880129Y-52877000D01*
X194005523Y-53050970D01*
X193181661Y-53392225D01*
X192440206Y-53887650D01*
X191809650Y-54518206D01*
X191314225Y-55259661D01*
X190972970Y-56083523D01*
X190799000Y-56958129D01*
X190799000Y-57849871D01*
X190972970Y-58724477D01*
X191074001Y-58968387D01*
X191074001Y-72473032D01*
X189650000Y-72473032D01*
X188840967Y-72552715D01*
X188833573Y-72554958D01*
X188204500Y-72493000D01*
X187715500Y-72493000D01*
X186984337Y-72565013D01*
X186690000Y-72654299D01*
X186395663Y-72565013D01*
X185664500Y-72493000D01*
X185175500Y-72493000D01*
X184444337Y-72565013D01*
X184150000Y-72654299D01*
X183855663Y-72565013D01*
X183124500Y-72493000D01*
X182635500Y-72493000D01*
X181904337Y-72565013D01*
X181610000Y-72654299D01*
X181315663Y-72565013D01*
X180584500Y-72493000D01*
X180095500Y-72493000D01*
X179364337Y-72565013D01*
X179070000Y-72654299D01*
X178775663Y-72565013D01*
X178044500Y-72493000D01*
X177555500Y-72493000D01*
X176824337Y-72565013D01*
X176530000Y-72654299D01*
X176235663Y-72565013D01*
X175504500Y-72493000D01*
X175015500Y-72493000D01*
X174284337Y-72565013D01*
X173990000Y-72654299D01*
X173695663Y-72565013D01*
X172964500Y-72493000D01*
X172475500Y-72493000D01*
X171744337Y-72565013D01*
X171450000Y-72654299D01*
X171155663Y-72565013D01*
X170424500Y-72493000D01*
X169935500Y-72493000D01*
X169204337Y-72565013D01*
X168910000Y-72654299D01*
X168615663Y-72565013D01*
X167884500Y-72493000D01*
X167395500Y-72493000D01*
X166664337Y-72565013D01*
X166370000Y-72654299D01*
X166075663Y-72565013D01*
X165344500Y-72493000D01*
X164855500Y-72493000D01*
X164124337Y-72565013D01*
X163830000Y-72654299D01*
X163535663Y-72565013D01*
X162804500Y-72493000D01*
X162315500Y-72493000D01*
X161584337Y-72565013D01*
X161290000Y-72654299D01*
X160995663Y-72565013D01*
X160264500Y-72493000D01*
X159775500Y-72493000D01*
X159044337Y-72565013D01*
X158750000Y-72654299D01*
X158455663Y-72565013D01*
X157724500Y-72493000D01*
X157235500Y-72493000D01*
X156504337Y-72565013D01*
X156210000Y-72654299D01*
X155915663Y-72565013D01*
X155184500Y-72493000D01*
X154695500Y-72493000D01*
X153964337Y-72565013D01*
X153670000Y-72654299D01*
X153375663Y-72565013D01*
X152644500Y-72493000D01*
X152155500Y-72493000D01*
X151592000Y-72548500D01*
X151592000Y-69764801D01*
X151661942Y-69660126D01*
X152029580Y-68772569D01*
X152217000Y-67830343D01*
X152217000Y-66869657D01*
X152107468Y-66319000D01*
X163735419Y-66319000D01*
X163769037Y-66315689D01*
X163790456Y-66315689D01*
X163799621Y-66314726D01*
X164119831Y-66278809D01*
X164178332Y-66266374D01*
X164237024Y-66254753D01*
X164245819Y-66252030D01*
X164245826Y-66252028D01*
X164245832Y-66252025D01*
X164552963Y-66154597D01*
X164607900Y-66131051D01*
X164663249Y-66108238D01*
X164671355Y-66103855D01*
X164953718Y-65948625D01*
X165003074Y-65914830D01*
X165052901Y-65881725D01*
X165060001Y-65875851D01*
X165111069Y-65833000D01*
X168910743Y-65833000D01*
X169162110Y-65883000D01*
X170181890Y-65883000D01*
X170433257Y-65833000D01*
X173910743Y-65833000D01*
X174162110Y-65883000D01*
X175181890Y-65883000D01*
X176182075Y-65684051D01*
X177124229Y-65293798D01*
X177972145Y-64727238D01*
X178693238Y-64006145D01*
X179259798Y-63158229D01*
X179650051Y-62216075D01*
X179849000Y-61215890D01*
X179849000Y-60196110D01*
X179650051Y-59195925D01*
X179259798Y-58253771D01*
X178693238Y-57405855D01*
X177972145Y-56684762D01*
X177124229Y-56118202D01*
X176182075Y-55727949D01*
X175181890Y-55529000D01*
X174162110Y-55529000D01*
X173910743Y-55579000D01*
X170433257Y-55579000D01*
X170181890Y-55529000D01*
X169162110Y-55529000D01*
X168910743Y-55579000D01*
X155496082Y-55579000D01*
X156037964Y-54768016D01*
X156454601Y-53762166D01*
X156667000Y-52694362D01*
X156667000Y-51605638D01*
X156454601Y-50537834D01*
X156258632Y-50064722D01*
X167325500Y-50064722D01*
X167325500Y-51027278D01*
X167513285Y-51971340D01*
X167881640Y-52860626D01*
X168416407Y-53660962D01*
X169097038Y-54341593D01*
X169897374Y-54876360D01*
X170786660Y-55244715D01*
X171730722Y-55432500D01*
X172693278Y-55432500D01*
X173637340Y-55244715D01*
X174526626Y-54876360D01*
X175326962Y-54341593D01*
X176007593Y-53660962D01*
X176542360Y-52860626D01*
X176910715Y-51971340D01*
X177098500Y-51027278D01*
X177098500Y-50064722D01*
X176910715Y-49120660D01*
X176542360Y-48231374D01*
X176007593Y-47431038D01*
X175326962Y-46750407D01*
X174526626Y-46215640D01*
X173637340Y-45847285D01*
X172693278Y-45659500D01*
X171730722Y-45659500D01*
X170786660Y-45847285D01*
X169897374Y-46215640D01*
X169097038Y-46750407D01*
X168416407Y-47431038D01*
X167881640Y-48231374D01*
X167513285Y-49120660D01*
X167325500Y-50064722D01*
X156258632Y-50064722D01*
X156037964Y-49531984D01*
X155433101Y-48626743D01*
X155156358Y-48350000D01*
X155433101Y-48073257D01*
X156037964Y-47168016D01*
X156454601Y-46162166D01*
X156667000Y-45094362D01*
X156667000Y-44005638D01*
X156454601Y-42937834D01*
X156037964Y-41931984D01*
X155433101Y-41026743D01*
X155220358Y-40814000D01*
X160177709Y-40814000D01*
X159893285Y-41500660D01*
X159705500Y-42444722D01*
X159705500Y-43407278D01*
X159893285Y-44351340D01*
X160261640Y-45240626D01*
X160796407Y-46040962D01*
X161477038Y-46721593D01*
X162277374Y-47256360D01*
X163166660Y-47624715D01*
X164110722Y-47812500D01*
X165073278Y-47812500D01*
X166017340Y-47624715D01*
X166906626Y-47256360D01*
X167706962Y-46721593D01*
X168387593Y-46040962D01*
X168922360Y-45240626D01*
X169290715Y-44351340D01*
X169478500Y-43407278D01*
X169478500Y-42444722D01*
X169402372Y-42062000D01*
X175021628Y-42062000D01*
X174945500Y-42444722D01*
X174945500Y-43407278D01*
X175133285Y-44351340D01*
X175501640Y-45240626D01*
X176036407Y-46040962D01*
X176717038Y-46721593D01*
X177517374Y-47256360D01*
X178406660Y-47624715D01*
X179350722Y-47812500D01*
X180313278Y-47812500D01*
X181257340Y-47624715D01*
X182146626Y-47256360D01*
X182946962Y-46721593D01*
X183627593Y-46040962D01*
X184162360Y-45240626D01*
X184200903Y-45147575D01*
X186844373Y-47791045D01*
X186986762Y-48004145D01*
X187707855Y-48725238D01*
X188555771Y-49291798D01*
X189497925Y-49682051D01*
X190498110Y-49881000D01*
X191517890Y-49881000D01*
X191769257Y-49831000D01*
X195246743Y-49831000D01*
X195498110Y-49881000D01*
X196517890Y-49881000D01*
X197518075Y-49682051D01*
X198460229Y-49291798D01*
X199308145Y-48725238D01*
X200029238Y-48004145D01*
X200595798Y-47156229D01*
X200986051Y-46214075D01*
X201028222Y-46002066D01*
X203859539Y-46002066D01*
X203961339Y-46271579D01*
X204259477Y-46417463D01*
X204580346Y-46502380D01*
X204911617Y-46523066D01*
X205240557Y-46478728D01*
X205554527Y-46371069D01*
X205740661Y-46271579D01*
X205842461Y-46002066D01*
X208859539Y-46002066D01*
X208961339Y-46271579D01*
X209259477Y-46417463D01*
X209580346Y-46502380D01*
X209911617Y-46523066D01*
X210240557Y-46478728D01*
X210554527Y-46371069D01*
X210740661Y-46271579D01*
X210842461Y-46002066D01*
X209851000Y-45010605D01*
X208859539Y-46002066D01*
X205842461Y-46002066D01*
X204851000Y-45010605D01*
X203859539Y-46002066D01*
X201028222Y-46002066D01*
X201185000Y-45213890D01*
X201185000Y-44891617D01*
X203158934Y-44891617D01*
X203203272Y-45220557D01*
X203310931Y-45534527D01*
X203410421Y-45720661D01*
X203679934Y-45822461D01*
X204671395Y-44831000D01*
X205030605Y-44831000D01*
X206022066Y-45822461D01*
X206291579Y-45720661D01*
X206437463Y-45422523D01*
X206522380Y-45101654D01*
X206535495Y-44891617D01*
X208158934Y-44891617D01*
X208203272Y-45220557D01*
X208310931Y-45534527D01*
X208410421Y-45720661D01*
X208679934Y-45822461D01*
X209671395Y-44831000D01*
X210030605Y-44831000D01*
X211022066Y-45822461D01*
X211291579Y-45720661D01*
X211437463Y-45422523D01*
X211522380Y-45101654D01*
X211543066Y-44770383D01*
X211498728Y-44441443D01*
X211391069Y-44127473D01*
X211291579Y-43941339D01*
X211022066Y-43839539D01*
X210030605Y-44831000D01*
X209671395Y-44831000D01*
X208679934Y-43839539D01*
X208410421Y-43941339D01*
X208264537Y-44239477D01*
X208179620Y-44560346D01*
X208158934Y-44891617D01*
X206535495Y-44891617D01*
X206543066Y-44770383D01*
X206498728Y-44441443D01*
X206391069Y-44127473D01*
X206291579Y-43941339D01*
X206022066Y-43839539D01*
X205030605Y-44831000D01*
X204671395Y-44831000D01*
X203679934Y-43839539D01*
X203410421Y-43941339D01*
X203264537Y-44239477D01*
X203179620Y-44560346D01*
X203158934Y-44891617D01*
X201185000Y-44891617D01*
X201185000Y-44194110D01*
X201078746Y-43659934D01*
X203859539Y-43659934D01*
X204851000Y-44651395D01*
X205842461Y-43659934D01*
X208859539Y-43659934D01*
X209851000Y-44651395D01*
X210842461Y-43659934D01*
X210740661Y-43390421D01*
X210442523Y-43244537D01*
X210121654Y-43159620D01*
X209790383Y-43138934D01*
X209461443Y-43183272D01*
X209147473Y-43290931D01*
X208961339Y-43390421D01*
X208859539Y-43659934D01*
X205842461Y-43659934D01*
X205740661Y-43390421D01*
X205442523Y-43244537D01*
X205121654Y-43159620D01*
X204790383Y-43138934D01*
X204461443Y-43183272D01*
X204147473Y-43290931D01*
X203961339Y-43390421D01*
X203859539Y-43659934D01*
X201078746Y-43659934D01*
X200986051Y-43193925D01*
X200595798Y-42251771D01*
X200029238Y-41403855D01*
X199308145Y-40682762D01*
X199231148Y-40631314D01*
X215486905Y-40631314D01*
X215486905Y-41156686D01*
X215589400Y-41671963D01*
X215790451Y-42157343D01*
X216082332Y-42594174D01*
X216453826Y-42965668D01*
X216890657Y-43257549D01*
X217376037Y-43458600D01*
X217891314Y-43561095D01*
X218416686Y-43561095D01*
X218931963Y-43458600D01*
X219417343Y-43257549D01*
X219854174Y-42965668D01*
X220225668Y-42594174D01*
X220517549Y-42157343D01*
X220718600Y-41671963D01*
X220821095Y-41156686D01*
X220821095Y-40631314D01*
X220718600Y-40116037D01*
X220517549Y-39630657D01*
X220225668Y-39193826D01*
X219854174Y-38822332D01*
X219417343Y-38530451D01*
X218931963Y-38329400D01*
X218416686Y-38226905D01*
X217891314Y-38226905D01*
X217376037Y-38329400D01*
X216890657Y-38530451D01*
X216453826Y-38822332D01*
X216082332Y-39193826D01*
X215790451Y-39630657D01*
X215589400Y-40116037D01*
X215486905Y-40631314D01*
X199231148Y-40631314D01*
X198460229Y-40116202D01*
X197518075Y-39725949D01*
X196517890Y-39527000D01*
X195498110Y-39527000D01*
X195246743Y-39577000D01*
X193131672Y-39577000D01*
X185964672Y-32410000D01*
X221590001Y-32410000D01*
X221590000Y-34322418D01*
X221590000Y-34322418D01*
G37*
X221590000Y-34322418D02*
X221590001Y-34322428D01*
X221590000Y-36797581D01*
X221590000Y-36797582D01*
X221590001Y-39337572D01*
X221590000Y-39337582D01*
X221590001Y-87051821D01*
X221461165Y-86894835D01*
X221298919Y-86761683D01*
X215186806Y-80649571D01*
X215085775Y-80405661D01*
X214590350Y-79664206D01*
X213959794Y-79033650D01*
X213218339Y-78538225D01*
X212394477Y-78196970D01*
X211519871Y-78023000D01*
X210628129Y-78023000D01*
X209753523Y-78196970D01*
X208929661Y-78538225D01*
X208188206Y-79033650D01*
X207557650Y-79664206D01*
X207062225Y-80405661D01*
X206961195Y-80649570D01*
X204469702Y-83141063D01*
X204377464Y-83169043D01*
X204358957Y-83174657D01*
X203717890Y-83517314D01*
X202984000Y-83445032D01*
X201384000Y-83445032D01*
X200574967Y-83524715D01*
X199797024Y-83760701D01*
X199578000Y-83877772D01*
X199578000Y-72229193D01*
X199860000Y-72256968D01*
X201460000Y-72256968D01*
X202269033Y-72177285D01*
X203046976Y-71941299D01*
X203763932Y-71558078D01*
X204392349Y-71042349D01*
X204908078Y-70413932D01*
X205291299Y-69696976D01*
X205527285Y-68919033D01*
X205606968Y-68110000D01*
X205606968Y-66510000D01*
X205553273Y-65964825D01*
X205587000Y-65795267D01*
X205587000Y-64824733D01*
X205397658Y-63872847D01*
X205026251Y-62976190D01*
X204487051Y-62169220D01*
X203973831Y-61656000D01*
X207985615Y-61656000D01*
X208229523Y-61757030D01*
X209104129Y-61931000D01*
X209995871Y-61931000D01*
X210870477Y-61757030D01*
X211694339Y-61415775D01*
X212435794Y-60920350D01*
X213066350Y-60289794D01*
X213561775Y-59548339D01*
X213903030Y-58724477D01*
X214077000Y-57849871D01*
X214077000Y-56958129D01*
X213903030Y-56083523D01*
X213561775Y-55259661D01*
X213066350Y-54518206D01*
X212435794Y-53887650D01*
X211694339Y-53392225D01*
X210870477Y-53050970D01*
X209995871Y-52877000D01*
X209104129Y-52877000D01*
X208229523Y-53050970D01*
X207985615Y-53152000D01*
X196890385Y-53152000D01*
X196646477Y-53050970D01*
X195771871Y-52877000D01*
X194880129Y-52877000D01*
X194005523Y-53050970D01*
X193181661Y-53392225D01*
X192440206Y-53887650D01*
X191809650Y-54518206D01*
X191314225Y-55259661D01*
X190972970Y-56083523D01*
X190799000Y-56958129D01*
X190799000Y-57849871D01*
X190972970Y-58724477D01*
X191074001Y-58968387D01*
X191074001Y-72473032D01*
X189650000Y-72473032D01*
X188840967Y-72552715D01*
X188833573Y-72554958D01*
X188204500Y-72493000D01*
X187715500Y-72493000D01*
X186984337Y-72565013D01*
X186690000Y-72654299D01*
X186395663Y-72565013D01*
X185664500Y-72493000D01*
X185175500Y-72493000D01*
X184444337Y-72565013D01*
X184150000Y-72654299D01*
X183855663Y-72565013D01*
X183124500Y-72493000D01*
X182635500Y-72493000D01*
X181904337Y-72565013D01*
X181610000Y-72654299D01*
X181315663Y-72565013D01*
X180584500Y-72493000D01*
X180095500Y-72493000D01*
X179364337Y-72565013D01*
X179070000Y-72654299D01*
X178775663Y-72565013D01*
X178044500Y-72493000D01*
X177555500Y-72493000D01*
X176824337Y-72565013D01*
X176530000Y-72654299D01*
X176235663Y-72565013D01*
X175504500Y-72493000D01*
X175015500Y-72493000D01*
X174284337Y-72565013D01*
X173990000Y-72654299D01*
X173695663Y-72565013D01*
X172964500Y-72493000D01*
X172475500Y-72493000D01*
X171744337Y-72565013D01*
X171450000Y-72654299D01*
X171155663Y-72565013D01*
X170424500Y-72493000D01*
X169935500Y-72493000D01*
X169204337Y-72565013D01*
X168910000Y-72654299D01*
X168615663Y-72565013D01*
X167884500Y-72493000D01*
X167395500Y-72493000D01*
X166664337Y-72565013D01*
X166370000Y-72654299D01*
X166075663Y-72565013D01*
X165344500Y-72493000D01*
X164855500Y-72493000D01*
X164124337Y-72565013D01*
X163830000Y-72654299D01*
X163535663Y-72565013D01*
X162804500Y-72493000D01*
X162315500Y-72493000D01*
X161584337Y-72565013D01*
X161290000Y-72654299D01*
X160995663Y-72565013D01*
X160264500Y-72493000D01*
X159775500Y-72493000D01*
X159044337Y-72565013D01*
X158750000Y-72654299D01*
X158455663Y-72565013D01*
X157724500Y-72493000D01*
X157235500Y-72493000D01*
X156504337Y-72565013D01*
X156210000Y-72654299D01*
X155915663Y-72565013D01*
X155184500Y-72493000D01*
X154695500Y-72493000D01*
X153964337Y-72565013D01*
X153670000Y-72654299D01*
X153375663Y-72565013D01*
X152644500Y-72493000D01*
X152155500Y-72493000D01*
X151592000Y-72548500D01*
X151592000Y-69764801D01*
X151661942Y-69660126D01*
X152029580Y-68772569D01*
X152217000Y-67830343D01*
X152217000Y-66869657D01*
X152107468Y-66319000D01*
X163735419Y-66319000D01*
X163769037Y-66315689D01*
X163790456Y-66315689D01*
X163799621Y-66314726D01*
X164119831Y-66278809D01*
X164178332Y-66266374D01*
X164237024Y-66254753D01*
X164245819Y-66252030D01*
X164245826Y-66252028D01*
X164245832Y-66252025D01*
X164552963Y-66154597D01*
X164607900Y-66131051D01*
X164663249Y-66108238D01*
X164671355Y-66103855D01*
X164953718Y-65948625D01*
X165003074Y-65914830D01*
X165052901Y-65881725D01*
X165060001Y-65875851D01*
X165111069Y-65833000D01*
X168910743Y-65833000D01*
X169162110Y-65883000D01*
X170181890Y-65883000D01*
X170433257Y-65833000D01*
X173910743Y-65833000D01*
X174162110Y-65883000D01*
X175181890Y-65883000D01*
X176182075Y-65684051D01*
X177124229Y-65293798D01*
X177972145Y-64727238D01*
X178693238Y-64006145D01*
X179259798Y-63158229D01*
X179650051Y-62216075D01*
X179849000Y-61215890D01*
X179849000Y-60196110D01*
X179650051Y-59195925D01*
X179259798Y-58253771D01*
X178693238Y-57405855D01*
X177972145Y-56684762D01*
X177124229Y-56118202D01*
X176182075Y-55727949D01*
X175181890Y-55529000D01*
X174162110Y-55529000D01*
X173910743Y-55579000D01*
X170433257Y-55579000D01*
X170181890Y-55529000D01*
X169162110Y-55529000D01*
X168910743Y-55579000D01*
X155496082Y-55579000D01*
X156037964Y-54768016D01*
X156454601Y-53762166D01*
X156667000Y-52694362D01*
X156667000Y-51605638D01*
X156454601Y-50537834D01*
X156258632Y-50064722D01*
X167325500Y-50064722D01*
X167325500Y-51027278D01*
X167513285Y-51971340D01*
X167881640Y-52860626D01*
X168416407Y-53660962D01*
X169097038Y-54341593D01*
X169897374Y-54876360D01*
X170786660Y-55244715D01*
X171730722Y-55432500D01*
X172693278Y-55432500D01*
X173637340Y-55244715D01*
X174526626Y-54876360D01*
X175326962Y-54341593D01*
X176007593Y-53660962D01*
X176542360Y-52860626D01*
X176910715Y-51971340D01*
X177098500Y-51027278D01*
X177098500Y-50064722D01*
X176910715Y-49120660D01*
X176542360Y-48231374D01*
X176007593Y-47431038D01*
X175326962Y-46750407D01*
X174526626Y-46215640D01*
X173637340Y-45847285D01*
X172693278Y-45659500D01*
X171730722Y-45659500D01*
X170786660Y-45847285D01*
X169897374Y-46215640D01*
X169097038Y-46750407D01*
X168416407Y-47431038D01*
X167881640Y-48231374D01*
X167513285Y-49120660D01*
X167325500Y-50064722D01*
X156258632Y-50064722D01*
X156037964Y-49531984D01*
X155433101Y-48626743D01*
X155156358Y-48350000D01*
X155433101Y-48073257D01*
X156037964Y-47168016D01*
X156454601Y-46162166D01*
X156667000Y-45094362D01*
X156667000Y-44005638D01*
X156454601Y-42937834D01*
X156037964Y-41931984D01*
X155433101Y-41026743D01*
X155220358Y-40814000D01*
X160177709Y-40814000D01*
X159893285Y-41500660D01*
X159705500Y-42444722D01*
X159705500Y-43407278D01*
X159893285Y-44351340D01*
X160261640Y-45240626D01*
X160796407Y-46040962D01*
X161477038Y-46721593D01*
X162277374Y-47256360D01*
X163166660Y-47624715D01*
X164110722Y-47812500D01*
X165073278Y-47812500D01*
X166017340Y-47624715D01*
X166906626Y-47256360D01*
X167706962Y-46721593D01*
X168387593Y-46040962D01*
X168922360Y-45240626D01*
X169290715Y-44351340D01*
X169478500Y-43407278D01*
X169478500Y-42444722D01*
X169402372Y-42062000D01*
X175021628Y-42062000D01*
X174945500Y-42444722D01*
X174945500Y-43407278D01*
X175133285Y-44351340D01*
X175501640Y-45240626D01*
X176036407Y-46040962D01*
X176717038Y-46721593D01*
X177517374Y-47256360D01*
X178406660Y-47624715D01*
X179350722Y-47812500D01*
X180313278Y-47812500D01*
X181257340Y-47624715D01*
X182146626Y-47256360D01*
X182946962Y-46721593D01*
X183627593Y-46040962D01*
X184162360Y-45240626D01*
X184200903Y-45147575D01*
X186844373Y-47791045D01*
X186986762Y-48004145D01*
X187707855Y-48725238D01*
X188555771Y-49291798D01*
X189497925Y-49682051D01*
X190498110Y-49881000D01*
X191517890Y-49881000D01*
X191769257Y-49831000D01*
X195246743Y-49831000D01*
X195498110Y-49881000D01*
X196517890Y-49881000D01*
X197518075Y-49682051D01*
X198460229Y-49291798D01*
X199308145Y-48725238D01*
X200029238Y-48004145D01*
X200595798Y-47156229D01*
X200986051Y-46214075D01*
X201028222Y-46002066D01*
X203859539Y-46002066D01*
X203961339Y-46271579D01*
X204259477Y-46417463D01*
X204580346Y-46502380D01*
X204911617Y-46523066D01*
X205240557Y-46478728D01*
X205554527Y-46371069D01*
X205740661Y-46271579D01*
X205842461Y-46002066D01*
X208859539Y-46002066D01*
X208961339Y-46271579D01*
X209259477Y-46417463D01*
X209580346Y-46502380D01*
X209911617Y-46523066D01*
X210240557Y-46478728D01*
X210554527Y-46371069D01*
X210740661Y-46271579D01*
X210842461Y-46002066D01*
X209851000Y-45010605D01*
X208859539Y-46002066D01*
X205842461Y-46002066D01*
X204851000Y-45010605D01*
X203859539Y-46002066D01*
X201028222Y-46002066D01*
X201185000Y-45213890D01*
X201185000Y-44891617D01*
X203158934Y-44891617D01*
X203203272Y-45220557D01*
X203310931Y-45534527D01*
X203410421Y-45720661D01*
X203679934Y-45822461D01*
X204671395Y-44831000D01*
X205030605Y-44831000D01*
X206022066Y-45822461D01*
X206291579Y-45720661D01*
X206437463Y-45422523D01*
X206522380Y-45101654D01*
X206535495Y-44891617D01*
X208158934Y-44891617D01*
X208203272Y-45220557D01*
X208310931Y-45534527D01*
X208410421Y-45720661D01*
X208679934Y-45822461D01*
X209671395Y-44831000D01*
X210030605Y-44831000D01*
X211022066Y-45822461D01*
X211291579Y-45720661D01*
X211437463Y-45422523D01*
X211522380Y-45101654D01*
X211543066Y-44770383D01*
X211498728Y-44441443D01*
X211391069Y-44127473D01*
X211291579Y-43941339D01*
X211022066Y-43839539D01*
X210030605Y-44831000D01*
X209671395Y-44831000D01*
X208679934Y-43839539D01*
X208410421Y-43941339D01*
X208264537Y-44239477D01*
X208179620Y-44560346D01*
X208158934Y-44891617D01*
X206535495Y-44891617D01*
X206543066Y-44770383D01*
X206498728Y-44441443D01*
X206391069Y-44127473D01*
X206291579Y-43941339D01*
X206022066Y-43839539D01*
X205030605Y-44831000D01*
X204671395Y-44831000D01*
X203679934Y-43839539D01*
X203410421Y-43941339D01*
X203264537Y-44239477D01*
X203179620Y-44560346D01*
X203158934Y-44891617D01*
X201185000Y-44891617D01*
X201185000Y-44194110D01*
X201078746Y-43659934D01*
X203859539Y-43659934D01*
X204851000Y-44651395D01*
X205842461Y-43659934D01*
X208859539Y-43659934D01*
X209851000Y-44651395D01*
X210842461Y-43659934D01*
X210740661Y-43390421D01*
X210442523Y-43244537D01*
X210121654Y-43159620D01*
X209790383Y-43138934D01*
X209461443Y-43183272D01*
X209147473Y-43290931D01*
X208961339Y-43390421D01*
X208859539Y-43659934D01*
X205842461Y-43659934D01*
X205740661Y-43390421D01*
X205442523Y-43244537D01*
X205121654Y-43159620D01*
X204790383Y-43138934D01*
X204461443Y-43183272D01*
X204147473Y-43290931D01*
X203961339Y-43390421D01*
X203859539Y-43659934D01*
X201078746Y-43659934D01*
X200986051Y-43193925D01*
X200595798Y-42251771D01*
X200029238Y-41403855D01*
X199308145Y-40682762D01*
X199231148Y-40631314D01*
X215486905Y-40631314D01*
X215486905Y-41156686D01*
X215589400Y-41671963D01*
X215790451Y-42157343D01*
X216082332Y-42594174D01*
X216453826Y-42965668D01*
X216890657Y-43257549D01*
X217376037Y-43458600D01*
X217891314Y-43561095D01*
X218416686Y-43561095D01*
X218931963Y-43458600D01*
X219417343Y-43257549D01*
X219854174Y-42965668D01*
X220225668Y-42594174D01*
X220517549Y-42157343D01*
X220718600Y-41671963D01*
X220821095Y-41156686D01*
X220821095Y-40631314D01*
X220718600Y-40116037D01*
X220517549Y-39630657D01*
X220225668Y-39193826D01*
X219854174Y-38822332D01*
X219417343Y-38530451D01*
X218931963Y-38329400D01*
X218416686Y-38226905D01*
X217891314Y-38226905D01*
X217376037Y-38329400D01*
X216890657Y-38530451D01*
X216453826Y-38822332D01*
X216082332Y-39193826D01*
X215790451Y-39630657D01*
X215589400Y-40116037D01*
X215486905Y-40631314D01*
X199231148Y-40631314D01*
X198460229Y-40116202D01*
X197518075Y-39725949D01*
X196517890Y-39527000D01*
X195498110Y-39527000D01*
X195246743Y-39577000D01*
X193131672Y-39577000D01*
X185964672Y-32410000D01*
X221590001Y-32410000D01*
X221590000Y-34322418D01*
M02*
