M48
; DRILL file {KiCad (5.1.4)-1} date 2021/06/18 12:35:48 PM
; FORMAT={-:-/ absolute / metric / decimal}
; #@! TF.CreationDate,2021-06-18T12:35:48+02:00
; #@! TF.GenerationSoftware,Kicad,Pcbnew,(5.1.4)-1
; #@! TF.FileFunction,Plated,1,2,PTH
FMAT,2
METRIC
T1C0.400
T2C0.750
T3C0.800
T4C0.900
T5C1.000
T6C1.013
T7C1.320
T8C1.400
T9C1.600
T10C2.000
%
G90
G05
T1
X157.828Y-118.618
X159.766Y-106.807
X166.497Y-106.807
X167.894Y-120.904
X175.006Y-118.618
X175.26Y-109.855
X180.213Y-89.916
X192.532Y-120.65
X195.326Y-57.404
X196.596Y-102.362
X200.406Y-113.792
X209.55Y-57.404
X211.074Y-82.55
T2
X135.128Y-80.772
X136.398Y-80.772
X137.668Y-80.772
T3
X127.0Y-109.22
X129.0Y-109.22
X188.5Y-83.82
X190.5Y-83.82
X156.75Y-113.03
X158.75Y-113.03
X163.83Y-113.03
X165.83Y-113.03
X127.0Y-118.11
X129.5Y-118.11
X138.43Y-111.76
X138.43Y-113.76
X202.184Y-88.392
X202.184Y-90.932
X202.184Y-93.472
X209.804Y-88.392
X209.804Y-90.932
X209.804Y-93.472
X200.66Y-65.31
X200.66Y-67.31
T4
X199.39Y-110.49
X201.93Y-110.49
X186.69Y-109.22
X189.23Y-109.22
X186.69Y-118.11
X189.23Y-118.11
T5
X137.14Y-67.35
X147.34Y-67.35
X82.95Y-67.31
X82.95Y-94.81
X87.95Y-94.81
X102.95Y-94.81
X107.95Y-67.31
X107.95Y-94.81
X152.4Y-77.47
X154.94Y-77.47
X157.48Y-77.47
X160.02Y-77.47
X162.56Y-77.47
X165.1Y-77.47
X167.64Y-77.47
X170.18Y-77.47
X172.72Y-77.47
X175.26Y-77.47
X177.8Y-77.47
X180.34Y-77.47
X182.88Y-77.47
X185.42Y-77.47
X187.96Y-77.47
X190.5Y-77.47
X152.4Y-102.87
X154.94Y-102.87
X157.48Y-102.87
X160.02Y-102.87
X162.56Y-102.87
X165.1Y-102.87
X167.64Y-102.87
X170.18Y-102.87
X172.72Y-102.87
X175.26Y-102.87
X177.8Y-102.87
X180.34Y-102.87
X182.88Y-102.87
X185.42Y-102.87
X187.96Y-102.87
X190.5Y-102.87
T6
X164.592Y-42.926
X172.212Y-50.546
X179.832Y-42.926
T7
X133.35Y-102.87
X135.9Y-102.87
X138.45Y-102.87
X143.51Y-119.38
X146.06Y-119.38
X148.61Y-119.38
T8
X169.672Y-60.706
X174.672Y-60.706
X117.475Y-45.72
X122.475Y-45.72
X204.851Y-44.831
X209.851Y-44.831
X98.044Y-45.72
X103.044Y-45.72
X78.74Y-45.72
X83.74Y-45.72
X191.008Y-44.704
X196.008Y-44.704
T9
X128.27Y-90.17
X143.51Y-90.17
X82.55Y-109.22
X97.79Y-109.22
X82.55Y-118.11
X97.79Y-118.11
X105.41Y-109.22
X120.65Y-109.22
X105.41Y-118.11
X120.65Y-118.11
T10
X133.34Y-54.65
X142.24Y-69.85
X151.14Y-44.55
X151.14Y-52.15
T0
M30
