G04 #@! TF.GenerationSoftware,KiCad,Pcbnew,(5.0.1)-4*
G04 #@! TF.CreationDate,2021-06-16T15:33:18+02:00*
G04 #@! TF.ProjectId,IOT SMART SWITCH,494F5420534D41525420535749544348,1.0*
G04 #@! TF.SameCoordinates,Original*
G04 #@! TF.FileFunction,Copper,L2,Bot,Signal*
G04 #@! TF.FilePolarity,Positive*
%FSLAX46Y46*%
G04 Gerber Fmt 4.6, Leading zero omitted, Abs format (unit mm)*
G04 Created by KiCad (PCBNEW (5.0.1)-4) date 2021/06/16 15:33:18*
%MOMM*%
%LPD*%
G01*
G04 APERTURE LIST*
G04 #@! TA.AperFunction,ComponentPad*
%ADD10O,1.700000X1.700000*%
G04 #@! TD*
G04 #@! TA.AperFunction,ComponentPad*
%ADD11R,1.700000X1.700000*%
G04 #@! TD*
G04 #@! TA.AperFunction,ComponentPad*
%ADD12R,1.600000X1.600000*%
G04 #@! TD*
G04 #@! TA.AperFunction,ComponentPad*
%ADD13C,1.600000*%
G04 #@! TD*
G04 #@! TA.AperFunction,ComponentPad*
%ADD14C,1.519000*%
G04 #@! TD*
G04 #@! TA.AperFunction,ComponentPad*
%ADD15C,2.100000*%
G04 #@! TD*
G04 #@! TA.AperFunction,ComponentPad*
%ADD16C,1.500000*%
G04 #@! TD*
G04 #@! TA.AperFunction,ComponentPad*
%ADD17O,3.200000X3.200000*%
G04 #@! TD*
G04 #@! TA.AperFunction,ComponentPad*
%ADD18R,3.200000X3.200000*%
G04 #@! TD*
G04 #@! TA.AperFunction,ComponentPad*
%ADD19C,1.800000*%
G04 #@! TD*
G04 #@! TA.AperFunction,ComponentPad*
%ADD20R,1.800000X1.800000*%
G04 #@! TD*
G04 #@! TA.AperFunction,ComponentPad*
%ADD21C,2.800000*%
G04 #@! TD*
G04 #@! TA.AperFunction,ComponentPad*
%ADD22O,1.050000X1.500000*%
G04 #@! TD*
G04 #@! TA.AperFunction,ComponentPad*
%ADD23R,1.050000X1.500000*%
G04 #@! TD*
G04 #@! TA.AperFunction,ComponentPad*
%ADD24O,1.600000X1.600000*%
G04 #@! TD*
G04 #@! TA.AperFunction,ComponentPad*
%ADD25C,1.980000*%
G04 #@! TD*
G04 #@! TA.AperFunction,ComponentPad*
%ADD26R,1.980000X1.980000*%
G04 #@! TD*
G04 #@! TA.AperFunction,ViaPad*
%ADD27C,0.800000*%
G04 #@! TD*
G04 #@! TA.AperFunction,Conductor*
%ADD28C,0.250000*%
G04 #@! TD*
G04 #@! TA.AperFunction,Conductor*
%ADD29C,2.000000*%
G04 #@! TD*
G04 #@! TA.AperFunction,Conductor*
%ADD30C,0.254000*%
G04 #@! TD*
G04 APERTURE END LIST*
D10*
G04 #@! TO.P,J4,16*
G04 #@! TO.N,Net-(J4-Pad16)*
X152400000Y-77470000D03*
G04 #@! TO.P,J4,15*
G04 #@! TO.N,Net-(J4-Pad15)*
X154940000Y-77470000D03*
G04 #@! TO.P,J4,14*
G04 #@! TO.N,Net-(J4-Pad14)*
X157480000Y-77470000D03*
G04 #@! TO.P,J4,13*
G04 #@! TO.N,Net-(J4-Pad13)*
X160020000Y-77470000D03*
G04 #@! TO.P,J4,12*
G04 #@! TO.N,Net-(J4-Pad12)*
X162560000Y-77470000D03*
G04 #@! TO.P,J4,11*
G04 #@! TO.N,Net-(J4-Pad11)*
X165100000Y-77470000D03*
G04 #@! TO.P,J4,10*
G04 #@! TO.N,Net-(J4-Pad10)*
X167640000Y-77470000D03*
G04 #@! TO.P,J4,9*
G04 #@! TO.N,Net-(J4-Pad9)*
X170180000Y-77470000D03*
G04 #@! TO.P,J4,8*
G04 #@! TO.N,Net-(J4-Pad8)*
X172720000Y-77470000D03*
G04 #@! TO.P,J4,7*
G04 #@! TO.N,Net-(J4-Pad7)*
X175260000Y-77470000D03*
G04 #@! TO.P,J4,6*
G04 #@! TO.N,Net-(J4-Pad6)*
X177800000Y-77470000D03*
G04 #@! TO.P,J4,5*
G04 #@! TO.N,Net-(J4-Pad5)*
X180340000Y-77470000D03*
G04 #@! TO.P,J4,4*
G04 #@! TO.N,ESP_Pin_21*
X182880000Y-77470000D03*
G04 #@! TO.P,J4,3*
G04 #@! TO.N,Net-(J4-Pad3)*
X185420000Y-77470000D03*
G04 #@! TO.P,J4,2*
G04 #@! TO.N,GNDPWR*
X187960000Y-77470000D03*
D11*
G04 #@! TO.P,J4,1*
G04 #@! TO.N,3V3_DC*
X190500000Y-77470000D03*
G04 #@! TD*
D12*
G04 #@! TO.P,C6,1*
G04 #@! TO.N,12V_DC*
X163830000Y-113030000D03*
D13*
G04 #@! TO.P,C6,2*
G04 #@! TO.N,GNDPWR*
X165830000Y-113030000D03*
G04 #@! TD*
D14*
G04 #@! TO.P,T2,1*
G04 #@! TO.N,CT_ADC*
X164592000Y-42926000D03*
G04 #@! TO.P,T2,2*
G04 #@! TO.N,Net-(C2-Pad1)*
X179832000Y-42926000D03*
G04 #@! TO.P,T2,3*
G04 #@! TO.N,Net-(T2-Pad3)*
X172212000Y-50546000D03*
G04 #@! TD*
D15*
G04 #@! TO.P,J7,1*
G04 #@! TO.N,Net-(J7-Pad1)*
X169672000Y-60706000D03*
G04 #@! TO.P,J7,2*
X174672000Y-60706000D03*
G04 #@! TD*
D16*
G04 #@! TO.P,T1,1*
G04 #@! TO.N,MAINS_L*
X107950000Y-67310000D03*
G04 #@! TO.P,T1,2*
G04 #@! TO.N,MAINS_N*
X82950000Y-67310000D03*
G04 #@! TO.P,T1,3*
G04 #@! TO.N,-18V_AC*
X82950000Y-94810000D03*
G04 #@! TO.P,T1,4*
X87950000Y-94810000D03*
G04 #@! TO.P,T1,5*
G04 #@! TO.N,Net-(D2-Pad2)*
X102950000Y-94810000D03*
G04 #@! TO.P,T1,6*
X107950000Y-94810000D03*
G04 #@! TD*
D12*
G04 #@! TO.P,C1,1*
G04 #@! TO.N,16V_DC*
X127000000Y-118110000D03*
D13*
G04 #@! TO.P,C1,2*
G04 #@! TO.N,GNDPWR*
X129500000Y-118110000D03*
G04 #@! TD*
G04 #@! TO.P,C2,2*
G04 #@! TO.N,GNDPWR*
X200660000Y-65310000D03*
D12*
G04 #@! TO.P,C2,1*
G04 #@! TO.N,Net-(C2-Pad1)*
X200660000Y-67310000D03*
G04 #@! TD*
D13*
G04 #@! TO.P,C3,2*
G04 #@! TO.N,GNDPWR*
X129000000Y-109220000D03*
D12*
G04 #@! TO.P,C3,1*
G04 #@! TO.N,16V_DC*
X127000000Y-109220000D03*
G04 #@! TD*
G04 #@! TO.P,C4,1*
G04 #@! TO.N,16V_DC*
X138430000Y-111760000D03*
D13*
G04 #@! TO.P,C4,2*
G04 #@! TO.N,GNDPWR*
X138430000Y-113760000D03*
G04 #@! TD*
D12*
G04 #@! TO.P,C5,1*
G04 #@! TO.N,3V3_DC*
X190500000Y-83820000D03*
D13*
G04 #@! TO.P,C5,2*
G04 #@! TO.N,GNDPWR*
X188500000Y-83820000D03*
G04 #@! TD*
G04 #@! TO.P,C7,2*
G04 #@! TO.N,GNDPWR*
X158750000Y-113030000D03*
D12*
G04 #@! TO.P,C7,1*
G04 #@! TO.N,3V3_DC*
X156750000Y-113030000D03*
G04 #@! TD*
D17*
G04 #@! TO.P,D1,2*
G04 #@! TO.N,12V_DC*
X143510000Y-90170000D03*
D18*
G04 #@! TO.P,D1,1*
G04 #@! TO.N,Net-(D1-Pad1)*
X128270000Y-90170000D03*
G04 #@! TD*
G04 #@! TO.P,D2,1*
G04 #@! TO.N,16V_DC*
X120650000Y-109220000D03*
D17*
G04 #@! TO.P,D2,2*
G04 #@! TO.N,Net-(D2-Pad2)*
X105410000Y-109220000D03*
G04 #@! TD*
G04 #@! TO.P,D3,2*
G04 #@! TO.N,GNDPWR*
X120650000Y-118110000D03*
D18*
G04 #@! TO.P,D3,1*
G04 #@! TO.N,Net-(D2-Pad2)*
X105410000Y-118110000D03*
G04 #@! TD*
G04 #@! TO.P,D4,1*
G04 #@! TO.N,16V_DC*
X82550000Y-109220000D03*
D17*
G04 #@! TO.P,D4,2*
G04 #@! TO.N,-18V_AC*
X97790000Y-109220000D03*
G04 #@! TD*
D18*
G04 #@! TO.P,D5,1*
G04 #@! TO.N,-18V_AC*
X97790000Y-118110000D03*
D17*
G04 #@! TO.P,D5,2*
G04 #@! TO.N,GNDPWR*
X82550000Y-118110000D03*
G04 #@! TD*
D19*
G04 #@! TO.P,D6,2*
G04 #@! TO.N,Net-(D6-Pad2)*
X201930000Y-110490000D03*
D20*
G04 #@! TO.P,D6,1*
G04 #@! TO.N,Net-(D6-Pad1)*
X199390000Y-110490000D03*
G04 #@! TD*
G04 #@! TO.P,D7,1*
G04 #@! TO.N,Net-(D7-Pad1)*
X186690000Y-109220000D03*
D19*
G04 #@! TO.P,D7,2*
G04 #@! TO.N,12V_DC*
X189230000Y-109220000D03*
G04 #@! TD*
D20*
G04 #@! TO.P,D8,1*
G04 #@! TO.N,Net-(D8-Pad1)*
X186690000Y-118110000D03*
D19*
G04 #@! TO.P,D8,2*
G04 #@! TO.N,3V3_DC*
X189230000Y-118110000D03*
G04 #@! TD*
D11*
G04 #@! TO.P,J5,1*
G04 #@! TO.N,Net-(J5-Pad1)*
X190500000Y-102870000D03*
D10*
G04 #@! TO.P,J5,2*
G04 #@! TO.N,Net-(J5-Pad2)*
X187960000Y-102870000D03*
G04 #@! TO.P,J5,3*
G04 #@! TO.N,CT_ADC*
X185420000Y-102870000D03*
G04 #@! TO.P,J5,4*
G04 #@! TO.N,Net-(J5-Pad4)*
X182880000Y-102870000D03*
G04 #@! TO.P,J5,5*
G04 #@! TO.N,Net-(J5-Pad5)*
X180340000Y-102870000D03*
G04 #@! TO.P,J5,6*
G04 #@! TO.N,Net-(J5-Pad6)*
X177800000Y-102870000D03*
G04 #@! TO.P,J5,7*
G04 #@! TO.N,Net-(J5-Pad7)*
X175260000Y-102870000D03*
G04 #@! TO.P,J5,8*
G04 #@! TO.N,Net-(J5-Pad8)*
X172720000Y-102870000D03*
G04 #@! TO.P,J5,9*
G04 #@! TO.N,Net-(J5-Pad9)*
X170180000Y-102870000D03*
G04 #@! TO.P,J5,10*
G04 #@! TO.N,Net-(J5-Pad10)*
X167640000Y-102870000D03*
G04 #@! TO.P,J5,11*
G04 #@! TO.N,Net-(J5-Pad11)*
X165100000Y-102870000D03*
G04 #@! TO.P,J5,12*
G04 #@! TO.N,Net-(J5-Pad12)*
X162560000Y-102870000D03*
G04 #@! TO.P,J5,13*
G04 #@! TO.N,Net-(D6-Pad2)*
X160020000Y-102870000D03*
G04 #@! TO.P,J5,14*
G04 #@! TO.N,Net-(J5-Pad14)*
X157480000Y-102870000D03*
G04 #@! TO.P,J5,15*
G04 #@! TO.N,Net-(J5-Pad15)*
X154940000Y-102870000D03*
G04 #@! TO.P,J5,16*
G04 #@! TO.N,Net-(J5-Pad16)*
X152400000Y-102870000D03*
G04 #@! TD*
D21*
G04 #@! TO.P,K1,1*
G04 #@! TO.N,Net-(K1-Pad1)*
X142240000Y-69850000D03*
D16*
G04 #@! TO.P,K1,2*
G04 #@! TO.N,12V_DC*
X147340000Y-67350000D03*
D21*
G04 #@! TO.P,K1,3*
G04 #@! TO.N,MAINS_L*
X151140000Y-52150000D03*
G04 #@! TO.P,K1,4*
G04 #@! TO.N,Net-(K1-Pad4)*
X151140000Y-44550000D03*
G04 #@! TO.P,K1,5*
G04 #@! TO.N,Net-(J7-Pad1)*
X133340000Y-54650000D03*
D16*
G04 #@! TO.P,K1,6*
G04 #@! TO.N,Net-(D1-Pad1)*
X137140000Y-67350000D03*
G04 #@! TD*
D22*
G04 #@! TO.P,Q1,2*
G04 #@! TO.N,Net-(Q1-Pad2)*
X136398000Y-80772000D03*
G04 #@! TO.P,Q1,3*
G04 #@! TO.N,GNDPWR*
X137668000Y-80772000D03*
D23*
G04 #@! TO.P,Q1,1*
G04 #@! TO.N,Net-(D1-Pad1)*
X135128000Y-80772000D03*
G04 #@! TD*
D24*
G04 #@! TO.P,U1,6*
G04 #@! TO.N,Net-(U1-Pad6)*
X209804000Y-88392000D03*
G04 #@! TO.P,U1,3*
G04 #@! TO.N,Net-(U1-Pad3)*
X202184000Y-93472000D03*
G04 #@! TO.P,U1,5*
G04 #@! TO.N,12V_DC*
X209804000Y-90932000D03*
G04 #@! TO.P,U1,2*
G04 #@! TO.N,GNDPWR*
X202184000Y-90932000D03*
G04 #@! TO.P,U1,4*
G04 #@! TO.N,Net-(R2-Pad1)*
X209804000Y-93472000D03*
D12*
G04 #@! TO.P,U1,1*
G04 #@! TO.N,Net-(R1-Pad2)*
X202184000Y-88392000D03*
G04 #@! TD*
D25*
G04 #@! TO.P,U2,3*
G04 #@! TO.N,12V_DC*
X138450000Y-102870000D03*
G04 #@! TO.P,U2,2*
G04 #@! TO.N,Net-(R8-Pad2)*
X135900000Y-102870000D03*
D26*
G04 #@! TO.P,U2,1*
G04 #@! TO.N,16V_DC*
X133350000Y-102870000D03*
G04 #@! TD*
G04 #@! TO.P,U3,1*
G04 #@! TO.N,16V_DC*
X143510000Y-119380000D03*
D25*
G04 #@! TO.P,U3,2*
G04 #@! TO.N,Net-(R10-Pad2)*
X146060000Y-119380000D03*
G04 #@! TO.P,U3,3*
G04 #@! TO.N,3V3_DC*
X148610000Y-119380000D03*
G04 #@! TD*
D15*
G04 #@! TO.P,J1,2*
G04 #@! TO.N,MAINS_L*
X122475000Y-45720000D03*
G04 #@! TO.P,J1,1*
X117475000Y-45720000D03*
G04 #@! TD*
G04 #@! TO.P,J2,1*
G04 #@! TO.N,Earth*
X78740000Y-45720000D03*
G04 #@! TO.P,J2,2*
X83740000Y-45720000D03*
G04 #@! TD*
G04 #@! TO.P,J3,1*
G04 #@! TO.N,MAINS_N*
X98044000Y-45720000D03*
G04 #@! TO.P,J3,2*
X103044000Y-45720000D03*
G04 #@! TD*
G04 #@! TO.P,J6,2*
G04 #@! TO.N,MAINS_N*
X196008000Y-44704000D03*
G04 #@! TO.P,J6,1*
X191008000Y-44704000D03*
G04 #@! TD*
G04 #@! TO.P,J8,2*
G04 #@! TO.N,Earth*
X209851000Y-44831000D03*
G04 #@! TO.P,J8,1*
X204851000Y-44831000D03*
G04 #@! TD*
D27*
G04 #@! TO.N,12V_DC*
X166497000Y-106807000D03*
X175260000Y-109855000D03*
X159766000Y-106807000D03*
G04 #@! TO.N,GNDPWR*
X211074000Y-82550000D03*
X157828410Y-118618000D03*
X175006000Y-118618000D03*
X200406000Y-113792000D03*
G04 #@! TO.N,3V3_DC*
X167894000Y-120904000D03*
X192532000Y-120650000D03*
G04 #@! TO.N,Net-(D7-Pad1)*
X196596000Y-102362000D03*
G04 #@! TO.N,ESP_Pin_21*
X180213000Y-89916000D03*
G04 #@! TO.N,CT_ADC*
X209550000Y-57404000D03*
X195326000Y-57404000D03*
G04 #@! TD*
D28*
G04 #@! TO.N,GNDPWR*
X187960000Y-77470000D02*
X187960000Y-81534000D01*
X188500000Y-82074000D02*
X188500000Y-83820000D01*
X187960000Y-81534000D02*
X188500000Y-82074000D01*
X205994000Y-87122000D02*
X202184000Y-90932000D01*
X211074000Y-82550000D02*
X206502000Y-87122000D01*
X206502000Y-87122000D02*
X205994000Y-87122000D01*
X139229999Y-114559999D02*
X139229999Y-120179999D01*
X138430000Y-113760000D02*
X139229999Y-114559999D01*
X139229999Y-120179999D02*
X141224000Y-122174000D01*
X141224000Y-122174000D02*
X148590000Y-122174000D01*
X154272410Y-122174000D02*
X157828410Y-118618000D01*
X148590000Y-122174000D02*
X154272410Y-122174000D01*
X157828410Y-118618000D02*
X157828410Y-118618000D01*
X218440000Y-89916000D02*
X211074000Y-82550000D01*
X175006000Y-118618000D02*
X173736000Y-117348000D01*
X173736000Y-114808000D02*
X174752000Y-113792000D01*
X174752000Y-113792000D02*
X200406000Y-113792000D01*
X200441002Y-113792000D02*
X218440000Y-95793002D01*
X173736000Y-117348000D02*
X173736000Y-114808000D01*
X218440000Y-95793002D02*
X218440000Y-89916000D01*
X200406000Y-113792000D02*
X200441002Y-113792000D01*
G04 #@! TO.N,3V3_DC*
X167894000Y-120904000D02*
X169418000Y-120904000D01*
X169418000Y-120904000D02*
X170942000Y-122428000D01*
X170942000Y-122428000D02*
X190754000Y-122428000D01*
X190754000Y-122428000D02*
X192532000Y-120650000D01*
X192532000Y-120650000D02*
X192532000Y-120650000D01*
X190500000Y-89281000D02*
X190500000Y-83820000D01*
X181515001Y-98265999D02*
X190500000Y-89281000D01*
X152559001Y-98265999D02*
X181515001Y-98265999D01*
X156750000Y-111980000D02*
X154752000Y-109982000D01*
X156750000Y-113030000D02*
X156750000Y-111980000D01*
X154752000Y-109982000D02*
X151511000Y-109982000D01*
X151511000Y-109982000D02*
X148971000Y-107442000D01*
X148971000Y-107442000D02*
X148971000Y-101854000D01*
X148971000Y-101854000D02*
X152559001Y-98265999D01*
G04 #@! TO.N,12V_DC*
X147340000Y-86340000D02*
X143510000Y-90170000D01*
X147340000Y-67350000D02*
X147340000Y-86340000D01*
X138450000Y-102870000D02*
X152674000Y-117094000D01*
X162780000Y-113030000D02*
X163830000Y-113030000D01*
X158716000Y-117094000D02*
X162780000Y-113030000D01*
X152674000Y-117094000D02*
X158716000Y-117094000D01*
X191516000Y-109220000D02*
X209804000Y-90932000D01*
X189230000Y-109220000D02*
X191516000Y-109220000D01*
X138450000Y-95230000D02*
X143510000Y-90170000D01*
X138450000Y-102870000D02*
X138450000Y-95230000D01*
X163830000Y-110871000D02*
X159766000Y-106807000D01*
X163830000Y-113030000D02*
X163830000Y-110871000D01*
X172212000Y-106807000D02*
X175260000Y-109855000D01*
X166497000Y-106807000D02*
X172212000Y-106807000D01*
G04 #@! TO.N,Net-(D2-Pad2)*
X105410000Y-111482741D02*
X105410000Y-118110000D01*
X105410000Y-109220000D02*
X105410000Y-111482741D01*
G04 #@! TO.N,-18V_AC*
X97790000Y-116260000D02*
X97790000Y-109220000D01*
X97790000Y-118110000D02*
X97790000Y-116260000D01*
G04 #@! TO.N,Net-(D6-Pad2)*
X160020000Y-104072081D02*
X165167919Y-109220000D01*
X160020000Y-102870000D02*
X160020000Y-104072081D01*
X165167919Y-109220000D02*
X167640000Y-109220000D01*
X167640000Y-109220000D02*
X171450000Y-113030000D01*
X199390000Y-113030000D02*
X201930000Y-110490000D01*
X171450000Y-113030000D02*
X199390000Y-113030000D01*
G04 #@! TO.N,Net-(D7-Pad1)*
X186690000Y-108070000D02*
X189096000Y-105664000D01*
X186690000Y-109220000D02*
X186690000Y-108070000D01*
X189096000Y-105664000D02*
X193040000Y-105664000D01*
X193040000Y-105664000D02*
X193294000Y-105664000D01*
X193294000Y-105664000D02*
X196596000Y-102362000D01*
X196596000Y-102362000D02*
X196596000Y-102362000D01*
D29*
G04 #@! TO.N,MAINS_L*
X107950000Y-55245000D02*
X117475000Y-45720000D01*
X107950000Y-67310000D02*
X107950000Y-55245000D01*
X141792002Y-52150000D02*
X135362002Y-45720000D01*
X151140000Y-52150000D02*
X141792002Y-52150000D01*
X135362002Y-45720000D02*
X117475000Y-45720000D01*
G04 #@! TO.N,MAINS_N*
X82950000Y-60814000D02*
X98044000Y-45720000D01*
X82950000Y-67310000D02*
X82950000Y-60814000D01*
X98044000Y-45720000D02*
X101600000Y-45720000D01*
X101600000Y-45720000D02*
X103044000Y-45720000D01*
X103044000Y-45720000D02*
X113077000Y-35687000D01*
X181991000Y-35687000D02*
X191008000Y-44704000D01*
X113077000Y-35687000D02*
X181991000Y-35687000D01*
X191008000Y-44704000D02*
X196008000Y-44704000D01*
D28*
G04 #@! TO.N,ESP_Pin_21*
X179647315Y-89916000D02*
X177292000Y-87560685D01*
X180213000Y-89916000D02*
X179647315Y-89916000D01*
X182880000Y-77470000D02*
X182880000Y-80264000D01*
X177292000Y-85852000D02*
X177292000Y-87560685D01*
X182880000Y-80264000D02*
X177292000Y-85852000D01*
G04 #@! TO.N,CT_ADC*
X209550000Y-57404000D02*
X209550000Y-57404000D01*
X209550000Y-57404000D02*
X209550000Y-57404000D01*
X195326000Y-57404000D02*
X209550000Y-57404000D01*
X185420000Y-102870000D02*
X185420000Y-98044000D01*
X195326000Y-88138000D02*
X195326000Y-57404000D01*
X185420000Y-98044000D02*
X195326000Y-88138000D01*
D29*
G04 #@! TO.N,Net-(J7-Pad1)*
X139396000Y-60706000D02*
X133340000Y-54650000D01*
X169672000Y-60706000D02*
X139396000Y-60706000D01*
X169672000Y-60706000D02*
X174672000Y-60706000D01*
G04 #@! TD*
D30*
G04 #@! TO.N,Earth*
G36*
X109094603Y-32418724D02*
X100920328Y-40593000D01*
X99194480Y-40593000D01*
X99073769Y-40543000D01*
X98297590Y-40543000D01*
X98044000Y-40492558D01*
X97790410Y-40543000D01*
X97014231Y-40543000D01*
X96297142Y-40840028D01*
X96043544Y-40890472D01*
X95828554Y-41034124D01*
X95111465Y-41331152D01*
X94562627Y-41879990D01*
X94347640Y-42023640D01*
X94203990Y-42238627D01*
X93655152Y-42787465D01*
X93605152Y-42908175D01*
X79681725Y-56831603D01*
X79253641Y-57117640D01*
X78967604Y-57545724D01*
X78967602Y-57545726D01*
X78120472Y-58813545D01*
X77978200Y-59528795D01*
X77823000Y-60309038D01*
X77823000Y-60309042D01*
X77722558Y-60814000D01*
X77823000Y-61318958D01*
X77823000Y-67814961D01*
X78120472Y-69310455D01*
X79253640Y-71006360D01*
X80949544Y-72139528D01*
X82950000Y-72537443D01*
X84950455Y-72139528D01*
X86646360Y-71006360D01*
X87779528Y-69310456D01*
X88077000Y-67814962D01*
X88077000Y-62937672D01*
X100167673Y-50847000D01*
X101893520Y-50847000D01*
X102014231Y-50897000D01*
X102790410Y-50897000D01*
X103044000Y-50947442D01*
X103297590Y-50897000D01*
X104073769Y-50897000D01*
X104790858Y-50599972D01*
X105044456Y-50549528D01*
X105259446Y-50405876D01*
X105735739Y-50208589D01*
X104681724Y-51262604D01*
X104253641Y-51548640D01*
X103967604Y-51976724D01*
X103967602Y-51976726D01*
X103120472Y-53244545D01*
X102722558Y-55245000D01*
X102823001Y-55749962D01*
X102823000Y-67814961D01*
X103120472Y-69310455D01*
X104253640Y-71006360D01*
X105949544Y-72139528D01*
X107950000Y-72537443D01*
X109950455Y-72139528D01*
X111646360Y-71006360D01*
X112779528Y-69310456D01*
X113077000Y-67814962D01*
X113077000Y-57368672D01*
X119598673Y-50847000D01*
X121324520Y-50847000D01*
X121445231Y-50897000D01*
X123504769Y-50897000D01*
X123625480Y-50847000D01*
X129326642Y-50847000D01*
X128654436Y-51519206D01*
X127813000Y-53550611D01*
X127813000Y-55749389D01*
X128654436Y-57780794D01*
X130209206Y-59335564D01*
X131174892Y-59735565D01*
X133136327Y-61697000D01*
X124648997Y-61697000D01*
X124597953Y-61707153D01*
X124100566Y-61785932D01*
X123904179Y-61849742D01*
X123443933Y-62084249D01*
X123276876Y-62205623D01*
X122911624Y-62570876D01*
X122911623Y-62570877D01*
X122790249Y-62737933D01*
X122555742Y-63198179D01*
X122491932Y-63394565D01*
X122411126Y-63904753D01*
X122411126Y-64111247D01*
X122491932Y-64621435D01*
X122535533Y-64755623D01*
X122555742Y-64817821D01*
X122790249Y-65278067D01*
X122911623Y-65445123D01*
X123276876Y-65810377D01*
X123376833Y-65883000D01*
X123443933Y-65931751D01*
X123904179Y-66166258D01*
X124100566Y-66230068D01*
X124597953Y-66308847D01*
X124648997Y-66319000D01*
X132288227Y-66319000D01*
X132263000Y-66379904D01*
X132263000Y-68320096D01*
X133005479Y-70112599D01*
X134377401Y-71484521D01*
X136169904Y-72227000D01*
X137242204Y-72227000D01*
X137554436Y-72980794D01*
X139109206Y-74535564D01*
X141140611Y-75377000D01*
X143088000Y-75377000D01*
X143088001Y-84443000D01*
X142945942Y-84443000D01*
X141275436Y-84775284D01*
X139381063Y-86041063D01*
X138115284Y-87935436D01*
X137714016Y-89952749D01*
X135739508Y-91927257D01*
X135384480Y-92164479D01*
X135147258Y-92519507D01*
X134444704Y-93570953D01*
X134114699Y-95230000D01*
X134198001Y-95648787D01*
X134198001Y-97672148D01*
X132360000Y-97672148D01*
X130749725Y-97992452D01*
X129384599Y-98904599D01*
X128472452Y-100269725D01*
X128152148Y-101880000D01*
X128152148Y-103860000D01*
X128238277Y-104293000D01*
X128206470Y-104293000D01*
X127800000Y-104212148D01*
X126200000Y-104212148D01*
X124950238Y-104460741D01*
X123860275Y-103732452D01*
X122250000Y-103412148D01*
X119050000Y-103412148D01*
X117439725Y-103732452D01*
X116074599Y-104644599D01*
X115162452Y-106009725D01*
X114842148Y-107620000D01*
X114842148Y-110820000D01*
X115162452Y-112430275D01*
X116074599Y-113795401D01*
X116469023Y-114058946D01*
X115255284Y-115875436D01*
X114810802Y-118110000D01*
X115255284Y-120344564D01*
X116521063Y-122238937D01*
X118415436Y-123504716D01*
X119899930Y-123800000D01*
X107602481Y-123800000D01*
X108620275Y-123597548D01*
X109985401Y-122685401D01*
X110897548Y-121320275D01*
X111217852Y-119710000D01*
X111217852Y-116510000D01*
X110897548Y-114899725D01*
X109985401Y-113534599D01*
X109662000Y-113318510D01*
X109662000Y-113164760D01*
X110804716Y-111454564D01*
X111249198Y-109220000D01*
X110804716Y-106985436D01*
X109538937Y-105091063D01*
X107644564Y-103825284D01*
X105974058Y-103493000D01*
X104845942Y-103493000D01*
X103175436Y-103825284D01*
X101600000Y-104877956D01*
X100024564Y-103825284D01*
X98354058Y-103493000D01*
X97225942Y-103493000D01*
X95555436Y-103825284D01*
X93661063Y-105091063D01*
X92395284Y-106985436D01*
X91950802Y-109220000D01*
X92395284Y-111454564D01*
X93538000Y-113164760D01*
X93538000Y-113318510D01*
X93214599Y-113534599D01*
X92302452Y-114899725D01*
X91982148Y-116510000D01*
X91982148Y-119710000D01*
X92302452Y-121320275D01*
X93214599Y-122685401D01*
X94579725Y-123597548D01*
X95597519Y-123800000D01*
X83300070Y-123800000D01*
X84784564Y-123504716D01*
X86678937Y-122238937D01*
X87944716Y-120344564D01*
X88389198Y-118110000D01*
X87944716Y-115875436D01*
X86730977Y-114058946D01*
X87125401Y-113795401D01*
X88037548Y-112430275D01*
X88357852Y-110820000D01*
X88357852Y-107620000D01*
X88037548Y-106009725D01*
X87125401Y-104644599D01*
X85760275Y-103732452D01*
X84150000Y-103412148D01*
X80950000Y-103412148D01*
X79339725Y-103732452D01*
X77974599Y-104644599D01*
X77062452Y-106009725D01*
X76742148Y-107620000D01*
X76742148Y-110820000D01*
X77062452Y-112430275D01*
X77974599Y-113795401D01*
X78369023Y-114058946D01*
X77155284Y-115875436D01*
X76710802Y-118110000D01*
X77155284Y-120344564D01*
X78421063Y-122238937D01*
X80315436Y-123504716D01*
X81799930Y-123800000D01*
X66700000Y-123800000D01*
X66700000Y-120428742D01*
X67424200Y-120428742D01*
X67541103Y-121179556D01*
X67864036Y-121867381D01*
X68367039Y-122436923D01*
X69009674Y-122842396D01*
X69740282Y-123051204D01*
X70500129Y-123046563D01*
X71228132Y-122828844D01*
X71865766Y-122415550D01*
X72361772Y-121839906D01*
X72676278Y-121148187D01*
X72784000Y-120396000D01*
X72783200Y-120330522D01*
X72657133Y-119581191D01*
X72325821Y-118897363D01*
X71815898Y-118334009D01*
X71168356Y-117936418D01*
X70435252Y-117736550D01*
X69675518Y-117750475D01*
X68950230Y-117977071D01*
X68317693Y-118398124D01*
X67828756Y-118979785D01*
X67522724Y-119675295D01*
X67424200Y-120428742D01*
X66700000Y-120428742D01*
X66700000Y-93839904D01*
X78073000Y-93839904D01*
X78073000Y-95780096D01*
X78815479Y-97572599D01*
X80187401Y-98944521D01*
X81979904Y-99687000D01*
X83920096Y-99687000D01*
X85450000Y-99053293D01*
X86979904Y-99687000D01*
X88920096Y-99687000D01*
X90712599Y-98944521D01*
X92084521Y-97572599D01*
X92827000Y-95780096D01*
X92827000Y-93839904D01*
X98073000Y-93839904D01*
X98073000Y-95780096D01*
X98815479Y-97572599D01*
X100187401Y-98944521D01*
X101979904Y-99687000D01*
X103920096Y-99687000D01*
X105450000Y-99053293D01*
X106979904Y-99687000D01*
X108920096Y-99687000D01*
X110712599Y-98944521D01*
X112084521Y-97572599D01*
X112827000Y-95780096D01*
X112827000Y-93839904D01*
X112084521Y-92047401D01*
X110712599Y-90675479D01*
X108920096Y-89933000D01*
X106979904Y-89933000D01*
X105450000Y-90566707D01*
X103920096Y-89933000D01*
X101979904Y-89933000D01*
X100187401Y-90675479D01*
X98815479Y-92047401D01*
X98073000Y-93839904D01*
X92827000Y-93839904D01*
X92084521Y-92047401D01*
X90712599Y-90675479D01*
X88920096Y-89933000D01*
X86979904Y-89933000D01*
X85450000Y-90566707D01*
X83920096Y-89933000D01*
X81979904Y-89933000D01*
X80187401Y-90675479D01*
X78815479Y-92047401D01*
X78073000Y-93839904D01*
X66700000Y-93839904D01*
X66700000Y-88570000D01*
X122462148Y-88570000D01*
X122462148Y-91770000D01*
X122782452Y-93380275D01*
X123694599Y-94745401D01*
X125059725Y-95657548D01*
X126670000Y-95977852D01*
X129870000Y-95977852D01*
X131480275Y-95657548D01*
X132845401Y-94745401D01*
X133757548Y-93380275D01*
X134077852Y-91770000D01*
X134077852Y-88570000D01*
X133757548Y-86959725D01*
X132845401Y-85594599D01*
X131480275Y-84682452D01*
X129870000Y-84362148D01*
X126670000Y-84362148D01*
X125059725Y-84682452D01*
X123694599Y-85594599D01*
X122782452Y-86959725D01*
X122462148Y-88570000D01*
X66700000Y-88570000D01*
X66700000Y-80022000D01*
X130395148Y-80022000D01*
X130395148Y-81522000D01*
X130715452Y-83132275D01*
X131627599Y-84497401D01*
X132992725Y-85409548D01*
X134603000Y-85729852D01*
X135653000Y-85729852D01*
X135999644Y-85660900D01*
X136398000Y-85740138D01*
X137033000Y-85613829D01*
X137668000Y-85740138D01*
X139483120Y-85379088D01*
X141021905Y-84350905D01*
X142050088Y-82812119D01*
X142320000Y-81455180D01*
X142320000Y-80088819D01*
X142050088Y-78731880D01*
X141021905Y-77193095D01*
X139483119Y-76164912D01*
X137668000Y-75803862D01*
X137033000Y-75930171D01*
X136398000Y-75803862D01*
X135999644Y-75883100D01*
X135653000Y-75814148D01*
X134603000Y-75814148D01*
X132992725Y-76134452D01*
X131627599Y-77046599D01*
X130715452Y-78411725D01*
X130395148Y-80022000D01*
X66700000Y-80022000D01*
X66700000Y-46908703D01*
X77730902Y-46908703D01*
X77835687Y-47180745D01*
X78463526Y-47415619D01*
X79133456Y-47392349D01*
X79644313Y-47180745D01*
X79749098Y-46908703D01*
X82730902Y-46908703D01*
X82835687Y-47180745D01*
X83463526Y-47415619D01*
X84133456Y-47392349D01*
X84644313Y-47180745D01*
X84749098Y-46908703D01*
X83740000Y-45899605D01*
X82730902Y-46908703D01*
X79749098Y-46908703D01*
X78740000Y-45899605D01*
X77730902Y-46908703D01*
X66700000Y-46908703D01*
X66700000Y-45443526D01*
X77044381Y-45443526D01*
X77067651Y-46113456D01*
X77279255Y-46624313D01*
X77551297Y-46729098D01*
X78560395Y-45720000D01*
X78919605Y-45720000D01*
X79928703Y-46729098D01*
X80200745Y-46624313D01*
X80435619Y-45996474D01*
X80416413Y-45443526D01*
X82044381Y-45443526D01*
X82067651Y-46113456D01*
X82279255Y-46624313D01*
X82551297Y-46729098D01*
X83560395Y-45720000D01*
X83919605Y-45720000D01*
X84928703Y-46729098D01*
X85200745Y-46624313D01*
X85435619Y-45996474D01*
X85412349Y-45326544D01*
X85200745Y-44815687D01*
X84928703Y-44710902D01*
X83919605Y-45720000D01*
X83560395Y-45720000D01*
X82551297Y-44710902D01*
X82279255Y-44815687D01*
X82044381Y-45443526D01*
X80416413Y-45443526D01*
X80412349Y-45326544D01*
X80200745Y-44815687D01*
X79928703Y-44710902D01*
X78919605Y-45720000D01*
X78560395Y-45720000D01*
X77551297Y-44710902D01*
X77279255Y-44815687D01*
X77044381Y-45443526D01*
X66700000Y-45443526D01*
X66700000Y-44531297D01*
X77730902Y-44531297D01*
X78740000Y-45540395D01*
X79749098Y-44531297D01*
X82730902Y-44531297D01*
X83740000Y-45540395D01*
X84749098Y-44531297D01*
X84644313Y-44259255D01*
X84016474Y-44024381D01*
X83346544Y-44047651D01*
X82835687Y-44259255D01*
X82730902Y-44531297D01*
X79749098Y-44531297D01*
X79644313Y-44259255D01*
X79016474Y-44024381D01*
X78346544Y-44047651D01*
X77835687Y-44259255D01*
X77730902Y-44531297D01*
X66700000Y-44531297D01*
X66700000Y-40926742D01*
X67392200Y-40926742D01*
X67509103Y-41677556D01*
X67832036Y-42365381D01*
X68335039Y-42934923D01*
X68977674Y-43340396D01*
X69708282Y-43549204D01*
X70468129Y-43544563D01*
X71196132Y-43326844D01*
X71833766Y-42913550D01*
X72329772Y-42337906D01*
X72644278Y-41646187D01*
X72752000Y-40894000D01*
X72751200Y-40828522D01*
X72625133Y-40079191D01*
X72293821Y-39395363D01*
X71783898Y-38832009D01*
X71136356Y-38434418D01*
X70403252Y-38234550D01*
X69643518Y-38248475D01*
X68918230Y-38475071D01*
X68285693Y-38896124D01*
X67796756Y-39477785D01*
X67490724Y-40173295D01*
X67392200Y-40926742D01*
X66700000Y-40926742D01*
X66700000Y-32410000D01*
X109100432Y-32410000D01*
X109094603Y-32418724D01*
X109094603Y-32418724D01*
G37*
X109094603Y-32418724D02*
X100920328Y-40593000D01*
X99194480Y-40593000D01*
X99073769Y-40543000D01*
X98297590Y-40543000D01*
X98044000Y-40492558D01*
X97790410Y-40543000D01*
X97014231Y-40543000D01*
X96297142Y-40840028D01*
X96043544Y-40890472D01*
X95828554Y-41034124D01*
X95111465Y-41331152D01*
X94562627Y-41879990D01*
X94347640Y-42023640D01*
X94203990Y-42238627D01*
X93655152Y-42787465D01*
X93605152Y-42908175D01*
X79681725Y-56831603D01*
X79253641Y-57117640D01*
X78967604Y-57545724D01*
X78967602Y-57545726D01*
X78120472Y-58813545D01*
X77978200Y-59528795D01*
X77823000Y-60309038D01*
X77823000Y-60309042D01*
X77722558Y-60814000D01*
X77823000Y-61318958D01*
X77823000Y-67814961D01*
X78120472Y-69310455D01*
X79253640Y-71006360D01*
X80949544Y-72139528D01*
X82950000Y-72537443D01*
X84950455Y-72139528D01*
X86646360Y-71006360D01*
X87779528Y-69310456D01*
X88077000Y-67814962D01*
X88077000Y-62937672D01*
X100167673Y-50847000D01*
X101893520Y-50847000D01*
X102014231Y-50897000D01*
X102790410Y-50897000D01*
X103044000Y-50947442D01*
X103297590Y-50897000D01*
X104073769Y-50897000D01*
X104790858Y-50599972D01*
X105044456Y-50549528D01*
X105259446Y-50405876D01*
X105735739Y-50208589D01*
X104681724Y-51262604D01*
X104253641Y-51548640D01*
X103967604Y-51976724D01*
X103967602Y-51976726D01*
X103120472Y-53244545D01*
X102722558Y-55245000D01*
X102823001Y-55749962D01*
X102823000Y-67814961D01*
X103120472Y-69310455D01*
X104253640Y-71006360D01*
X105949544Y-72139528D01*
X107950000Y-72537443D01*
X109950455Y-72139528D01*
X111646360Y-71006360D01*
X112779528Y-69310456D01*
X113077000Y-67814962D01*
X113077000Y-57368672D01*
X119598673Y-50847000D01*
X121324520Y-50847000D01*
X121445231Y-50897000D01*
X123504769Y-50897000D01*
X123625480Y-50847000D01*
X129326642Y-50847000D01*
X128654436Y-51519206D01*
X127813000Y-53550611D01*
X127813000Y-55749389D01*
X128654436Y-57780794D01*
X130209206Y-59335564D01*
X131174892Y-59735565D01*
X133136327Y-61697000D01*
X124648997Y-61697000D01*
X124597953Y-61707153D01*
X124100566Y-61785932D01*
X123904179Y-61849742D01*
X123443933Y-62084249D01*
X123276876Y-62205623D01*
X122911624Y-62570876D01*
X122911623Y-62570877D01*
X122790249Y-62737933D01*
X122555742Y-63198179D01*
X122491932Y-63394565D01*
X122411126Y-63904753D01*
X122411126Y-64111247D01*
X122491932Y-64621435D01*
X122535533Y-64755623D01*
X122555742Y-64817821D01*
X122790249Y-65278067D01*
X122911623Y-65445123D01*
X123276876Y-65810377D01*
X123376833Y-65883000D01*
X123443933Y-65931751D01*
X123904179Y-66166258D01*
X124100566Y-66230068D01*
X124597953Y-66308847D01*
X124648997Y-66319000D01*
X132288227Y-66319000D01*
X132263000Y-66379904D01*
X132263000Y-68320096D01*
X133005479Y-70112599D01*
X134377401Y-71484521D01*
X136169904Y-72227000D01*
X137242204Y-72227000D01*
X137554436Y-72980794D01*
X139109206Y-74535564D01*
X141140611Y-75377000D01*
X143088000Y-75377000D01*
X143088001Y-84443000D01*
X142945942Y-84443000D01*
X141275436Y-84775284D01*
X139381063Y-86041063D01*
X138115284Y-87935436D01*
X137714016Y-89952749D01*
X135739508Y-91927257D01*
X135384480Y-92164479D01*
X135147258Y-92519507D01*
X134444704Y-93570953D01*
X134114699Y-95230000D01*
X134198001Y-95648787D01*
X134198001Y-97672148D01*
X132360000Y-97672148D01*
X130749725Y-97992452D01*
X129384599Y-98904599D01*
X128472452Y-100269725D01*
X128152148Y-101880000D01*
X128152148Y-103860000D01*
X128238277Y-104293000D01*
X128206470Y-104293000D01*
X127800000Y-104212148D01*
X126200000Y-104212148D01*
X124950238Y-104460741D01*
X123860275Y-103732452D01*
X122250000Y-103412148D01*
X119050000Y-103412148D01*
X117439725Y-103732452D01*
X116074599Y-104644599D01*
X115162452Y-106009725D01*
X114842148Y-107620000D01*
X114842148Y-110820000D01*
X115162452Y-112430275D01*
X116074599Y-113795401D01*
X116469023Y-114058946D01*
X115255284Y-115875436D01*
X114810802Y-118110000D01*
X115255284Y-120344564D01*
X116521063Y-122238937D01*
X118415436Y-123504716D01*
X119899930Y-123800000D01*
X107602481Y-123800000D01*
X108620275Y-123597548D01*
X109985401Y-122685401D01*
X110897548Y-121320275D01*
X111217852Y-119710000D01*
X111217852Y-116510000D01*
X110897548Y-114899725D01*
X109985401Y-113534599D01*
X109662000Y-113318510D01*
X109662000Y-113164760D01*
X110804716Y-111454564D01*
X111249198Y-109220000D01*
X110804716Y-106985436D01*
X109538937Y-105091063D01*
X107644564Y-103825284D01*
X105974058Y-103493000D01*
X104845942Y-103493000D01*
X103175436Y-103825284D01*
X101600000Y-104877956D01*
X100024564Y-103825284D01*
X98354058Y-103493000D01*
X97225942Y-103493000D01*
X95555436Y-103825284D01*
X93661063Y-105091063D01*
X92395284Y-106985436D01*
X91950802Y-109220000D01*
X92395284Y-111454564D01*
X93538000Y-113164760D01*
X93538000Y-113318510D01*
X93214599Y-113534599D01*
X92302452Y-114899725D01*
X91982148Y-116510000D01*
X91982148Y-119710000D01*
X92302452Y-121320275D01*
X93214599Y-122685401D01*
X94579725Y-123597548D01*
X95597519Y-123800000D01*
X83300070Y-123800000D01*
X84784564Y-123504716D01*
X86678937Y-122238937D01*
X87944716Y-120344564D01*
X88389198Y-118110000D01*
X87944716Y-115875436D01*
X86730977Y-114058946D01*
X87125401Y-113795401D01*
X88037548Y-112430275D01*
X88357852Y-110820000D01*
X88357852Y-107620000D01*
X88037548Y-106009725D01*
X87125401Y-104644599D01*
X85760275Y-103732452D01*
X84150000Y-103412148D01*
X80950000Y-103412148D01*
X79339725Y-103732452D01*
X77974599Y-104644599D01*
X77062452Y-106009725D01*
X76742148Y-107620000D01*
X76742148Y-110820000D01*
X77062452Y-112430275D01*
X77974599Y-113795401D01*
X78369023Y-114058946D01*
X77155284Y-115875436D01*
X76710802Y-118110000D01*
X77155284Y-120344564D01*
X78421063Y-122238937D01*
X80315436Y-123504716D01*
X81799930Y-123800000D01*
X66700000Y-123800000D01*
X66700000Y-120428742D01*
X67424200Y-120428742D01*
X67541103Y-121179556D01*
X67864036Y-121867381D01*
X68367039Y-122436923D01*
X69009674Y-122842396D01*
X69740282Y-123051204D01*
X70500129Y-123046563D01*
X71228132Y-122828844D01*
X71865766Y-122415550D01*
X72361772Y-121839906D01*
X72676278Y-121148187D01*
X72784000Y-120396000D01*
X72783200Y-120330522D01*
X72657133Y-119581191D01*
X72325821Y-118897363D01*
X71815898Y-118334009D01*
X71168356Y-117936418D01*
X70435252Y-117736550D01*
X69675518Y-117750475D01*
X68950230Y-117977071D01*
X68317693Y-118398124D01*
X67828756Y-118979785D01*
X67522724Y-119675295D01*
X67424200Y-120428742D01*
X66700000Y-120428742D01*
X66700000Y-93839904D01*
X78073000Y-93839904D01*
X78073000Y-95780096D01*
X78815479Y-97572599D01*
X80187401Y-98944521D01*
X81979904Y-99687000D01*
X83920096Y-99687000D01*
X85450000Y-99053293D01*
X86979904Y-99687000D01*
X88920096Y-99687000D01*
X90712599Y-98944521D01*
X92084521Y-97572599D01*
X92827000Y-95780096D01*
X92827000Y-93839904D01*
X98073000Y-93839904D01*
X98073000Y-95780096D01*
X98815479Y-97572599D01*
X100187401Y-98944521D01*
X101979904Y-99687000D01*
X103920096Y-99687000D01*
X105450000Y-99053293D01*
X106979904Y-99687000D01*
X108920096Y-99687000D01*
X110712599Y-98944521D01*
X112084521Y-97572599D01*
X112827000Y-95780096D01*
X112827000Y-93839904D01*
X112084521Y-92047401D01*
X110712599Y-90675479D01*
X108920096Y-89933000D01*
X106979904Y-89933000D01*
X105450000Y-90566707D01*
X103920096Y-89933000D01*
X101979904Y-89933000D01*
X100187401Y-90675479D01*
X98815479Y-92047401D01*
X98073000Y-93839904D01*
X92827000Y-93839904D01*
X92084521Y-92047401D01*
X90712599Y-90675479D01*
X88920096Y-89933000D01*
X86979904Y-89933000D01*
X85450000Y-90566707D01*
X83920096Y-89933000D01*
X81979904Y-89933000D01*
X80187401Y-90675479D01*
X78815479Y-92047401D01*
X78073000Y-93839904D01*
X66700000Y-93839904D01*
X66700000Y-88570000D01*
X122462148Y-88570000D01*
X122462148Y-91770000D01*
X122782452Y-93380275D01*
X123694599Y-94745401D01*
X125059725Y-95657548D01*
X126670000Y-95977852D01*
X129870000Y-95977852D01*
X131480275Y-95657548D01*
X132845401Y-94745401D01*
X133757548Y-93380275D01*
X134077852Y-91770000D01*
X134077852Y-88570000D01*
X133757548Y-86959725D01*
X132845401Y-85594599D01*
X131480275Y-84682452D01*
X129870000Y-84362148D01*
X126670000Y-84362148D01*
X125059725Y-84682452D01*
X123694599Y-85594599D01*
X122782452Y-86959725D01*
X122462148Y-88570000D01*
X66700000Y-88570000D01*
X66700000Y-80022000D01*
X130395148Y-80022000D01*
X130395148Y-81522000D01*
X130715452Y-83132275D01*
X131627599Y-84497401D01*
X132992725Y-85409548D01*
X134603000Y-85729852D01*
X135653000Y-85729852D01*
X135999644Y-85660900D01*
X136398000Y-85740138D01*
X137033000Y-85613829D01*
X137668000Y-85740138D01*
X139483120Y-85379088D01*
X141021905Y-84350905D01*
X142050088Y-82812119D01*
X142320000Y-81455180D01*
X142320000Y-80088819D01*
X142050088Y-78731880D01*
X141021905Y-77193095D01*
X139483119Y-76164912D01*
X137668000Y-75803862D01*
X137033000Y-75930171D01*
X136398000Y-75803862D01*
X135999644Y-75883100D01*
X135653000Y-75814148D01*
X134603000Y-75814148D01*
X132992725Y-76134452D01*
X131627599Y-77046599D01*
X130715452Y-78411725D01*
X130395148Y-80022000D01*
X66700000Y-80022000D01*
X66700000Y-46908703D01*
X77730902Y-46908703D01*
X77835687Y-47180745D01*
X78463526Y-47415619D01*
X79133456Y-47392349D01*
X79644313Y-47180745D01*
X79749098Y-46908703D01*
X82730902Y-46908703D01*
X82835687Y-47180745D01*
X83463526Y-47415619D01*
X84133456Y-47392349D01*
X84644313Y-47180745D01*
X84749098Y-46908703D01*
X83740000Y-45899605D01*
X82730902Y-46908703D01*
X79749098Y-46908703D01*
X78740000Y-45899605D01*
X77730902Y-46908703D01*
X66700000Y-46908703D01*
X66700000Y-45443526D01*
X77044381Y-45443526D01*
X77067651Y-46113456D01*
X77279255Y-46624313D01*
X77551297Y-46729098D01*
X78560395Y-45720000D01*
X78919605Y-45720000D01*
X79928703Y-46729098D01*
X80200745Y-46624313D01*
X80435619Y-45996474D01*
X80416413Y-45443526D01*
X82044381Y-45443526D01*
X82067651Y-46113456D01*
X82279255Y-46624313D01*
X82551297Y-46729098D01*
X83560395Y-45720000D01*
X83919605Y-45720000D01*
X84928703Y-46729098D01*
X85200745Y-46624313D01*
X85435619Y-45996474D01*
X85412349Y-45326544D01*
X85200745Y-44815687D01*
X84928703Y-44710902D01*
X83919605Y-45720000D01*
X83560395Y-45720000D01*
X82551297Y-44710902D01*
X82279255Y-44815687D01*
X82044381Y-45443526D01*
X80416413Y-45443526D01*
X80412349Y-45326544D01*
X80200745Y-44815687D01*
X79928703Y-44710902D01*
X78919605Y-45720000D01*
X78560395Y-45720000D01*
X77551297Y-44710902D01*
X77279255Y-44815687D01*
X77044381Y-45443526D01*
X66700000Y-45443526D01*
X66700000Y-44531297D01*
X77730902Y-44531297D01*
X78740000Y-45540395D01*
X79749098Y-44531297D01*
X82730902Y-44531297D01*
X83740000Y-45540395D01*
X84749098Y-44531297D01*
X84644313Y-44259255D01*
X84016474Y-44024381D01*
X83346544Y-44047651D01*
X82835687Y-44259255D01*
X82730902Y-44531297D01*
X79749098Y-44531297D01*
X79644313Y-44259255D01*
X79016474Y-44024381D01*
X78346544Y-44047651D01*
X77835687Y-44259255D01*
X77730902Y-44531297D01*
X66700000Y-44531297D01*
X66700000Y-40926742D01*
X67392200Y-40926742D01*
X67509103Y-41677556D01*
X67832036Y-42365381D01*
X68335039Y-42934923D01*
X68977674Y-43340396D01*
X69708282Y-43549204D01*
X70468129Y-43544563D01*
X71196132Y-43326844D01*
X71833766Y-42913550D01*
X72329772Y-42337906D01*
X72644278Y-41646187D01*
X72752000Y-40894000D01*
X72751200Y-40828522D01*
X72625133Y-40079191D01*
X72293821Y-39395363D01*
X71783898Y-38832009D01*
X71136356Y-38434418D01*
X70403252Y-38234550D01*
X69643518Y-38248475D01*
X68918230Y-38475071D01*
X68285693Y-38896124D01*
X67796756Y-39477785D01*
X67490724Y-40173295D01*
X67392200Y-40926742D01*
X66700000Y-40926742D01*
X66700000Y-32410000D01*
X109100432Y-32410000D01*
X109094603Y-32418724D01*
G36*
X221590000Y-34355002D02*
X221590001Y-34355007D01*
X221590000Y-36764997D01*
X221590000Y-36764998D01*
X221590001Y-39304993D01*
X221590000Y-39304998D01*
X221590001Y-86976912D01*
X221505521Y-86850479D01*
X221150493Y-86613257D01*
X215186805Y-80649570D01*
X214911805Y-79985661D01*
X213638339Y-78712195D01*
X211974476Y-78023000D01*
X210173524Y-78023000D01*
X208509661Y-78712195D01*
X207236195Y-79985661D01*
X206961196Y-80649568D01*
X204533568Y-83077197D01*
X204334952Y-83116704D01*
X203716602Y-83529872D01*
X202984000Y-83384148D01*
X201384000Y-83384148D01*
X199773725Y-83704452D01*
X199578000Y-83835231D01*
X199578000Y-72261759D01*
X199860000Y-72317852D01*
X201460000Y-72317852D01*
X203070275Y-71997548D01*
X204435401Y-71085401D01*
X205347548Y-69720275D01*
X205667852Y-68110000D01*
X205667852Y-66510000D01*
X205587000Y-66103530D01*
X205587000Y-64329959D01*
X204836909Y-62519078D01*
X203973831Y-61656000D01*
X207985616Y-61656000D01*
X208649524Y-61931000D01*
X210450476Y-61931000D01*
X212114339Y-61241805D01*
X213387805Y-59968339D01*
X214077000Y-58304476D01*
X214077000Y-56503524D01*
X213387805Y-54839661D01*
X212114339Y-53566195D01*
X210450476Y-52877000D01*
X208649524Y-52877000D01*
X207985616Y-53152000D01*
X196890384Y-53152000D01*
X196226476Y-52877000D01*
X194425524Y-52877000D01*
X192761661Y-53566195D01*
X191488195Y-54839661D01*
X190799000Y-56503524D01*
X190799000Y-58304476D01*
X191074001Y-58968387D01*
X191074001Y-72412148D01*
X189650000Y-72412148D01*
X188846860Y-72571903D01*
X188450190Y-72493000D01*
X187469810Y-72493000D01*
X186690000Y-72648114D01*
X185910190Y-72493000D01*
X184929810Y-72493000D01*
X184150000Y-72648114D01*
X183370190Y-72493000D01*
X182389810Y-72493000D01*
X181610000Y-72648114D01*
X180830190Y-72493000D01*
X179849810Y-72493000D01*
X179070000Y-72648114D01*
X178290190Y-72493000D01*
X177309810Y-72493000D01*
X176530000Y-72648114D01*
X175750190Y-72493000D01*
X174769810Y-72493000D01*
X173990000Y-72648114D01*
X173210190Y-72493000D01*
X172229810Y-72493000D01*
X171450000Y-72648114D01*
X170670190Y-72493000D01*
X169689810Y-72493000D01*
X168910000Y-72648114D01*
X168130190Y-72493000D01*
X167149810Y-72493000D01*
X166370000Y-72648114D01*
X165590190Y-72493000D01*
X164609810Y-72493000D01*
X163830000Y-72648114D01*
X163050190Y-72493000D01*
X162069810Y-72493000D01*
X161290000Y-72648114D01*
X160510190Y-72493000D01*
X159529810Y-72493000D01*
X158750000Y-72648114D01*
X157970190Y-72493000D01*
X156989810Y-72493000D01*
X156210000Y-72648114D01*
X155430190Y-72493000D01*
X154449810Y-72493000D01*
X153670000Y-72648114D01*
X152890190Y-72493000D01*
X151909810Y-72493000D01*
X151592000Y-72556216D01*
X151592000Y-69828980D01*
X152217000Y-68320096D01*
X152217000Y-66379904D01*
X152191773Y-66319000D01*
X163768003Y-66319000D01*
X163819047Y-66308847D01*
X164316435Y-66230068D01*
X164512821Y-66166258D01*
X164973067Y-65931751D01*
X165108985Y-65833000D01*
X168521520Y-65833000D01*
X168642231Y-65883000D01*
X170701769Y-65883000D01*
X170822480Y-65833000D01*
X173521520Y-65833000D01*
X173642231Y-65883000D01*
X175701769Y-65883000D01*
X176418858Y-65585972D01*
X176672456Y-65535528D01*
X176887446Y-65391876D01*
X177604535Y-65094848D01*
X178153373Y-64546010D01*
X178368360Y-64402360D01*
X178512010Y-64187373D01*
X179060848Y-63638535D01*
X179357876Y-62921446D01*
X179501528Y-62706456D01*
X179551972Y-62452858D01*
X179849000Y-61735769D01*
X179849000Y-60959594D01*
X179899443Y-60706000D01*
X179849000Y-60452406D01*
X179849000Y-59676231D01*
X179551972Y-58959142D01*
X179501528Y-58705544D01*
X179357876Y-58490554D01*
X179060848Y-57773465D01*
X178512010Y-57224627D01*
X178368360Y-57009640D01*
X178153373Y-56865990D01*
X177604535Y-56317152D01*
X176887446Y-56020124D01*
X176672456Y-55876472D01*
X176418858Y-55826028D01*
X175701769Y-55529000D01*
X173642231Y-55529000D01*
X173521520Y-55579000D01*
X170822480Y-55579000D01*
X170701769Y-55529000D01*
X168642231Y-55529000D01*
X168521520Y-55579000D01*
X155527358Y-55579000D01*
X155825564Y-55280794D01*
X156667000Y-53249389D01*
X156667000Y-51050611D01*
X156055374Y-49574015D01*
X167325500Y-49574015D01*
X167325500Y-51517985D01*
X168069425Y-53313980D01*
X169444020Y-54688575D01*
X171240015Y-55432500D01*
X173183985Y-55432500D01*
X174979980Y-54688575D01*
X176354575Y-53313980D01*
X177098500Y-51517985D01*
X177098500Y-49574015D01*
X176354575Y-47778020D01*
X174979980Y-46403425D01*
X173183985Y-45659500D01*
X171240015Y-45659500D01*
X169444020Y-46403425D01*
X168069425Y-47778020D01*
X167325500Y-49574015D01*
X156055374Y-49574015D01*
X155825564Y-49019206D01*
X155156358Y-48350000D01*
X155825564Y-47680794D01*
X156667000Y-45649389D01*
X156667000Y-43450611D01*
X155825564Y-41419206D01*
X155220358Y-40814000D01*
X160177709Y-40814000D01*
X159705500Y-41954015D01*
X159705500Y-43897985D01*
X160449425Y-45693980D01*
X161824020Y-47068575D01*
X163620015Y-47812500D01*
X165563985Y-47812500D01*
X167359980Y-47068575D01*
X168734575Y-45693980D01*
X169478500Y-43897985D01*
X169478500Y-42062000D01*
X174945500Y-42062000D01*
X174945500Y-43897985D01*
X175689425Y-45693980D01*
X177064020Y-47068575D01*
X178860015Y-47812500D01*
X180803985Y-47812500D01*
X182599980Y-47068575D01*
X183974575Y-45693980D01*
X184200903Y-45147576D01*
X186569152Y-47515825D01*
X186619152Y-47636535D01*
X187167990Y-48185373D01*
X187311640Y-48400360D01*
X187526627Y-48544010D01*
X188075465Y-49092848D01*
X188792554Y-49389876D01*
X189007544Y-49533528D01*
X189261142Y-49583972D01*
X189978231Y-49881000D01*
X190754410Y-49881000D01*
X191008000Y-49931442D01*
X191261590Y-49881000D01*
X192037769Y-49881000D01*
X192158480Y-49831000D01*
X194857520Y-49831000D01*
X194978231Y-49881000D01*
X197037769Y-49881000D01*
X197754858Y-49583972D01*
X198008456Y-49533528D01*
X198223446Y-49389876D01*
X198940535Y-49092848D01*
X199489373Y-48544010D01*
X199704360Y-48400360D01*
X199848010Y-48185373D01*
X200396848Y-47636535D01*
X200693876Y-46919446D01*
X200837528Y-46704456D01*
X200887972Y-46450858D01*
X201066562Y-46019703D01*
X203841902Y-46019703D01*
X203946687Y-46291745D01*
X204574526Y-46526619D01*
X205244456Y-46503349D01*
X205755313Y-46291745D01*
X205860098Y-46019703D01*
X208841902Y-46019703D01*
X208946687Y-46291745D01*
X209574526Y-46526619D01*
X210244456Y-46503349D01*
X210755313Y-46291745D01*
X210860098Y-46019703D01*
X209851000Y-45010605D01*
X208841902Y-46019703D01*
X205860098Y-46019703D01*
X204851000Y-45010605D01*
X203841902Y-46019703D01*
X201066562Y-46019703D01*
X201185000Y-45733769D01*
X201185000Y-44957594D01*
X201235443Y-44704000D01*
X201205711Y-44554526D01*
X203155381Y-44554526D01*
X203178651Y-45224456D01*
X203390255Y-45735313D01*
X203662297Y-45840098D01*
X204671395Y-44831000D01*
X205030605Y-44831000D01*
X206039703Y-45840098D01*
X206311745Y-45735313D01*
X206546619Y-45107474D01*
X206527413Y-44554526D01*
X208155381Y-44554526D01*
X208178651Y-45224456D01*
X208390255Y-45735313D01*
X208662297Y-45840098D01*
X209671395Y-44831000D01*
X210030605Y-44831000D01*
X211039703Y-45840098D01*
X211311745Y-45735313D01*
X211546619Y-45107474D01*
X211523349Y-44437544D01*
X211311745Y-43926687D01*
X211039703Y-43821902D01*
X210030605Y-44831000D01*
X209671395Y-44831000D01*
X208662297Y-43821902D01*
X208390255Y-43926687D01*
X208155381Y-44554526D01*
X206527413Y-44554526D01*
X206523349Y-44437544D01*
X206311745Y-43926687D01*
X206039703Y-43821902D01*
X205030605Y-44831000D01*
X204671395Y-44831000D01*
X203662297Y-43821902D01*
X203390255Y-43926687D01*
X203155381Y-44554526D01*
X201205711Y-44554526D01*
X201185000Y-44450406D01*
X201185000Y-43674231D01*
X201171773Y-43642297D01*
X203841902Y-43642297D01*
X204851000Y-44651395D01*
X205860098Y-43642297D01*
X208841902Y-43642297D01*
X209851000Y-44651395D01*
X210860098Y-43642297D01*
X210755313Y-43370255D01*
X210127474Y-43135381D01*
X209457544Y-43158651D01*
X208946687Y-43370255D01*
X208841902Y-43642297D01*
X205860098Y-43642297D01*
X205755313Y-43370255D01*
X205127474Y-43135381D01*
X204457544Y-43158651D01*
X203946687Y-43370255D01*
X203841902Y-43642297D01*
X201171773Y-43642297D01*
X200887972Y-42957142D01*
X200837528Y-42703544D01*
X200693876Y-42488554D01*
X200396848Y-41771465D01*
X199848010Y-41222627D01*
X199704360Y-41007640D01*
X199583288Y-40926742D01*
X215474200Y-40926742D01*
X215591103Y-41677556D01*
X215914036Y-42365381D01*
X216417039Y-42934923D01*
X217059674Y-43340396D01*
X217790282Y-43549204D01*
X218550129Y-43544563D01*
X219278132Y-43326844D01*
X219915766Y-42913550D01*
X220411772Y-42337906D01*
X220726278Y-41646187D01*
X220834000Y-40894000D01*
X220833200Y-40828522D01*
X220707133Y-40079191D01*
X220375821Y-39395363D01*
X219865898Y-38832009D01*
X219218356Y-38434418D01*
X218485252Y-38234550D01*
X217725518Y-38248475D01*
X217000230Y-38475071D01*
X216367693Y-38896124D01*
X215878756Y-39477785D01*
X215572724Y-40173295D01*
X215474200Y-40926742D01*
X199583288Y-40926742D01*
X199489373Y-40863990D01*
X198940535Y-40315152D01*
X198223446Y-40018124D01*
X198008456Y-39874472D01*
X197754858Y-39824028D01*
X197037769Y-39527000D01*
X194978231Y-39527000D01*
X194857520Y-39577000D01*
X193131673Y-39577000D01*
X185973399Y-32418726D01*
X185967568Y-32410000D01*
X221590001Y-32410000D01*
X221590000Y-34355002D01*
X221590000Y-34355002D01*
G37*
X221590000Y-34355002D02*
X221590001Y-34355007D01*
X221590000Y-36764997D01*
X221590000Y-36764998D01*
X221590001Y-39304993D01*
X221590000Y-39304998D01*
X221590001Y-86976912D01*
X221505521Y-86850479D01*
X221150493Y-86613257D01*
X215186805Y-80649570D01*
X214911805Y-79985661D01*
X213638339Y-78712195D01*
X211974476Y-78023000D01*
X210173524Y-78023000D01*
X208509661Y-78712195D01*
X207236195Y-79985661D01*
X206961196Y-80649568D01*
X204533568Y-83077197D01*
X204334952Y-83116704D01*
X203716602Y-83529872D01*
X202984000Y-83384148D01*
X201384000Y-83384148D01*
X199773725Y-83704452D01*
X199578000Y-83835231D01*
X199578000Y-72261759D01*
X199860000Y-72317852D01*
X201460000Y-72317852D01*
X203070275Y-71997548D01*
X204435401Y-71085401D01*
X205347548Y-69720275D01*
X205667852Y-68110000D01*
X205667852Y-66510000D01*
X205587000Y-66103530D01*
X205587000Y-64329959D01*
X204836909Y-62519078D01*
X203973831Y-61656000D01*
X207985616Y-61656000D01*
X208649524Y-61931000D01*
X210450476Y-61931000D01*
X212114339Y-61241805D01*
X213387805Y-59968339D01*
X214077000Y-58304476D01*
X214077000Y-56503524D01*
X213387805Y-54839661D01*
X212114339Y-53566195D01*
X210450476Y-52877000D01*
X208649524Y-52877000D01*
X207985616Y-53152000D01*
X196890384Y-53152000D01*
X196226476Y-52877000D01*
X194425524Y-52877000D01*
X192761661Y-53566195D01*
X191488195Y-54839661D01*
X190799000Y-56503524D01*
X190799000Y-58304476D01*
X191074001Y-58968387D01*
X191074001Y-72412148D01*
X189650000Y-72412148D01*
X188846860Y-72571903D01*
X188450190Y-72493000D01*
X187469810Y-72493000D01*
X186690000Y-72648114D01*
X185910190Y-72493000D01*
X184929810Y-72493000D01*
X184150000Y-72648114D01*
X183370190Y-72493000D01*
X182389810Y-72493000D01*
X181610000Y-72648114D01*
X180830190Y-72493000D01*
X179849810Y-72493000D01*
X179070000Y-72648114D01*
X178290190Y-72493000D01*
X177309810Y-72493000D01*
X176530000Y-72648114D01*
X175750190Y-72493000D01*
X174769810Y-72493000D01*
X173990000Y-72648114D01*
X173210190Y-72493000D01*
X172229810Y-72493000D01*
X171450000Y-72648114D01*
X170670190Y-72493000D01*
X169689810Y-72493000D01*
X168910000Y-72648114D01*
X168130190Y-72493000D01*
X167149810Y-72493000D01*
X166370000Y-72648114D01*
X165590190Y-72493000D01*
X164609810Y-72493000D01*
X163830000Y-72648114D01*
X163050190Y-72493000D01*
X162069810Y-72493000D01*
X161290000Y-72648114D01*
X160510190Y-72493000D01*
X159529810Y-72493000D01*
X158750000Y-72648114D01*
X157970190Y-72493000D01*
X156989810Y-72493000D01*
X156210000Y-72648114D01*
X155430190Y-72493000D01*
X154449810Y-72493000D01*
X153670000Y-72648114D01*
X152890190Y-72493000D01*
X151909810Y-72493000D01*
X151592000Y-72556216D01*
X151592000Y-69828980D01*
X152217000Y-68320096D01*
X152217000Y-66379904D01*
X152191773Y-66319000D01*
X163768003Y-66319000D01*
X163819047Y-66308847D01*
X164316435Y-66230068D01*
X164512821Y-66166258D01*
X164973067Y-65931751D01*
X165108985Y-65833000D01*
X168521520Y-65833000D01*
X168642231Y-65883000D01*
X170701769Y-65883000D01*
X170822480Y-65833000D01*
X173521520Y-65833000D01*
X173642231Y-65883000D01*
X175701769Y-65883000D01*
X176418858Y-65585972D01*
X176672456Y-65535528D01*
X176887446Y-65391876D01*
X177604535Y-65094848D01*
X178153373Y-64546010D01*
X178368360Y-64402360D01*
X178512010Y-64187373D01*
X179060848Y-63638535D01*
X179357876Y-62921446D01*
X179501528Y-62706456D01*
X179551972Y-62452858D01*
X179849000Y-61735769D01*
X179849000Y-60959594D01*
X179899443Y-60706000D01*
X179849000Y-60452406D01*
X179849000Y-59676231D01*
X179551972Y-58959142D01*
X179501528Y-58705544D01*
X179357876Y-58490554D01*
X179060848Y-57773465D01*
X178512010Y-57224627D01*
X178368360Y-57009640D01*
X178153373Y-56865990D01*
X177604535Y-56317152D01*
X176887446Y-56020124D01*
X176672456Y-55876472D01*
X176418858Y-55826028D01*
X175701769Y-55529000D01*
X173642231Y-55529000D01*
X173521520Y-55579000D01*
X170822480Y-55579000D01*
X170701769Y-55529000D01*
X168642231Y-55529000D01*
X168521520Y-55579000D01*
X155527358Y-55579000D01*
X155825564Y-55280794D01*
X156667000Y-53249389D01*
X156667000Y-51050611D01*
X156055374Y-49574015D01*
X167325500Y-49574015D01*
X167325500Y-51517985D01*
X168069425Y-53313980D01*
X169444020Y-54688575D01*
X171240015Y-55432500D01*
X173183985Y-55432500D01*
X174979980Y-54688575D01*
X176354575Y-53313980D01*
X177098500Y-51517985D01*
X177098500Y-49574015D01*
X176354575Y-47778020D01*
X174979980Y-46403425D01*
X173183985Y-45659500D01*
X171240015Y-45659500D01*
X169444020Y-46403425D01*
X168069425Y-47778020D01*
X167325500Y-49574015D01*
X156055374Y-49574015D01*
X155825564Y-49019206D01*
X155156358Y-48350000D01*
X155825564Y-47680794D01*
X156667000Y-45649389D01*
X156667000Y-43450611D01*
X155825564Y-41419206D01*
X155220358Y-40814000D01*
X160177709Y-40814000D01*
X159705500Y-41954015D01*
X159705500Y-43897985D01*
X160449425Y-45693980D01*
X161824020Y-47068575D01*
X163620015Y-47812500D01*
X165563985Y-47812500D01*
X167359980Y-47068575D01*
X168734575Y-45693980D01*
X169478500Y-43897985D01*
X169478500Y-42062000D01*
X174945500Y-42062000D01*
X174945500Y-43897985D01*
X175689425Y-45693980D01*
X177064020Y-47068575D01*
X178860015Y-47812500D01*
X180803985Y-47812500D01*
X182599980Y-47068575D01*
X183974575Y-45693980D01*
X184200903Y-45147576D01*
X186569152Y-47515825D01*
X186619152Y-47636535D01*
X187167990Y-48185373D01*
X187311640Y-48400360D01*
X187526627Y-48544010D01*
X188075465Y-49092848D01*
X188792554Y-49389876D01*
X189007544Y-49533528D01*
X189261142Y-49583972D01*
X189978231Y-49881000D01*
X190754410Y-49881000D01*
X191008000Y-49931442D01*
X191261590Y-49881000D01*
X192037769Y-49881000D01*
X192158480Y-49831000D01*
X194857520Y-49831000D01*
X194978231Y-49881000D01*
X197037769Y-49881000D01*
X197754858Y-49583972D01*
X198008456Y-49533528D01*
X198223446Y-49389876D01*
X198940535Y-49092848D01*
X199489373Y-48544010D01*
X199704360Y-48400360D01*
X199848010Y-48185373D01*
X200396848Y-47636535D01*
X200693876Y-46919446D01*
X200837528Y-46704456D01*
X200887972Y-46450858D01*
X201066562Y-46019703D01*
X203841902Y-46019703D01*
X203946687Y-46291745D01*
X204574526Y-46526619D01*
X205244456Y-46503349D01*
X205755313Y-46291745D01*
X205860098Y-46019703D01*
X208841902Y-46019703D01*
X208946687Y-46291745D01*
X209574526Y-46526619D01*
X210244456Y-46503349D01*
X210755313Y-46291745D01*
X210860098Y-46019703D01*
X209851000Y-45010605D01*
X208841902Y-46019703D01*
X205860098Y-46019703D01*
X204851000Y-45010605D01*
X203841902Y-46019703D01*
X201066562Y-46019703D01*
X201185000Y-45733769D01*
X201185000Y-44957594D01*
X201235443Y-44704000D01*
X201205711Y-44554526D01*
X203155381Y-44554526D01*
X203178651Y-45224456D01*
X203390255Y-45735313D01*
X203662297Y-45840098D01*
X204671395Y-44831000D01*
X205030605Y-44831000D01*
X206039703Y-45840098D01*
X206311745Y-45735313D01*
X206546619Y-45107474D01*
X206527413Y-44554526D01*
X208155381Y-44554526D01*
X208178651Y-45224456D01*
X208390255Y-45735313D01*
X208662297Y-45840098D01*
X209671395Y-44831000D01*
X210030605Y-44831000D01*
X211039703Y-45840098D01*
X211311745Y-45735313D01*
X211546619Y-45107474D01*
X211523349Y-44437544D01*
X211311745Y-43926687D01*
X211039703Y-43821902D01*
X210030605Y-44831000D01*
X209671395Y-44831000D01*
X208662297Y-43821902D01*
X208390255Y-43926687D01*
X208155381Y-44554526D01*
X206527413Y-44554526D01*
X206523349Y-44437544D01*
X206311745Y-43926687D01*
X206039703Y-43821902D01*
X205030605Y-44831000D01*
X204671395Y-44831000D01*
X203662297Y-43821902D01*
X203390255Y-43926687D01*
X203155381Y-44554526D01*
X201205711Y-44554526D01*
X201185000Y-44450406D01*
X201185000Y-43674231D01*
X201171773Y-43642297D01*
X203841902Y-43642297D01*
X204851000Y-44651395D01*
X205860098Y-43642297D01*
X208841902Y-43642297D01*
X209851000Y-44651395D01*
X210860098Y-43642297D01*
X210755313Y-43370255D01*
X210127474Y-43135381D01*
X209457544Y-43158651D01*
X208946687Y-43370255D01*
X208841902Y-43642297D01*
X205860098Y-43642297D01*
X205755313Y-43370255D01*
X205127474Y-43135381D01*
X204457544Y-43158651D01*
X203946687Y-43370255D01*
X203841902Y-43642297D01*
X201171773Y-43642297D01*
X200887972Y-42957142D01*
X200837528Y-42703544D01*
X200693876Y-42488554D01*
X200396848Y-41771465D01*
X199848010Y-41222627D01*
X199704360Y-41007640D01*
X199583288Y-40926742D01*
X215474200Y-40926742D01*
X215591103Y-41677556D01*
X215914036Y-42365381D01*
X216417039Y-42934923D01*
X217059674Y-43340396D01*
X217790282Y-43549204D01*
X218550129Y-43544563D01*
X219278132Y-43326844D01*
X219915766Y-42913550D01*
X220411772Y-42337906D01*
X220726278Y-41646187D01*
X220834000Y-40894000D01*
X220833200Y-40828522D01*
X220707133Y-40079191D01*
X220375821Y-39395363D01*
X219865898Y-38832009D01*
X219218356Y-38434418D01*
X218485252Y-38234550D01*
X217725518Y-38248475D01*
X217000230Y-38475071D01*
X216367693Y-38896124D01*
X215878756Y-39477785D01*
X215572724Y-40173295D01*
X215474200Y-40926742D01*
X199583288Y-40926742D01*
X199489373Y-40863990D01*
X198940535Y-40315152D01*
X198223446Y-40018124D01*
X198008456Y-39874472D01*
X197754858Y-39824028D01*
X197037769Y-39527000D01*
X194978231Y-39527000D01*
X194857520Y-39577000D01*
X193131673Y-39577000D01*
X185973399Y-32418726D01*
X185967568Y-32410000D01*
X221590001Y-32410000D01*
X221590000Y-34355002D01*
G04 #@! TD*
M02*
