G04 #@! TF.GenerationSoftware,KiCad,Pcbnew,(5.1.4)-1*
G04 #@! TF.CreationDate,2021-06-15T15:36:41+02:00*
G04 #@! TF.ProjectId,IOT SMART SWITCH,494f5420-534d-4415-9254-205357495443,1.0*
G04 #@! TF.SameCoordinates,Original*
G04 #@! TF.FileFunction,Copper,L1,Top*
G04 #@! TF.FilePolarity,Positive*
%FSLAX46Y46*%
G04 Gerber Fmt 4.6, Leading zero omitted, Abs format (unit mm)*
G04 Created by KiCad (PCBNEW (5.1.4)-1) date 2021-06-15 15:36:41*
%MOMM*%
%LPD*%
G04 APERTURE LIST*
%ADD10O,1.700000X1.700000*%
%ADD11R,1.700000X1.700000*%
%ADD12R,1.600000X1.600000*%
%ADD13C,1.600000*%
%ADD14C,1.519000*%
%ADD15C,2.100000*%
%ADD16C,1.500000*%
%ADD17O,3.200000X3.200000*%
%ADD18R,3.200000X3.200000*%
%ADD19C,1.800000*%
%ADD20R,1.800000X1.800000*%
%ADD21C,2.800000*%
%ADD22O,1.050000X1.500000*%
%ADD23R,1.050000X1.500000*%
%ADD24C,0.100000*%
%ADD25C,1.250000*%
%ADD26O,1.600000X1.600000*%
%ADD27C,1.980000*%
%ADD28R,1.980000X1.980000*%
%ADD29C,0.800000*%
%ADD30C,0.250000*%
%ADD31C,2.000000*%
%ADD32C,0.254000*%
G04 APERTURE END LIST*
D10*
X152400000Y-77470000D03*
X154940000Y-77470000D03*
X157480000Y-77470000D03*
X160020000Y-77470000D03*
X162560000Y-77470000D03*
X165100000Y-77470000D03*
X167640000Y-77470000D03*
X170180000Y-77470000D03*
X172720000Y-77470000D03*
X175260000Y-77470000D03*
X177800000Y-77470000D03*
X180340000Y-77470000D03*
X182880000Y-77470000D03*
X185420000Y-77470000D03*
X187960000Y-77470000D03*
D11*
X190500000Y-77470000D03*
D12*
X163830000Y-113030000D03*
D13*
X165830000Y-113030000D03*
D14*
X164592000Y-42926000D03*
X179832000Y-42926000D03*
X172212000Y-50546000D03*
D15*
X169672000Y-60706000D03*
X174672000Y-60706000D03*
D16*
X107950000Y-67310000D03*
X82950000Y-67310000D03*
X82950000Y-94810000D03*
X87950000Y-94810000D03*
X102950000Y-94810000D03*
X107950000Y-94810000D03*
D12*
X127000000Y-118110000D03*
D13*
X129500000Y-118110000D03*
X200660000Y-65310000D03*
D12*
X200660000Y-67310000D03*
D13*
X129000000Y-109220000D03*
D12*
X127000000Y-109220000D03*
X138430000Y-111760000D03*
D13*
X138430000Y-113760000D03*
D12*
X190500000Y-83820000D03*
D13*
X188500000Y-83820000D03*
X158750000Y-113030000D03*
D12*
X156750000Y-113030000D03*
D17*
X143510000Y-90170000D03*
D18*
X128270000Y-90170000D03*
X120650000Y-109220000D03*
D17*
X105410000Y-109220000D03*
X120650000Y-118110000D03*
D18*
X105410000Y-118110000D03*
X82550000Y-109220000D03*
D17*
X97790000Y-109220000D03*
D18*
X97790000Y-118110000D03*
D17*
X82550000Y-118110000D03*
D19*
X201930000Y-110490000D03*
D20*
X199390000Y-110490000D03*
X186690000Y-109220000D03*
D19*
X189230000Y-109220000D03*
D20*
X186690000Y-118110000D03*
D19*
X189230000Y-118110000D03*
D11*
X190500000Y-102870000D03*
D10*
X187960000Y-102870000D03*
X185420000Y-102870000D03*
X182880000Y-102870000D03*
X180340000Y-102870000D03*
X177800000Y-102870000D03*
X175260000Y-102870000D03*
X172720000Y-102870000D03*
X170180000Y-102870000D03*
X167640000Y-102870000D03*
X165100000Y-102870000D03*
X162560000Y-102870000D03*
X160020000Y-102870000D03*
X157480000Y-102870000D03*
X154940000Y-102870000D03*
X152400000Y-102870000D03*
D21*
X142240000Y-69850000D03*
D16*
X147340000Y-67350000D03*
D21*
X151140000Y-52150000D03*
X151140000Y-44550000D03*
X133340000Y-54650000D03*
D16*
X137140000Y-67350000D03*
D22*
X136398000Y-80772000D03*
X137668000Y-80772000D03*
D23*
X135128000Y-80772000D03*
D24*
G36*
X183273504Y-87518204D02*
G01*
X183297773Y-87521804D01*
X183321571Y-87527765D01*
X183344671Y-87536030D01*
X183366849Y-87546520D01*
X183387893Y-87559133D01*
X183407598Y-87573747D01*
X183425777Y-87590223D01*
X183442253Y-87608402D01*
X183456867Y-87628107D01*
X183469480Y-87649151D01*
X183479970Y-87671329D01*
X183488235Y-87694429D01*
X183494196Y-87718227D01*
X183497796Y-87742496D01*
X183499000Y-87767000D01*
X183499000Y-89017000D01*
X183497796Y-89041504D01*
X183494196Y-89065773D01*
X183488235Y-89089571D01*
X183479970Y-89112671D01*
X183469480Y-89134849D01*
X183456867Y-89155893D01*
X183442253Y-89175598D01*
X183425777Y-89193777D01*
X183407598Y-89210253D01*
X183387893Y-89224867D01*
X183366849Y-89237480D01*
X183344671Y-89247970D01*
X183321571Y-89256235D01*
X183297773Y-89262196D01*
X183273504Y-89265796D01*
X183249000Y-89267000D01*
X182499000Y-89267000D01*
X182474496Y-89265796D01*
X182450227Y-89262196D01*
X182426429Y-89256235D01*
X182403329Y-89247970D01*
X182381151Y-89237480D01*
X182360107Y-89224867D01*
X182340402Y-89210253D01*
X182322223Y-89193777D01*
X182305747Y-89175598D01*
X182291133Y-89155893D01*
X182278520Y-89134849D01*
X182268030Y-89112671D01*
X182259765Y-89089571D01*
X182253804Y-89065773D01*
X182250204Y-89041504D01*
X182249000Y-89017000D01*
X182249000Y-87767000D01*
X182250204Y-87742496D01*
X182253804Y-87718227D01*
X182259765Y-87694429D01*
X182268030Y-87671329D01*
X182278520Y-87649151D01*
X182291133Y-87628107D01*
X182305747Y-87608402D01*
X182322223Y-87590223D01*
X182340402Y-87573747D01*
X182360107Y-87559133D01*
X182381151Y-87546520D01*
X182403329Y-87536030D01*
X182426429Y-87527765D01*
X182450227Y-87521804D01*
X182474496Y-87518204D01*
X182499000Y-87517000D01*
X183249000Y-87517000D01*
X183273504Y-87518204D01*
X183273504Y-87518204D01*
G37*
D25*
X182874000Y-88392000D03*
D24*
G36*
X186073504Y-87518204D02*
G01*
X186097773Y-87521804D01*
X186121571Y-87527765D01*
X186144671Y-87536030D01*
X186166849Y-87546520D01*
X186187893Y-87559133D01*
X186207598Y-87573747D01*
X186225777Y-87590223D01*
X186242253Y-87608402D01*
X186256867Y-87628107D01*
X186269480Y-87649151D01*
X186279970Y-87671329D01*
X186288235Y-87694429D01*
X186294196Y-87718227D01*
X186297796Y-87742496D01*
X186299000Y-87767000D01*
X186299000Y-89017000D01*
X186297796Y-89041504D01*
X186294196Y-89065773D01*
X186288235Y-89089571D01*
X186279970Y-89112671D01*
X186269480Y-89134849D01*
X186256867Y-89155893D01*
X186242253Y-89175598D01*
X186225777Y-89193777D01*
X186207598Y-89210253D01*
X186187893Y-89224867D01*
X186166849Y-89237480D01*
X186144671Y-89247970D01*
X186121571Y-89256235D01*
X186097773Y-89262196D01*
X186073504Y-89265796D01*
X186049000Y-89267000D01*
X185299000Y-89267000D01*
X185274496Y-89265796D01*
X185250227Y-89262196D01*
X185226429Y-89256235D01*
X185203329Y-89247970D01*
X185181151Y-89237480D01*
X185160107Y-89224867D01*
X185140402Y-89210253D01*
X185122223Y-89193777D01*
X185105747Y-89175598D01*
X185091133Y-89155893D01*
X185078520Y-89134849D01*
X185068030Y-89112671D01*
X185059765Y-89089571D01*
X185053804Y-89065773D01*
X185050204Y-89041504D01*
X185049000Y-89017000D01*
X185049000Y-87767000D01*
X185050204Y-87742496D01*
X185053804Y-87718227D01*
X185059765Y-87694429D01*
X185068030Y-87671329D01*
X185078520Y-87649151D01*
X185091133Y-87628107D01*
X185105747Y-87608402D01*
X185122223Y-87590223D01*
X185140402Y-87573747D01*
X185160107Y-87559133D01*
X185181151Y-87546520D01*
X185203329Y-87536030D01*
X185226429Y-87527765D01*
X185250227Y-87521804D01*
X185274496Y-87518204D01*
X185299000Y-87517000D01*
X186049000Y-87517000D01*
X186073504Y-87518204D01*
X186073504Y-87518204D01*
G37*
D25*
X185674000Y-88392000D03*
D24*
G36*
X210203504Y-117236204D02*
G01*
X210227773Y-117239804D01*
X210251571Y-117245765D01*
X210274671Y-117254030D01*
X210296849Y-117264520D01*
X210317893Y-117277133D01*
X210337598Y-117291747D01*
X210355777Y-117308223D01*
X210372253Y-117326402D01*
X210386867Y-117346107D01*
X210399480Y-117367151D01*
X210409970Y-117389329D01*
X210418235Y-117412429D01*
X210424196Y-117436227D01*
X210427796Y-117460496D01*
X210429000Y-117485000D01*
X210429000Y-118735000D01*
X210427796Y-118759504D01*
X210424196Y-118783773D01*
X210418235Y-118807571D01*
X210409970Y-118830671D01*
X210399480Y-118852849D01*
X210386867Y-118873893D01*
X210372253Y-118893598D01*
X210355777Y-118911777D01*
X210337598Y-118928253D01*
X210317893Y-118942867D01*
X210296849Y-118955480D01*
X210274671Y-118965970D01*
X210251571Y-118974235D01*
X210227773Y-118980196D01*
X210203504Y-118983796D01*
X210179000Y-118985000D01*
X209429000Y-118985000D01*
X209404496Y-118983796D01*
X209380227Y-118980196D01*
X209356429Y-118974235D01*
X209333329Y-118965970D01*
X209311151Y-118955480D01*
X209290107Y-118942867D01*
X209270402Y-118928253D01*
X209252223Y-118911777D01*
X209235747Y-118893598D01*
X209221133Y-118873893D01*
X209208520Y-118852849D01*
X209198030Y-118830671D01*
X209189765Y-118807571D01*
X209183804Y-118783773D01*
X209180204Y-118759504D01*
X209179000Y-118735000D01*
X209179000Y-117485000D01*
X209180204Y-117460496D01*
X209183804Y-117436227D01*
X209189765Y-117412429D01*
X209198030Y-117389329D01*
X209208520Y-117367151D01*
X209221133Y-117346107D01*
X209235747Y-117326402D01*
X209252223Y-117308223D01*
X209270402Y-117291747D01*
X209290107Y-117277133D01*
X209311151Y-117264520D01*
X209333329Y-117254030D01*
X209356429Y-117245765D01*
X209380227Y-117239804D01*
X209404496Y-117236204D01*
X209429000Y-117235000D01*
X210179000Y-117235000D01*
X210203504Y-117236204D01*
X210203504Y-117236204D01*
G37*
D25*
X209804000Y-118110000D03*
D24*
G36*
X207403504Y-117236204D02*
G01*
X207427773Y-117239804D01*
X207451571Y-117245765D01*
X207474671Y-117254030D01*
X207496849Y-117264520D01*
X207517893Y-117277133D01*
X207537598Y-117291747D01*
X207555777Y-117308223D01*
X207572253Y-117326402D01*
X207586867Y-117346107D01*
X207599480Y-117367151D01*
X207609970Y-117389329D01*
X207618235Y-117412429D01*
X207624196Y-117436227D01*
X207627796Y-117460496D01*
X207629000Y-117485000D01*
X207629000Y-118735000D01*
X207627796Y-118759504D01*
X207624196Y-118783773D01*
X207618235Y-118807571D01*
X207609970Y-118830671D01*
X207599480Y-118852849D01*
X207586867Y-118873893D01*
X207572253Y-118893598D01*
X207555777Y-118911777D01*
X207537598Y-118928253D01*
X207517893Y-118942867D01*
X207496849Y-118955480D01*
X207474671Y-118965970D01*
X207451571Y-118974235D01*
X207427773Y-118980196D01*
X207403504Y-118983796D01*
X207379000Y-118985000D01*
X206629000Y-118985000D01*
X206604496Y-118983796D01*
X206580227Y-118980196D01*
X206556429Y-118974235D01*
X206533329Y-118965970D01*
X206511151Y-118955480D01*
X206490107Y-118942867D01*
X206470402Y-118928253D01*
X206452223Y-118911777D01*
X206435747Y-118893598D01*
X206421133Y-118873893D01*
X206408520Y-118852849D01*
X206398030Y-118830671D01*
X206389765Y-118807571D01*
X206383804Y-118783773D01*
X206380204Y-118759504D01*
X206379000Y-118735000D01*
X206379000Y-117485000D01*
X206380204Y-117460496D01*
X206383804Y-117436227D01*
X206389765Y-117412429D01*
X206398030Y-117389329D01*
X206408520Y-117367151D01*
X206421133Y-117346107D01*
X206435747Y-117326402D01*
X206452223Y-117308223D01*
X206470402Y-117291747D01*
X206490107Y-117277133D01*
X206511151Y-117264520D01*
X206533329Y-117254030D01*
X206556429Y-117245765D01*
X206580227Y-117239804D01*
X206604496Y-117236204D01*
X206629000Y-117235000D01*
X207379000Y-117235000D01*
X207403504Y-117236204D01*
X207403504Y-117236204D01*
G37*
D25*
X207004000Y-118110000D03*
D24*
G36*
X147973504Y-79644204D02*
G01*
X147997773Y-79647804D01*
X148021571Y-79653765D01*
X148044671Y-79662030D01*
X148066849Y-79672520D01*
X148087893Y-79685133D01*
X148107598Y-79699747D01*
X148125777Y-79716223D01*
X148142253Y-79734402D01*
X148156867Y-79754107D01*
X148169480Y-79775151D01*
X148179970Y-79797329D01*
X148188235Y-79820429D01*
X148194196Y-79844227D01*
X148197796Y-79868496D01*
X148199000Y-79893000D01*
X148199000Y-81143000D01*
X148197796Y-81167504D01*
X148194196Y-81191773D01*
X148188235Y-81215571D01*
X148179970Y-81238671D01*
X148169480Y-81260849D01*
X148156867Y-81281893D01*
X148142253Y-81301598D01*
X148125777Y-81319777D01*
X148107598Y-81336253D01*
X148087893Y-81350867D01*
X148066849Y-81363480D01*
X148044671Y-81373970D01*
X148021571Y-81382235D01*
X147997773Y-81388196D01*
X147973504Y-81391796D01*
X147949000Y-81393000D01*
X147199000Y-81393000D01*
X147174496Y-81391796D01*
X147150227Y-81388196D01*
X147126429Y-81382235D01*
X147103329Y-81373970D01*
X147081151Y-81363480D01*
X147060107Y-81350867D01*
X147040402Y-81336253D01*
X147022223Y-81319777D01*
X147005747Y-81301598D01*
X146991133Y-81281893D01*
X146978520Y-81260849D01*
X146968030Y-81238671D01*
X146959765Y-81215571D01*
X146953804Y-81191773D01*
X146950204Y-81167504D01*
X146949000Y-81143000D01*
X146949000Y-79893000D01*
X146950204Y-79868496D01*
X146953804Y-79844227D01*
X146959765Y-79820429D01*
X146968030Y-79797329D01*
X146978520Y-79775151D01*
X146991133Y-79754107D01*
X147005747Y-79734402D01*
X147022223Y-79716223D01*
X147040402Y-79699747D01*
X147060107Y-79685133D01*
X147081151Y-79672520D01*
X147103329Y-79662030D01*
X147126429Y-79653765D01*
X147150227Y-79647804D01*
X147174496Y-79644204D01*
X147199000Y-79643000D01*
X147949000Y-79643000D01*
X147973504Y-79644204D01*
X147973504Y-79644204D01*
G37*
D25*
X147574000Y-80518000D03*
D24*
G36*
X145173504Y-79644204D02*
G01*
X145197773Y-79647804D01*
X145221571Y-79653765D01*
X145244671Y-79662030D01*
X145266849Y-79672520D01*
X145287893Y-79685133D01*
X145307598Y-79699747D01*
X145325777Y-79716223D01*
X145342253Y-79734402D01*
X145356867Y-79754107D01*
X145369480Y-79775151D01*
X145379970Y-79797329D01*
X145388235Y-79820429D01*
X145394196Y-79844227D01*
X145397796Y-79868496D01*
X145399000Y-79893000D01*
X145399000Y-81143000D01*
X145397796Y-81167504D01*
X145394196Y-81191773D01*
X145388235Y-81215571D01*
X145379970Y-81238671D01*
X145369480Y-81260849D01*
X145356867Y-81281893D01*
X145342253Y-81301598D01*
X145325777Y-81319777D01*
X145307598Y-81336253D01*
X145287893Y-81350867D01*
X145266849Y-81363480D01*
X145244671Y-81373970D01*
X145221571Y-81382235D01*
X145197773Y-81388196D01*
X145173504Y-81391796D01*
X145149000Y-81393000D01*
X144399000Y-81393000D01*
X144374496Y-81391796D01*
X144350227Y-81388196D01*
X144326429Y-81382235D01*
X144303329Y-81373970D01*
X144281151Y-81363480D01*
X144260107Y-81350867D01*
X144240402Y-81336253D01*
X144222223Y-81319777D01*
X144205747Y-81301598D01*
X144191133Y-81281893D01*
X144178520Y-81260849D01*
X144168030Y-81238671D01*
X144159765Y-81215571D01*
X144153804Y-81191773D01*
X144150204Y-81167504D01*
X144149000Y-81143000D01*
X144149000Y-79893000D01*
X144150204Y-79868496D01*
X144153804Y-79844227D01*
X144159765Y-79820429D01*
X144168030Y-79797329D01*
X144178520Y-79775151D01*
X144191133Y-79754107D01*
X144205747Y-79734402D01*
X144222223Y-79716223D01*
X144240402Y-79699747D01*
X144260107Y-79685133D01*
X144281151Y-79672520D01*
X144303329Y-79662030D01*
X144326429Y-79653765D01*
X144350227Y-79647804D01*
X144374496Y-79644204D01*
X144399000Y-79643000D01*
X145149000Y-79643000D01*
X145173504Y-79644204D01*
X145173504Y-79644204D01*
G37*
D25*
X144774000Y-80518000D03*
D24*
G36*
X219477504Y-62880204D02*
G01*
X219501773Y-62883804D01*
X219525571Y-62889765D01*
X219548671Y-62898030D01*
X219570849Y-62908520D01*
X219591893Y-62921133D01*
X219611598Y-62935747D01*
X219629777Y-62952223D01*
X219646253Y-62970402D01*
X219660867Y-62990107D01*
X219673480Y-63011151D01*
X219683970Y-63033329D01*
X219692235Y-63056429D01*
X219698196Y-63080227D01*
X219701796Y-63104496D01*
X219703000Y-63129000D01*
X219703000Y-64379000D01*
X219701796Y-64403504D01*
X219698196Y-64427773D01*
X219692235Y-64451571D01*
X219683970Y-64474671D01*
X219673480Y-64496849D01*
X219660867Y-64517893D01*
X219646253Y-64537598D01*
X219629777Y-64555777D01*
X219611598Y-64572253D01*
X219591893Y-64586867D01*
X219570849Y-64599480D01*
X219548671Y-64609970D01*
X219525571Y-64618235D01*
X219501773Y-64624196D01*
X219477504Y-64627796D01*
X219453000Y-64629000D01*
X218703000Y-64629000D01*
X218678496Y-64627796D01*
X218654227Y-64624196D01*
X218630429Y-64618235D01*
X218607329Y-64609970D01*
X218585151Y-64599480D01*
X218564107Y-64586867D01*
X218544402Y-64572253D01*
X218526223Y-64555777D01*
X218509747Y-64537598D01*
X218495133Y-64517893D01*
X218482520Y-64496849D01*
X218472030Y-64474671D01*
X218463765Y-64451571D01*
X218457804Y-64427773D01*
X218454204Y-64403504D01*
X218453000Y-64379000D01*
X218453000Y-63129000D01*
X218454204Y-63104496D01*
X218457804Y-63080227D01*
X218463765Y-63056429D01*
X218472030Y-63033329D01*
X218482520Y-63011151D01*
X218495133Y-62990107D01*
X218509747Y-62970402D01*
X218526223Y-62952223D01*
X218544402Y-62935747D01*
X218564107Y-62921133D01*
X218585151Y-62908520D01*
X218607329Y-62898030D01*
X218630429Y-62889765D01*
X218654227Y-62883804D01*
X218678496Y-62880204D01*
X218703000Y-62879000D01*
X219453000Y-62879000D01*
X219477504Y-62880204D01*
X219477504Y-62880204D01*
G37*
D25*
X219078000Y-63754000D03*
D24*
G36*
X216677504Y-62880204D02*
G01*
X216701773Y-62883804D01*
X216725571Y-62889765D01*
X216748671Y-62898030D01*
X216770849Y-62908520D01*
X216791893Y-62921133D01*
X216811598Y-62935747D01*
X216829777Y-62952223D01*
X216846253Y-62970402D01*
X216860867Y-62990107D01*
X216873480Y-63011151D01*
X216883970Y-63033329D01*
X216892235Y-63056429D01*
X216898196Y-63080227D01*
X216901796Y-63104496D01*
X216903000Y-63129000D01*
X216903000Y-64379000D01*
X216901796Y-64403504D01*
X216898196Y-64427773D01*
X216892235Y-64451571D01*
X216883970Y-64474671D01*
X216873480Y-64496849D01*
X216860867Y-64517893D01*
X216846253Y-64537598D01*
X216829777Y-64555777D01*
X216811598Y-64572253D01*
X216791893Y-64586867D01*
X216770849Y-64599480D01*
X216748671Y-64609970D01*
X216725571Y-64618235D01*
X216701773Y-64624196D01*
X216677504Y-64627796D01*
X216653000Y-64629000D01*
X215903000Y-64629000D01*
X215878496Y-64627796D01*
X215854227Y-64624196D01*
X215830429Y-64618235D01*
X215807329Y-64609970D01*
X215785151Y-64599480D01*
X215764107Y-64586867D01*
X215744402Y-64572253D01*
X215726223Y-64555777D01*
X215709747Y-64537598D01*
X215695133Y-64517893D01*
X215682520Y-64496849D01*
X215672030Y-64474671D01*
X215663765Y-64451571D01*
X215657804Y-64427773D01*
X215654204Y-64403504D01*
X215653000Y-64379000D01*
X215653000Y-63129000D01*
X215654204Y-63104496D01*
X215657804Y-63080227D01*
X215663765Y-63056429D01*
X215672030Y-63033329D01*
X215682520Y-63011151D01*
X215695133Y-62990107D01*
X215709747Y-62970402D01*
X215726223Y-62952223D01*
X215744402Y-62935747D01*
X215764107Y-62921133D01*
X215785151Y-62908520D01*
X215807329Y-62898030D01*
X215830429Y-62889765D01*
X215854227Y-62883804D01*
X215878496Y-62880204D01*
X215903000Y-62879000D01*
X216653000Y-62879000D01*
X216677504Y-62880204D01*
X216677504Y-62880204D01*
G37*
D25*
X216278000Y-63754000D03*
D24*
G36*
X216547504Y-69230204D02*
G01*
X216571773Y-69233804D01*
X216595571Y-69239765D01*
X216618671Y-69248030D01*
X216640849Y-69258520D01*
X216661893Y-69271133D01*
X216681598Y-69285747D01*
X216699777Y-69302223D01*
X216716253Y-69320402D01*
X216730867Y-69340107D01*
X216743480Y-69361151D01*
X216753970Y-69383329D01*
X216762235Y-69406429D01*
X216768196Y-69430227D01*
X216771796Y-69454496D01*
X216773000Y-69479000D01*
X216773000Y-70729000D01*
X216771796Y-70753504D01*
X216768196Y-70777773D01*
X216762235Y-70801571D01*
X216753970Y-70824671D01*
X216743480Y-70846849D01*
X216730867Y-70867893D01*
X216716253Y-70887598D01*
X216699777Y-70905777D01*
X216681598Y-70922253D01*
X216661893Y-70936867D01*
X216640849Y-70949480D01*
X216618671Y-70959970D01*
X216595571Y-70968235D01*
X216571773Y-70974196D01*
X216547504Y-70977796D01*
X216523000Y-70979000D01*
X215773000Y-70979000D01*
X215748496Y-70977796D01*
X215724227Y-70974196D01*
X215700429Y-70968235D01*
X215677329Y-70959970D01*
X215655151Y-70949480D01*
X215634107Y-70936867D01*
X215614402Y-70922253D01*
X215596223Y-70905777D01*
X215579747Y-70887598D01*
X215565133Y-70867893D01*
X215552520Y-70846849D01*
X215542030Y-70824671D01*
X215533765Y-70801571D01*
X215527804Y-70777773D01*
X215524204Y-70753504D01*
X215523000Y-70729000D01*
X215523000Y-69479000D01*
X215524204Y-69454496D01*
X215527804Y-69430227D01*
X215533765Y-69406429D01*
X215542030Y-69383329D01*
X215552520Y-69361151D01*
X215565133Y-69340107D01*
X215579747Y-69320402D01*
X215596223Y-69302223D01*
X215614402Y-69285747D01*
X215634107Y-69271133D01*
X215655151Y-69258520D01*
X215677329Y-69248030D01*
X215700429Y-69239765D01*
X215724227Y-69233804D01*
X215748496Y-69230204D01*
X215773000Y-69229000D01*
X216523000Y-69229000D01*
X216547504Y-69230204D01*
X216547504Y-69230204D01*
G37*
D25*
X216148000Y-70104000D03*
D24*
G36*
X219347504Y-69230204D02*
G01*
X219371773Y-69233804D01*
X219395571Y-69239765D01*
X219418671Y-69248030D01*
X219440849Y-69258520D01*
X219461893Y-69271133D01*
X219481598Y-69285747D01*
X219499777Y-69302223D01*
X219516253Y-69320402D01*
X219530867Y-69340107D01*
X219543480Y-69361151D01*
X219553970Y-69383329D01*
X219562235Y-69406429D01*
X219568196Y-69430227D01*
X219571796Y-69454496D01*
X219573000Y-69479000D01*
X219573000Y-70729000D01*
X219571796Y-70753504D01*
X219568196Y-70777773D01*
X219562235Y-70801571D01*
X219553970Y-70824671D01*
X219543480Y-70846849D01*
X219530867Y-70867893D01*
X219516253Y-70887598D01*
X219499777Y-70905777D01*
X219481598Y-70922253D01*
X219461893Y-70936867D01*
X219440849Y-70949480D01*
X219418671Y-70959970D01*
X219395571Y-70968235D01*
X219371773Y-70974196D01*
X219347504Y-70977796D01*
X219323000Y-70979000D01*
X218573000Y-70979000D01*
X218548496Y-70977796D01*
X218524227Y-70974196D01*
X218500429Y-70968235D01*
X218477329Y-70959970D01*
X218455151Y-70949480D01*
X218434107Y-70936867D01*
X218414402Y-70922253D01*
X218396223Y-70905777D01*
X218379747Y-70887598D01*
X218365133Y-70867893D01*
X218352520Y-70846849D01*
X218342030Y-70824671D01*
X218333765Y-70801571D01*
X218327804Y-70777773D01*
X218324204Y-70753504D01*
X218323000Y-70729000D01*
X218323000Y-69479000D01*
X218324204Y-69454496D01*
X218327804Y-69430227D01*
X218333765Y-69406429D01*
X218342030Y-69383329D01*
X218352520Y-69361151D01*
X218365133Y-69340107D01*
X218379747Y-69320402D01*
X218396223Y-69302223D01*
X218414402Y-69285747D01*
X218434107Y-69271133D01*
X218455151Y-69258520D01*
X218477329Y-69248030D01*
X218500429Y-69239765D01*
X218524227Y-69233804D01*
X218548496Y-69230204D01*
X218573000Y-69229000D01*
X219323000Y-69229000D01*
X219347504Y-69230204D01*
X219347504Y-69230204D01*
G37*
D25*
X218948000Y-70104000D03*
D24*
G36*
X216677504Y-76850204D02*
G01*
X216701773Y-76853804D01*
X216725571Y-76859765D01*
X216748671Y-76868030D01*
X216770849Y-76878520D01*
X216791893Y-76891133D01*
X216811598Y-76905747D01*
X216829777Y-76922223D01*
X216846253Y-76940402D01*
X216860867Y-76960107D01*
X216873480Y-76981151D01*
X216883970Y-77003329D01*
X216892235Y-77026429D01*
X216898196Y-77050227D01*
X216901796Y-77074496D01*
X216903000Y-77099000D01*
X216903000Y-78349000D01*
X216901796Y-78373504D01*
X216898196Y-78397773D01*
X216892235Y-78421571D01*
X216883970Y-78444671D01*
X216873480Y-78466849D01*
X216860867Y-78487893D01*
X216846253Y-78507598D01*
X216829777Y-78525777D01*
X216811598Y-78542253D01*
X216791893Y-78556867D01*
X216770849Y-78569480D01*
X216748671Y-78579970D01*
X216725571Y-78588235D01*
X216701773Y-78594196D01*
X216677504Y-78597796D01*
X216653000Y-78599000D01*
X215903000Y-78599000D01*
X215878496Y-78597796D01*
X215854227Y-78594196D01*
X215830429Y-78588235D01*
X215807329Y-78579970D01*
X215785151Y-78569480D01*
X215764107Y-78556867D01*
X215744402Y-78542253D01*
X215726223Y-78525777D01*
X215709747Y-78507598D01*
X215695133Y-78487893D01*
X215682520Y-78466849D01*
X215672030Y-78444671D01*
X215663765Y-78421571D01*
X215657804Y-78397773D01*
X215654204Y-78373504D01*
X215653000Y-78349000D01*
X215653000Y-77099000D01*
X215654204Y-77074496D01*
X215657804Y-77050227D01*
X215663765Y-77026429D01*
X215672030Y-77003329D01*
X215682520Y-76981151D01*
X215695133Y-76960107D01*
X215709747Y-76940402D01*
X215726223Y-76922223D01*
X215744402Y-76905747D01*
X215764107Y-76891133D01*
X215785151Y-76878520D01*
X215807329Y-76868030D01*
X215830429Y-76859765D01*
X215854227Y-76853804D01*
X215878496Y-76850204D01*
X215903000Y-76849000D01*
X216653000Y-76849000D01*
X216677504Y-76850204D01*
X216677504Y-76850204D01*
G37*
D25*
X216278000Y-77724000D03*
D24*
G36*
X219477504Y-76850204D02*
G01*
X219501773Y-76853804D01*
X219525571Y-76859765D01*
X219548671Y-76868030D01*
X219570849Y-76878520D01*
X219591893Y-76891133D01*
X219611598Y-76905747D01*
X219629777Y-76922223D01*
X219646253Y-76940402D01*
X219660867Y-76960107D01*
X219673480Y-76981151D01*
X219683970Y-77003329D01*
X219692235Y-77026429D01*
X219698196Y-77050227D01*
X219701796Y-77074496D01*
X219703000Y-77099000D01*
X219703000Y-78349000D01*
X219701796Y-78373504D01*
X219698196Y-78397773D01*
X219692235Y-78421571D01*
X219683970Y-78444671D01*
X219673480Y-78466849D01*
X219660867Y-78487893D01*
X219646253Y-78507598D01*
X219629777Y-78525777D01*
X219611598Y-78542253D01*
X219591893Y-78556867D01*
X219570849Y-78569480D01*
X219548671Y-78579970D01*
X219525571Y-78588235D01*
X219501773Y-78594196D01*
X219477504Y-78597796D01*
X219453000Y-78599000D01*
X218703000Y-78599000D01*
X218678496Y-78597796D01*
X218654227Y-78594196D01*
X218630429Y-78588235D01*
X218607329Y-78579970D01*
X218585151Y-78569480D01*
X218564107Y-78556867D01*
X218544402Y-78542253D01*
X218526223Y-78525777D01*
X218509747Y-78507598D01*
X218495133Y-78487893D01*
X218482520Y-78466849D01*
X218472030Y-78444671D01*
X218463765Y-78421571D01*
X218457804Y-78397773D01*
X218454204Y-78373504D01*
X218453000Y-78349000D01*
X218453000Y-77099000D01*
X218454204Y-77074496D01*
X218457804Y-77050227D01*
X218463765Y-77026429D01*
X218472030Y-77003329D01*
X218482520Y-76981151D01*
X218495133Y-76960107D01*
X218509747Y-76940402D01*
X218526223Y-76922223D01*
X218544402Y-76905747D01*
X218564107Y-76891133D01*
X218585151Y-76878520D01*
X218607329Y-76868030D01*
X218630429Y-76859765D01*
X218654227Y-76853804D01*
X218678496Y-76850204D01*
X218703000Y-76849000D01*
X219453000Y-76849000D01*
X219477504Y-76850204D01*
X219477504Y-76850204D01*
G37*
D25*
X219078000Y-77724000D03*
D24*
G36*
X199659504Y-117236204D02*
G01*
X199683773Y-117239804D01*
X199707571Y-117245765D01*
X199730671Y-117254030D01*
X199752849Y-117264520D01*
X199773893Y-117277133D01*
X199793598Y-117291747D01*
X199811777Y-117308223D01*
X199828253Y-117326402D01*
X199842867Y-117346107D01*
X199855480Y-117367151D01*
X199865970Y-117389329D01*
X199874235Y-117412429D01*
X199880196Y-117436227D01*
X199883796Y-117460496D01*
X199885000Y-117485000D01*
X199885000Y-118735000D01*
X199883796Y-118759504D01*
X199880196Y-118783773D01*
X199874235Y-118807571D01*
X199865970Y-118830671D01*
X199855480Y-118852849D01*
X199842867Y-118873893D01*
X199828253Y-118893598D01*
X199811777Y-118911777D01*
X199793598Y-118928253D01*
X199773893Y-118942867D01*
X199752849Y-118955480D01*
X199730671Y-118965970D01*
X199707571Y-118974235D01*
X199683773Y-118980196D01*
X199659504Y-118983796D01*
X199635000Y-118985000D01*
X198885000Y-118985000D01*
X198860496Y-118983796D01*
X198836227Y-118980196D01*
X198812429Y-118974235D01*
X198789329Y-118965970D01*
X198767151Y-118955480D01*
X198746107Y-118942867D01*
X198726402Y-118928253D01*
X198708223Y-118911777D01*
X198691747Y-118893598D01*
X198677133Y-118873893D01*
X198664520Y-118852849D01*
X198654030Y-118830671D01*
X198645765Y-118807571D01*
X198639804Y-118783773D01*
X198636204Y-118759504D01*
X198635000Y-118735000D01*
X198635000Y-117485000D01*
X198636204Y-117460496D01*
X198639804Y-117436227D01*
X198645765Y-117412429D01*
X198654030Y-117389329D01*
X198664520Y-117367151D01*
X198677133Y-117346107D01*
X198691747Y-117326402D01*
X198708223Y-117308223D01*
X198726402Y-117291747D01*
X198746107Y-117277133D01*
X198767151Y-117264520D01*
X198789329Y-117254030D01*
X198812429Y-117245765D01*
X198836227Y-117239804D01*
X198860496Y-117236204D01*
X198885000Y-117235000D01*
X199635000Y-117235000D01*
X199659504Y-117236204D01*
X199659504Y-117236204D01*
G37*
D25*
X199260000Y-118110000D03*
D24*
G36*
X202459504Y-117236204D02*
G01*
X202483773Y-117239804D01*
X202507571Y-117245765D01*
X202530671Y-117254030D01*
X202552849Y-117264520D01*
X202573893Y-117277133D01*
X202593598Y-117291747D01*
X202611777Y-117308223D01*
X202628253Y-117326402D01*
X202642867Y-117346107D01*
X202655480Y-117367151D01*
X202665970Y-117389329D01*
X202674235Y-117412429D01*
X202680196Y-117436227D01*
X202683796Y-117460496D01*
X202685000Y-117485000D01*
X202685000Y-118735000D01*
X202683796Y-118759504D01*
X202680196Y-118783773D01*
X202674235Y-118807571D01*
X202665970Y-118830671D01*
X202655480Y-118852849D01*
X202642867Y-118873893D01*
X202628253Y-118893598D01*
X202611777Y-118911777D01*
X202593598Y-118928253D01*
X202573893Y-118942867D01*
X202552849Y-118955480D01*
X202530671Y-118965970D01*
X202507571Y-118974235D01*
X202483773Y-118980196D01*
X202459504Y-118983796D01*
X202435000Y-118985000D01*
X201685000Y-118985000D01*
X201660496Y-118983796D01*
X201636227Y-118980196D01*
X201612429Y-118974235D01*
X201589329Y-118965970D01*
X201567151Y-118955480D01*
X201546107Y-118942867D01*
X201526402Y-118928253D01*
X201508223Y-118911777D01*
X201491747Y-118893598D01*
X201477133Y-118873893D01*
X201464520Y-118852849D01*
X201454030Y-118830671D01*
X201445765Y-118807571D01*
X201439804Y-118783773D01*
X201436204Y-118759504D01*
X201435000Y-118735000D01*
X201435000Y-117485000D01*
X201436204Y-117460496D01*
X201439804Y-117436227D01*
X201445765Y-117412429D01*
X201454030Y-117389329D01*
X201464520Y-117367151D01*
X201477133Y-117346107D01*
X201491747Y-117326402D01*
X201508223Y-117308223D01*
X201526402Y-117291747D01*
X201546107Y-117277133D01*
X201567151Y-117264520D01*
X201589329Y-117254030D01*
X201612429Y-117245765D01*
X201636227Y-117239804D01*
X201660496Y-117236204D01*
X201685000Y-117235000D01*
X202435000Y-117235000D01*
X202459504Y-117236204D01*
X202459504Y-117236204D01*
G37*
D25*
X202060000Y-118110000D03*
D24*
G36*
X179719504Y-107326204D02*
G01*
X179743773Y-107329804D01*
X179767571Y-107335765D01*
X179790671Y-107344030D01*
X179812849Y-107354520D01*
X179833893Y-107367133D01*
X179853598Y-107381747D01*
X179871777Y-107398223D01*
X179888253Y-107416402D01*
X179902867Y-107436107D01*
X179915480Y-107457151D01*
X179925970Y-107479329D01*
X179934235Y-107502429D01*
X179940196Y-107526227D01*
X179943796Y-107550496D01*
X179945000Y-107575000D01*
X179945000Y-108325000D01*
X179943796Y-108349504D01*
X179940196Y-108373773D01*
X179934235Y-108397571D01*
X179925970Y-108420671D01*
X179915480Y-108442849D01*
X179902867Y-108463893D01*
X179888253Y-108483598D01*
X179871777Y-108501777D01*
X179853598Y-108518253D01*
X179833893Y-108532867D01*
X179812849Y-108545480D01*
X179790671Y-108555970D01*
X179767571Y-108564235D01*
X179743773Y-108570196D01*
X179719504Y-108573796D01*
X179695000Y-108575000D01*
X178445000Y-108575000D01*
X178420496Y-108573796D01*
X178396227Y-108570196D01*
X178372429Y-108564235D01*
X178349329Y-108555970D01*
X178327151Y-108545480D01*
X178306107Y-108532867D01*
X178286402Y-108518253D01*
X178268223Y-108501777D01*
X178251747Y-108483598D01*
X178237133Y-108463893D01*
X178224520Y-108442849D01*
X178214030Y-108420671D01*
X178205765Y-108397571D01*
X178199804Y-108373773D01*
X178196204Y-108349504D01*
X178195000Y-108325000D01*
X178195000Y-107575000D01*
X178196204Y-107550496D01*
X178199804Y-107526227D01*
X178205765Y-107502429D01*
X178214030Y-107479329D01*
X178224520Y-107457151D01*
X178237133Y-107436107D01*
X178251747Y-107416402D01*
X178268223Y-107398223D01*
X178286402Y-107381747D01*
X178306107Y-107367133D01*
X178327151Y-107354520D01*
X178349329Y-107344030D01*
X178372429Y-107335765D01*
X178396227Y-107329804D01*
X178420496Y-107326204D01*
X178445000Y-107325000D01*
X179695000Y-107325000D01*
X179719504Y-107326204D01*
X179719504Y-107326204D01*
G37*
D25*
X179070000Y-107950000D03*
D24*
G36*
X179719504Y-110126204D02*
G01*
X179743773Y-110129804D01*
X179767571Y-110135765D01*
X179790671Y-110144030D01*
X179812849Y-110154520D01*
X179833893Y-110167133D01*
X179853598Y-110181747D01*
X179871777Y-110198223D01*
X179888253Y-110216402D01*
X179902867Y-110236107D01*
X179915480Y-110257151D01*
X179925970Y-110279329D01*
X179934235Y-110302429D01*
X179940196Y-110326227D01*
X179943796Y-110350496D01*
X179945000Y-110375000D01*
X179945000Y-111125000D01*
X179943796Y-111149504D01*
X179940196Y-111173773D01*
X179934235Y-111197571D01*
X179925970Y-111220671D01*
X179915480Y-111242849D01*
X179902867Y-111263893D01*
X179888253Y-111283598D01*
X179871777Y-111301777D01*
X179853598Y-111318253D01*
X179833893Y-111332867D01*
X179812849Y-111345480D01*
X179790671Y-111355970D01*
X179767571Y-111364235D01*
X179743773Y-111370196D01*
X179719504Y-111373796D01*
X179695000Y-111375000D01*
X178445000Y-111375000D01*
X178420496Y-111373796D01*
X178396227Y-111370196D01*
X178372429Y-111364235D01*
X178349329Y-111355970D01*
X178327151Y-111345480D01*
X178306107Y-111332867D01*
X178286402Y-111318253D01*
X178268223Y-111301777D01*
X178251747Y-111283598D01*
X178237133Y-111263893D01*
X178224520Y-111242849D01*
X178214030Y-111220671D01*
X178205765Y-111197571D01*
X178199804Y-111173773D01*
X178196204Y-111149504D01*
X178195000Y-111125000D01*
X178195000Y-110375000D01*
X178196204Y-110350496D01*
X178199804Y-110326227D01*
X178205765Y-110302429D01*
X178214030Y-110279329D01*
X178224520Y-110257151D01*
X178237133Y-110236107D01*
X178251747Y-110216402D01*
X178268223Y-110198223D01*
X178286402Y-110181747D01*
X178306107Y-110167133D01*
X178327151Y-110154520D01*
X178349329Y-110144030D01*
X178372429Y-110135765D01*
X178396227Y-110129804D01*
X178420496Y-110126204D01*
X178445000Y-110125000D01*
X179695000Y-110125000D01*
X179719504Y-110126204D01*
X179719504Y-110126204D01*
G37*
D25*
X179070000Y-110750000D03*
D24*
G36*
X179719504Y-118756204D02*
G01*
X179743773Y-118759804D01*
X179767571Y-118765765D01*
X179790671Y-118774030D01*
X179812849Y-118784520D01*
X179833893Y-118797133D01*
X179853598Y-118811747D01*
X179871777Y-118828223D01*
X179888253Y-118846402D01*
X179902867Y-118866107D01*
X179915480Y-118887151D01*
X179925970Y-118909329D01*
X179934235Y-118932429D01*
X179940196Y-118956227D01*
X179943796Y-118980496D01*
X179945000Y-119005000D01*
X179945000Y-119755000D01*
X179943796Y-119779504D01*
X179940196Y-119803773D01*
X179934235Y-119827571D01*
X179925970Y-119850671D01*
X179915480Y-119872849D01*
X179902867Y-119893893D01*
X179888253Y-119913598D01*
X179871777Y-119931777D01*
X179853598Y-119948253D01*
X179833893Y-119962867D01*
X179812849Y-119975480D01*
X179790671Y-119985970D01*
X179767571Y-119994235D01*
X179743773Y-120000196D01*
X179719504Y-120003796D01*
X179695000Y-120005000D01*
X178445000Y-120005000D01*
X178420496Y-120003796D01*
X178396227Y-120000196D01*
X178372429Y-119994235D01*
X178349329Y-119985970D01*
X178327151Y-119975480D01*
X178306107Y-119962867D01*
X178286402Y-119948253D01*
X178268223Y-119931777D01*
X178251747Y-119913598D01*
X178237133Y-119893893D01*
X178224520Y-119872849D01*
X178214030Y-119850671D01*
X178205765Y-119827571D01*
X178199804Y-119803773D01*
X178196204Y-119779504D01*
X178195000Y-119755000D01*
X178195000Y-119005000D01*
X178196204Y-118980496D01*
X178199804Y-118956227D01*
X178205765Y-118932429D01*
X178214030Y-118909329D01*
X178224520Y-118887151D01*
X178237133Y-118866107D01*
X178251747Y-118846402D01*
X178268223Y-118828223D01*
X178286402Y-118811747D01*
X178306107Y-118797133D01*
X178327151Y-118784520D01*
X178349329Y-118774030D01*
X178372429Y-118765765D01*
X178396227Y-118759804D01*
X178420496Y-118756204D01*
X178445000Y-118755000D01*
X179695000Y-118755000D01*
X179719504Y-118756204D01*
X179719504Y-118756204D01*
G37*
D25*
X179070000Y-119380000D03*
D24*
G36*
X179719504Y-115956204D02*
G01*
X179743773Y-115959804D01*
X179767571Y-115965765D01*
X179790671Y-115974030D01*
X179812849Y-115984520D01*
X179833893Y-115997133D01*
X179853598Y-116011747D01*
X179871777Y-116028223D01*
X179888253Y-116046402D01*
X179902867Y-116066107D01*
X179915480Y-116087151D01*
X179925970Y-116109329D01*
X179934235Y-116132429D01*
X179940196Y-116156227D01*
X179943796Y-116180496D01*
X179945000Y-116205000D01*
X179945000Y-116955000D01*
X179943796Y-116979504D01*
X179940196Y-117003773D01*
X179934235Y-117027571D01*
X179925970Y-117050671D01*
X179915480Y-117072849D01*
X179902867Y-117093893D01*
X179888253Y-117113598D01*
X179871777Y-117131777D01*
X179853598Y-117148253D01*
X179833893Y-117162867D01*
X179812849Y-117175480D01*
X179790671Y-117185970D01*
X179767571Y-117194235D01*
X179743773Y-117200196D01*
X179719504Y-117203796D01*
X179695000Y-117205000D01*
X178445000Y-117205000D01*
X178420496Y-117203796D01*
X178396227Y-117200196D01*
X178372429Y-117194235D01*
X178349329Y-117185970D01*
X178327151Y-117175480D01*
X178306107Y-117162867D01*
X178286402Y-117148253D01*
X178268223Y-117131777D01*
X178251747Y-117113598D01*
X178237133Y-117093893D01*
X178224520Y-117072849D01*
X178214030Y-117050671D01*
X178205765Y-117027571D01*
X178199804Y-117003773D01*
X178196204Y-116979504D01*
X178195000Y-116955000D01*
X178195000Y-116205000D01*
X178196204Y-116180496D01*
X178199804Y-116156227D01*
X178205765Y-116132429D01*
X178214030Y-116109329D01*
X178224520Y-116087151D01*
X178237133Y-116066107D01*
X178251747Y-116046402D01*
X178268223Y-116028223D01*
X178286402Y-116011747D01*
X178306107Y-115997133D01*
X178327151Y-115984520D01*
X178349329Y-115974030D01*
X178372429Y-115965765D01*
X178396227Y-115959804D01*
X178420496Y-115956204D01*
X178445000Y-115955000D01*
X179695000Y-115955000D01*
X179719504Y-115956204D01*
X179719504Y-115956204D01*
G37*
D25*
X179070000Y-116580000D03*
D24*
G36*
X172099504Y-109996204D02*
G01*
X172123773Y-109999804D01*
X172147571Y-110005765D01*
X172170671Y-110014030D01*
X172192849Y-110024520D01*
X172213893Y-110037133D01*
X172233598Y-110051747D01*
X172251777Y-110068223D01*
X172268253Y-110086402D01*
X172282867Y-110106107D01*
X172295480Y-110127151D01*
X172305970Y-110149329D01*
X172314235Y-110172429D01*
X172320196Y-110196227D01*
X172323796Y-110220496D01*
X172325000Y-110245000D01*
X172325000Y-110995000D01*
X172323796Y-111019504D01*
X172320196Y-111043773D01*
X172314235Y-111067571D01*
X172305970Y-111090671D01*
X172295480Y-111112849D01*
X172282867Y-111133893D01*
X172268253Y-111153598D01*
X172251777Y-111171777D01*
X172233598Y-111188253D01*
X172213893Y-111202867D01*
X172192849Y-111215480D01*
X172170671Y-111225970D01*
X172147571Y-111234235D01*
X172123773Y-111240196D01*
X172099504Y-111243796D01*
X172075000Y-111245000D01*
X170825000Y-111245000D01*
X170800496Y-111243796D01*
X170776227Y-111240196D01*
X170752429Y-111234235D01*
X170729329Y-111225970D01*
X170707151Y-111215480D01*
X170686107Y-111202867D01*
X170666402Y-111188253D01*
X170648223Y-111171777D01*
X170631747Y-111153598D01*
X170617133Y-111133893D01*
X170604520Y-111112849D01*
X170594030Y-111090671D01*
X170585765Y-111067571D01*
X170579804Y-111043773D01*
X170576204Y-111019504D01*
X170575000Y-110995000D01*
X170575000Y-110245000D01*
X170576204Y-110220496D01*
X170579804Y-110196227D01*
X170585765Y-110172429D01*
X170594030Y-110149329D01*
X170604520Y-110127151D01*
X170617133Y-110106107D01*
X170631747Y-110086402D01*
X170648223Y-110068223D01*
X170666402Y-110051747D01*
X170686107Y-110037133D01*
X170707151Y-110024520D01*
X170729329Y-110014030D01*
X170752429Y-110005765D01*
X170776227Y-109999804D01*
X170800496Y-109996204D01*
X170825000Y-109995000D01*
X172075000Y-109995000D01*
X172099504Y-109996204D01*
X172099504Y-109996204D01*
G37*
D25*
X171450000Y-110620000D03*
D24*
G36*
X172099504Y-107196204D02*
G01*
X172123773Y-107199804D01*
X172147571Y-107205765D01*
X172170671Y-107214030D01*
X172192849Y-107224520D01*
X172213893Y-107237133D01*
X172233598Y-107251747D01*
X172251777Y-107268223D01*
X172268253Y-107286402D01*
X172282867Y-107306107D01*
X172295480Y-107327151D01*
X172305970Y-107349329D01*
X172314235Y-107372429D01*
X172320196Y-107396227D01*
X172323796Y-107420496D01*
X172325000Y-107445000D01*
X172325000Y-108195000D01*
X172323796Y-108219504D01*
X172320196Y-108243773D01*
X172314235Y-108267571D01*
X172305970Y-108290671D01*
X172295480Y-108312849D01*
X172282867Y-108333893D01*
X172268253Y-108353598D01*
X172251777Y-108371777D01*
X172233598Y-108388253D01*
X172213893Y-108402867D01*
X172192849Y-108415480D01*
X172170671Y-108425970D01*
X172147571Y-108434235D01*
X172123773Y-108440196D01*
X172099504Y-108443796D01*
X172075000Y-108445000D01*
X170825000Y-108445000D01*
X170800496Y-108443796D01*
X170776227Y-108440196D01*
X170752429Y-108434235D01*
X170729329Y-108425970D01*
X170707151Y-108415480D01*
X170686107Y-108402867D01*
X170666402Y-108388253D01*
X170648223Y-108371777D01*
X170631747Y-108353598D01*
X170617133Y-108333893D01*
X170604520Y-108312849D01*
X170594030Y-108290671D01*
X170585765Y-108267571D01*
X170579804Y-108243773D01*
X170576204Y-108219504D01*
X170575000Y-108195000D01*
X170575000Y-107445000D01*
X170576204Y-107420496D01*
X170579804Y-107396227D01*
X170585765Y-107372429D01*
X170594030Y-107349329D01*
X170604520Y-107327151D01*
X170617133Y-107306107D01*
X170631747Y-107286402D01*
X170648223Y-107268223D01*
X170666402Y-107251747D01*
X170686107Y-107237133D01*
X170707151Y-107224520D01*
X170729329Y-107214030D01*
X170752429Y-107205765D01*
X170776227Y-107199804D01*
X170800496Y-107196204D01*
X170825000Y-107195000D01*
X172075000Y-107195000D01*
X172099504Y-107196204D01*
X172099504Y-107196204D01*
G37*
D25*
X171450000Y-107820000D03*
D24*
G36*
X172099504Y-116086204D02*
G01*
X172123773Y-116089804D01*
X172147571Y-116095765D01*
X172170671Y-116104030D01*
X172192849Y-116114520D01*
X172213893Y-116127133D01*
X172233598Y-116141747D01*
X172251777Y-116158223D01*
X172268253Y-116176402D01*
X172282867Y-116196107D01*
X172295480Y-116217151D01*
X172305970Y-116239329D01*
X172314235Y-116262429D01*
X172320196Y-116286227D01*
X172323796Y-116310496D01*
X172325000Y-116335000D01*
X172325000Y-117085000D01*
X172323796Y-117109504D01*
X172320196Y-117133773D01*
X172314235Y-117157571D01*
X172305970Y-117180671D01*
X172295480Y-117202849D01*
X172282867Y-117223893D01*
X172268253Y-117243598D01*
X172251777Y-117261777D01*
X172233598Y-117278253D01*
X172213893Y-117292867D01*
X172192849Y-117305480D01*
X172170671Y-117315970D01*
X172147571Y-117324235D01*
X172123773Y-117330196D01*
X172099504Y-117333796D01*
X172075000Y-117335000D01*
X170825000Y-117335000D01*
X170800496Y-117333796D01*
X170776227Y-117330196D01*
X170752429Y-117324235D01*
X170729329Y-117315970D01*
X170707151Y-117305480D01*
X170686107Y-117292867D01*
X170666402Y-117278253D01*
X170648223Y-117261777D01*
X170631747Y-117243598D01*
X170617133Y-117223893D01*
X170604520Y-117202849D01*
X170594030Y-117180671D01*
X170585765Y-117157571D01*
X170579804Y-117133773D01*
X170576204Y-117109504D01*
X170575000Y-117085000D01*
X170575000Y-116335000D01*
X170576204Y-116310496D01*
X170579804Y-116286227D01*
X170585765Y-116262429D01*
X170594030Y-116239329D01*
X170604520Y-116217151D01*
X170617133Y-116196107D01*
X170631747Y-116176402D01*
X170648223Y-116158223D01*
X170666402Y-116141747D01*
X170686107Y-116127133D01*
X170707151Y-116114520D01*
X170729329Y-116104030D01*
X170752429Y-116095765D01*
X170776227Y-116089804D01*
X170800496Y-116086204D01*
X170825000Y-116085000D01*
X172075000Y-116085000D01*
X172099504Y-116086204D01*
X172099504Y-116086204D01*
G37*
D25*
X171450000Y-116710000D03*
D24*
G36*
X172099504Y-118886204D02*
G01*
X172123773Y-118889804D01*
X172147571Y-118895765D01*
X172170671Y-118904030D01*
X172192849Y-118914520D01*
X172213893Y-118927133D01*
X172233598Y-118941747D01*
X172251777Y-118958223D01*
X172268253Y-118976402D01*
X172282867Y-118996107D01*
X172295480Y-119017151D01*
X172305970Y-119039329D01*
X172314235Y-119062429D01*
X172320196Y-119086227D01*
X172323796Y-119110496D01*
X172325000Y-119135000D01*
X172325000Y-119885000D01*
X172323796Y-119909504D01*
X172320196Y-119933773D01*
X172314235Y-119957571D01*
X172305970Y-119980671D01*
X172295480Y-120002849D01*
X172282867Y-120023893D01*
X172268253Y-120043598D01*
X172251777Y-120061777D01*
X172233598Y-120078253D01*
X172213893Y-120092867D01*
X172192849Y-120105480D01*
X172170671Y-120115970D01*
X172147571Y-120124235D01*
X172123773Y-120130196D01*
X172099504Y-120133796D01*
X172075000Y-120135000D01*
X170825000Y-120135000D01*
X170800496Y-120133796D01*
X170776227Y-120130196D01*
X170752429Y-120124235D01*
X170729329Y-120115970D01*
X170707151Y-120105480D01*
X170686107Y-120092867D01*
X170666402Y-120078253D01*
X170648223Y-120061777D01*
X170631747Y-120043598D01*
X170617133Y-120023893D01*
X170604520Y-120002849D01*
X170594030Y-119980671D01*
X170585765Y-119957571D01*
X170579804Y-119933773D01*
X170576204Y-119909504D01*
X170575000Y-119885000D01*
X170575000Y-119135000D01*
X170576204Y-119110496D01*
X170579804Y-119086227D01*
X170585765Y-119062429D01*
X170594030Y-119039329D01*
X170604520Y-119017151D01*
X170617133Y-118996107D01*
X170631747Y-118976402D01*
X170648223Y-118958223D01*
X170666402Y-118941747D01*
X170686107Y-118927133D01*
X170707151Y-118914520D01*
X170729329Y-118904030D01*
X170752429Y-118895765D01*
X170776227Y-118889804D01*
X170800496Y-118886204D01*
X170825000Y-118885000D01*
X172075000Y-118885000D01*
X172099504Y-118886204D01*
X172099504Y-118886204D01*
G37*
D25*
X171450000Y-119510000D03*
D24*
G36*
X199783504Y-101488204D02*
G01*
X199807773Y-101491804D01*
X199831571Y-101497765D01*
X199854671Y-101506030D01*
X199876849Y-101516520D01*
X199897893Y-101529133D01*
X199917598Y-101543747D01*
X199935777Y-101560223D01*
X199952253Y-101578402D01*
X199966867Y-101598107D01*
X199979480Y-101619151D01*
X199989970Y-101641329D01*
X199998235Y-101664429D01*
X200004196Y-101688227D01*
X200007796Y-101712496D01*
X200009000Y-101737000D01*
X200009000Y-102987000D01*
X200007796Y-103011504D01*
X200004196Y-103035773D01*
X199998235Y-103059571D01*
X199989970Y-103082671D01*
X199979480Y-103104849D01*
X199966867Y-103125893D01*
X199952253Y-103145598D01*
X199935777Y-103163777D01*
X199917598Y-103180253D01*
X199897893Y-103194867D01*
X199876849Y-103207480D01*
X199854671Y-103217970D01*
X199831571Y-103226235D01*
X199807773Y-103232196D01*
X199783504Y-103235796D01*
X199759000Y-103237000D01*
X199009000Y-103237000D01*
X198984496Y-103235796D01*
X198960227Y-103232196D01*
X198936429Y-103226235D01*
X198913329Y-103217970D01*
X198891151Y-103207480D01*
X198870107Y-103194867D01*
X198850402Y-103180253D01*
X198832223Y-103163777D01*
X198815747Y-103145598D01*
X198801133Y-103125893D01*
X198788520Y-103104849D01*
X198778030Y-103082671D01*
X198769765Y-103059571D01*
X198763804Y-103035773D01*
X198760204Y-103011504D01*
X198759000Y-102987000D01*
X198759000Y-101737000D01*
X198760204Y-101712496D01*
X198763804Y-101688227D01*
X198769765Y-101664429D01*
X198778030Y-101641329D01*
X198788520Y-101619151D01*
X198801133Y-101598107D01*
X198815747Y-101578402D01*
X198832223Y-101560223D01*
X198850402Y-101543747D01*
X198870107Y-101529133D01*
X198891151Y-101516520D01*
X198913329Y-101506030D01*
X198936429Y-101497765D01*
X198960227Y-101491804D01*
X198984496Y-101488204D01*
X199009000Y-101487000D01*
X199759000Y-101487000D01*
X199783504Y-101488204D01*
X199783504Y-101488204D01*
G37*
D25*
X199384000Y-102362000D03*
D24*
G36*
X202583504Y-101488204D02*
G01*
X202607773Y-101491804D01*
X202631571Y-101497765D01*
X202654671Y-101506030D01*
X202676849Y-101516520D01*
X202697893Y-101529133D01*
X202717598Y-101543747D01*
X202735777Y-101560223D01*
X202752253Y-101578402D01*
X202766867Y-101598107D01*
X202779480Y-101619151D01*
X202789970Y-101641329D01*
X202798235Y-101664429D01*
X202804196Y-101688227D01*
X202807796Y-101712496D01*
X202809000Y-101737000D01*
X202809000Y-102987000D01*
X202807796Y-103011504D01*
X202804196Y-103035773D01*
X202798235Y-103059571D01*
X202789970Y-103082671D01*
X202779480Y-103104849D01*
X202766867Y-103125893D01*
X202752253Y-103145598D01*
X202735777Y-103163777D01*
X202717598Y-103180253D01*
X202697893Y-103194867D01*
X202676849Y-103207480D01*
X202654671Y-103217970D01*
X202631571Y-103226235D01*
X202607773Y-103232196D01*
X202583504Y-103235796D01*
X202559000Y-103237000D01*
X201809000Y-103237000D01*
X201784496Y-103235796D01*
X201760227Y-103232196D01*
X201736429Y-103226235D01*
X201713329Y-103217970D01*
X201691151Y-103207480D01*
X201670107Y-103194867D01*
X201650402Y-103180253D01*
X201632223Y-103163777D01*
X201615747Y-103145598D01*
X201601133Y-103125893D01*
X201588520Y-103104849D01*
X201578030Y-103082671D01*
X201569765Y-103059571D01*
X201563804Y-103035773D01*
X201560204Y-103011504D01*
X201559000Y-102987000D01*
X201559000Y-101737000D01*
X201560204Y-101712496D01*
X201563804Y-101688227D01*
X201569765Y-101664429D01*
X201578030Y-101641329D01*
X201588520Y-101619151D01*
X201601133Y-101598107D01*
X201615747Y-101578402D01*
X201632223Y-101560223D01*
X201650402Y-101543747D01*
X201670107Y-101529133D01*
X201691151Y-101516520D01*
X201713329Y-101506030D01*
X201736429Y-101497765D01*
X201760227Y-101491804D01*
X201784496Y-101488204D01*
X201809000Y-101487000D01*
X202559000Y-101487000D01*
X202583504Y-101488204D01*
X202583504Y-101488204D01*
G37*
D25*
X202184000Y-102362000D03*
D24*
G36*
X202456504Y-121173204D02*
G01*
X202480773Y-121176804D01*
X202504571Y-121182765D01*
X202527671Y-121191030D01*
X202549849Y-121201520D01*
X202570893Y-121214133D01*
X202590598Y-121228747D01*
X202608777Y-121245223D01*
X202625253Y-121263402D01*
X202639867Y-121283107D01*
X202652480Y-121304151D01*
X202662970Y-121326329D01*
X202671235Y-121349429D01*
X202677196Y-121373227D01*
X202680796Y-121397496D01*
X202682000Y-121422000D01*
X202682000Y-122672000D01*
X202680796Y-122696504D01*
X202677196Y-122720773D01*
X202671235Y-122744571D01*
X202662970Y-122767671D01*
X202652480Y-122789849D01*
X202639867Y-122810893D01*
X202625253Y-122830598D01*
X202608777Y-122848777D01*
X202590598Y-122865253D01*
X202570893Y-122879867D01*
X202549849Y-122892480D01*
X202527671Y-122902970D01*
X202504571Y-122911235D01*
X202480773Y-122917196D01*
X202456504Y-122920796D01*
X202432000Y-122922000D01*
X201682000Y-122922000D01*
X201657496Y-122920796D01*
X201633227Y-122917196D01*
X201609429Y-122911235D01*
X201586329Y-122902970D01*
X201564151Y-122892480D01*
X201543107Y-122879867D01*
X201523402Y-122865253D01*
X201505223Y-122848777D01*
X201488747Y-122830598D01*
X201474133Y-122810893D01*
X201461520Y-122789849D01*
X201451030Y-122767671D01*
X201442765Y-122744571D01*
X201436804Y-122720773D01*
X201433204Y-122696504D01*
X201432000Y-122672000D01*
X201432000Y-121422000D01*
X201433204Y-121397496D01*
X201436804Y-121373227D01*
X201442765Y-121349429D01*
X201451030Y-121326329D01*
X201461520Y-121304151D01*
X201474133Y-121283107D01*
X201488747Y-121263402D01*
X201505223Y-121245223D01*
X201523402Y-121228747D01*
X201543107Y-121214133D01*
X201564151Y-121201520D01*
X201586329Y-121191030D01*
X201609429Y-121182765D01*
X201633227Y-121176804D01*
X201657496Y-121173204D01*
X201682000Y-121172000D01*
X202432000Y-121172000D01*
X202456504Y-121173204D01*
X202456504Y-121173204D01*
G37*
D25*
X202057000Y-122047000D03*
D24*
G36*
X199656504Y-121173204D02*
G01*
X199680773Y-121176804D01*
X199704571Y-121182765D01*
X199727671Y-121191030D01*
X199749849Y-121201520D01*
X199770893Y-121214133D01*
X199790598Y-121228747D01*
X199808777Y-121245223D01*
X199825253Y-121263402D01*
X199839867Y-121283107D01*
X199852480Y-121304151D01*
X199862970Y-121326329D01*
X199871235Y-121349429D01*
X199877196Y-121373227D01*
X199880796Y-121397496D01*
X199882000Y-121422000D01*
X199882000Y-122672000D01*
X199880796Y-122696504D01*
X199877196Y-122720773D01*
X199871235Y-122744571D01*
X199862970Y-122767671D01*
X199852480Y-122789849D01*
X199839867Y-122810893D01*
X199825253Y-122830598D01*
X199808777Y-122848777D01*
X199790598Y-122865253D01*
X199770893Y-122879867D01*
X199749849Y-122892480D01*
X199727671Y-122902970D01*
X199704571Y-122911235D01*
X199680773Y-122917196D01*
X199656504Y-122920796D01*
X199632000Y-122922000D01*
X198882000Y-122922000D01*
X198857496Y-122920796D01*
X198833227Y-122917196D01*
X198809429Y-122911235D01*
X198786329Y-122902970D01*
X198764151Y-122892480D01*
X198743107Y-122879867D01*
X198723402Y-122865253D01*
X198705223Y-122848777D01*
X198688747Y-122830598D01*
X198674133Y-122810893D01*
X198661520Y-122789849D01*
X198651030Y-122767671D01*
X198642765Y-122744571D01*
X198636804Y-122720773D01*
X198633204Y-122696504D01*
X198632000Y-122672000D01*
X198632000Y-121422000D01*
X198633204Y-121397496D01*
X198636804Y-121373227D01*
X198642765Y-121349429D01*
X198651030Y-121326329D01*
X198661520Y-121304151D01*
X198674133Y-121283107D01*
X198688747Y-121263402D01*
X198705223Y-121245223D01*
X198723402Y-121228747D01*
X198743107Y-121214133D01*
X198764151Y-121201520D01*
X198786329Y-121191030D01*
X198809429Y-121182765D01*
X198833227Y-121176804D01*
X198857496Y-121173204D01*
X198882000Y-121172000D01*
X199632000Y-121172000D01*
X199656504Y-121173204D01*
X199656504Y-121173204D01*
G37*
D25*
X199257000Y-122047000D03*
D26*
X209804000Y-88392000D03*
X202184000Y-93472000D03*
X209804000Y-90932000D03*
X202184000Y-90932000D03*
X209804000Y-93472000D03*
D12*
X202184000Y-88392000D03*
D27*
X138450000Y-102870000D03*
X135900000Y-102870000D03*
D28*
X133350000Y-102870000D03*
X143510000Y-119380000D03*
D27*
X146060000Y-119380000D03*
X148610000Y-119380000D03*
D15*
X122475000Y-45720000D03*
X117475000Y-45720000D03*
X78740000Y-45720000D03*
X83740000Y-45720000D03*
X98044000Y-45720000D03*
X103044000Y-45720000D03*
X196008000Y-44704000D03*
X191008000Y-44704000D03*
X209851000Y-44831000D03*
X204851000Y-44831000D03*
D29*
X211074000Y-82550000D03*
X157828410Y-118618000D03*
X175006000Y-118618000D03*
X200406000Y-113792000D03*
X167894000Y-120904000D03*
X192532000Y-120650000D03*
X166497000Y-106807000D03*
X175260000Y-109855000D03*
X159766000Y-106807000D03*
X196596000Y-102362000D03*
X180213000Y-89916000D03*
X209550000Y-57404000D03*
X195326000Y-57404000D03*
D30*
X120650000Y-111070000D02*
X120650000Y-109220000D01*
X117674000Y-114046000D02*
X120650000Y-111070000D01*
X89226000Y-114046000D02*
X117674000Y-114046000D01*
X84400000Y-109220000D02*
X89226000Y-114046000D01*
X82550000Y-109220000D02*
X84400000Y-109220000D01*
X127000000Y-118110000D02*
X127000000Y-109220000D01*
X125950000Y-109220000D02*
X120650000Y-109220000D01*
X127000000Y-109220000D02*
X125950000Y-109220000D01*
X137380000Y-111760000D02*
X138430000Y-111760000D01*
X133350000Y-107730000D02*
X137380000Y-111760000D01*
X133350000Y-102870000D02*
X133350000Y-107730000D01*
X132110000Y-102870000D02*
X133350000Y-102870000D01*
X127000000Y-107980000D02*
X132110000Y-102870000D01*
X127000000Y-109220000D02*
X127000000Y-107980000D01*
X143510000Y-118140000D02*
X143510000Y-119380000D01*
X143510000Y-115790000D02*
X143510000Y-118140000D01*
X139480000Y-111760000D02*
X143510000Y-115790000D01*
X138430000Y-111760000D02*
X139480000Y-111760000D01*
X82550000Y-120372741D02*
X84859259Y-122682000D01*
X82550000Y-118110000D02*
X82550000Y-120372741D01*
X116078000Y-122682000D02*
X120650000Y-118110000D01*
X84859259Y-122682000D02*
X116078000Y-122682000D01*
X129500000Y-118110000D02*
X133850000Y-113760000D01*
X133850000Y-113760000D02*
X138430000Y-113760000D01*
X133540000Y-113760000D02*
X129000000Y-109220000D01*
X133850000Y-113760000D02*
X133540000Y-113760000D01*
X169510000Y-116710000D02*
X171450000Y-116710000D01*
X165830000Y-113030000D02*
X169510000Y-116710000D01*
X137668000Y-79772000D02*
X139208000Y-78232000D01*
X137668000Y-80772000D02*
X137668000Y-79772000D01*
X139208000Y-78232000D02*
X149098000Y-78232000D01*
X154686000Y-83820000D02*
X188500000Y-83820000D01*
X149098000Y-78232000D02*
X154686000Y-83820000D01*
X201488290Y-101666290D02*
X202184000Y-102362000D01*
X199136000Y-99314000D02*
X201488290Y-101666290D01*
X202184000Y-90932000D02*
X199136000Y-93980000D01*
X176400000Y-116710000D02*
X179070000Y-119380000D01*
X171450000Y-116710000D02*
X176400000Y-116710000D01*
X178816000Y-94742000D02*
X181864000Y-97790000D01*
X181864000Y-97790000D02*
X199136000Y-97790000D01*
X182626000Y-85598000D02*
X178816000Y-89408000D01*
X199136000Y-97790000D02*
X199136000Y-99314000D01*
X199136000Y-93980000D02*
X199136000Y-97790000D01*
X188500000Y-83820000D02*
X187700001Y-84619999D01*
X178816000Y-89408000D02*
X178816000Y-94742000D01*
X187700001Y-84619999D02*
X187414001Y-84619999D01*
X187414001Y-84619999D02*
X186436000Y-85598000D01*
X186436000Y-85598000D02*
X182626000Y-85598000D01*
X215900000Y-77724000D02*
X216278000Y-77724000D01*
X211074000Y-82550000D02*
X215900000Y-77724000D01*
X158750000Y-117696410D02*
X158750000Y-113030000D01*
X157828410Y-118618000D02*
X158750000Y-117696410D01*
X179070000Y-119380000D02*
X178095000Y-119380000D01*
X178095000Y-119380000D02*
X175768000Y-119380000D01*
X175768000Y-119380000D02*
X175006000Y-118618000D01*
X175006000Y-118618000D02*
X175006000Y-118618000D01*
X202686000Y-113792000D02*
X207004000Y-118110000D01*
X200406000Y-113792000D02*
X202686000Y-113792000D01*
X202060000Y-118110000D02*
X207004000Y-118110000D01*
X126960000Y-120650000D02*
X129500000Y-118110000D01*
X120650000Y-118110000D02*
X123190000Y-120650000D01*
X123190000Y-120650000D02*
X126960000Y-120650000D01*
X158750000Y-113030000D02*
X159881370Y-113030000D01*
X159881370Y-113030000D02*
X160274000Y-113030000D01*
X160274000Y-113030000D02*
X162814000Y-115570000D01*
X164421370Y-115570000D02*
X162814000Y-115570000D01*
X165830000Y-114161370D02*
X164421370Y-115570000D01*
X165830000Y-113030000D02*
X165830000Y-114161370D01*
X202057000Y-118113000D02*
X202060000Y-118110000D01*
X202057000Y-122047000D02*
X202057000Y-118113000D01*
X187960000Y-77470000D02*
X187960000Y-70231000D01*
X192881000Y-65310000D02*
X200660000Y-65310000D01*
X187960000Y-70231000D02*
X192881000Y-65310000D01*
X181102000Y-42926000D02*
X192278000Y-54102000D01*
X179832000Y-42926000D02*
X181102000Y-42926000D01*
X192278000Y-54102000D02*
X200152000Y-54102000D01*
X200152000Y-54102000D02*
X207518000Y-61468000D01*
X207518000Y-61468000D02*
X207518000Y-63246000D01*
X203454000Y-67310000D02*
X200660000Y-67310000D01*
X219078000Y-70234000D02*
X218948000Y-70104000D01*
X219078000Y-77724000D02*
X219078000Y-70234000D01*
X218948000Y-66424000D02*
X216278000Y-63754000D01*
X218948000Y-70104000D02*
X218948000Y-66424000D01*
X215299000Y-63500000D02*
X207264000Y-63500000D01*
X215553000Y-63754000D02*
X215299000Y-63500000D01*
X216278000Y-63754000D02*
X215553000Y-63754000D01*
X207518000Y-63246000D02*
X207264000Y-63500000D01*
X207264000Y-63500000D02*
X203454000Y-67310000D01*
X154960000Y-113030000D02*
X156750000Y-113030000D01*
X148610000Y-119380000D02*
X154960000Y-113030000D01*
X171450000Y-111345000D02*
X174659000Y-114554000D01*
X171450000Y-110620000D02*
X171450000Y-111345000D01*
X185674000Y-114554000D02*
X189230000Y-118110000D01*
X174659000Y-114554000D02*
X185674000Y-114554000D01*
X190500000Y-78570000D02*
X190500000Y-83820000D01*
X190500000Y-77470000D02*
X190500000Y-78570000D01*
X208782000Y-77470000D02*
X216148000Y-70104000D01*
X190500000Y-77470000D02*
X208782000Y-77470000D01*
X156750000Y-114080000D02*
X154940000Y-115890000D01*
X156750000Y-113030000D02*
X156750000Y-114080000D01*
X154940000Y-115890000D02*
X154940000Y-118872000D01*
X154940000Y-118872000D02*
X156972000Y-120904000D01*
X156972000Y-120904000D02*
X167894000Y-120904000D01*
X167894000Y-120904000D02*
X167894000Y-120904000D01*
X189992000Y-118110000D02*
X189230000Y-118110000D01*
X192532000Y-120650000D02*
X189992000Y-118110000D01*
X181102000Y-105918000D02*
X179070000Y-107950000D01*
X189230000Y-109220000D02*
X189230000Y-107188000D01*
X189230000Y-107188000D02*
X187960000Y-105918000D01*
X165227000Y-105537000D02*
X166497000Y-106807000D01*
X159766000Y-106807000D02*
X161036000Y-105537000D01*
X161036000Y-105537000D02*
X165227000Y-105537000D01*
X182880000Y-107569000D02*
X181229000Y-105918000D01*
X181229000Y-105918000D02*
X181102000Y-105918000D01*
X187960000Y-105918000D02*
X181229000Y-105918000D01*
X175260000Y-109855000D02*
X175260000Y-110617000D01*
X175260000Y-110617000D02*
X176911000Y-112268000D01*
X182880000Y-110744000D02*
X182880000Y-107569000D01*
X176911000Y-112268000D02*
X181356000Y-112268000D01*
X181356000Y-112268000D02*
X182880000Y-110744000D01*
X135128000Y-69362000D02*
X135128000Y-80772000D01*
X137140000Y-67350000D02*
X135128000Y-69362000D01*
X128270000Y-86855000D02*
X128270000Y-90170000D01*
X135128000Y-80772000D02*
X134353000Y-80772000D01*
X134353000Y-80772000D02*
X128270000Y-86855000D01*
X107950000Y-106680000D02*
X105410000Y-109220000D01*
X107950000Y-94810000D02*
X107950000Y-106680000D01*
X104010660Y-94810000D02*
X107950000Y-94810000D01*
X102950000Y-94810000D02*
X104010660Y-94810000D01*
X97790000Y-104650000D02*
X87950000Y-94810000D01*
X97790000Y-109220000D02*
X97790000Y-104650000D01*
X84010660Y-94810000D02*
X87950000Y-94810000D01*
X82950000Y-94810000D02*
X84010660Y-94810000D01*
X199260000Y-110620000D02*
X199390000Y-110490000D01*
X199260000Y-118110000D02*
X199260000Y-110620000D01*
X196596000Y-102362000D02*
X199384000Y-102362000D01*
X186690000Y-119260000D02*
X186690000Y-118110000D01*
X189477000Y-122047000D02*
X186690000Y-119260000D01*
X199257000Y-122047000D02*
X189477000Y-122047000D01*
X182149000Y-88392000D02*
X180625000Y-89916000D01*
X182874000Y-88392000D02*
X182149000Y-88392000D01*
X180625000Y-89916000D02*
X180213000Y-89916000D01*
X180213000Y-89916000D02*
X180213000Y-89916000D01*
X210115685Y-57404000D02*
X209550000Y-57404000D01*
X213703000Y-57404000D02*
X210115685Y-57404000D01*
X219078000Y-62779000D02*
X213703000Y-57404000D01*
X219078000Y-63754000D02*
X219078000Y-62779000D01*
X165676501Y-44010501D02*
X174312501Y-44010501D01*
X164592000Y-42926000D02*
X165676501Y-44010501D01*
X174312501Y-44010501D02*
X187706000Y-57404000D01*
X187706000Y-57404000D02*
X195326000Y-57404000D01*
X195326000Y-57404000D02*
X195326000Y-57404000D01*
X144774000Y-80518000D02*
X141218000Y-84074000D01*
X136398000Y-80997000D02*
X136398000Y-80772000D01*
X139475000Y-84074000D02*
X136398000Y-80997000D01*
X141218000Y-84074000D02*
X139475000Y-84074000D01*
X185674000Y-88392000D02*
X202184000Y-88392000D01*
X209804000Y-117135000D02*
X204978000Y-112309000D01*
X209804000Y-118110000D02*
X209804000Y-117135000D01*
X204978000Y-98298000D02*
X209804000Y-93472000D01*
X148299000Y-80518000D02*
X167603000Y-99822000D01*
X147574000Y-80518000D02*
X148299000Y-80518000D01*
X167603000Y-99822000D02*
X192024000Y-99822000D01*
X198374000Y-106172000D02*
X204978000Y-106172000D01*
X192024000Y-99822000D02*
X198374000Y-106172000D01*
X204978000Y-112309000D02*
X204978000Y-106172000D01*
X204978000Y-106172000D02*
X204978000Y-98298000D01*
X176784000Y-108464000D02*
X179070000Y-110750000D01*
X176784000Y-107950000D02*
X176784000Y-108464000D01*
X174752000Y-105918000D02*
X176784000Y-107950000D01*
X178374290Y-115884290D02*
X173288290Y-115884290D01*
X179070000Y-116580000D02*
X178374290Y-115884290D01*
X173288290Y-115884290D02*
X168910000Y-111506000D01*
X168910000Y-106934000D02*
X169926000Y-105918000D01*
X169926000Y-105918000D02*
X174752000Y-105918000D01*
X135900000Y-102870000D02*
X140726000Y-98044000D01*
X140726000Y-98044000D02*
X144780000Y-98044000D01*
X144780000Y-98044000D02*
X147320000Y-100584000D01*
X147320000Y-100584000D02*
X147320000Y-105410000D01*
X149860000Y-107950000D02*
X168910000Y-107950000D01*
X147320000Y-105410000D02*
X149860000Y-107950000D01*
X168910000Y-111506000D02*
X168910000Y-107950000D01*
X168910000Y-107950000D02*
X168910000Y-106934000D01*
X179619190Y-115316000D02*
X174332810Y-115316000D01*
X172425000Y-119510000D02*
X173819000Y-120904000D01*
X171450000Y-119510000D02*
X172425000Y-119510000D01*
X174332810Y-115316000D02*
X169760810Y-110744000D01*
X179359190Y-120904000D02*
X180270010Y-119993180D01*
X169760810Y-109509190D02*
X171450000Y-107820000D01*
X180270010Y-119993180D02*
X180270010Y-115966820D01*
X169760810Y-110744000D02*
X169760810Y-109509190D01*
X180270010Y-115966820D02*
X179619190Y-115316000D01*
X173609000Y-122936000D02*
X175641000Y-120904000D01*
X175641000Y-120904000D02*
X179359190Y-120904000D01*
X173819000Y-120904000D02*
X175641000Y-120904000D01*
X149108000Y-122428000D02*
X149108000Y-122438000D01*
X146060000Y-119380000D02*
X149108000Y-122428000D01*
X149108000Y-122438000D02*
X149606000Y-122936000D01*
X149606000Y-122936000D02*
X173609000Y-122936000D01*
D31*
X204470000Y-44704000D02*
X209470000Y-44704000D01*
X78740000Y-45720000D02*
X83740000Y-45720000D01*
X84789999Y-44670001D02*
X83740000Y-45720000D01*
X92684990Y-36775010D02*
X84789999Y-44670001D01*
X196795010Y-36775010D02*
X92684990Y-36775010D01*
X204851000Y-44831000D02*
X196795010Y-36775010D01*
D32*
G36*
X221590000Y-34322418D02*
G01*
X221590001Y-34322428D01*
X221590000Y-36797581D01*
X221590000Y-36797582D01*
X221590001Y-39337572D01*
X221590000Y-39337582D01*
X221590000Y-59277764D01*
X216857321Y-54545086D01*
X216724165Y-54382835D01*
X216076714Y-53851485D01*
X215338043Y-53456657D01*
X214536538Y-53213523D01*
X213911882Y-53152000D01*
X213911872Y-53152000D01*
X213703000Y-53131428D01*
X213494128Y-53152000D01*
X211114385Y-53152000D01*
X210870477Y-53050970D01*
X209995871Y-52877000D01*
X209104129Y-52877000D01*
X208229523Y-53050970D01*
X207405661Y-53392225D01*
X206664206Y-53887650D01*
X206307546Y-54244310D01*
X203306319Y-51243084D01*
X203173165Y-51080835D01*
X202525714Y-50549485D01*
X201787043Y-50154657D01*
X200985538Y-49911523D01*
X200360882Y-49850000D01*
X200360872Y-49850000D01*
X200152000Y-49829428D01*
X199943128Y-49850000D01*
X196673738Y-49850000D01*
X197518075Y-49682051D01*
X198460229Y-49291798D01*
X199308145Y-48725238D01*
X200029238Y-48004145D01*
X200595798Y-47156229D01*
X200986051Y-46214075D01*
X201028222Y-46002066D01*
X203859539Y-46002066D01*
X203961339Y-46271579D01*
X204259477Y-46417463D01*
X204580346Y-46502380D01*
X204911617Y-46523066D01*
X205240557Y-46478728D01*
X205554527Y-46371069D01*
X205740661Y-46271579D01*
X205842461Y-46002066D01*
X208859539Y-46002066D01*
X208961339Y-46271579D01*
X209259477Y-46417463D01*
X209580346Y-46502380D01*
X209911617Y-46523066D01*
X210240557Y-46478728D01*
X210554527Y-46371069D01*
X210740661Y-46271579D01*
X210842461Y-46002066D01*
X209851000Y-45010605D01*
X208859539Y-46002066D01*
X205842461Y-46002066D01*
X204851000Y-45010605D01*
X203859539Y-46002066D01*
X201028222Y-46002066D01*
X201185000Y-45213890D01*
X201185000Y-44891617D01*
X203158934Y-44891617D01*
X203203272Y-45220557D01*
X203310931Y-45534527D01*
X203410421Y-45720661D01*
X203679934Y-45822461D01*
X204671395Y-44831000D01*
X205030605Y-44831000D01*
X206022066Y-45822461D01*
X206291579Y-45720661D01*
X206437463Y-45422523D01*
X206522380Y-45101654D01*
X206535495Y-44891617D01*
X208158934Y-44891617D01*
X208203272Y-45220557D01*
X208310931Y-45534527D01*
X208410421Y-45720661D01*
X208679934Y-45822461D01*
X209671395Y-44831000D01*
X210030605Y-44831000D01*
X211022066Y-45822461D01*
X211291579Y-45720661D01*
X211437463Y-45422523D01*
X211522380Y-45101654D01*
X211543066Y-44770383D01*
X211498728Y-44441443D01*
X211391069Y-44127473D01*
X211291579Y-43941339D01*
X211022066Y-43839539D01*
X210030605Y-44831000D01*
X209671395Y-44831000D01*
X208679934Y-43839539D01*
X208410421Y-43941339D01*
X208264537Y-44239477D01*
X208179620Y-44560346D01*
X208158934Y-44891617D01*
X206535495Y-44891617D01*
X206543066Y-44770383D01*
X206498728Y-44441443D01*
X206391069Y-44127473D01*
X206291579Y-43941339D01*
X206022066Y-43839539D01*
X205030605Y-44831000D01*
X204671395Y-44831000D01*
X203679934Y-43839539D01*
X203410421Y-43941339D01*
X203264537Y-44239477D01*
X203179620Y-44560346D01*
X203158934Y-44891617D01*
X201185000Y-44891617D01*
X201185000Y-44194110D01*
X201078746Y-43659934D01*
X203859539Y-43659934D01*
X204851000Y-44651395D01*
X205842461Y-43659934D01*
X208859539Y-43659934D01*
X209851000Y-44651395D01*
X210842461Y-43659934D01*
X210740661Y-43390421D01*
X210442523Y-43244537D01*
X210121654Y-43159620D01*
X209790383Y-43138934D01*
X209461443Y-43183272D01*
X209147473Y-43290931D01*
X208961339Y-43390421D01*
X208859539Y-43659934D01*
X205842461Y-43659934D01*
X205740661Y-43390421D01*
X205442523Y-43244537D01*
X205121654Y-43159620D01*
X204790383Y-43138934D01*
X204461443Y-43183272D01*
X204147473Y-43290931D01*
X203961339Y-43390421D01*
X203859539Y-43659934D01*
X201078746Y-43659934D01*
X200986051Y-43193925D01*
X200595798Y-42251771D01*
X200029238Y-41403855D01*
X199308145Y-40682762D01*
X199231148Y-40631314D01*
X215486905Y-40631314D01*
X215486905Y-41156686D01*
X215589400Y-41671963D01*
X215790451Y-42157343D01*
X216082332Y-42594174D01*
X216453826Y-42965668D01*
X216890657Y-43257549D01*
X217376037Y-43458600D01*
X217891314Y-43561095D01*
X218416686Y-43561095D01*
X218931963Y-43458600D01*
X219417343Y-43257549D01*
X219854174Y-42965668D01*
X220225668Y-42594174D01*
X220517549Y-42157343D01*
X220718600Y-41671963D01*
X220821095Y-41156686D01*
X220821095Y-40631314D01*
X220718600Y-40116037D01*
X220517549Y-39630657D01*
X220225668Y-39193826D01*
X219854174Y-38822332D01*
X219417343Y-38530451D01*
X218931963Y-38329400D01*
X218416686Y-38226905D01*
X217891314Y-38226905D01*
X217376037Y-38329400D01*
X216890657Y-38530451D01*
X216453826Y-38822332D01*
X216082332Y-39193826D01*
X215790451Y-39630657D01*
X215589400Y-40116037D01*
X215486905Y-40631314D01*
X199231148Y-40631314D01*
X198460229Y-40116202D01*
X197518075Y-39725949D01*
X196517890Y-39527000D01*
X195498110Y-39527000D01*
X194497925Y-39725949D01*
X193555771Y-40116202D01*
X193508000Y-40148122D01*
X193460229Y-40116202D01*
X192518075Y-39725949D01*
X191517890Y-39527000D01*
X190498110Y-39527000D01*
X189497925Y-39725949D01*
X188555771Y-40116202D01*
X187707855Y-40682762D01*
X186986762Y-41403855D01*
X186428535Y-42239300D01*
X184256322Y-40067087D01*
X184123165Y-39904835D01*
X183771176Y-39615965D01*
X183759258Y-39502569D01*
X183747229Y-39443972D01*
X183736020Y-39385210D01*
X183733356Y-39376388D01*
X183645402Y-39092257D01*
X183622232Y-39037139D01*
X183599814Y-38981650D01*
X183595487Y-38973514D01*
X183454021Y-38711878D01*
X183420588Y-38662311D01*
X183387817Y-38612232D01*
X183381992Y-38605091D01*
X183192403Y-38375915D01*
X183149966Y-38333774D01*
X183108103Y-38291024D01*
X183101002Y-38285150D01*
X182870508Y-38097164D01*
X182820666Y-38064049D01*
X182771326Y-38030265D01*
X182763219Y-38025882D01*
X182500601Y-37886246D01*
X182445313Y-37863458D01*
X182390317Y-37839886D01*
X182381513Y-37837162D01*
X182381515Y-37837162D01*
X182381507Y-37837160D01*
X182096775Y-37751193D01*
X182038075Y-37739570D01*
X181979581Y-37727137D01*
X181970420Y-37726174D01*
X181970416Y-37726174D01*
X181674404Y-37697150D01*
X181674402Y-37697150D01*
X181642419Y-37694000D01*
X162781581Y-37694000D01*
X162748094Y-37697298D01*
X162728319Y-37697298D01*
X162719154Y-37698262D01*
X162423575Y-37731416D01*
X162365081Y-37743849D01*
X162306381Y-37755472D01*
X162297578Y-37758197D01*
X162014068Y-37848132D01*
X161959058Y-37871710D01*
X161903783Y-37894492D01*
X161895677Y-37898875D01*
X161635034Y-38042164D01*
X161585687Y-38075952D01*
X161535850Y-38109064D01*
X161528749Y-38114938D01*
X161300904Y-38306124D01*
X161259060Y-38348854D01*
X161216605Y-38391013D01*
X161210781Y-38398154D01*
X161024408Y-38629955D01*
X160991680Y-38679969D01*
X160958202Y-38729602D01*
X160953876Y-38737739D01*
X160816077Y-39001325D01*
X160793672Y-39056781D01*
X160770488Y-39111932D01*
X160767825Y-39120754D01*
X160683847Y-39406085D01*
X160672642Y-39464825D01*
X160660609Y-39523442D01*
X160659710Y-39532614D01*
X160632753Y-39828822D01*
X160633171Y-39888639D01*
X160632753Y-39948456D01*
X160633652Y-39957627D01*
X160642461Y-40041435D01*
X160261640Y-40611374D01*
X159893285Y-41500660D01*
X159705500Y-42444722D01*
X159705500Y-43407278D01*
X159893285Y-44351340D01*
X160261640Y-45240626D01*
X160796407Y-46040962D01*
X161477038Y-46721593D01*
X162277374Y-47256360D01*
X163166660Y-47624715D01*
X163567317Y-47704410D01*
X164041458Y-47957844D01*
X164842963Y-48200978D01*
X165467619Y-48262501D01*
X165467628Y-48262501D01*
X165676500Y-48283073D01*
X165885372Y-48262501D01*
X167868747Y-48262501D01*
X167513285Y-49120660D01*
X167325500Y-50064722D01*
X167325500Y-51027278D01*
X167513285Y-51971340D01*
X167881640Y-52860626D01*
X168416407Y-53660962D01*
X169097038Y-54341593D01*
X169897374Y-54876360D01*
X170786660Y-55244715D01*
X171730722Y-55432500D01*
X172693278Y-55432500D01*
X173637340Y-55244715D01*
X174526626Y-54876360D01*
X175326962Y-54341593D01*
X176007593Y-53660962D01*
X176542360Y-52860626D01*
X176720155Y-52431391D01*
X184551683Y-60262919D01*
X184684835Y-60425165D01*
X184847081Y-60558317D01*
X184847083Y-60558319D01*
X185332285Y-60956515D01*
X185637252Y-61119523D01*
X186070957Y-61351343D01*
X186872462Y-61594477D01*
X187497118Y-61656000D01*
X187497128Y-61656000D01*
X187706000Y-61676572D01*
X187914872Y-61656000D01*
X190697150Y-61656000D01*
X190507285Y-61757485D01*
X190041009Y-62140149D01*
X189859835Y-62288835D01*
X189726683Y-62451081D01*
X185101082Y-67076683D01*
X184938836Y-67209835D01*
X184805684Y-67372081D01*
X184805681Y-67372084D01*
X184407485Y-67857286D01*
X184154192Y-68331165D01*
X184012658Y-68595957D01*
X183769524Y-69397462D01*
X183708000Y-70022118D01*
X183708000Y-70022128D01*
X183687428Y-70231000D01*
X183708000Y-70439872D01*
X183708000Y-72550470D01*
X183124500Y-72493000D01*
X182635500Y-72493000D01*
X181904337Y-72565013D01*
X181610000Y-72654299D01*
X181315663Y-72565013D01*
X180584500Y-72493000D01*
X180095500Y-72493000D01*
X179364337Y-72565013D01*
X179070000Y-72654299D01*
X178775663Y-72565013D01*
X178044500Y-72493000D01*
X177555500Y-72493000D01*
X176824337Y-72565013D01*
X176530000Y-72654299D01*
X176235663Y-72565013D01*
X175504500Y-72493000D01*
X175015500Y-72493000D01*
X174284337Y-72565013D01*
X173990000Y-72654299D01*
X173695663Y-72565013D01*
X172964500Y-72493000D01*
X172475500Y-72493000D01*
X171744337Y-72565013D01*
X171450000Y-72654299D01*
X171155663Y-72565013D01*
X170424500Y-72493000D01*
X169935500Y-72493000D01*
X169204337Y-72565013D01*
X168910000Y-72654299D01*
X168615663Y-72565013D01*
X167884500Y-72493000D01*
X167395500Y-72493000D01*
X166664337Y-72565013D01*
X166370000Y-72654299D01*
X166075663Y-72565013D01*
X165344500Y-72493000D01*
X164855500Y-72493000D01*
X164124337Y-72565013D01*
X163830000Y-72654299D01*
X163535663Y-72565013D01*
X162804500Y-72493000D01*
X162315500Y-72493000D01*
X161584337Y-72565013D01*
X161290000Y-72654299D01*
X160995663Y-72565013D01*
X160264500Y-72493000D01*
X159775500Y-72493000D01*
X159044337Y-72565013D01*
X158750000Y-72654299D01*
X158455663Y-72565013D01*
X157724500Y-72493000D01*
X157235500Y-72493000D01*
X156504337Y-72565013D01*
X156210000Y-72654299D01*
X155915663Y-72565013D01*
X155184500Y-72493000D01*
X154695500Y-72493000D01*
X153964337Y-72565013D01*
X153670000Y-72654299D01*
X153375663Y-72565013D01*
X152644500Y-72493000D01*
X152155500Y-72493000D01*
X151424337Y-72565013D01*
X150486169Y-72849604D01*
X149621548Y-73311753D01*
X148863702Y-73933702D01*
X148825706Y-73980000D01*
X145926358Y-73980000D01*
X146533101Y-73373257D01*
X147137964Y-72468016D01*
X147237796Y-72227000D01*
X147820343Y-72227000D01*
X148762569Y-72039580D01*
X149650126Y-71671942D01*
X150448906Y-71138213D01*
X151128213Y-70458906D01*
X151661942Y-69660126D01*
X152029580Y-68772569D01*
X152217000Y-67830343D01*
X152217000Y-66869657D01*
X152107468Y-66319000D01*
X163735419Y-66319000D01*
X163769037Y-66315689D01*
X163790456Y-66315689D01*
X163799621Y-66314726D01*
X164119831Y-66278809D01*
X164178332Y-66266374D01*
X164237024Y-66254753D01*
X164245819Y-66252030D01*
X164245826Y-66252028D01*
X164245832Y-66252025D01*
X164552963Y-66154597D01*
X164607900Y-66131051D01*
X164663249Y-66108238D01*
X164671355Y-66103855D01*
X164953718Y-65948625D01*
X165003074Y-65914830D01*
X165052901Y-65881725D01*
X165060001Y-65875851D01*
X165306835Y-65668733D01*
X165348698Y-65625984D01*
X165391132Y-65583845D01*
X165396956Y-65576703D01*
X165598860Y-65325586D01*
X165631613Y-65275534D01*
X165665066Y-65225939D01*
X165669389Y-65217807D01*
X165669392Y-65217803D01*
X165669394Y-65217799D01*
X165818675Y-64932251D01*
X165841081Y-64876793D01*
X165864265Y-64821642D01*
X165866928Y-64812820D01*
X165957904Y-64503711D01*
X165969114Y-64444945D01*
X165981141Y-64386357D01*
X165982040Y-64377185D01*
X165985357Y-64340740D01*
X166371855Y-64727238D01*
X167219771Y-65293798D01*
X168161925Y-65684051D01*
X169162110Y-65883000D01*
X170181890Y-65883000D01*
X171182075Y-65684051D01*
X172124229Y-65293798D01*
X172172000Y-65261878D01*
X172219771Y-65293798D01*
X173161925Y-65684051D01*
X174162110Y-65883000D01*
X175181890Y-65883000D01*
X176182075Y-65684051D01*
X177124229Y-65293798D01*
X177972145Y-64727238D01*
X178693238Y-64006145D01*
X179259798Y-63158229D01*
X179650051Y-62216075D01*
X179849000Y-61215890D01*
X179849000Y-60196110D01*
X179650051Y-59195925D01*
X179259798Y-58253771D01*
X178693238Y-57405855D01*
X177972145Y-56684762D01*
X177124229Y-56118202D01*
X176182075Y-55727949D01*
X175181890Y-55529000D01*
X174162110Y-55529000D01*
X173161925Y-55727949D01*
X172219771Y-56118202D01*
X172172000Y-56150122D01*
X172124229Y-56118202D01*
X171182075Y-55727949D01*
X170181890Y-55529000D01*
X169162110Y-55529000D01*
X168161925Y-55727949D01*
X167219771Y-56118202D01*
X166371855Y-56684762D01*
X165650762Y-57405855D01*
X165084202Y-58253771D01*
X164693949Y-59195925D01*
X164495000Y-60196110D01*
X164495000Y-61215890D01*
X164629849Y-61893821D01*
X164586681Y-61876029D01*
X164531710Y-61852468D01*
X164522907Y-61849743D01*
X164214441Y-61756612D01*
X164155754Y-61744992D01*
X164097251Y-61732556D01*
X164088086Y-61731593D01*
X163767405Y-61700150D01*
X163767402Y-61700150D01*
X163735419Y-61697000D01*
X124681581Y-61697000D01*
X124647963Y-61700311D01*
X124626544Y-61700311D01*
X124617379Y-61701274D01*
X124297169Y-61737191D01*
X124238675Y-61749624D01*
X124179975Y-61761247D01*
X124171178Y-61763971D01*
X124171174Y-61763972D01*
X124171171Y-61763973D01*
X124171172Y-61763973D01*
X123864037Y-61861403D01*
X123809100Y-61884949D01*
X123753751Y-61907762D01*
X123745645Y-61912145D01*
X123463282Y-62067375D01*
X123413926Y-62101170D01*
X123364099Y-62134275D01*
X123356999Y-62140149D01*
X123110166Y-62347267D01*
X123068322Y-62389997D01*
X123025868Y-62432155D01*
X123020044Y-62439296D01*
X122818140Y-62690414D01*
X122785404Y-62740439D01*
X122751933Y-62790061D01*
X122747607Y-62798198D01*
X122598325Y-63083750D01*
X122575929Y-63139182D01*
X122552735Y-63194358D01*
X122550072Y-63203180D01*
X122459097Y-63512288D01*
X122447899Y-63570994D01*
X122435859Y-63629643D01*
X122434960Y-63638815D01*
X122405756Y-63959708D01*
X122406174Y-64019525D01*
X122405756Y-64079343D01*
X122406656Y-64088515D01*
X122440337Y-64408968D01*
X122452360Y-64467542D01*
X122463574Y-64526326D01*
X122466238Y-64535148D01*
X122561520Y-64842956D01*
X122584694Y-64898082D01*
X122607109Y-64953564D01*
X122611436Y-64961700D01*
X122764691Y-65245140D01*
X122798158Y-65294756D01*
X122830896Y-65344786D01*
X122836720Y-65351927D01*
X123042110Y-65600201D01*
X123084546Y-65642341D01*
X123126409Y-65685091D01*
X123133510Y-65690964D01*
X123383211Y-65894616D01*
X123433020Y-65927708D01*
X123482392Y-65961515D01*
X123490499Y-65965898D01*
X123775001Y-66117171D01*
X123830307Y-66139966D01*
X123885290Y-66163532D01*
X123894093Y-66166257D01*
X124202558Y-66259388D01*
X124261261Y-66271011D01*
X124319750Y-66283444D01*
X124328914Y-66284407D01*
X124649596Y-66315850D01*
X124649598Y-66315850D01*
X124681581Y-66319000D01*
X132133441Y-66319000D01*
X132106835Y-66340835D01*
X131575485Y-66988286D01*
X131180657Y-67726958D01*
X130937523Y-68528463D01*
X130876000Y-69153119D01*
X130876000Y-69153128D01*
X130855428Y-69362000D01*
X130876000Y-69570872D01*
X130876001Y-78235763D01*
X125411086Y-83700678D01*
X125248835Y-83833835D01*
X124717485Y-84481286D01*
X124378654Y-85115195D01*
X124366068Y-85121922D01*
X123737651Y-85637651D01*
X123221922Y-86266068D01*
X122838701Y-86983024D01*
X122602715Y-87760967D01*
X122523032Y-88570000D01*
X122523032Y-91770000D01*
X122602715Y-92579033D01*
X122838701Y-93356976D01*
X123221922Y-94073932D01*
X123737651Y-94702349D01*
X124366068Y-95218078D01*
X125083024Y-95601299D01*
X125860967Y-95837285D01*
X126670000Y-95916968D01*
X129870000Y-95916968D01*
X130679033Y-95837285D01*
X131456976Y-95601299D01*
X132173932Y-95218078D01*
X132802349Y-94702349D01*
X133318078Y-94073932D01*
X133701299Y-93356976D01*
X133937285Y-92579033D01*
X134016968Y-91770000D01*
X134016968Y-88570000D01*
X133937285Y-87760967D01*
X133806944Y-87331291D01*
X135263000Y-85875236D01*
X136320682Y-86932918D01*
X136453835Y-87095165D01*
X136616081Y-87228317D01*
X136616083Y-87228319D01*
X136800279Y-87379485D01*
X137101286Y-87626515D01*
X137839957Y-88021343D01*
X138148681Y-88114993D01*
X137865865Y-89047312D01*
X137755290Y-90170000D01*
X137865865Y-91292688D01*
X138193341Y-92372232D01*
X138725134Y-93367146D01*
X139277411Y-94040097D01*
X139090957Y-94096657D01*
X138352285Y-94491485D01*
X137867084Y-94889680D01*
X137867083Y-94889681D01*
X137704835Y-95022835D01*
X137571683Y-95185081D01*
X134962429Y-97794336D01*
X134340000Y-97733032D01*
X132360000Y-97733032D01*
X131550967Y-97812715D01*
X130773024Y-98048701D01*
X130056068Y-98431922D01*
X129427651Y-98947651D01*
X128911922Y-99576068D01*
X128528701Y-100293024D01*
X128465546Y-100501218D01*
X124686251Y-104280514D01*
X124553932Y-104171922D01*
X123836976Y-103788701D01*
X123059033Y-103552715D01*
X122250000Y-103473032D01*
X119050000Y-103473032D01*
X118240967Y-103552715D01*
X117463024Y-103788701D01*
X116746068Y-104171922D01*
X116117651Y-104687651D01*
X115601922Y-105316068D01*
X115218701Y-106033024D01*
X114982715Y-106810967D01*
X114903032Y-107620000D01*
X114903032Y-109794000D01*
X111108176Y-109794000D01*
X111137252Y-109498788D01*
X111502515Y-109053714D01*
X111897343Y-108315043D01*
X112140477Y-107513538D01*
X112202000Y-106888882D01*
X112202000Y-106888873D01*
X112222572Y-106680001D01*
X112202000Y-106471129D01*
X112202000Y-97224801D01*
X112271942Y-97120126D01*
X112639580Y-96232569D01*
X112827000Y-95290343D01*
X112827000Y-94329657D01*
X112639580Y-93387431D01*
X112271942Y-92499874D01*
X111738213Y-91701094D01*
X111058906Y-91021787D01*
X110260126Y-90488058D01*
X109372569Y-90120420D01*
X108430343Y-89933000D01*
X107469657Y-89933000D01*
X106527431Y-90120420D01*
X105639874Y-90488058D01*
X105535199Y-90558000D01*
X105364801Y-90558000D01*
X105260126Y-90488058D01*
X104372569Y-90120420D01*
X103430343Y-89933000D01*
X102469657Y-89933000D01*
X101527431Y-90120420D01*
X100639874Y-90488058D01*
X99841094Y-91021787D01*
X99161787Y-91701094D01*
X98628058Y-92499874D01*
X98260420Y-93387431D01*
X98073000Y-94329657D01*
X98073000Y-95290343D01*
X98260420Y-96232569D01*
X98628058Y-97120126D01*
X99161787Y-97918906D01*
X99841094Y-98598213D01*
X100639874Y-99131942D01*
X101527431Y-99499580D01*
X102469657Y-99687000D01*
X103430343Y-99687000D01*
X103698000Y-99633760D01*
X103698001Y-103754631D01*
X103207768Y-103903341D01*
X102212854Y-104435134D01*
X102054231Y-104565313D01*
X102042000Y-104441127D01*
X102042000Y-104441118D01*
X101980477Y-103816462D01*
X101737343Y-103014957D01*
X101342515Y-102276286D01*
X101091692Y-101970658D01*
X100944319Y-101791083D01*
X100944317Y-101791081D01*
X100811165Y-101628835D01*
X100648919Y-101495683D01*
X92664141Y-93510905D01*
X92639580Y-93387431D01*
X92271942Y-92499874D01*
X91738213Y-91701094D01*
X91058906Y-91021787D01*
X90260126Y-90488058D01*
X89372569Y-90120420D01*
X88430343Y-89933000D01*
X87469657Y-89933000D01*
X86527431Y-90120420D01*
X85639874Y-90488058D01*
X85535199Y-90558000D01*
X85364801Y-90558000D01*
X85260126Y-90488058D01*
X84372569Y-90120420D01*
X83430343Y-89933000D01*
X82469657Y-89933000D01*
X81527431Y-90120420D01*
X80639874Y-90488058D01*
X79841094Y-91021787D01*
X79161787Y-91701094D01*
X78628058Y-92499874D01*
X78260420Y-93387431D01*
X78073000Y-94329657D01*
X78073000Y-95290343D01*
X78260420Y-96232569D01*
X78628058Y-97120126D01*
X79161787Y-97918906D01*
X79841094Y-98598213D01*
X80639874Y-99131942D01*
X81527431Y-99499580D01*
X82469657Y-99687000D01*
X83430343Y-99687000D01*
X84372569Y-99499580D01*
X85260126Y-99131942D01*
X85364801Y-99062000D01*
X85535199Y-99062000D01*
X85639874Y-99131942D01*
X86527431Y-99499580D01*
X86650905Y-99524141D01*
X93070261Y-105943497D01*
X93005134Y-106022854D01*
X92473341Y-107017768D01*
X92145865Y-108097312D01*
X92035290Y-109220000D01*
X92091824Y-109794000D01*
X90987236Y-109794000D01*
X88240565Y-107047330D01*
X88217285Y-106810967D01*
X87981299Y-106033024D01*
X87598078Y-105316068D01*
X87082349Y-104687651D01*
X86453932Y-104171922D01*
X85736976Y-103788701D01*
X84959033Y-103552715D01*
X84150000Y-103473032D01*
X80950000Y-103473032D01*
X80140967Y-103552715D01*
X79363024Y-103788701D01*
X78646068Y-104171922D01*
X78017651Y-104687651D01*
X77501922Y-105316068D01*
X77118701Y-106033024D01*
X76882715Y-106810967D01*
X76803032Y-107620000D01*
X76803032Y-110820000D01*
X76882715Y-111629033D01*
X77118701Y-112406976D01*
X77501922Y-113123932D01*
X78017651Y-113752349D01*
X78435864Y-114095568D01*
X77765134Y-114912854D01*
X77233341Y-115907768D01*
X76905865Y-116987312D01*
X76795290Y-118110000D01*
X76905865Y-119232688D01*
X77233341Y-120312232D01*
X77765134Y-121307146D01*
X78480806Y-122179194D01*
X78861098Y-122491292D01*
X78997485Y-122746455D01*
X79395681Y-123231657D01*
X79395684Y-123231660D01*
X79528836Y-123393906D01*
X79691082Y-123527058D01*
X79964024Y-123800000D01*
X66700000Y-123800000D01*
X66700000Y-120133314D01*
X67436905Y-120133314D01*
X67436905Y-120658686D01*
X67539400Y-121173963D01*
X67740451Y-121659343D01*
X68032332Y-122096174D01*
X68403826Y-122467668D01*
X68840657Y-122759549D01*
X69326037Y-122960600D01*
X69841314Y-123063095D01*
X70366686Y-123063095D01*
X70881963Y-122960600D01*
X71367343Y-122759549D01*
X71804174Y-122467668D01*
X72175668Y-122096174D01*
X72467549Y-121659343D01*
X72668600Y-121173963D01*
X72771095Y-120658686D01*
X72771095Y-120133314D01*
X72668600Y-119618037D01*
X72467549Y-119132657D01*
X72175668Y-118695826D01*
X71804174Y-118324332D01*
X71367343Y-118032451D01*
X70881963Y-117831400D01*
X70366686Y-117728905D01*
X69841314Y-117728905D01*
X69326037Y-117831400D01*
X68840657Y-118032451D01*
X68403826Y-118324332D01*
X68032332Y-118695826D01*
X67740451Y-119132657D01*
X67539400Y-119618037D01*
X67436905Y-120133314D01*
X66700000Y-120133314D01*
X66700000Y-66829657D01*
X78073000Y-66829657D01*
X78073000Y-67790343D01*
X78260420Y-68732569D01*
X78628058Y-69620126D01*
X79161787Y-70418906D01*
X79841094Y-71098213D01*
X80639874Y-71631942D01*
X81527431Y-71999580D01*
X82469657Y-72187000D01*
X83430343Y-72187000D01*
X84372569Y-71999580D01*
X85260126Y-71631942D01*
X86058906Y-71098213D01*
X86738213Y-70418906D01*
X87271942Y-69620126D01*
X87639580Y-68732569D01*
X87827000Y-67790343D01*
X87827000Y-66829657D01*
X103073000Y-66829657D01*
X103073000Y-67790343D01*
X103260420Y-68732569D01*
X103628058Y-69620126D01*
X104161787Y-70418906D01*
X104841094Y-71098213D01*
X105639874Y-71631942D01*
X106527431Y-71999580D01*
X107469657Y-72187000D01*
X108430343Y-72187000D01*
X109372569Y-71999580D01*
X110260126Y-71631942D01*
X111058906Y-71098213D01*
X111738213Y-70418906D01*
X112271942Y-69620126D01*
X112639580Y-68732569D01*
X112827000Y-67790343D01*
X112827000Y-66829657D01*
X112639580Y-65887431D01*
X112271942Y-64999874D01*
X111738213Y-64201094D01*
X111058906Y-63521787D01*
X110260126Y-62988058D01*
X109372569Y-62620420D01*
X108430343Y-62433000D01*
X107469657Y-62433000D01*
X106527431Y-62620420D01*
X105639874Y-62988058D01*
X104841094Y-63521787D01*
X104161787Y-64201094D01*
X103628058Y-64999874D01*
X103260420Y-65887431D01*
X103073000Y-66829657D01*
X87827000Y-66829657D01*
X87639580Y-65887431D01*
X87271942Y-64999874D01*
X86738213Y-64201094D01*
X86058906Y-63521787D01*
X85260126Y-62988058D01*
X84372569Y-62620420D01*
X83430343Y-62433000D01*
X82469657Y-62433000D01*
X81527431Y-62620420D01*
X80639874Y-62988058D01*
X79841094Y-63521787D01*
X79161787Y-64201094D01*
X78628058Y-64999874D01*
X78260420Y-65887431D01*
X78073000Y-66829657D01*
X66700000Y-66829657D01*
X66700000Y-54105638D01*
X127813000Y-54105638D01*
X127813000Y-55194362D01*
X128025399Y-56262166D01*
X128442036Y-57268016D01*
X129046899Y-58173257D01*
X129816743Y-58943101D01*
X130721984Y-59547964D01*
X131727834Y-59964601D01*
X132795638Y-60177000D01*
X133884362Y-60177000D01*
X134952166Y-59964601D01*
X135958016Y-59547964D01*
X136863257Y-58943101D01*
X137633101Y-58173257D01*
X138237964Y-57268016D01*
X138654601Y-56262166D01*
X138867000Y-55194362D01*
X138867000Y-54105638D01*
X138654601Y-53037834D01*
X138237964Y-52031984D01*
X137633101Y-51126743D01*
X136863257Y-50356899D01*
X135958016Y-49752036D01*
X134952166Y-49335399D01*
X133884362Y-49123000D01*
X132795638Y-49123000D01*
X131727834Y-49335399D01*
X130721984Y-49752036D01*
X129816743Y-50356899D01*
X129046899Y-51126743D01*
X128442036Y-52031984D01*
X128025399Y-53037834D01*
X127813000Y-54105638D01*
X66700000Y-54105638D01*
X66700000Y-46891066D01*
X77748539Y-46891066D01*
X77850339Y-47160579D01*
X78148477Y-47306463D01*
X78469346Y-47391380D01*
X78800617Y-47412066D01*
X79129557Y-47367728D01*
X79443527Y-47260069D01*
X79629661Y-47160579D01*
X79731461Y-46891066D01*
X82748539Y-46891066D01*
X82850339Y-47160579D01*
X83148477Y-47306463D01*
X83469346Y-47391380D01*
X83800617Y-47412066D01*
X84129557Y-47367728D01*
X84443527Y-47260069D01*
X84629661Y-47160579D01*
X84731461Y-46891066D01*
X83740000Y-45899605D01*
X82748539Y-46891066D01*
X79731461Y-46891066D01*
X78740000Y-45899605D01*
X77748539Y-46891066D01*
X66700000Y-46891066D01*
X66700000Y-45780617D01*
X77047934Y-45780617D01*
X77092272Y-46109557D01*
X77199931Y-46423527D01*
X77299421Y-46609661D01*
X77568934Y-46711461D01*
X78560395Y-45720000D01*
X78919605Y-45720000D01*
X79911066Y-46711461D01*
X80180579Y-46609661D01*
X80326463Y-46311523D01*
X80411380Y-45990654D01*
X80424495Y-45780617D01*
X82047934Y-45780617D01*
X82092272Y-46109557D01*
X82199931Y-46423527D01*
X82299421Y-46609661D01*
X82568934Y-46711461D01*
X83560395Y-45720000D01*
X83919605Y-45720000D01*
X84911066Y-46711461D01*
X85180579Y-46609661D01*
X85326463Y-46311523D01*
X85411380Y-45990654D01*
X85432066Y-45659383D01*
X85387728Y-45330443D01*
X85346467Y-45210110D01*
X92867000Y-45210110D01*
X92867000Y-46229890D01*
X93065949Y-47230075D01*
X93456202Y-48172229D01*
X94022762Y-49020145D01*
X94743855Y-49741238D01*
X95591771Y-50307798D01*
X96533925Y-50698051D01*
X97534110Y-50897000D01*
X98553890Y-50897000D01*
X99554075Y-50698051D01*
X100496229Y-50307798D01*
X100544000Y-50275878D01*
X100591771Y-50307798D01*
X101533925Y-50698051D01*
X102534110Y-50897000D01*
X103553890Y-50897000D01*
X104554075Y-50698051D01*
X105496229Y-50307798D01*
X106344145Y-49741238D01*
X107065238Y-49020145D01*
X107631798Y-48172229D01*
X108022051Y-47230075D01*
X108221000Y-46229890D01*
X108221000Y-45210110D01*
X112298000Y-45210110D01*
X112298000Y-46229890D01*
X112496949Y-47230075D01*
X112887202Y-48172229D01*
X113453762Y-49020145D01*
X114174855Y-49741238D01*
X115022771Y-50307798D01*
X115964925Y-50698051D01*
X116965110Y-50897000D01*
X117984890Y-50897000D01*
X118985075Y-50698051D01*
X119927229Y-50307798D01*
X119975000Y-50275878D01*
X120022771Y-50307798D01*
X120964925Y-50698051D01*
X121965110Y-50897000D01*
X122984890Y-50897000D01*
X123985075Y-50698051D01*
X124927229Y-50307798D01*
X125775145Y-49741238D01*
X126496238Y-49020145D01*
X127062798Y-48172229D01*
X127453051Y-47230075D01*
X127652000Y-46229890D01*
X127652000Y-45210110D01*
X127453051Y-44209925D01*
X127368433Y-44005638D01*
X145613000Y-44005638D01*
X145613000Y-45094362D01*
X145825399Y-46162166D01*
X146242036Y-47168016D01*
X146846899Y-48073257D01*
X147123642Y-48350000D01*
X146846899Y-48626743D01*
X146242036Y-49531984D01*
X145825399Y-50537834D01*
X145613000Y-51605638D01*
X145613000Y-52694362D01*
X145825399Y-53762166D01*
X146242036Y-54768016D01*
X146846899Y-55673257D01*
X147616743Y-56443101D01*
X148521984Y-57047964D01*
X149527834Y-57464601D01*
X150595638Y-57677000D01*
X151684362Y-57677000D01*
X152752166Y-57464601D01*
X153758016Y-57047964D01*
X154663257Y-56443101D01*
X155433101Y-55673257D01*
X156037964Y-54768016D01*
X156454601Y-53762166D01*
X156667000Y-52694362D01*
X156667000Y-51605638D01*
X156454601Y-50537834D01*
X156037964Y-49531984D01*
X155433101Y-48626743D01*
X155156358Y-48350000D01*
X155433101Y-48073257D01*
X156037964Y-47168016D01*
X156454601Y-46162166D01*
X156667000Y-45094362D01*
X156667000Y-44005638D01*
X156454601Y-42937834D01*
X156037964Y-41931984D01*
X155433101Y-41026743D01*
X154663257Y-40256899D01*
X153758016Y-39652036D01*
X152752166Y-39235399D01*
X151684362Y-39023000D01*
X150595638Y-39023000D01*
X149527834Y-39235399D01*
X148521984Y-39652036D01*
X147616743Y-40256899D01*
X146846899Y-41026743D01*
X146242036Y-41931984D01*
X145825399Y-42937834D01*
X145613000Y-44005638D01*
X127368433Y-44005638D01*
X127062798Y-43267771D01*
X126496238Y-42419855D01*
X125775145Y-41698762D01*
X124927229Y-41132202D01*
X123985075Y-40741949D01*
X122984890Y-40543000D01*
X121965110Y-40543000D01*
X120964925Y-40741949D01*
X120022771Y-41132202D01*
X119975000Y-41164122D01*
X119927229Y-41132202D01*
X118985075Y-40741949D01*
X117984890Y-40543000D01*
X116965110Y-40543000D01*
X115964925Y-40741949D01*
X115022771Y-41132202D01*
X114174855Y-41698762D01*
X113453762Y-42419855D01*
X112887202Y-43267771D01*
X112496949Y-44209925D01*
X112298000Y-45210110D01*
X108221000Y-45210110D01*
X108022051Y-44209925D01*
X107631798Y-43267771D01*
X107065238Y-42419855D01*
X106344145Y-41698762D01*
X105496229Y-41132202D01*
X104554075Y-40741949D01*
X103553890Y-40543000D01*
X102534110Y-40543000D01*
X101533925Y-40741949D01*
X100591771Y-41132202D01*
X100544000Y-41164122D01*
X100496229Y-41132202D01*
X99554075Y-40741949D01*
X98553890Y-40543000D01*
X97534110Y-40543000D01*
X96533925Y-40741949D01*
X95591771Y-41132202D01*
X94743855Y-41698762D01*
X94022762Y-42419855D01*
X93456202Y-43267771D01*
X93065949Y-44209925D01*
X92867000Y-45210110D01*
X85346467Y-45210110D01*
X85280069Y-45016473D01*
X85180579Y-44830339D01*
X84911066Y-44728539D01*
X83919605Y-45720000D01*
X83560395Y-45720000D01*
X82568934Y-44728539D01*
X82299421Y-44830339D01*
X82153537Y-45128477D01*
X82068620Y-45449346D01*
X82047934Y-45780617D01*
X80424495Y-45780617D01*
X80432066Y-45659383D01*
X80387728Y-45330443D01*
X80280069Y-45016473D01*
X80180579Y-44830339D01*
X79911066Y-44728539D01*
X78919605Y-45720000D01*
X78560395Y-45720000D01*
X77568934Y-44728539D01*
X77299421Y-44830339D01*
X77153537Y-45128477D01*
X77068620Y-45449346D01*
X77047934Y-45780617D01*
X66700000Y-45780617D01*
X66700000Y-44548934D01*
X77748539Y-44548934D01*
X78740000Y-45540395D01*
X79731461Y-44548934D01*
X82748539Y-44548934D01*
X83740000Y-45540395D01*
X84731461Y-44548934D01*
X84629661Y-44279421D01*
X84331523Y-44133537D01*
X84010654Y-44048620D01*
X83679383Y-44027934D01*
X83350443Y-44072272D01*
X83036473Y-44179931D01*
X82850339Y-44279421D01*
X82748539Y-44548934D01*
X79731461Y-44548934D01*
X79629661Y-44279421D01*
X79331523Y-44133537D01*
X79010654Y-44048620D01*
X78679383Y-44027934D01*
X78350443Y-44072272D01*
X78036473Y-44179931D01*
X77850339Y-44279421D01*
X77748539Y-44548934D01*
X66700000Y-44548934D01*
X66700000Y-40631314D01*
X67404905Y-40631314D01*
X67404905Y-41156686D01*
X67507400Y-41671963D01*
X67708451Y-42157343D01*
X68000332Y-42594174D01*
X68371826Y-42965668D01*
X68808657Y-43257549D01*
X69294037Y-43458600D01*
X69809314Y-43561095D01*
X70334686Y-43561095D01*
X70849963Y-43458600D01*
X71335343Y-43257549D01*
X71772174Y-42965668D01*
X72143668Y-42594174D01*
X72435549Y-42157343D01*
X72636600Y-41671963D01*
X72739095Y-41156686D01*
X72739095Y-40631314D01*
X72636600Y-40116037D01*
X72435549Y-39630657D01*
X72143668Y-39193826D01*
X71772174Y-38822332D01*
X71335343Y-38530451D01*
X70849963Y-38329400D01*
X70334686Y-38226905D01*
X69809314Y-38226905D01*
X69294037Y-38329400D01*
X68808657Y-38530451D01*
X68371826Y-38822332D01*
X68000332Y-39193826D01*
X67708451Y-39630657D01*
X67507400Y-40116037D01*
X67404905Y-40631314D01*
X66700000Y-40631314D01*
X66700000Y-32410000D01*
X221590001Y-32410000D01*
X221590000Y-34322418D01*
X221590000Y-34322418D01*
G37*
X221590000Y-34322418D02*
X221590001Y-34322428D01*
X221590000Y-36797581D01*
X221590000Y-36797582D01*
X221590001Y-39337572D01*
X221590000Y-39337582D01*
X221590000Y-59277764D01*
X216857321Y-54545086D01*
X216724165Y-54382835D01*
X216076714Y-53851485D01*
X215338043Y-53456657D01*
X214536538Y-53213523D01*
X213911882Y-53152000D01*
X213911872Y-53152000D01*
X213703000Y-53131428D01*
X213494128Y-53152000D01*
X211114385Y-53152000D01*
X210870477Y-53050970D01*
X209995871Y-52877000D01*
X209104129Y-52877000D01*
X208229523Y-53050970D01*
X207405661Y-53392225D01*
X206664206Y-53887650D01*
X206307546Y-54244310D01*
X203306319Y-51243084D01*
X203173165Y-51080835D01*
X202525714Y-50549485D01*
X201787043Y-50154657D01*
X200985538Y-49911523D01*
X200360882Y-49850000D01*
X200360872Y-49850000D01*
X200152000Y-49829428D01*
X199943128Y-49850000D01*
X196673738Y-49850000D01*
X197518075Y-49682051D01*
X198460229Y-49291798D01*
X199308145Y-48725238D01*
X200029238Y-48004145D01*
X200595798Y-47156229D01*
X200986051Y-46214075D01*
X201028222Y-46002066D01*
X203859539Y-46002066D01*
X203961339Y-46271579D01*
X204259477Y-46417463D01*
X204580346Y-46502380D01*
X204911617Y-46523066D01*
X205240557Y-46478728D01*
X205554527Y-46371069D01*
X205740661Y-46271579D01*
X205842461Y-46002066D01*
X208859539Y-46002066D01*
X208961339Y-46271579D01*
X209259477Y-46417463D01*
X209580346Y-46502380D01*
X209911617Y-46523066D01*
X210240557Y-46478728D01*
X210554527Y-46371069D01*
X210740661Y-46271579D01*
X210842461Y-46002066D01*
X209851000Y-45010605D01*
X208859539Y-46002066D01*
X205842461Y-46002066D01*
X204851000Y-45010605D01*
X203859539Y-46002066D01*
X201028222Y-46002066D01*
X201185000Y-45213890D01*
X201185000Y-44891617D01*
X203158934Y-44891617D01*
X203203272Y-45220557D01*
X203310931Y-45534527D01*
X203410421Y-45720661D01*
X203679934Y-45822461D01*
X204671395Y-44831000D01*
X205030605Y-44831000D01*
X206022066Y-45822461D01*
X206291579Y-45720661D01*
X206437463Y-45422523D01*
X206522380Y-45101654D01*
X206535495Y-44891617D01*
X208158934Y-44891617D01*
X208203272Y-45220557D01*
X208310931Y-45534527D01*
X208410421Y-45720661D01*
X208679934Y-45822461D01*
X209671395Y-44831000D01*
X210030605Y-44831000D01*
X211022066Y-45822461D01*
X211291579Y-45720661D01*
X211437463Y-45422523D01*
X211522380Y-45101654D01*
X211543066Y-44770383D01*
X211498728Y-44441443D01*
X211391069Y-44127473D01*
X211291579Y-43941339D01*
X211022066Y-43839539D01*
X210030605Y-44831000D01*
X209671395Y-44831000D01*
X208679934Y-43839539D01*
X208410421Y-43941339D01*
X208264537Y-44239477D01*
X208179620Y-44560346D01*
X208158934Y-44891617D01*
X206535495Y-44891617D01*
X206543066Y-44770383D01*
X206498728Y-44441443D01*
X206391069Y-44127473D01*
X206291579Y-43941339D01*
X206022066Y-43839539D01*
X205030605Y-44831000D01*
X204671395Y-44831000D01*
X203679934Y-43839539D01*
X203410421Y-43941339D01*
X203264537Y-44239477D01*
X203179620Y-44560346D01*
X203158934Y-44891617D01*
X201185000Y-44891617D01*
X201185000Y-44194110D01*
X201078746Y-43659934D01*
X203859539Y-43659934D01*
X204851000Y-44651395D01*
X205842461Y-43659934D01*
X208859539Y-43659934D01*
X209851000Y-44651395D01*
X210842461Y-43659934D01*
X210740661Y-43390421D01*
X210442523Y-43244537D01*
X210121654Y-43159620D01*
X209790383Y-43138934D01*
X209461443Y-43183272D01*
X209147473Y-43290931D01*
X208961339Y-43390421D01*
X208859539Y-43659934D01*
X205842461Y-43659934D01*
X205740661Y-43390421D01*
X205442523Y-43244537D01*
X205121654Y-43159620D01*
X204790383Y-43138934D01*
X204461443Y-43183272D01*
X204147473Y-43290931D01*
X203961339Y-43390421D01*
X203859539Y-43659934D01*
X201078746Y-43659934D01*
X200986051Y-43193925D01*
X200595798Y-42251771D01*
X200029238Y-41403855D01*
X199308145Y-40682762D01*
X199231148Y-40631314D01*
X215486905Y-40631314D01*
X215486905Y-41156686D01*
X215589400Y-41671963D01*
X215790451Y-42157343D01*
X216082332Y-42594174D01*
X216453826Y-42965668D01*
X216890657Y-43257549D01*
X217376037Y-43458600D01*
X217891314Y-43561095D01*
X218416686Y-43561095D01*
X218931963Y-43458600D01*
X219417343Y-43257549D01*
X219854174Y-42965668D01*
X220225668Y-42594174D01*
X220517549Y-42157343D01*
X220718600Y-41671963D01*
X220821095Y-41156686D01*
X220821095Y-40631314D01*
X220718600Y-40116037D01*
X220517549Y-39630657D01*
X220225668Y-39193826D01*
X219854174Y-38822332D01*
X219417343Y-38530451D01*
X218931963Y-38329400D01*
X218416686Y-38226905D01*
X217891314Y-38226905D01*
X217376037Y-38329400D01*
X216890657Y-38530451D01*
X216453826Y-38822332D01*
X216082332Y-39193826D01*
X215790451Y-39630657D01*
X215589400Y-40116037D01*
X215486905Y-40631314D01*
X199231148Y-40631314D01*
X198460229Y-40116202D01*
X197518075Y-39725949D01*
X196517890Y-39527000D01*
X195498110Y-39527000D01*
X194497925Y-39725949D01*
X193555771Y-40116202D01*
X193508000Y-40148122D01*
X193460229Y-40116202D01*
X192518075Y-39725949D01*
X191517890Y-39527000D01*
X190498110Y-39527000D01*
X189497925Y-39725949D01*
X188555771Y-40116202D01*
X187707855Y-40682762D01*
X186986762Y-41403855D01*
X186428535Y-42239300D01*
X184256322Y-40067087D01*
X184123165Y-39904835D01*
X183771176Y-39615965D01*
X183759258Y-39502569D01*
X183747229Y-39443972D01*
X183736020Y-39385210D01*
X183733356Y-39376388D01*
X183645402Y-39092257D01*
X183622232Y-39037139D01*
X183599814Y-38981650D01*
X183595487Y-38973514D01*
X183454021Y-38711878D01*
X183420588Y-38662311D01*
X183387817Y-38612232D01*
X183381992Y-38605091D01*
X183192403Y-38375915D01*
X183149966Y-38333774D01*
X183108103Y-38291024D01*
X183101002Y-38285150D01*
X182870508Y-38097164D01*
X182820666Y-38064049D01*
X182771326Y-38030265D01*
X182763219Y-38025882D01*
X182500601Y-37886246D01*
X182445313Y-37863458D01*
X182390317Y-37839886D01*
X182381513Y-37837162D01*
X182381515Y-37837162D01*
X182381507Y-37837160D01*
X182096775Y-37751193D01*
X182038075Y-37739570D01*
X181979581Y-37727137D01*
X181970420Y-37726174D01*
X181970416Y-37726174D01*
X181674404Y-37697150D01*
X181674402Y-37697150D01*
X181642419Y-37694000D01*
X162781581Y-37694000D01*
X162748094Y-37697298D01*
X162728319Y-37697298D01*
X162719154Y-37698262D01*
X162423575Y-37731416D01*
X162365081Y-37743849D01*
X162306381Y-37755472D01*
X162297578Y-37758197D01*
X162014068Y-37848132D01*
X161959058Y-37871710D01*
X161903783Y-37894492D01*
X161895677Y-37898875D01*
X161635034Y-38042164D01*
X161585687Y-38075952D01*
X161535850Y-38109064D01*
X161528749Y-38114938D01*
X161300904Y-38306124D01*
X161259060Y-38348854D01*
X161216605Y-38391013D01*
X161210781Y-38398154D01*
X161024408Y-38629955D01*
X160991680Y-38679969D01*
X160958202Y-38729602D01*
X160953876Y-38737739D01*
X160816077Y-39001325D01*
X160793672Y-39056781D01*
X160770488Y-39111932D01*
X160767825Y-39120754D01*
X160683847Y-39406085D01*
X160672642Y-39464825D01*
X160660609Y-39523442D01*
X160659710Y-39532614D01*
X160632753Y-39828822D01*
X160633171Y-39888639D01*
X160632753Y-39948456D01*
X160633652Y-39957627D01*
X160642461Y-40041435D01*
X160261640Y-40611374D01*
X159893285Y-41500660D01*
X159705500Y-42444722D01*
X159705500Y-43407278D01*
X159893285Y-44351340D01*
X160261640Y-45240626D01*
X160796407Y-46040962D01*
X161477038Y-46721593D01*
X162277374Y-47256360D01*
X163166660Y-47624715D01*
X163567317Y-47704410D01*
X164041458Y-47957844D01*
X164842963Y-48200978D01*
X165467619Y-48262501D01*
X165467628Y-48262501D01*
X165676500Y-48283073D01*
X165885372Y-48262501D01*
X167868747Y-48262501D01*
X167513285Y-49120660D01*
X167325500Y-50064722D01*
X167325500Y-51027278D01*
X167513285Y-51971340D01*
X167881640Y-52860626D01*
X168416407Y-53660962D01*
X169097038Y-54341593D01*
X169897374Y-54876360D01*
X170786660Y-55244715D01*
X171730722Y-55432500D01*
X172693278Y-55432500D01*
X173637340Y-55244715D01*
X174526626Y-54876360D01*
X175326962Y-54341593D01*
X176007593Y-53660962D01*
X176542360Y-52860626D01*
X176720155Y-52431391D01*
X184551683Y-60262919D01*
X184684835Y-60425165D01*
X184847081Y-60558317D01*
X184847083Y-60558319D01*
X185332285Y-60956515D01*
X185637252Y-61119523D01*
X186070957Y-61351343D01*
X186872462Y-61594477D01*
X187497118Y-61656000D01*
X187497128Y-61656000D01*
X187706000Y-61676572D01*
X187914872Y-61656000D01*
X190697150Y-61656000D01*
X190507285Y-61757485D01*
X190041009Y-62140149D01*
X189859835Y-62288835D01*
X189726683Y-62451081D01*
X185101082Y-67076683D01*
X184938836Y-67209835D01*
X184805684Y-67372081D01*
X184805681Y-67372084D01*
X184407485Y-67857286D01*
X184154192Y-68331165D01*
X184012658Y-68595957D01*
X183769524Y-69397462D01*
X183708000Y-70022118D01*
X183708000Y-70022128D01*
X183687428Y-70231000D01*
X183708000Y-70439872D01*
X183708000Y-72550470D01*
X183124500Y-72493000D01*
X182635500Y-72493000D01*
X181904337Y-72565013D01*
X181610000Y-72654299D01*
X181315663Y-72565013D01*
X180584500Y-72493000D01*
X180095500Y-72493000D01*
X179364337Y-72565013D01*
X179070000Y-72654299D01*
X178775663Y-72565013D01*
X178044500Y-72493000D01*
X177555500Y-72493000D01*
X176824337Y-72565013D01*
X176530000Y-72654299D01*
X176235663Y-72565013D01*
X175504500Y-72493000D01*
X175015500Y-72493000D01*
X174284337Y-72565013D01*
X173990000Y-72654299D01*
X173695663Y-72565013D01*
X172964500Y-72493000D01*
X172475500Y-72493000D01*
X171744337Y-72565013D01*
X171450000Y-72654299D01*
X171155663Y-72565013D01*
X170424500Y-72493000D01*
X169935500Y-72493000D01*
X169204337Y-72565013D01*
X168910000Y-72654299D01*
X168615663Y-72565013D01*
X167884500Y-72493000D01*
X167395500Y-72493000D01*
X166664337Y-72565013D01*
X166370000Y-72654299D01*
X166075663Y-72565013D01*
X165344500Y-72493000D01*
X164855500Y-72493000D01*
X164124337Y-72565013D01*
X163830000Y-72654299D01*
X163535663Y-72565013D01*
X162804500Y-72493000D01*
X162315500Y-72493000D01*
X161584337Y-72565013D01*
X161290000Y-72654299D01*
X160995663Y-72565013D01*
X160264500Y-72493000D01*
X159775500Y-72493000D01*
X159044337Y-72565013D01*
X158750000Y-72654299D01*
X158455663Y-72565013D01*
X157724500Y-72493000D01*
X157235500Y-72493000D01*
X156504337Y-72565013D01*
X156210000Y-72654299D01*
X155915663Y-72565013D01*
X155184500Y-72493000D01*
X154695500Y-72493000D01*
X153964337Y-72565013D01*
X153670000Y-72654299D01*
X153375663Y-72565013D01*
X152644500Y-72493000D01*
X152155500Y-72493000D01*
X151424337Y-72565013D01*
X150486169Y-72849604D01*
X149621548Y-73311753D01*
X148863702Y-73933702D01*
X148825706Y-73980000D01*
X145926358Y-73980000D01*
X146533101Y-73373257D01*
X147137964Y-72468016D01*
X147237796Y-72227000D01*
X147820343Y-72227000D01*
X148762569Y-72039580D01*
X149650126Y-71671942D01*
X150448906Y-71138213D01*
X151128213Y-70458906D01*
X151661942Y-69660126D01*
X152029580Y-68772569D01*
X152217000Y-67830343D01*
X152217000Y-66869657D01*
X152107468Y-66319000D01*
X163735419Y-66319000D01*
X163769037Y-66315689D01*
X163790456Y-66315689D01*
X163799621Y-66314726D01*
X164119831Y-66278809D01*
X164178332Y-66266374D01*
X164237024Y-66254753D01*
X164245819Y-66252030D01*
X164245826Y-66252028D01*
X164245832Y-66252025D01*
X164552963Y-66154597D01*
X164607900Y-66131051D01*
X164663249Y-66108238D01*
X164671355Y-66103855D01*
X164953718Y-65948625D01*
X165003074Y-65914830D01*
X165052901Y-65881725D01*
X165060001Y-65875851D01*
X165306835Y-65668733D01*
X165348698Y-65625984D01*
X165391132Y-65583845D01*
X165396956Y-65576703D01*
X165598860Y-65325586D01*
X165631613Y-65275534D01*
X165665066Y-65225939D01*
X165669389Y-65217807D01*
X165669392Y-65217803D01*
X165669394Y-65217799D01*
X165818675Y-64932251D01*
X165841081Y-64876793D01*
X165864265Y-64821642D01*
X165866928Y-64812820D01*
X165957904Y-64503711D01*
X165969114Y-64444945D01*
X165981141Y-64386357D01*
X165982040Y-64377185D01*
X165985357Y-64340740D01*
X166371855Y-64727238D01*
X167219771Y-65293798D01*
X168161925Y-65684051D01*
X169162110Y-65883000D01*
X170181890Y-65883000D01*
X171182075Y-65684051D01*
X172124229Y-65293798D01*
X172172000Y-65261878D01*
X172219771Y-65293798D01*
X173161925Y-65684051D01*
X174162110Y-65883000D01*
X175181890Y-65883000D01*
X176182075Y-65684051D01*
X177124229Y-65293798D01*
X177972145Y-64727238D01*
X178693238Y-64006145D01*
X179259798Y-63158229D01*
X179650051Y-62216075D01*
X179849000Y-61215890D01*
X179849000Y-60196110D01*
X179650051Y-59195925D01*
X179259798Y-58253771D01*
X178693238Y-57405855D01*
X177972145Y-56684762D01*
X177124229Y-56118202D01*
X176182075Y-55727949D01*
X175181890Y-55529000D01*
X174162110Y-55529000D01*
X173161925Y-55727949D01*
X172219771Y-56118202D01*
X172172000Y-56150122D01*
X172124229Y-56118202D01*
X171182075Y-55727949D01*
X170181890Y-55529000D01*
X169162110Y-55529000D01*
X168161925Y-55727949D01*
X167219771Y-56118202D01*
X166371855Y-56684762D01*
X165650762Y-57405855D01*
X165084202Y-58253771D01*
X164693949Y-59195925D01*
X164495000Y-60196110D01*
X164495000Y-61215890D01*
X164629849Y-61893821D01*
X164586681Y-61876029D01*
X164531710Y-61852468D01*
X164522907Y-61849743D01*
X164214441Y-61756612D01*
X164155754Y-61744992D01*
X164097251Y-61732556D01*
X164088086Y-61731593D01*
X163767405Y-61700150D01*
X163767402Y-61700150D01*
X163735419Y-61697000D01*
X124681581Y-61697000D01*
X124647963Y-61700311D01*
X124626544Y-61700311D01*
X124617379Y-61701274D01*
X124297169Y-61737191D01*
X124238675Y-61749624D01*
X124179975Y-61761247D01*
X124171178Y-61763971D01*
X124171174Y-61763972D01*
X124171171Y-61763973D01*
X124171172Y-61763973D01*
X123864037Y-61861403D01*
X123809100Y-61884949D01*
X123753751Y-61907762D01*
X123745645Y-61912145D01*
X123463282Y-62067375D01*
X123413926Y-62101170D01*
X123364099Y-62134275D01*
X123356999Y-62140149D01*
X123110166Y-62347267D01*
X123068322Y-62389997D01*
X123025868Y-62432155D01*
X123020044Y-62439296D01*
X122818140Y-62690414D01*
X122785404Y-62740439D01*
X122751933Y-62790061D01*
X122747607Y-62798198D01*
X122598325Y-63083750D01*
X122575929Y-63139182D01*
X122552735Y-63194358D01*
X122550072Y-63203180D01*
X122459097Y-63512288D01*
X122447899Y-63570994D01*
X122435859Y-63629643D01*
X122434960Y-63638815D01*
X122405756Y-63959708D01*
X122406174Y-64019525D01*
X122405756Y-64079343D01*
X122406656Y-64088515D01*
X122440337Y-64408968D01*
X122452360Y-64467542D01*
X122463574Y-64526326D01*
X122466238Y-64535148D01*
X122561520Y-64842956D01*
X122584694Y-64898082D01*
X122607109Y-64953564D01*
X122611436Y-64961700D01*
X122764691Y-65245140D01*
X122798158Y-65294756D01*
X122830896Y-65344786D01*
X122836720Y-65351927D01*
X123042110Y-65600201D01*
X123084546Y-65642341D01*
X123126409Y-65685091D01*
X123133510Y-65690964D01*
X123383211Y-65894616D01*
X123433020Y-65927708D01*
X123482392Y-65961515D01*
X123490499Y-65965898D01*
X123775001Y-66117171D01*
X123830307Y-66139966D01*
X123885290Y-66163532D01*
X123894093Y-66166257D01*
X124202558Y-66259388D01*
X124261261Y-66271011D01*
X124319750Y-66283444D01*
X124328914Y-66284407D01*
X124649596Y-66315850D01*
X124649598Y-66315850D01*
X124681581Y-66319000D01*
X132133441Y-66319000D01*
X132106835Y-66340835D01*
X131575485Y-66988286D01*
X131180657Y-67726958D01*
X130937523Y-68528463D01*
X130876000Y-69153119D01*
X130876000Y-69153128D01*
X130855428Y-69362000D01*
X130876000Y-69570872D01*
X130876001Y-78235763D01*
X125411086Y-83700678D01*
X125248835Y-83833835D01*
X124717485Y-84481286D01*
X124378654Y-85115195D01*
X124366068Y-85121922D01*
X123737651Y-85637651D01*
X123221922Y-86266068D01*
X122838701Y-86983024D01*
X122602715Y-87760967D01*
X122523032Y-88570000D01*
X122523032Y-91770000D01*
X122602715Y-92579033D01*
X122838701Y-93356976D01*
X123221922Y-94073932D01*
X123737651Y-94702349D01*
X124366068Y-95218078D01*
X125083024Y-95601299D01*
X125860967Y-95837285D01*
X126670000Y-95916968D01*
X129870000Y-95916968D01*
X130679033Y-95837285D01*
X131456976Y-95601299D01*
X132173932Y-95218078D01*
X132802349Y-94702349D01*
X133318078Y-94073932D01*
X133701299Y-93356976D01*
X133937285Y-92579033D01*
X134016968Y-91770000D01*
X134016968Y-88570000D01*
X133937285Y-87760967D01*
X133806944Y-87331291D01*
X135263000Y-85875236D01*
X136320682Y-86932918D01*
X136453835Y-87095165D01*
X136616081Y-87228317D01*
X136616083Y-87228319D01*
X136800279Y-87379485D01*
X137101286Y-87626515D01*
X137839957Y-88021343D01*
X138148681Y-88114993D01*
X137865865Y-89047312D01*
X137755290Y-90170000D01*
X137865865Y-91292688D01*
X138193341Y-92372232D01*
X138725134Y-93367146D01*
X139277411Y-94040097D01*
X139090957Y-94096657D01*
X138352285Y-94491485D01*
X137867084Y-94889680D01*
X137867083Y-94889681D01*
X137704835Y-95022835D01*
X137571683Y-95185081D01*
X134962429Y-97794336D01*
X134340000Y-97733032D01*
X132360000Y-97733032D01*
X131550967Y-97812715D01*
X130773024Y-98048701D01*
X130056068Y-98431922D01*
X129427651Y-98947651D01*
X128911922Y-99576068D01*
X128528701Y-100293024D01*
X128465546Y-100501218D01*
X124686251Y-104280514D01*
X124553932Y-104171922D01*
X123836976Y-103788701D01*
X123059033Y-103552715D01*
X122250000Y-103473032D01*
X119050000Y-103473032D01*
X118240967Y-103552715D01*
X117463024Y-103788701D01*
X116746068Y-104171922D01*
X116117651Y-104687651D01*
X115601922Y-105316068D01*
X115218701Y-106033024D01*
X114982715Y-106810967D01*
X114903032Y-107620000D01*
X114903032Y-109794000D01*
X111108176Y-109794000D01*
X111137252Y-109498788D01*
X111502515Y-109053714D01*
X111897343Y-108315043D01*
X112140477Y-107513538D01*
X112202000Y-106888882D01*
X112202000Y-106888873D01*
X112222572Y-106680001D01*
X112202000Y-106471129D01*
X112202000Y-97224801D01*
X112271942Y-97120126D01*
X112639580Y-96232569D01*
X112827000Y-95290343D01*
X112827000Y-94329657D01*
X112639580Y-93387431D01*
X112271942Y-92499874D01*
X111738213Y-91701094D01*
X111058906Y-91021787D01*
X110260126Y-90488058D01*
X109372569Y-90120420D01*
X108430343Y-89933000D01*
X107469657Y-89933000D01*
X106527431Y-90120420D01*
X105639874Y-90488058D01*
X105535199Y-90558000D01*
X105364801Y-90558000D01*
X105260126Y-90488058D01*
X104372569Y-90120420D01*
X103430343Y-89933000D01*
X102469657Y-89933000D01*
X101527431Y-90120420D01*
X100639874Y-90488058D01*
X99841094Y-91021787D01*
X99161787Y-91701094D01*
X98628058Y-92499874D01*
X98260420Y-93387431D01*
X98073000Y-94329657D01*
X98073000Y-95290343D01*
X98260420Y-96232569D01*
X98628058Y-97120126D01*
X99161787Y-97918906D01*
X99841094Y-98598213D01*
X100639874Y-99131942D01*
X101527431Y-99499580D01*
X102469657Y-99687000D01*
X103430343Y-99687000D01*
X103698000Y-99633760D01*
X103698001Y-103754631D01*
X103207768Y-103903341D01*
X102212854Y-104435134D01*
X102054231Y-104565313D01*
X102042000Y-104441127D01*
X102042000Y-104441118D01*
X101980477Y-103816462D01*
X101737343Y-103014957D01*
X101342515Y-102276286D01*
X101091692Y-101970658D01*
X100944319Y-101791083D01*
X100944317Y-101791081D01*
X100811165Y-101628835D01*
X100648919Y-101495683D01*
X92664141Y-93510905D01*
X92639580Y-93387431D01*
X92271942Y-92499874D01*
X91738213Y-91701094D01*
X91058906Y-91021787D01*
X90260126Y-90488058D01*
X89372569Y-90120420D01*
X88430343Y-89933000D01*
X87469657Y-89933000D01*
X86527431Y-90120420D01*
X85639874Y-90488058D01*
X85535199Y-90558000D01*
X85364801Y-90558000D01*
X85260126Y-90488058D01*
X84372569Y-90120420D01*
X83430343Y-89933000D01*
X82469657Y-89933000D01*
X81527431Y-90120420D01*
X80639874Y-90488058D01*
X79841094Y-91021787D01*
X79161787Y-91701094D01*
X78628058Y-92499874D01*
X78260420Y-93387431D01*
X78073000Y-94329657D01*
X78073000Y-95290343D01*
X78260420Y-96232569D01*
X78628058Y-97120126D01*
X79161787Y-97918906D01*
X79841094Y-98598213D01*
X80639874Y-99131942D01*
X81527431Y-99499580D01*
X82469657Y-99687000D01*
X83430343Y-99687000D01*
X84372569Y-99499580D01*
X85260126Y-99131942D01*
X85364801Y-99062000D01*
X85535199Y-99062000D01*
X85639874Y-99131942D01*
X86527431Y-99499580D01*
X86650905Y-99524141D01*
X93070261Y-105943497D01*
X93005134Y-106022854D01*
X92473341Y-107017768D01*
X92145865Y-108097312D01*
X92035290Y-109220000D01*
X92091824Y-109794000D01*
X90987236Y-109794000D01*
X88240565Y-107047330D01*
X88217285Y-106810967D01*
X87981299Y-106033024D01*
X87598078Y-105316068D01*
X87082349Y-104687651D01*
X86453932Y-104171922D01*
X85736976Y-103788701D01*
X84959033Y-103552715D01*
X84150000Y-103473032D01*
X80950000Y-103473032D01*
X80140967Y-103552715D01*
X79363024Y-103788701D01*
X78646068Y-104171922D01*
X78017651Y-104687651D01*
X77501922Y-105316068D01*
X77118701Y-106033024D01*
X76882715Y-106810967D01*
X76803032Y-107620000D01*
X76803032Y-110820000D01*
X76882715Y-111629033D01*
X77118701Y-112406976D01*
X77501922Y-113123932D01*
X78017651Y-113752349D01*
X78435864Y-114095568D01*
X77765134Y-114912854D01*
X77233341Y-115907768D01*
X76905865Y-116987312D01*
X76795290Y-118110000D01*
X76905865Y-119232688D01*
X77233341Y-120312232D01*
X77765134Y-121307146D01*
X78480806Y-122179194D01*
X78861098Y-122491292D01*
X78997485Y-122746455D01*
X79395681Y-123231657D01*
X79395684Y-123231660D01*
X79528836Y-123393906D01*
X79691082Y-123527058D01*
X79964024Y-123800000D01*
X66700000Y-123800000D01*
X66700000Y-120133314D01*
X67436905Y-120133314D01*
X67436905Y-120658686D01*
X67539400Y-121173963D01*
X67740451Y-121659343D01*
X68032332Y-122096174D01*
X68403826Y-122467668D01*
X68840657Y-122759549D01*
X69326037Y-122960600D01*
X69841314Y-123063095D01*
X70366686Y-123063095D01*
X70881963Y-122960600D01*
X71367343Y-122759549D01*
X71804174Y-122467668D01*
X72175668Y-122096174D01*
X72467549Y-121659343D01*
X72668600Y-121173963D01*
X72771095Y-120658686D01*
X72771095Y-120133314D01*
X72668600Y-119618037D01*
X72467549Y-119132657D01*
X72175668Y-118695826D01*
X71804174Y-118324332D01*
X71367343Y-118032451D01*
X70881963Y-117831400D01*
X70366686Y-117728905D01*
X69841314Y-117728905D01*
X69326037Y-117831400D01*
X68840657Y-118032451D01*
X68403826Y-118324332D01*
X68032332Y-118695826D01*
X67740451Y-119132657D01*
X67539400Y-119618037D01*
X67436905Y-120133314D01*
X66700000Y-120133314D01*
X66700000Y-66829657D01*
X78073000Y-66829657D01*
X78073000Y-67790343D01*
X78260420Y-68732569D01*
X78628058Y-69620126D01*
X79161787Y-70418906D01*
X79841094Y-71098213D01*
X80639874Y-71631942D01*
X81527431Y-71999580D01*
X82469657Y-72187000D01*
X83430343Y-72187000D01*
X84372569Y-71999580D01*
X85260126Y-71631942D01*
X86058906Y-71098213D01*
X86738213Y-70418906D01*
X87271942Y-69620126D01*
X87639580Y-68732569D01*
X87827000Y-67790343D01*
X87827000Y-66829657D01*
X103073000Y-66829657D01*
X103073000Y-67790343D01*
X103260420Y-68732569D01*
X103628058Y-69620126D01*
X104161787Y-70418906D01*
X104841094Y-71098213D01*
X105639874Y-71631942D01*
X106527431Y-71999580D01*
X107469657Y-72187000D01*
X108430343Y-72187000D01*
X109372569Y-71999580D01*
X110260126Y-71631942D01*
X111058906Y-71098213D01*
X111738213Y-70418906D01*
X112271942Y-69620126D01*
X112639580Y-68732569D01*
X112827000Y-67790343D01*
X112827000Y-66829657D01*
X112639580Y-65887431D01*
X112271942Y-64999874D01*
X111738213Y-64201094D01*
X111058906Y-63521787D01*
X110260126Y-62988058D01*
X109372569Y-62620420D01*
X108430343Y-62433000D01*
X107469657Y-62433000D01*
X106527431Y-62620420D01*
X105639874Y-62988058D01*
X104841094Y-63521787D01*
X104161787Y-64201094D01*
X103628058Y-64999874D01*
X103260420Y-65887431D01*
X103073000Y-66829657D01*
X87827000Y-66829657D01*
X87639580Y-65887431D01*
X87271942Y-64999874D01*
X86738213Y-64201094D01*
X86058906Y-63521787D01*
X85260126Y-62988058D01*
X84372569Y-62620420D01*
X83430343Y-62433000D01*
X82469657Y-62433000D01*
X81527431Y-62620420D01*
X80639874Y-62988058D01*
X79841094Y-63521787D01*
X79161787Y-64201094D01*
X78628058Y-64999874D01*
X78260420Y-65887431D01*
X78073000Y-66829657D01*
X66700000Y-66829657D01*
X66700000Y-54105638D01*
X127813000Y-54105638D01*
X127813000Y-55194362D01*
X128025399Y-56262166D01*
X128442036Y-57268016D01*
X129046899Y-58173257D01*
X129816743Y-58943101D01*
X130721984Y-59547964D01*
X131727834Y-59964601D01*
X132795638Y-60177000D01*
X133884362Y-60177000D01*
X134952166Y-59964601D01*
X135958016Y-59547964D01*
X136863257Y-58943101D01*
X137633101Y-58173257D01*
X138237964Y-57268016D01*
X138654601Y-56262166D01*
X138867000Y-55194362D01*
X138867000Y-54105638D01*
X138654601Y-53037834D01*
X138237964Y-52031984D01*
X137633101Y-51126743D01*
X136863257Y-50356899D01*
X135958016Y-49752036D01*
X134952166Y-49335399D01*
X133884362Y-49123000D01*
X132795638Y-49123000D01*
X131727834Y-49335399D01*
X130721984Y-49752036D01*
X129816743Y-50356899D01*
X129046899Y-51126743D01*
X128442036Y-52031984D01*
X128025399Y-53037834D01*
X127813000Y-54105638D01*
X66700000Y-54105638D01*
X66700000Y-46891066D01*
X77748539Y-46891066D01*
X77850339Y-47160579D01*
X78148477Y-47306463D01*
X78469346Y-47391380D01*
X78800617Y-47412066D01*
X79129557Y-47367728D01*
X79443527Y-47260069D01*
X79629661Y-47160579D01*
X79731461Y-46891066D01*
X82748539Y-46891066D01*
X82850339Y-47160579D01*
X83148477Y-47306463D01*
X83469346Y-47391380D01*
X83800617Y-47412066D01*
X84129557Y-47367728D01*
X84443527Y-47260069D01*
X84629661Y-47160579D01*
X84731461Y-46891066D01*
X83740000Y-45899605D01*
X82748539Y-46891066D01*
X79731461Y-46891066D01*
X78740000Y-45899605D01*
X77748539Y-46891066D01*
X66700000Y-46891066D01*
X66700000Y-45780617D01*
X77047934Y-45780617D01*
X77092272Y-46109557D01*
X77199931Y-46423527D01*
X77299421Y-46609661D01*
X77568934Y-46711461D01*
X78560395Y-45720000D01*
X78919605Y-45720000D01*
X79911066Y-46711461D01*
X80180579Y-46609661D01*
X80326463Y-46311523D01*
X80411380Y-45990654D01*
X80424495Y-45780617D01*
X82047934Y-45780617D01*
X82092272Y-46109557D01*
X82199931Y-46423527D01*
X82299421Y-46609661D01*
X82568934Y-46711461D01*
X83560395Y-45720000D01*
X83919605Y-45720000D01*
X84911066Y-46711461D01*
X85180579Y-46609661D01*
X85326463Y-46311523D01*
X85411380Y-45990654D01*
X85432066Y-45659383D01*
X85387728Y-45330443D01*
X85346467Y-45210110D01*
X92867000Y-45210110D01*
X92867000Y-46229890D01*
X93065949Y-47230075D01*
X93456202Y-48172229D01*
X94022762Y-49020145D01*
X94743855Y-49741238D01*
X95591771Y-50307798D01*
X96533925Y-50698051D01*
X97534110Y-50897000D01*
X98553890Y-50897000D01*
X99554075Y-50698051D01*
X100496229Y-50307798D01*
X100544000Y-50275878D01*
X100591771Y-50307798D01*
X101533925Y-50698051D01*
X102534110Y-50897000D01*
X103553890Y-50897000D01*
X104554075Y-50698051D01*
X105496229Y-50307798D01*
X106344145Y-49741238D01*
X107065238Y-49020145D01*
X107631798Y-48172229D01*
X108022051Y-47230075D01*
X108221000Y-46229890D01*
X108221000Y-45210110D01*
X112298000Y-45210110D01*
X112298000Y-46229890D01*
X112496949Y-47230075D01*
X112887202Y-48172229D01*
X113453762Y-49020145D01*
X114174855Y-49741238D01*
X115022771Y-50307798D01*
X115964925Y-50698051D01*
X116965110Y-50897000D01*
X117984890Y-50897000D01*
X118985075Y-50698051D01*
X119927229Y-50307798D01*
X119975000Y-50275878D01*
X120022771Y-50307798D01*
X120964925Y-50698051D01*
X121965110Y-50897000D01*
X122984890Y-50897000D01*
X123985075Y-50698051D01*
X124927229Y-50307798D01*
X125775145Y-49741238D01*
X126496238Y-49020145D01*
X127062798Y-48172229D01*
X127453051Y-47230075D01*
X127652000Y-46229890D01*
X127652000Y-45210110D01*
X127453051Y-44209925D01*
X127368433Y-44005638D01*
X145613000Y-44005638D01*
X145613000Y-45094362D01*
X145825399Y-46162166D01*
X146242036Y-47168016D01*
X146846899Y-48073257D01*
X147123642Y-48350000D01*
X146846899Y-48626743D01*
X146242036Y-49531984D01*
X145825399Y-50537834D01*
X145613000Y-51605638D01*
X145613000Y-52694362D01*
X145825399Y-53762166D01*
X146242036Y-54768016D01*
X146846899Y-55673257D01*
X147616743Y-56443101D01*
X148521984Y-57047964D01*
X149527834Y-57464601D01*
X150595638Y-57677000D01*
X151684362Y-57677000D01*
X152752166Y-57464601D01*
X153758016Y-57047964D01*
X154663257Y-56443101D01*
X155433101Y-55673257D01*
X156037964Y-54768016D01*
X156454601Y-53762166D01*
X156667000Y-52694362D01*
X156667000Y-51605638D01*
X156454601Y-50537834D01*
X156037964Y-49531984D01*
X155433101Y-48626743D01*
X155156358Y-48350000D01*
X155433101Y-48073257D01*
X156037964Y-47168016D01*
X156454601Y-46162166D01*
X156667000Y-45094362D01*
X156667000Y-44005638D01*
X156454601Y-42937834D01*
X156037964Y-41931984D01*
X155433101Y-41026743D01*
X154663257Y-40256899D01*
X153758016Y-39652036D01*
X152752166Y-39235399D01*
X151684362Y-39023000D01*
X150595638Y-39023000D01*
X149527834Y-39235399D01*
X148521984Y-39652036D01*
X147616743Y-40256899D01*
X146846899Y-41026743D01*
X146242036Y-41931984D01*
X145825399Y-42937834D01*
X145613000Y-44005638D01*
X127368433Y-44005638D01*
X127062798Y-43267771D01*
X126496238Y-42419855D01*
X125775145Y-41698762D01*
X124927229Y-41132202D01*
X123985075Y-40741949D01*
X122984890Y-40543000D01*
X121965110Y-40543000D01*
X120964925Y-40741949D01*
X120022771Y-41132202D01*
X119975000Y-41164122D01*
X119927229Y-41132202D01*
X118985075Y-40741949D01*
X117984890Y-40543000D01*
X116965110Y-40543000D01*
X115964925Y-40741949D01*
X115022771Y-41132202D01*
X114174855Y-41698762D01*
X113453762Y-42419855D01*
X112887202Y-43267771D01*
X112496949Y-44209925D01*
X112298000Y-45210110D01*
X108221000Y-45210110D01*
X108022051Y-44209925D01*
X107631798Y-43267771D01*
X107065238Y-42419855D01*
X106344145Y-41698762D01*
X105496229Y-41132202D01*
X104554075Y-40741949D01*
X103553890Y-40543000D01*
X102534110Y-40543000D01*
X101533925Y-40741949D01*
X100591771Y-41132202D01*
X100544000Y-41164122D01*
X100496229Y-41132202D01*
X99554075Y-40741949D01*
X98553890Y-40543000D01*
X97534110Y-40543000D01*
X96533925Y-40741949D01*
X95591771Y-41132202D01*
X94743855Y-41698762D01*
X94022762Y-42419855D01*
X93456202Y-43267771D01*
X93065949Y-44209925D01*
X92867000Y-45210110D01*
X85346467Y-45210110D01*
X85280069Y-45016473D01*
X85180579Y-44830339D01*
X84911066Y-44728539D01*
X83919605Y-45720000D01*
X83560395Y-45720000D01*
X82568934Y-44728539D01*
X82299421Y-44830339D01*
X82153537Y-45128477D01*
X82068620Y-45449346D01*
X82047934Y-45780617D01*
X80424495Y-45780617D01*
X80432066Y-45659383D01*
X80387728Y-45330443D01*
X80280069Y-45016473D01*
X80180579Y-44830339D01*
X79911066Y-44728539D01*
X78919605Y-45720000D01*
X78560395Y-45720000D01*
X77568934Y-44728539D01*
X77299421Y-44830339D01*
X77153537Y-45128477D01*
X77068620Y-45449346D01*
X77047934Y-45780617D01*
X66700000Y-45780617D01*
X66700000Y-44548934D01*
X77748539Y-44548934D01*
X78740000Y-45540395D01*
X79731461Y-44548934D01*
X82748539Y-44548934D01*
X83740000Y-45540395D01*
X84731461Y-44548934D01*
X84629661Y-44279421D01*
X84331523Y-44133537D01*
X84010654Y-44048620D01*
X83679383Y-44027934D01*
X83350443Y-44072272D01*
X83036473Y-44179931D01*
X82850339Y-44279421D01*
X82748539Y-44548934D01*
X79731461Y-44548934D01*
X79629661Y-44279421D01*
X79331523Y-44133537D01*
X79010654Y-44048620D01*
X78679383Y-44027934D01*
X78350443Y-44072272D01*
X78036473Y-44179931D01*
X77850339Y-44279421D01*
X77748539Y-44548934D01*
X66700000Y-44548934D01*
X66700000Y-40631314D01*
X67404905Y-40631314D01*
X67404905Y-41156686D01*
X67507400Y-41671963D01*
X67708451Y-42157343D01*
X68000332Y-42594174D01*
X68371826Y-42965668D01*
X68808657Y-43257549D01*
X69294037Y-43458600D01*
X69809314Y-43561095D01*
X70334686Y-43561095D01*
X70849963Y-43458600D01*
X71335343Y-43257549D01*
X71772174Y-42965668D01*
X72143668Y-42594174D01*
X72435549Y-42157343D01*
X72636600Y-41671963D01*
X72739095Y-41156686D01*
X72739095Y-40631314D01*
X72636600Y-40116037D01*
X72435549Y-39630657D01*
X72143668Y-39193826D01*
X71772174Y-38822332D01*
X71335343Y-38530451D01*
X70849963Y-38329400D01*
X70334686Y-38226905D01*
X69809314Y-38226905D01*
X69294037Y-38329400D01*
X68808657Y-38530451D01*
X68371826Y-38822332D01*
X68000332Y-39193826D01*
X67708451Y-39630657D01*
X67507400Y-40116037D01*
X67404905Y-40631314D01*
X66700000Y-40631314D01*
X66700000Y-32410000D01*
X221590001Y-32410000D01*
X221590000Y-34322418D01*
M02*
